G04 #@! TF.GenerationSoftware,KiCad,Pcbnew,5.1.5+dfsg1-2build2*
G04 #@! TF.CreationDate,2020-08-20T20:04:08+02:00*
G04 #@! TF.ProjectId,lensmount-v1,6c656e73-6d6f-4756-9e74-2d76312e6b69,rev?*
G04 #@! TF.SameCoordinates,Original*
G04 #@! TF.FileFunction,Soldermask,Bot*
G04 #@! TF.FilePolarity,Negative*
%FSLAX46Y46*%
G04 Gerber Fmt 4.6, Leading zero omitted, Abs format (unit mm)*
G04 Created by KiCad (PCBNEW 5.1.5+dfsg1-2build2) date 2020-08-20 20:04:08*
%MOMM*%
%LPD*%
G04 APERTURE LIST*
%ADD10C,0.100000*%
%ADD11R,0.800000X0.900000*%
%ADD12R,0.600000X0.500000*%
%ADD13R,0.500000X0.600000*%
%ADD14C,0.985520*%
%ADD15C,0.988060*%
%ADD16C,0.784860*%
%ADD17R,0.500000X0.500000*%
%ADD18R,0.600000X0.900000*%
%ADD19R,0.900000X0.600000*%
%ADD20R,1.450000X0.600000*%
%ADD21O,2.100000X1.000000*%
%ADD22O,1.600000X1.000000*%
%ADD23C,0.650000*%
%ADD24R,1.450000X0.300000*%
%ADD25C,1.800000*%
G04 APERTURE END LIST*
D10*
G36*
X76067140Y-107773241D02*
G01*
X76526759Y-108232860D01*
X75777226Y-108982393D01*
X75317607Y-108522774D01*
X76067140Y-107773241D01*
G37*
G36*
X75395388Y-107101490D02*
G01*
X75855007Y-107561109D01*
X75105474Y-108310642D01*
X74645855Y-107851023D01*
X75395388Y-107101490D01*
G37*
G36*
X76738891Y-108444993D02*
G01*
X77198510Y-108904612D01*
X76448977Y-109654145D01*
X75989358Y-109194526D01*
X76738891Y-108444993D01*
G37*
G36*
X78294526Y-106889358D02*
G01*
X78754145Y-107348977D01*
X78004612Y-108098510D01*
X77544993Y-107638891D01*
X78294526Y-106889358D01*
G37*
G36*
X77622774Y-106217607D02*
G01*
X78082393Y-106677226D01*
X77332860Y-107426759D01*
X76873241Y-106967140D01*
X77622774Y-106217607D01*
G37*
G36*
X76951023Y-105545855D02*
G01*
X77410642Y-106005474D01*
X76661109Y-106755007D01*
X76201490Y-106295388D01*
X76951023Y-105545855D01*
G37*
D11*
X74646447Y-109570711D03*
X73696447Y-111570711D03*
X75596447Y-111570711D03*
D12*
X91000000Y-124870000D03*
X91000000Y-123930000D03*
X109200000Y-122830000D03*
X109200000Y-123770000D03*
X102200000Y-123830000D03*
X102200000Y-124770000D03*
X105700000Y-123230000D03*
X105700000Y-124170000D03*
D13*
X107530000Y-127100000D03*
X108470000Y-127100000D03*
X100530000Y-128200000D03*
X101470000Y-128200000D03*
X104030000Y-127600000D03*
X104970000Y-127600000D03*
D12*
X77200000Y-97870000D03*
X77200000Y-96930000D03*
X77200000Y-101030000D03*
X77200000Y-101970000D03*
D11*
X108000000Y-123900000D03*
X107050000Y-125900000D03*
X108950000Y-125900000D03*
X101000000Y-125000000D03*
X100050000Y-127000000D03*
X101950000Y-127000000D03*
X104500000Y-124400000D03*
X103550000Y-126400000D03*
X105450000Y-126400000D03*
D14*
X77085528Y-111322369D03*
X78522369Y-109885528D03*
D15*
X81396051Y-114196051D03*
D16*
X79150987Y-111052962D03*
X78252962Y-111950987D03*
X80049013Y-111950987D03*
X79150987Y-112849013D03*
X80947038Y-112849013D03*
X80049013Y-113747038D03*
D10*
G36*
X111396077Y-121933184D02*
G01*
X111420346Y-121936784D01*
X111444144Y-121942745D01*
X111467244Y-121951010D01*
X111489422Y-121961500D01*
X111510466Y-121974113D01*
X111530171Y-121988727D01*
X111548350Y-122005203D01*
X113316117Y-123772970D01*
X113332593Y-123791149D01*
X113347207Y-123810854D01*
X113359820Y-123831898D01*
X113370310Y-123854076D01*
X113378575Y-123877176D01*
X113384536Y-123900974D01*
X113388136Y-123925243D01*
X113389340Y-123949747D01*
X113388136Y-123974251D01*
X113384536Y-123998520D01*
X113378575Y-124022318D01*
X113370310Y-124045418D01*
X113359820Y-124067596D01*
X113347207Y-124088640D01*
X113332593Y-124108345D01*
X113316117Y-124126524D01*
X112184746Y-125257895D01*
X112166567Y-125274371D01*
X112146862Y-125288985D01*
X112125818Y-125301598D01*
X112103640Y-125312088D01*
X112080540Y-125320353D01*
X112056742Y-125326314D01*
X112032473Y-125329914D01*
X112007969Y-125331118D01*
X111983465Y-125329914D01*
X111959196Y-125326314D01*
X111935398Y-125320353D01*
X111912298Y-125312088D01*
X111890120Y-125301598D01*
X111869076Y-125288985D01*
X111849371Y-125274371D01*
X111831192Y-125257895D01*
X110063425Y-123490128D01*
X110046949Y-123471949D01*
X110032335Y-123452244D01*
X110019722Y-123431200D01*
X110009232Y-123409022D01*
X110000967Y-123385922D01*
X109995006Y-123362124D01*
X109991406Y-123337855D01*
X109990202Y-123313351D01*
X109991406Y-123288847D01*
X109995006Y-123264578D01*
X110000967Y-123240780D01*
X110009232Y-123217680D01*
X110019722Y-123195502D01*
X110032335Y-123174458D01*
X110046949Y-123154753D01*
X110063425Y-123136574D01*
X111194796Y-122005203D01*
X111212975Y-121988727D01*
X111232680Y-121974113D01*
X111253724Y-121961500D01*
X111275902Y-121951010D01*
X111299002Y-121942745D01*
X111322800Y-121936784D01*
X111347069Y-121933184D01*
X111371573Y-121931980D01*
X111396077Y-121933184D01*
G37*
G36*
X118537855Y-114791406D02*
G01*
X118562124Y-114795006D01*
X118585922Y-114800967D01*
X118609022Y-114809232D01*
X118631200Y-114819722D01*
X118652244Y-114832335D01*
X118671949Y-114846949D01*
X118690128Y-114863425D01*
X120457895Y-116631192D01*
X120474371Y-116649371D01*
X120488985Y-116669076D01*
X120501598Y-116690120D01*
X120512088Y-116712298D01*
X120520353Y-116735398D01*
X120526314Y-116759196D01*
X120529914Y-116783465D01*
X120531118Y-116807969D01*
X120529914Y-116832473D01*
X120526314Y-116856742D01*
X120520353Y-116880540D01*
X120512088Y-116903640D01*
X120501598Y-116925818D01*
X120488985Y-116946862D01*
X120474371Y-116966567D01*
X120457895Y-116984746D01*
X119326524Y-118116117D01*
X119308345Y-118132593D01*
X119288640Y-118147207D01*
X119267596Y-118159820D01*
X119245418Y-118170310D01*
X119222318Y-118178575D01*
X119198520Y-118184536D01*
X119174251Y-118188136D01*
X119149747Y-118189340D01*
X119125243Y-118188136D01*
X119100974Y-118184536D01*
X119077176Y-118178575D01*
X119054076Y-118170310D01*
X119031898Y-118159820D01*
X119010854Y-118147207D01*
X118991149Y-118132593D01*
X118972970Y-118116117D01*
X117205203Y-116348350D01*
X117188727Y-116330171D01*
X117174113Y-116310466D01*
X117161500Y-116289422D01*
X117151010Y-116267244D01*
X117142745Y-116244144D01*
X117136784Y-116220346D01*
X117133184Y-116196077D01*
X117131980Y-116171573D01*
X117133184Y-116147069D01*
X117136784Y-116122800D01*
X117142745Y-116099002D01*
X117151010Y-116075902D01*
X117161500Y-116053724D01*
X117174113Y-116032680D01*
X117188727Y-116012975D01*
X117205203Y-115994796D01*
X118336574Y-114863425D01*
X118354753Y-114846949D01*
X118374458Y-114832335D01*
X118395502Y-114819722D01*
X118417680Y-114809232D01*
X118440780Y-114800967D01*
X118464578Y-114795006D01*
X118488847Y-114791406D01*
X118513351Y-114790202D01*
X118537855Y-114791406D01*
G37*
G36*
X111391176Y-119225227D02*
G01*
X111410591Y-119228107D01*
X111429630Y-119232876D01*
X111448110Y-119239488D01*
X111465852Y-119247880D01*
X111482687Y-119257970D01*
X111498452Y-119269662D01*
X111512994Y-119282843D01*
X112149390Y-119919239D01*
X112162571Y-119933781D01*
X112174263Y-119949546D01*
X112184353Y-119966381D01*
X112192745Y-119984123D01*
X112199357Y-120002603D01*
X112204126Y-120021642D01*
X112207006Y-120041057D01*
X112207969Y-120060660D01*
X112207006Y-120080263D01*
X112204126Y-120099678D01*
X112199357Y-120118717D01*
X112192745Y-120137197D01*
X112184353Y-120154939D01*
X112174263Y-120171774D01*
X112162571Y-120187539D01*
X112149390Y-120202081D01*
X111866548Y-120484923D01*
X111852006Y-120498104D01*
X111836241Y-120509796D01*
X111819406Y-120519886D01*
X111801664Y-120528278D01*
X111783184Y-120534890D01*
X111764145Y-120539659D01*
X111744730Y-120542539D01*
X111725127Y-120543502D01*
X111705524Y-120542539D01*
X111686109Y-120539659D01*
X111667070Y-120534890D01*
X111648590Y-120528278D01*
X111630848Y-120519886D01*
X111614013Y-120509796D01*
X111598248Y-120498104D01*
X111583706Y-120484923D01*
X110947310Y-119848527D01*
X110934129Y-119833985D01*
X110922437Y-119818220D01*
X110912347Y-119801385D01*
X110903955Y-119783643D01*
X110897343Y-119765163D01*
X110892574Y-119746124D01*
X110889694Y-119726709D01*
X110888731Y-119707106D01*
X110889694Y-119687503D01*
X110892574Y-119668088D01*
X110897343Y-119649049D01*
X110903955Y-119630569D01*
X110912347Y-119612827D01*
X110922437Y-119595992D01*
X110934129Y-119580227D01*
X110947310Y-119565685D01*
X111230152Y-119282843D01*
X111244694Y-119269662D01*
X111260459Y-119257970D01*
X111277294Y-119247880D01*
X111295036Y-119239488D01*
X111313516Y-119232876D01*
X111332555Y-119228107D01*
X111351970Y-119225227D01*
X111371573Y-119224264D01*
X111391176Y-119225227D01*
G37*
G36*
X112275059Y-118341344D02*
G01*
X112294474Y-118344224D01*
X112313513Y-118348993D01*
X112331993Y-118355605D01*
X112349735Y-118363997D01*
X112366570Y-118374087D01*
X112382335Y-118385779D01*
X112396877Y-118398960D01*
X113033273Y-119035356D01*
X113046454Y-119049898D01*
X113058146Y-119065663D01*
X113068236Y-119082498D01*
X113076628Y-119100240D01*
X113083240Y-119118720D01*
X113088009Y-119137759D01*
X113090889Y-119157174D01*
X113091852Y-119176777D01*
X113090889Y-119196380D01*
X113088009Y-119215795D01*
X113083240Y-119234834D01*
X113076628Y-119253314D01*
X113068236Y-119271056D01*
X113058146Y-119287891D01*
X113046454Y-119303656D01*
X113033273Y-119318198D01*
X112750431Y-119601040D01*
X112735889Y-119614221D01*
X112720124Y-119625913D01*
X112703289Y-119636003D01*
X112685547Y-119644395D01*
X112667067Y-119651007D01*
X112648028Y-119655776D01*
X112628613Y-119658656D01*
X112609010Y-119659619D01*
X112589407Y-119658656D01*
X112569992Y-119655776D01*
X112550953Y-119651007D01*
X112532473Y-119644395D01*
X112514731Y-119636003D01*
X112497896Y-119625913D01*
X112482131Y-119614221D01*
X112467589Y-119601040D01*
X111831193Y-118964644D01*
X111818012Y-118950102D01*
X111806320Y-118934337D01*
X111796230Y-118917502D01*
X111787838Y-118899760D01*
X111781226Y-118881280D01*
X111776457Y-118862241D01*
X111773577Y-118842826D01*
X111772614Y-118823223D01*
X111773577Y-118803620D01*
X111776457Y-118784205D01*
X111781226Y-118765166D01*
X111787838Y-118746686D01*
X111796230Y-118728944D01*
X111806320Y-118712109D01*
X111818012Y-118696344D01*
X111831193Y-118681802D01*
X112114035Y-118398960D01*
X112128577Y-118385779D01*
X112144342Y-118374087D01*
X112161177Y-118363997D01*
X112178919Y-118355605D01*
X112197399Y-118348993D01*
X112216438Y-118344224D01*
X112235853Y-118341344D01*
X112255456Y-118340381D01*
X112275059Y-118341344D01*
G37*
G36*
X113158943Y-117457461D02*
G01*
X113178358Y-117460341D01*
X113197397Y-117465110D01*
X113215877Y-117471722D01*
X113233619Y-117480114D01*
X113250454Y-117490204D01*
X113266219Y-117501896D01*
X113280761Y-117515077D01*
X113917157Y-118151473D01*
X113930338Y-118166015D01*
X113942030Y-118181780D01*
X113952120Y-118198615D01*
X113960512Y-118216357D01*
X113967124Y-118234837D01*
X113971893Y-118253876D01*
X113974773Y-118273291D01*
X113975736Y-118292894D01*
X113974773Y-118312497D01*
X113971893Y-118331912D01*
X113967124Y-118350951D01*
X113960512Y-118369431D01*
X113952120Y-118387173D01*
X113942030Y-118404008D01*
X113930338Y-118419773D01*
X113917157Y-118434315D01*
X113634315Y-118717157D01*
X113619773Y-118730338D01*
X113604008Y-118742030D01*
X113587173Y-118752120D01*
X113569431Y-118760512D01*
X113550951Y-118767124D01*
X113531912Y-118771893D01*
X113512497Y-118774773D01*
X113492894Y-118775736D01*
X113473291Y-118774773D01*
X113453876Y-118771893D01*
X113434837Y-118767124D01*
X113416357Y-118760512D01*
X113398615Y-118752120D01*
X113381780Y-118742030D01*
X113366015Y-118730338D01*
X113351473Y-118717157D01*
X112715077Y-118080761D01*
X112701896Y-118066219D01*
X112690204Y-118050454D01*
X112680114Y-118033619D01*
X112671722Y-118015877D01*
X112665110Y-117997397D01*
X112660341Y-117978358D01*
X112657461Y-117958943D01*
X112656498Y-117939340D01*
X112657461Y-117919737D01*
X112660341Y-117900322D01*
X112665110Y-117881283D01*
X112671722Y-117862803D01*
X112680114Y-117845061D01*
X112690204Y-117828226D01*
X112701896Y-117812461D01*
X112715077Y-117797919D01*
X112997919Y-117515077D01*
X113012461Y-117501896D01*
X113028226Y-117490204D01*
X113045061Y-117480114D01*
X113062803Y-117471722D01*
X113081283Y-117465110D01*
X113100322Y-117460341D01*
X113119737Y-117457461D01*
X113139340Y-117456498D01*
X113158943Y-117457461D01*
G37*
G36*
X114042826Y-116573577D02*
G01*
X114062241Y-116576457D01*
X114081280Y-116581226D01*
X114099760Y-116587838D01*
X114117502Y-116596230D01*
X114134337Y-116606320D01*
X114150102Y-116618012D01*
X114164644Y-116631193D01*
X114801040Y-117267589D01*
X114814221Y-117282131D01*
X114825913Y-117297896D01*
X114836003Y-117314731D01*
X114844395Y-117332473D01*
X114851007Y-117350953D01*
X114855776Y-117369992D01*
X114858656Y-117389407D01*
X114859619Y-117409010D01*
X114858656Y-117428613D01*
X114855776Y-117448028D01*
X114851007Y-117467067D01*
X114844395Y-117485547D01*
X114836003Y-117503289D01*
X114825913Y-117520124D01*
X114814221Y-117535889D01*
X114801040Y-117550431D01*
X114518198Y-117833273D01*
X114503656Y-117846454D01*
X114487891Y-117858146D01*
X114471056Y-117868236D01*
X114453314Y-117876628D01*
X114434834Y-117883240D01*
X114415795Y-117888009D01*
X114396380Y-117890889D01*
X114376777Y-117891852D01*
X114357174Y-117890889D01*
X114337759Y-117888009D01*
X114318720Y-117883240D01*
X114300240Y-117876628D01*
X114282498Y-117868236D01*
X114265663Y-117858146D01*
X114249898Y-117846454D01*
X114235356Y-117833273D01*
X113598960Y-117196877D01*
X113585779Y-117182335D01*
X113574087Y-117166570D01*
X113563997Y-117149735D01*
X113555605Y-117131993D01*
X113548993Y-117113513D01*
X113544224Y-117094474D01*
X113541344Y-117075059D01*
X113540381Y-117055456D01*
X113541344Y-117035853D01*
X113544224Y-117016438D01*
X113548993Y-116997399D01*
X113555605Y-116978919D01*
X113563997Y-116961177D01*
X113574087Y-116944342D01*
X113585779Y-116928577D01*
X113598960Y-116914035D01*
X113881802Y-116631193D01*
X113896344Y-116618012D01*
X113912109Y-116606320D01*
X113928944Y-116596230D01*
X113946686Y-116587838D01*
X113965166Y-116581226D01*
X113984205Y-116576457D01*
X114003620Y-116573577D01*
X114023223Y-116572614D01*
X114042826Y-116573577D01*
G37*
G36*
X114926709Y-115689694D02*
G01*
X114946124Y-115692574D01*
X114965163Y-115697343D01*
X114983643Y-115703955D01*
X115001385Y-115712347D01*
X115018220Y-115722437D01*
X115033985Y-115734129D01*
X115048527Y-115747310D01*
X115684923Y-116383706D01*
X115698104Y-116398248D01*
X115709796Y-116414013D01*
X115719886Y-116430848D01*
X115728278Y-116448590D01*
X115734890Y-116467070D01*
X115739659Y-116486109D01*
X115742539Y-116505524D01*
X115743502Y-116525127D01*
X115742539Y-116544730D01*
X115739659Y-116564145D01*
X115734890Y-116583184D01*
X115728278Y-116601664D01*
X115719886Y-116619406D01*
X115709796Y-116636241D01*
X115698104Y-116652006D01*
X115684923Y-116666548D01*
X115402081Y-116949390D01*
X115387539Y-116962571D01*
X115371774Y-116974263D01*
X115354939Y-116984353D01*
X115337197Y-116992745D01*
X115318717Y-116999357D01*
X115299678Y-117004126D01*
X115280263Y-117007006D01*
X115260660Y-117007969D01*
X115241057Y-117007006D01*
X115221642Y-117004126D01*
X115202603Y-116999357D01*
X115184123Y-116992745D01*
X115166381Y-116984353D01*
X115149546Y-116974263D01*
X115133781Y-116962571D01*
X115119239Y-116949390D01*
X114482843Y-116312994D01*
X114469662Y-116298452D01*
X114457970Y-116282687D01*
X114447880Y-116265852D01*
X114439488Y-116248110D01*
X114432876Y-116229630D01*
X114428107Y-116210591D01*
X114425227Y-116191176D01*
X114424264Y-116171573D01*
X114425227Y-116151970D01*
X114428107Y-116132555D01*
X114432876Y-116113516D01*
X114439488Y-116095036D01*
X114447880Y-116077294D01*
X114457970Y-116060459D01*
X114469662Y-116044694D01*
X114482843Y-116030152D01*
X114765685Y-115747310D01*
X114780227Y-115734129D01*
X114795992Y-115722437D01*
X114812827Y-115712347D01*
X114830569Y-115703955D01*
X114849049Y-115697343D01*
X114868088Y-115692574D01*
X114887503Y-115689694D01*
X114907106Y-115688731D01*
X114926709Y-115689694D01*
G37*
D17*
X96400000Y-124300000D03*
X98600000Y-124300000D03*
D18*
X97150000Y-126000000D03*
X98650000Y-126000000D03*
X92450000Y-122700000D03*
X90950000Y-122700000D03*
D10*
G36*
X75567695Y-105956569D02*
G01*
X75143431Y-105532305D01*
X75496985Y-105178751D01*
X75921249Y-105603015D01*
X75567695Y-105956569D01*
G37*
G36*
X74903015Y-106621249D02*
G01*
X74478751Y-106196985D01*
X74832305Y-105843431D01*
X75256569Y-106267695D01*
X74903015Y-106621249D01*
G37*
D18*
X75396447Y-112974874D03*
X73896447Y-112974874D03*
D19*
X73300000Y-109250000D03*
X73300000Y-107750000D03*
D10*
G36*
X77056569Y-113382305D02*
G01*
X76632305Y-113806569D01*
X76278751Y-113453015D01*
X76703015Y-113028751D01*
X77056569Y-113382305D01*
G37*
G36*
X77721249Y-114046985D02*
G01*
X77296985Y-114471249D01*
X76943431Y-114117695D01*
X77367695Y-113693431D01*
X77721249Y-114046985D01*
G37*
G36*
X81643431Y-123567695D02*
G01*
X82067695Y-123143431D01*
X82421249Y-123496985D01*
X81996985Y-123921249D01*
X81643431Y-123567695D01*
G37*
G36*
X80978751Y-122903015D02*
G01*
X81403015Y-122478751D01*
X81756569Y-122832305D01*
X81332305Y-123256569D01*
X80978751Y-122903015D01*
G37*
D20*
X75600000Y-102000000D03*
X75600000Y-97200000D03*
X75600000Y-96400000D03*
X75600000Y-102800000D03*
D21*
X74685000Y-103920000D03*
X74685000Y-95280000D03*
D22*
X70505000Y-103920000D03*
X70505000Y-95280000D03*
D23*
X74155000Y-96710000D03*
X74155000Y-102490000D03*
D20*
X75600000Y-96400000D03*
X75600000Y-97200000D03*
D24*
X75600000Y-97850000D03*
X75600000Y-98350000D03*
X75600000Y-98850000D03*
X75600000Y-99350000D03*
X75600000Y-99850000D03*
X75600000Y-100350000D03*
X75600000Y-100850000D03*
X75600000Y-101350000D03*
D20*
X75600000Y-102000000D03*
X75600000Y-102800000D03*
D10*
G36*
X80756758Y-119479668D02*
G01*
X81101478Y-119768922D01*
X80169436Y-120879686D01*
X79824716Y-120590432D01*
X80756758Y-119479668D01*
G37*
G36*
X81254686Y-119897480D02*
G01*
X81599406Y-120186734D01*
X80667364Y-121297498D01*
X80322644Y-121008244D01*
X81254686Y-119897480D01*
G37*
G36*
X81752615Y-120315292D02*
G01*
X82097335Y-120604546D01*
X81165293Y-121715310D01*
X80820573Y-121426056D01*
X81752615Y-120315292D01*
G37*
G36*
X82250544Y-120733104D02*
G01*
X82595264Y-121022358D01*
X81663222Y-122133122D01*
X81318502Y-121843868D01*
X82250544Y-120733104D01*
G37*
G36*
X82748473Y-121150916D02*
G01*
X83093193Y-121440170D01*
X82161151Y-122550934D01*
X81816431Y-122261680D01*
X82748473Y-121150916D01*
G37*
G36*
X83246402Y-121568728D02*
G01*
X83591122Y-121857982D01*
X82659080Y-122968746D01*
X82314360Y-122679492D01*
X83246402Y-121568728D01*
G37*
G36*
X83744331Y-121986540D02*
G01*
X84089051Y-122275794D01*
X83157009Y-123386558D01*
X82812289Y-123097304D01*
X83744331Y-121986540D01*
G37*
G36*
X84242260Y-122404352D02*
G01*
X84586980Y-122693606D01*
X83654938Y-123804370D01*
X83310218Y-123515116D01*
X84242260Y-122404352D01*
G37*
G36*
X84740189Y-122822164D02*
G01*
X85084909Y-123111418D01*
X84152867Y-124222182D01*
X83808147Y-123932928D01*
X84740189Y-122822164D01*
G37*
G36*
X85238118Y-123239976D02*
G01*
X85582838Y-123529230D01*
X84650796Y-124639994D01*
X84306076Y-124350740D01*
X85238118Y-123239976D01*
G37*
G36*
X89030564Y-118720314D02*
G01*
X89375284Y-119009568D01*
X88443242Y-120120332D01*
X88098522Y-119831078D01*
X89030564Y-118720314D01*
G37*
G36*
X88532636Y-118302502D02*
G01*
X88877356Y-118591756D01*
X87945314Y-119702520D01*
X87600594Y-119413266D01*
X88532636Y-118302502D01*
G37*
G36*
X88034707Y-117884690D02*
G01*
X88379427Y-118173944D01*
X87447385Y-119284708D01*
X87102665Y-118995454D01*
X88034707Y-117884690D01*
G37*
G36*
X87536778Y-117466878D02*
G01*
X87881498Y-117756132D01*
X86949456Y-118866896D01*
X86604736Y-118577642D01*
X87536778Y-117466878D01*
G37*
G36*
X87038849Y-117049066D02*
G01*
X87383569Y-117338320D01*
X86451527Y-118449084D01*
X86106807Y-118159830D01*
X87038849Y-117049066D01*
G37*
G36*
X86540920Y-116631254D02*
G01*
X86885640Y-116920508D01*
X85953598Y-118031272D01*
X85608878Y-117742018D01*
X86540920Y-116631254D01*
G37*
G36*
X86042991Y-116213442D02*
G01*
X86387711Y-116502696D01*
X85455669Y-117613460D01*
X85110949Y-117324206D01*
X86042991Y-116213442D01*
G37*
G36*
X85545062Y-115795630D02*
G01*
X85889782Y-116084884D01*
X84957740Y-117195648D01*
X84613020Y-116906394D01*
X85545062Y-115795630D01*
G37*
G36*
X85047133Y-115377818D02*
G01*
X85391853Y-115667072D01*
X84459811Y-116777836D01*
X84115091Y-116488582D01*
X85047133Y-115377818D01*
G37*
G36*
X84549204Y-114960006D02*
G01*
X84893924Y-115249260D01*
X83961882Y-116360024D01*
X83617162Y-116070770D01*
X84549204Y-114960006D01*
G37*
D25*
X101900000Y-122200000D03*
X104125000Y-121875000D03*
X99700000Y-122325000D03*
X106275000Y-121400000D03*
X96175000Y-122000000D03*
X108425000Y-120650000D03*
X94000000Y-121500000D03*
X91900000Y-120850000D03*
M02*
