M48
; DRILL file {KiCad 5.1.5+dfsg1-2build2} date Sun 18 Oct 2020 04:37:06 PM CEST
; FORMAT={-:-/ absolute / inch / decimal}
; #@! TF.CreationDate,2020-10-18T16:37:06+02:00
; #@! TF.GenerationSoftware,Kicad,Pcbnew,5.1.5+dfsg1-2build2
; #@! TF.FileFunction,Plated,1,2,PTH
FMAT,2
INCH
T1C0.0118
T2C0.0236
T3C0.0602
%
G90
G05
T1
X2.7559Y-4.311
X2.8051Y-4.2421
X2.8543Y-4.3307
X2.8543Y-4.3701
X2.8543Y-4.4094
X2.9331Y-4.5866
X2.9567Y-3.6535
X2.9823Y-4.3406
X2.9823Y-4.4882
X3.0118Y-4.5177
X3.0413Y-4.7244
X3.061Y-3.8976
X3.061Y-4.5768
X3.063Y-4.1535
X3.0709Y-4.3602
X3.0906Y-4.2717
X3.0906Y-4.6161
X3.1063Y-4.5039
X3.1142Y-3.5118
X3.1172Y-4.2096
X3.1339Y-3.3504
X3.1378Y-3.4685
X3.1496Y-4.5866
X3.1496Y-4.685
X3.189Y-4.4016
X3.189Y-4.6358
X3.1988Y-4.5571
X3.1988Y-4.8917
X3.2244Y-4.5354
X3.2677Y-4.8917
X3.2992Y-4.7402
X3.3093Y-4.6116
X3.3268Y-4.6378
X3.3366Y-4.7933
X3.3504Y-4.9528
X3.3819Y-4.7283
X3.3858Y-4.6949
X3.3937Y-4.7598
X3.435Y-4.7933
X3.4488Y-5.0394
X3.4567Y-4.874
X3.4941Y-4.7736
X3.4991Y-5.0481
X3.5039Y-4.9567
X3.5039Y-4.8386
X3.5125Y-4.9948
X3.5213Y-5.0258
X3.5236Y-4.9291
X3.563Y-4.8661
X3.6299Y-5.1339
X3.685Y-4.9764
X3.6988Y-4.8406
X3.7008Y-4.9449
X3.7303Y-4.8386
X3.7402Y-5.122
X3.7795Y-5.1693
X3.8583Y-5.1181
X3.8622Y-4.8661
X3.9213Y-5.0472
X3.937Y-5.1181
X3.9764Y-5.0
X4.0157Y-5.1181
X4.0354Y-5.0512
X4.063Y-5.0236
X4.0945Y-5.1181
X4.1969Y-5.0039
X4.2126Y-5.0394
X4.3465Y-4.8819
X4.3504Y-5.0
T3
X3.9252Y-4.8159
X4.0118Y-4.811
X4.1841Y-4.7795
X4.0994Y-4.7982
X4.2687Y-4.75
X3.7864Y-4.8031
X3.7008Y-4.7835
X3.6181Y-4.7579
T2
X2.764Y-3.7512G85X2.7876Y-3.7512
G05
X2.764Y-4.0913G85X2.7876Y-4.0913
G05
X2.9187Y-3.7512G85X2.962Y-3.7512
G05
X2.9187Y-4.0913G85X2.962Y-4.0913
G05
T0
M30
