G04 #@! TF.GenerationSoftware,KiCad,Pcbnew,5.1.5+dfsg1-2build2*
G04 #@! TF.CreationDate,2020-10-18T16:37:04+02:00*
G04 #@! TF.ProjectId,lensmount-v1.1,6c656e73-6d6f-4756-9e74-2d76312e312e,rev?*
G04 #@! TF.SameCoordinates,Original*
G04 #@! TF.FileFunction,Paste,Bot*
G04 #@! TF.FilePolarity,Positive*
%FSLAX46Y46*%
G04 Gerber Fmt 4.6, Leading zero omitted, Abs format (unit mm)*
G04 Created by KiCad (PCBNEW 5.1.5+dfsg1-2build2) date 2020-10-18 16:37:04*
%MOMM*%
%LPD*%
G04 APERTURE LIST*
%ADD10C,0.100000*%
%ADD11R,0.500000X0.600000*%
%ADD12R,0.600000X0.500000*%
%ADD13R,0.900000X0.800000*%
%ADD14R,0.800000X0.900000*%
%ADD15R,0.600000X0.900000*%
%ADD16R,0.900000X0.600000*%
%ADD17R,1.450000X0.600000*%
%ADD18R,1.450000X0.300000*%
G04 APERTURE END LIST*
D10*
G36*
X80756758Y-119479668D02*
G01*
X81101478Y-119768922D01*
X80169436Y-120879686D01*
X79824716Y-120590432D01*
X80756758Y-119479668D01*
G37*
G36*
X81254686Y-119897480D02*
G01*
X81599406Y-120186734D01*
X80667364Y-121297498D01*
X80322644Y-121008244D01*
X81254686Y-119897480D01*
G37*
G36*
X81752615Y-120315292D02*
G01*
X82097335Y-120604546D01*
X81165293Y-121715310D01*
X80820573Y-121426056D01*
X81752615Y-120315292D01*
G37*
G36*
X82250544Y-120733104D02*
G01*
X82595264Y-121022358D01*
X81663222Y-122133122D01*
X81318502Y-121843868D01*
X82250544Y-120733104D01*
G37*
G36*
X82748473Y-121150916D02*
G01*
X83093193Y-121440170D01*
X82161151Y-122550934D01*
X81816431Y-122261680D01*
X82748473Y-121150916D01*
G37*
G36*
X83246402Y-121568728D02*
G01*
X83591122Y-121857982D01*
X82659080Y-122968746D01*
X82314360Y-122679492D01*
X83246402Y-121568728D01*
G37*
G36*
X83744331Y-121986540D02*
G01*
X84089051Y-122275794D01*
X83157009Y-123386558D01*
X82812289Y-123097304D01*
X83744331Y-121986540D01*
G37*
G36*
X84242260Y-122404352D02*
G01*
X84586980Y-122693606D01*
X83654938Y-123804370D01*
X83310218Y-123515116D01*
X84242260Y-122404352D01*
G37*
G36*
X84740189Y-122822164D02*
G01*
X85084909Y-123111418D01*
X84152867Y-124222182D01*
X83808147Y-123932928D01*
X84740189Y-122822164D01*
G37*
G36*
X85238118Y-123239976D02*
G01*
X85582838Y-123529230D01*
X84650796Y-124639994D01*
X84306076Y-124350740D01*
X85238118Y-123239976D01*
G37*
G36*
X89030564Y-118720314D02*
G01*
X89375284Y-119009568D01*
X88443242Y-120120332D01*
X88098522Y-119831078D01*
X89030564Y-118720314D01*
G37*
G36*
X88532636Y-118302502D02*
G01*
X88877356Y-118591756D01*
X87945314Y-119702520D01*
X87600594Y-119413266D01*
X88532636Y-118302502D01*
G37*
G36*
X88034707Y-117884690D02*
G01*
X88379427Y-118173944D01*
X87447385Y-119284708D01*
X87102665Y-118995454D01*
X88034707Y-117884690D01*
G37*
G36*
X87536778Y-117466878D02*
G01*
X87881498Y-117756132D01*
X86949456Y-118866896D01*
X86604736Y-118577642D01*
X87536778Y-117466878D01*
G37*
G36*
X87038849Y-117049066D02*
G01*
X87383569Y-117338320D01*
X86451527Y-118449084D01*
X86106807Y-118159830D01*
X87038849Y-117049066D01*
G37*
G36*
X86540920Y-116631254D02*
G01*
X86885640Y-116920508D01*
X85953598Y-118031272D01*
X85608878Y-117742018D01*
X86540920Y-116631254D01*
G37*
G36*
X86042991Y-116213442D02*
G01*
X86387711Y-116502696D01*
X85455669Y-117613460D01*
X85110949Y-117324206D01*
X86042991Y-116213442D01*
G37*
G36*
X85545062Y-115795630D02*
G01*
X85889782Y-116084884D01*
X84957740Y-117195648D01*
X84613020Y-116906394D01*
X85545062Y-115795630D01*
G37*
G36*
X85047133Y-115377818D02*
G01*
X85391853Y-115667072D01*
X84459811Y-116777836D01*
X84115091Y-116488582D01*
X85047133Y-115377818D01*
G37*
G36*
X84549204Y-114960006D02*
G01*
X84893924Y-115249260D01*
X83961882Y-116360024D01*
X83617162Y-116070770D01*
X84549204Y-114960006D01*
G37*
G36*
X78963562Y-83552157D02*
G01*
X78987699Y-83556549D01*
X79011290Y-83563285D01*
X79034107Y-83572302D01*
X79055930Y-83583512D01*
X81220994Y-84833512D01*
X81241613Y-84846806D01*
X81260830Y-84862058D01*
X81278460Y-84879120D01*
X81294332Y-84897828D01*
X81308295Y-84918001D01*
X81320212Y-84939446D01*
X81329970Y-84961955D01*
X81337475Y-84985313D01*
X81342655Y-85009294D01*
X81345459Y-85033667D01*
X81345860Y-85058198D01*
X81343855Y-85082650D01*
X81339463Y-85106787D01*
X81332727Y-85130378D01*
X81323710Y-85153195D01*
X81312500Y-85175018D01*
X80512500Y-86560658D01*
X80499206Y-86581277D01*
X80483954Y-86600494D01*
X80466892Y-86618124D01*
X80448184Y-86633996D01*
X80428011Y-86647959D01*
X80406566Y-86659876D01*
X80384056Y-86669634D01*
X80360699Y-86677139D01*
X80336718Y-86682319D01*
X80312345Y-86685123D01*
X80287814Y-86685524D01*
X80263362Y-86683519D01*
X80239225Y-86679127D01*
X80215634Y-86672391D01*
X80192817Y-86663374D01*
X80170994Y-86652164D01*
X78005930Y-85402164D01*
X77985311Y-85388870D01*
X77966094Y-85373618D01*
X77948464Y-85356556D01*
X77932592Y-85337848D01*
X77918629Y-85317675D01*
X77906712Y-85296230D01*
X77896954Y-85273721D01*
X77889449Y-85250363D01*
X77884269Y-85226382D01*
X77881465Y-85202009D01*
X77881064Y-85177478D01*
X77883069Y-85153026D01*
X77887461Y-85128889D01*
X77894197Y-85105298D01*
X77903214Y-85082481D01*
X77914424Y-85060658D01*
X78714424Y-83675018D01*
X78727718Y-83654399D01*
X78742970Y-83635182D01*
X78760032Y-83617552D01*
X78778740Y-83601680D01*
X78798913Y-83587717D01*
X78820358Y-83575800D01*
X78842868Y-83566042D01*
X78866225Y-83558537D01*
X78890206Y-83553357D01*
X78914579Y-83550553D01*
X78939110Y-83550152D01*
X78963562Y-83552157D01*
G37*
G36*
X74538562Y-91216481D02*
G01*
X74562699Y-91220873D01*
X74586290Y-91227609D01*
X74609107Y-91236626D01*
X74630930Y-91247836D01*
X76795994Y-92497836D01*
X76816613Y-92511130D01*
X76835830Y-92526382D01*
X76853460Y-92543444D01*
X76869332Y-92562152D01*
X76883295Y-92582325D01*
X76895212Y-92603770D01*
X76904970Y-92626279D01*
X76912475Y-92649637D01*
X76917655Y-92673618D01*
X76920459Y-92697991D01*
X76920860Y-92722522D01*
X76918855Y-92746974D01*
X76914463Y-92771111D01*
X76907727Y-92794702D01*
X76898710Y-92817519D01*
X76887500Y-92839342D01*
X76087500Y-94224982D01*
X76074206Y-94245601D01*
X76058954Y-94264818D01*
X76041892Y-94282448D01*
X76023184Y-94298320D01*
X76003011Y-94312283D01*
X75981566Y-94324200D01*
X75959056Y-94333958D01*
X75935699Y-94341463D01*
X75911718Y-94346643D01*
X75887345Y-94349447D01*
X75862814Y-94349848D01*
X75838362Y-94347843D01*
X75814225Y-94343451D01*
X75790634Y-94336715D01*
X75767817Y-94327698D01*
X75745994Y-94316488D01*
X73580930Y-93066488D01*
X73560311Y-93053194D01*
X73541094Y-93037942D01*
X73523464Y-93020880D01*
X73507592Y-93002172D01*
X73493629Y-92981999D01*
X73481712Y-92960554D01*
X73471954Y-92938045D01*
X73464449Y-92914687D01*
X73459269Y-92890706D01*
X73456465Y-92866333D01*
X73456064Y-92841802D01*
X73458069Y-92817350D01*
X73462461Y-92793213D01*
X73469197Y-92769622D01*
X73478214Y-92746805D01*
X73489424Y-92724982D01*
X74289424Y-91339342D01*
X74302718Y-91318723D01*
X74317970Y-91299506D01*
X74335032Y-91281876D01*
X74353740Y-91266004D01*
X74373913Y-91252041D01*
X74395358Y-91240124D01*
X74417868Y-91230366D01*
X74441225Y-91222861D01*
X74465206Y-91217681D01*
X74489579Y-91214877D01*
X74514110Y-91214476D01*
X74538562Y-91216481D01*
G37*
G36*
X80456426Y-88104708D02*
G01*
X80475736Y-88108222D01*
X80494609Y-88113611D01*
X80512862Y-88120824D01*
X80530321Y-88129792D01*
X81309743Y-88579792D01*
X81326239Y-88590428D01*
X81341612Y-88602629D01*
X81355716Y-88616279D01*
X81368414Y-88631245D01*
X81379583Y-88647384D01*
X81389118Y-88664539D01*
X81396924Y-88682547D01*
X81402928Y-88701233D01*
X81407072Y-88720418D01*
X81409315Y-88739916D01*
X81409636Y-88759541D01*
X81408032Y-88779102D01*
X81404518Y-88798412D01*
X81399129Y-88817285D01*
X81391916Y-88835538D01*
X81382948Y-88852997D01*
X81182948Y-89199407D01*
X81172312Y-89215903D01*
X81160111Y-89231276D01*
X81146461Y-89245380D01*
X81131495Y-89258078D01*
X81115357Y-89269247D01*
X81098201Y-89278782D01*
X81080193Y-89286588D01*
X81061507Y-89292592D01*
X81042322Y-89296736D01*
X81022824Y-89298979D01*
X81003199Y-89299300D01*
X80983638Y-89297696D01*
X80964328Y-89294182D01*
X80945455Y-89288793D01*
X80927202Y-89281580D01*
X80909743Y-89272612D01*
X80130321Y-88822612D01*
X80113825Y-88811976D01*
X80098452Y-88799775D01*
X80084348Y-88786125D01*
X80071650Y-88771159D01*
X80060481Y-88755020D01*
X80050946Y-88737865D01*
X80043140Y-88719857D01*
X80037136Y-88701171D01*
X80032992Y-88681986D01*
X80030749Y-88662488D01*
X80030428Y-88642863D01*
X80032032Y-88623302D01*
X80035546Y-88603992D01*
X80040935Y-88585119D01*
X80048148Y-88566866D01*
X80057116Y-88549407D01*
X80257116Y-88202997D01*
X80267752Y-88186501D01*
X80279953Y-88171128D01*
X80293603Y-88157024D01*
X80308569Y-88144326D01*
X80324707Y-88133157D01*
X80341863Y-88123622D01*
X80359871Y-88115816D01*
X80378557Y-88109812D01*
X80397742Y-88105668D01*
X80417240Y-88103425D01*
X80436865Y-88103104D01*
X80456426Y-88104708D01*
G37*
G36*
X79831426Y-89187240D02*
G01*
X79850736Y-89190754D01*
X79869609Y-89196143D01*
X79887862Y-89203356D01*
X79905321Y-89212324D01*
X80684743Y-89662324D01*
X80701239Y-89672960D01*
X80716612Y-89685161D01*
X80730716Y-89698811D01*
X80743414Y-89713777D01*
X80754583Y-89729916D01*
X80764118Y-89747071D01*
X80771924Y-89765079D01*
X80777928Y-89783765D01*
X80782072Y-89802950D01*
X80784315Y-89822448D01*
X80784636Y-89842073D01*
X80783032Y-89861634D01*
X80779518Y-89880944D01*
X80774129Y-89899817D01*
X80766916Y-89918070D01*
X80757948Y-89935529D01*
X80557948Y-90281939D01*
X80547312Y-90298435D01*
X80535111Y-90313808D01*
X80521461Y-90327912D01*
X80506495Y-90340610D01*
X80490357Y-90351779D01*
X80473201Y-90361314D01*
X80455193Y-90369120D01*
X80436507Y-90375124D01*
X80417322Y-90379268D01*
X80397824Y-90381511D01*
X80378199Y-90381832D01*
X80358638Y-90380228D01*
X80339328Y-90376714D01*
X80320455Y-90371325D01*
X80302202Y-90364112D01*
X80284743Y-90355144D01*
X79505321Y-89905144D01*
X79488825Y-89894508D01*
X79473452Y-89882307D01*
X79459348Y-89868657D01*
X79446650Y-89853691D01*
X79435481Y-89837552D01*
X79425946Y-89820397D01*
X79418140Y-89802389D01*
X79412136Y-89783703D01*
X79407992Y-89764518D01*
X79405749Y-89745020D01*
X79405428Y-89725395D01*
X79407032Y-89705834D01*
X79410546Y-89686524D01*
X79415935Y-89667651D01*
X79423148Y-89649398D01*
X79432116Y-89631939D01*
X79632116Y-89285529D01*
X79642752Y-89269033D01*
X79654953Y-89253660D01*
X79668603Y-89239556D01*
X79683569Y-89226858D01*
X79699707Y-89215689D01*
X79716863Y-89206154D01*
X79734871Y-89198348D01*
X79753557Y-89192344D01*
X79772742Y-89188200D01*
X79792240Y-89185957D01*
X79811865Y-89185636D01*
X79831426Y-89187240D01*
G37*
G36*
X79206426Y-90269772D02*
G01*
X79225736Y-90273286D01*
X79244609Y-90278675D01*
X79262862Y-90285888D01*
X79280321Y-90294856D01*
X80059743Y-90744856D01*
X80076239Y-90755492D01*
X80091612Y-90767693D01*
X80105716Y-90781343D01*
X80118414Y-90796309D01*
X80129583Y-90812448D01*
X80139118Y-90829603D01*
X80146924Y-90847611D01*
X80152928Y-90866297D01*
X80157072Y-90885482D01*
X80159315Y-90904980D01*
X80159636Y-90924605D01*
X80158032Y-90944166D01*
X80154518Y-90963476D01*
X80149129Y-90982349D01*
X80141916Y-91000602D01*
X80132948Y-91018061D01*
X79932948Y-91364471D01*
X79922312Y-91380967D01*
X79910111Y-91396340D01*
X79896461Y-91410444D01*
X79881495Y-91423142D01*
X79865357Y-91434311D01*
X79848201Y-91443846D01*
X79830193Y-91451652D01*
X79811507Y-91457656D01*
X79792322Y-91461800D01*
X79772824Y-91464043D01*
X79753199Y-91464364D01*
X79733638Y-91462760D01*
X79714328Y-91459246D01*
X79695455Y-91453857D01*
X79677202Y-91446644D01*
X79659743Y-91437676D01*
X78880321Y-90987676D01*
X78863825Y-90977040D01*
X78848452Y-90964839D01*
X78834348Y-90951189D01*
X78821650Y-90936223D01*
X78810481Y-90920084D01*
X78800946Y-90902929D01*
X78793140Y-90884921D01*
X78787136Y-90866235D01*
X78782992Y-90847050D01*
X78780749Y-90827552D01*
X78780428Y-90807927D01*
X78782032Y-90788366D01*
X78785546Y-90769056D01*
X78790935Y-90750183D01*
X78798148Y-90731930D01*
X78807116Y-90714471D01*
X79007116Y-90368061D01*
X79017752Y-90351565D01*
X79029953Y-90336192D01*
X79043603Y-90322088D01*
X79058569Y-90309390D01*
X79074707Y-90298221D01*
X79091863Y-90288686D01*
X79109871Y-90280880D01*
X79128557Y-90274876D01*
X79147742Y-90270732D01*
X79167240Y-90268489D01*
X79186865Y-90268168D01*
X79206426Y-90269772D01*
G37*
G36*
X78581426Y-91352304D02*
G01*
X78600736Y-91355818D01*
X78619609Y-91361207D01*
X78637862Y-91368420D01*
X78655321Y-91377388D01*
X79434743Y-91827388D01*
X79451239Y-91838024D01*
X79466612Y-91850225D01*
X79480716Y-91863875D01*
X79493414Y-91878841D01*
X79504583Y-91894980D01*
X79514118Y-91912135D01*
X79521924Y-91930143D01*
X79527928Y-91948829D01*
X79532072Y-91968014D01*
X79534315Y-91987512D01*
X79534636Y-92007137D01*
X79533032Y-92026698D01*
X79529518Y-92046008D01*
X79524129Y-92064881D01*
X79516916Y-92083134D01*
X79507948Y-92100593D01*
X79307948Y-92447003D01*
X79297312Y-92463499D01*
X79285111Y-92478872D01*
X79271461Y-92492976D01*
X79256495Y-92505674D01*
X79240357Y-92516843D01*
X79223201Y-92526378D01*
X79205193Y-92534184D01*
X79186507Y-92540188D01*
X79167322Y-92544332D01*
X79147824Y-92546575D01*
X79128199Y-92546896D01*
X79108638Y-92545292D01*
X79089328Y-92541778D01*
X79070455Y-92536389D01*
X79052202Y-92529176D01*
X79034743Y-92520208D01*
X78255321Y-92070208D01*
X78238825Y-92059572D01*
X78223452Y-92047371D01*
X78209348Y-92033721D01*
X78196650Y-92018755D01*
X78185481Y-92002616D01*
X78175946Y-91985461D01*
X78168140Y-91967453D01*
X78162136Y-91948767D01*
X78157992Y-91929582D01*
X78155749Y-91910084D01*
X78155428Y-91890459D01*
X78157032Y-91870898D01*
X78160546Y-91851588D01*
X78165935Y-91832715D01*
X78173148Y-91814462D01*
X78182116Y-91797003D01*
X78382116Y-91450593D01*
X78392752Y-91434097D01*
X78404953Y-91418724D01*
X78418603Y-91404620D01*
X78433569Y-91391922D01*
X78449707Y-91380753D01*
X78466863Y-91371218D01*
X78484871Y-91363412D01*
X78503557Y-91357408D01*
X78522742Y-91353264D01*
X78542240Y-91351021D01*
X78561865Y-91350700D01*
X78581426Y-91352304D01*
G37*
D11*
X94930000Y-126200000D03*
X95870000Y-126200000D03*
D12*
X95850000Y-125220000D03*
X95850000Y-124280000D03*
X94050000Y-123780000D03*
X94050000Y-124720000D03*
D11*
X92720000Y-125950000D03*
X91780000Y-125950000D03*
D13*
X99050000Y-124700000D03*
X97050000Y-123750000D03*
X97050000Y-125650000D03*
D14*
X91900000Y-122750000D03*
X90950000Y-124750000D03*
X92850000Y-124750000D03*
D10*
G36*
X76067140Y-107773241D02*
G01*
X76526759Y-108232860D01*
X75777226Y-108982393D01*
X75317607Y-108522774D01*
X76067140Y-107773241D01*
G37*
G36*
X75395388Y-107101490D02*
G01*
X75855007Y-107561109D01*
X75105474Y-108310642D01*
X74645855Y-107851023D01*
X75395388Y-107101490D01*
G37*
G36*
X76738891Y-108444993D02*
G01*
X77198510Y-108904612D01*
X76448977Y-109654145D01*
X75989358Y-109194526D01*
X76738891Y-108444993D01*
G37*
G36*
X78294526Y-106889358D02*
G01*
X78754145Y-107348977D01*
X78004612Y-108098510D01*
X77544993Y-107638891D01*
X78294526Y-106889358D01*
G37*
G36*
X77622774Y-106217607D02*
G01*
X78082393Y-106677226D01*
X77332860Y-107426759D01*
X76873241Y-106967140D01*
X77622774Y-106217607D01*
G37*
G36*
X76951023Y-105545855D02*
G01*
X77410642Y-106005474D01*
X76661109Y-106755007D01*
X76201490Y-106295388D01*
X76951023Y-105545855D01*
G37*
D14*
X74646447Y-109570711D03*
X73696447Y-111570711D03*
X75596447Y-111570711D03*
D12*
X91800000Y-127920000D03*
X91800000Y-126980000D03*
X109200000Y-122830000D03*
X109200000Y-123770000D03*
X102200000Y-123830000D03*
X102200000Y-124770000D03*
X105700000Y-123230000D03*
X105700000Y-124170000D03*
D11*
X107530000Y-127100000D03*
X108470000Y-127100000D03*
X100530000Y-128200000D03*
X101470000Y-128200000D03*
X104030000Y-127600000D03*
X104970000Y-127600000D03*
D12*
X77200000Y-97870000D03*
X77200000Y-96930000D03*
X77200000Y-101030000D03*
X77200000Y-101970000D03*
D14*
X108000000Y-123900000D03*
X107050000Y-125900000D03*
X108950000Y-125900000D03*
X101000000Y-125000000D03*
X100050000Y-127000000D03*
X101950000Y-127000000D03*
X104500000Y-124400000D03*
X103550000Y-126400000D03*
X105450000Y-126400000D03*
D15*
X96800000Y-127150000D03*
X98300000Y-127150000D03*
D16*
X90600000Y-127400000D03*
X90600000Y-125900000D03*
D10*
G36*
X75567695Y-105956569D02*
G01*
X75143431Y-105532305D01*
X75496985Y-105178751D01*
X75921249Y-105603015D01*
X75567695Y-105956569D01*
G37*
G36*
X74903015Y-106621249D02*
G01*
X74478751Y-106196985D01*
X74832305Y-105843431D01*
X75256569Y-106267695D01*
X74903015Y-106621249D01*
G37*
D15*
X75396447Y-112974874D03*
X73896447Y-112974874D03*
D16*
X73300000Y-109250000D03*
X73300000Y-107750000D03*
D10*
G36*
X77056569Y-113382305D02*
G01*
X76632305Y-113806569D01*
X76278751Y-113453015D01*
X76703015Y-113028751D01*
X77056569Y-113382305D01*
G37*
G36*
X77721249Y-114046985D02*
G01*
X77296985Y-114471249D01*
X76943431Y-114117695D01*
X77367695Y-113693431D01*
X77721249Y-114046985D01*
G37*
G36*
X81643431Y-123567695D02*
G01*
X82067695Y-123143431D01*
X82421249Y-123496985D01*
X81996985Y-123921249D01*
X81643431Y-123567695D01*
G37*
G36*
X80978751Y-122903015D02*
G01*
X81403015Y-122478751D01*
X81756569Y-122832305D01*
X81332305Y-123256569D01*
X80978751Y-122903015D01*
G37*
D17*
X75600000Y-102000000D03*
X75600000Y-97200000D03*
X75600000Y-96400000D03*
X75600000Y-102800000D03*
X75600000Y-96400000D03*
X75600000Y-97200000D03*
D18*
X75600000Y-97850000D03*
X75600000Y-98350000D03*
X75600000Y-98850000D03*
X75600000Y-99350000D03*
X75600000Y-99850000D03*
X75600000Y-100350000D03*
X75600000Y-100850000D03*
X75600000Y-101350000D03*
D17*
X75600000Y-102000000D03*
X75600000Y-102800000D03*
M02*
