G04 #@! TF.GenerationSoftware,KiCad,Pcbnew,5.1.5+dfsg1-2build2*
G04 #@! TF.CreationDate,2020-10-18T16:37:04+02:00*
G04 #@! TF.ProjectId,lensmount-v1.1,6c656e73-6d6f-4756-9e74-2d76312e312e,rev?*
G04 #@! TF.SameCoordinates,Original*
G04 #@! TF.FileFunction,Legend,Bot*
G04 #@! TF.FilePolarity,Positive*
%FSLAX46Y46*%
G04 Gerber Fmt 4.6, Leading zero omitted, Abs format (unit mm)*
G04 Created by KiCad (PCBNEW 5.1.5+dfsg1-2build2) date 2020-10-18 16:37:04*
%MOMM*%
%LPD*%
G04 APERTURE LIST*
%ADD10C,0.150000*%
%ADD11C,0.120000*%
%ADD12C,0.127000*%
%ADD13C,0.100000*%
G04 APERTURE END LIST*
D10*
X84367600Y-114709716D02*
X80526944Y-119286832D01*
X88673056Y-120313168D02*
X85812651Y-123722066D01*
D11*
X74795571Y-91042669D02*
X77910571Y-85647331D01*
X81490391Y-87286901D02*
X81015391Y-88109626D01*
X80667667Y-86811901D02*
X81490391Y-87286901D01*
X78480391Y-92500374D02*
X79077948Y-92845374D01*
X78005391Y-93323099D02*
X78480391Y-92500374D01*
X77182667Y-92848099D02*
X78005391Y-93323099D01*
X95400000Y-126350000D02*
X95400000Y-126050000D01*
X96000000Y-124750000D02*
X95700000Y-124750000D01*
X93900000Y-124250000D02*
X94200000Y-124250000D01*
X92250000Y-125800000D02*
X92250000Y-126100000D01*
X98810000Y-123120000D02*
X97350000Y-123120000D01*
X98810000Y-126280000D02*
X96650000Y-126280000D01*
X98810000Y-126280000D02*
X98810000Y-125350000D01*
X98810000Y-123120000D02*
X98810000Y-124050000D01*
X90320000Y-122990000D02*
X90320000Y-124450000D01*
X93480000Y-122990000D02*
X93480000Y-125150000D01*
X93480000Y-122990000D02*
X92550000Y-122990000D01*
X90320000Y-122990000D02*
X91250000Y-122990000D01*
X74925162Y-107097954D02*
X76657574Y-105365543D01*
X78474838Y-108102046D02*
X77202046Y-109374838D01*
X73066447Y-109810711D02*
X73066447Y-111270711D01*
X76226447Y-109810711D02*
X76226447Y-111970711D01*
X76226447Y-109810711D02*
X75296447Y-109810711D01*
X73066447Y-109810711D02*
X73996447Y-109810711D01*
X91950000Y-127450000D02*
X91650000Y-127450000D01*
X109050000Y-123300000D02*
X109350000Y-123300000D01*
X102050000Y-124300000D02*
X102350000Y-124300000D01*
X105550000Y-123700000D02*
X105850000Y-123700000D01*
X108000000Y-127250000D02*
X108000000Y-126950000D01*
X101000000Y-128350000D02*
X101000000Y-128050000D01*
X104500000Y-127750000D02*
X104500000Y-127450000D01*
X77350000Y-97400000D02*
X77050000Y-97400000D01*
X77050000Y-101500000D02*
X77350000Y-101500000D01*
X106420000Y-124140000D02*
X106420000Y-125600000D01*
X109580000Y-124140000D02*
X109580000Y-126300000D01*
X109580000Y-124140000D02*
X108650000Y-124140000D01*
X106420000Y-124140000D02*
X107350000Y-124140000D01*
X99420000Y-125240000D02*
X99420000Y-126700000D01*
X102580000Y-125240000D02*
X102580000Y-127400000D01*
X102580000Y-125240000D02*
X101650000Y-125240000D01*
X99420000Y-125240000D02*
X100350000Y-125240000D01*
X102920000Y-124640000D02*
X102920000Y-126100000D01*
X106080000Y-124640000D02*
X106080000Y-126800000D01*
X106080000Y-124640000D02*
X105150000Y-124640000D01*
X102920000Y-124640000D02*
X103850000Y-124640000D01*
D12*
X77759048Y-109212009D02*
G75*
G02X79106086Y-109212009I673519J-673519D01*
G01*
X76412008Y-111906086D02*
G75*
G02X76412009Y-110559047I673520J673519D01*
G01*
X77759047Y-109212009D02*
X76412009Y-110559047D01*
X82419800Y-114196051D02*
G75*
G02X81396051Y-115219800I-1023749J0D01*
G01*
X82419800Y-114196051D02*
X82419800Y-112525724D01*
X81396051Y-115219800D02*
X79725724Y-115219800D01*
X79106086Y-109212009D02*
X82419800Y-112525724D01*
X76412009Y-111906086D02*
X79725724Y-115219800D01*
D11*
X97550000Y-127500000D02*
X97550000Y-126800000D01*
X90950000Y-126650000D02*
X90250000Y-126650000D01*
X75093934Y-105793934D02*
X75306066Y-106006066D01*
X74646447Y-112624874D02*
X74646447Y-113324874D01*
X73650000Y-108500000D02*
X72950000Y-108500000D01*
X76893934Y-113856066D02*
X77106066Y-113643934D01*
X81806066Y-123093934D02*
X81593934Y-123306066D01*
D10*
X76100000Y-95600000D02*
X76100000Y-95100000D01*
X76100000Y-104100000D02*
X76100000Y-103600000D01*
X73600000Y-104100000D02*
X71600000Y-104100000D01*
X71600000Y-95100000D02*
X73600000Y-95100000D01*
D13*
X81620074Y-116760640D02*
X81651824Y-117123539D01*
X81634212Y-117168101D01*
X81614733Y-117191316D01*
X81573906Y-117216398D01*
X81488518Y-117223868D01*
X81443956Y-117206257D01*
X81420742Y-117186777D01*
X81395660Y-117145951D01*
X81363910Y-116783051D01*
X80954842Y-117270559D02*
X81211007Y-117248147D01*
X81082925Y-117259353D02*
X81043705Y-116811066D01*
X81092001Y-116871371D01*
X81138431Y-116910330D01*
X81182992Y-116927942D01*
X95689285Y-127303571D02*
X95839285Y-127089285D01*
X95946428Y-127303571D02*
X95946428Y-126853571D01*
X95775000Y-126853571D01*
X95732142Y-126875000D01*
X95710714Y-126896428D01*
X95689285Y-126939285D01*
X95689285Y-127003571D01*
X95710714Y-127046428D01*
X95732142Y-127067857D01*
X95775000Y-127089285D01*
X95946428Y-127089285D01*
X95260714Y-127303571D02*
X95517857Y-127303571D01*
X95389285Y-127303571D02*
X95389285Y-126853571D01*
X95432142Y-126917857D01*
X95475000Y-126960714D01*
X95517857Y-126982142D01*
X95110714Y-126853571D02*
X94832142Y-126853571D01*
X94982142Y-127025000D01*
X94917857Y-127025000D01*
X94875000Y-127046428D01*
X94853571Y-127067857D01*
X94832142Y-127110714D01*
X94832142Y-127217857D01*
X94853571Y-127260714D01*
X94875000Y-127282142D01*
X94917857Y-127303571D01*
X95046428Y-127303571D01*
X95089285Y-127282142D01*
X95110714Y-127260714D01*
X95889285Y-123703571D02*
X96039285Y-123489285D01*
X96146428Y-123703571D02*
X96146428Y-123253571D01*
X95975000Y-123253571D01*
X95932142Y-123275000D01*
X95910714Y-123296428D01*
X95889285Y-123339285D01*
X95889285Y-123403571D01*
X95910714Y-123446428D01*
X95932142Y-123467857D01*
X95975000Y-123489285D01*
X96146428Y-123489285D01*
X95460714Y-123703571D02*
X95717857Y-123703571D01*
X95589285Y-123703571D02*
X95589285Y-123253571D01*
X95632142Y-123317857D01*
X95675000Y-123360714D01*
X95717857Y-123382142D01*
X95289285Y-123296428D02*
X95267857Y-123275000D01*
X95225000Y-123253571D01*
X95117857Y-123253571D01*
X95075000Y-123275000D01*
X95053571Y-123296428D01*
X95032142Y-123339285D01*
X95032142Y-123382142D01*
X95053571Y-123446428D01*
X95310714Y-123703571D01*
X95032142Y-123703571D01*
X94889285Y-123103571D02*
X95039285Y-122889285D01*
X95146428Y-123103571D02*
X95146428Y-122653571D01*
X94975000Y-122653571D01*
X94932142Y-122675000D01*
X94910714Y-122696428D01*
X94889285Y-122739285D01*
X94889285Y-122803571D01*
X94910714Y-122846428D01*
X94932142Y-122867857D01*
X94975000Y-122889285D01*
X95146428Y-122889285D01*
X94460714Y-123103571D02*
X94717857Y-123103571D01*
X94589285Y-123103571D02*
X94589285Y-122653571D01*
X94632142Y-122717857D01*
X94675000Y-122760714D01*
X94717857Y-122782142D01*
X94032142Y-123103571D02*
X94289285Y-123103571D01*
X94160714Y-123103571D02*
X94160714Y-122653571D01*
X94203571Y-122717857D01*
X94246428Y-122760714D01*
X94289285Y-122782142D01*
X93289285Y-127003571D02*
X93439285Y-126789285D01*
X93546428Y-127003571D02*
X93546428Y-126553571D01*
X93375000Y-126553571D01*
X93332142Y-126575000D01*
X93310714Y-126596428D01*
X93289285Y-126639285D01*
X93289285Y-126703571D01*
X93310714Y-126746428D01*
X93332142Y-126767857D01*
X93375000Y-126789285D01*
X93546428Y-126789285D01*
X92860714Y-127003571D02*
X93117857Y-127003571D01*
X92989285Y-127003571D02*
X92989285Y-126553571D01*
X93032142Y-126617857D01*
X93075000Y-126660714D01*
X93117857Y-126682142D01*
X92582142Y-126553571D02*
X92539285Y-126553571D01*
X92496428Y-126575000D01*
X92475000Y-126596428D01*
X92453571Y-126639285D01*
X92432142Y-126725000D01*
X92432142Y-126832142D01*
X92453571Y-126917857D01*
X92475000Y-126960714D01*
X92496428Y-126982142D01*
X92539285Y-127003571D01*
X92582142Y-127003571D01*
X92625000Y-126982142D01*
X92646428Y-126960714D01*
X92667857Y-126917857D01*
X92689285Y-126832142D01*
X92689285Y-126725000D01*
X92667857Y-126639285D01*
X92646428Y-126596428D01*
X92625000Y-126575000D01*
X92582142Y-126553571D01*
X100042857Y-124146428D02*
X100085714Y-124125000D01*
X100128571Y-124082142D01*
X100192857Y-124017857D01*
X100235714Y-123996428D01*
X100278571Y-123996428D01*
X100257142Y-124103571D02*
X100300000Y-124082142D01*
X100342857Y-124039285D01*
X100364285Y-123953571D01*
X100364285Y-123803571D01*
X100342857Y-123717857D01*
X100300000Y-123675000D01*
X100257142Y-123653571D01*
X100171428Y-123653571D01*
X100128571Y-123675000D01*
X100085714Y-123717857D01*
X100064285Y-123803571D01*
X100064285Y-123953571D01*
X100085714Y-124039285D01*
X100128571Y-124082142D01*
X100171428Y-124103571D01*
X100257142Y-124103571D01*
X99657142Y-123653571D02*
X99871428Y-123653571D01*
X99892857Y-123867857D01*
X99871428Y-123846428D01*
X99828571Y-123825000D01*
X99721428Y-123825000D01*
X99678571Y-123846428D01*
X99657142Y-123867857D01*
X99635714Y-123910714D01*
X99635714Y-124017857D01*
X99657142Y-124060714D01*
X99678571Y-124082142D01*
X99721428Y-124103571D01*
X99828571Y-124103571D01*
X99871428Y-124082142D01*
X99892857Y-124060714D01*
X90742857Y-122846428D02*
X90785714Y-122825000D01*
X90828571Y-122782142D01*
X90892857Y-122717857D01*
X90935714Y-122696428D01*
X90978571Y-122696428D01*
X90957142Y-122803571D02*
X91000000Y-122782142D01*
X91042857Y-122739285D01*
X91064285Y-122653571D01*
X91064285Y-122503571D01*
X91042857Y-122417857D01*
X91000000Y-122375000D01*
X90957142Y-122353571D01*
X90871428Y-122353571D01*
X90828571Y-122375000D01*
X90785714Y-122417857D01*
X90764285Y-122503571D01*
X90764285Y-122653571D01*
X90785714Y-122739285D01*
X90828571Y-122782142D01*
X90871428Y-122803571D01*
X90957142Y-122803571D01*
X90378571Y-122503571D02*
X90378571Y-122803571D01*
X90485714Y-122332142D02*
X90592857Y-122653571D01*
X90314285Y-122653571D01*
X74442857Y-106653571D02*
X74442857Y-107017857D01*
X74421428Y-107060714D01*
X74400000Y-107082142D01*
X74357142Y-107103571D01*
X74271428Y-107103571D01*
X74228571Y-107082142D01*
X74207142Y-107060714D01*
X74185714Y-107017857D01*
X74185714Y-106653571D01*
X74014285Y-106653571D02*
X73735714Y-106653571D01*
X73885714Y-106825000D01*
X73821428Y-106825000D01*
X73778571Y-106846428D01*
X73757142Y-106867857D01*
X73735714Y-106910714D01*
X73735714Y-107017857D01*
X73757142Y-107060714D01*
X73778571Y-107082142D01*
X73821428Y-107103571D01*
X73950000Y-107103571D01*
X73992857Y-107082142D01*
X74014285Y-107060714D01*
X73242857Y-112353571D02*
X73242857Y-112717857D01*
X73221428Y-112760714D01*
X73200000Y-112782142D01*
X73157142Y-112803571D01*
X73071428Y-112803571D01*
X73028571Y-112782142D01*
X73007142Y-112760714D01*
X72985714Y-112717857D01*
X72985714Y-112353571D01*
X72792857Y-112396428D02*
X72771428Y-112375000D01*
X72728571Y-112353571D01*
X72621428Y-112353571D01*
X72578571Y-112375000D01*
X72557142Y-112396428D01*
X72535714Y-112439285D01*
X72535714Y-112482142D01*
X72557142Y-112546428D01*
X72814285Y-112803571D01*
X72535714Y-112803571D01*
X92875000Y-127703571D02*
X93025000Y-127489285D01*
X93132142Y-127703571D02*
X93132142Y-127253571D01*
X92960714Y-127253571D01*
X92917857Y-127275000D01*
X92896428Y-127296428D01*
X92875000Y-127339285D01*
X92875000Y-127403571D01*
X92896428Y-127446428D01*
X92917857Y-127467857D01*
X92960714Y-127489285D01*
X93132142Y-127489285D01*
X92660714Y-127703571D02*
X92575000Y-127703571D01*
X92532142Y-127682142D01*
X92510714Y-127660714D01*
X92467857Y-127596428D01*
X92446428Y-127510714D01*
X92446428Y-127339285D01*
X92467857Y-127296428D01*
X92489285Y-127275000D01*
X92532142Y-127253571D01*
X92617857Y-127253571D01*
X92660714Y-127275000D01*
X92682142Y-127296428D01*
X92703571Y-127339285D01*
X92703571Y-127446428D01*
X92682142Y-127489285D01*
X92660714Y-127510714D01*
X92617857Y-127532142D01*
X92532142Y-127532142D01*
X92489285Y-127510714D01*
X92467857Y-127489285D01*
X92446428Y-127446428D01*
X109575000Y-122203571D02*
X109725000Y-121989285D01*
X109832142Y-122203571D02*
X109832142Y-121753571D01*
X109660714Y-121753571D01*
X109617857Y-121775000D01*
X109596428Y-121796428D01*
X109575000Y-121839285D01*
X109575000Y-121903571D01*
X109596428Y-121946428D01*
X109617857Y-121967857D01*
X109660714Y-121989285D01*
X109832142Y-121989285D01*
X109317857Y-121946428D02*
X109360714Y-121925000D01*
X109382142Y-121903571D01*
X109403571Y-121860714D01*
X109403571Y-121839285D01*
X109382142Y-121796428D01*
X109360714Y-121775000D01*
X109317857Y-121753571D01*
X109232142Y-121753571D01*
X109189285Y-121775000D01*
X109167857Y-121796428D01*
X109146428Y-121839285D01*
X109146428Y-121860714D01*
X109167857Y-121903571D01*
X109189285Y-121925000D01*
X109232142Y-121946428D01*
X109317857Y-121946428D01*
X109360714Y-121967857D01*
X109382142Y-121989285D01*
X109403571Y-122032142D01*
X109403571Y-122117857D01*
X109382142Y-122160714D01*
X109360714Y-122182142D01*
X109317857Y-122203571D01*
X109232142Y-122203571D01*
X109189285Y-122182142D01*
X109167857Y-122160714D01*
X109146428Y-122117857D01*
X109146428Y-122032142D01*
X109167857Y-121989285D01*
X109189285Y-121967857D01*
X109232142Y-121946428D01*
X103175000Y-123703571D02*
X103325000Y-123489285D01*
X103432142Y-123703571D02*
X103432142Y-123253571D01*
X103260714Y-123253571D01*
X103217857Y-123275000D01*
X103196428Y-123296428D01*
X103175000Y-123339285D01*
X103175000Y-123403571D01*
X103196428Y-123446428D01*
X103217857Y-123467857D01*
X103260714Y-123489285D01*
X103432142Y-123489285D01*
X103025000Y-123253571D02*
X102725000Y-123253571D01*
X102917857Y-123703571D01*
X106775000Y-123103571D02*
X106925000Y-122889285D01*
X107032142Y-123103571D02*
X107032142Y-122653571D01*
X106860714Y-122653571D01*
X106817857Y-122675000D01*
X106796428Y-122696428D01*
X106775000Y-122739285D01*
X106775000Y-122803571D01*
X106796428Y-122846428D01*
X106817857Y-122867857D01*
X106860714Y-122889285D01*
X107032142Y-122889285D01*
X106389285Y-122653571D02*
X106475000Y-122653571D01*
X106517857Y-122675000D01*
X106539285Y-122696428D01*
X106582142Y-122760714D01*
X106603571Y-122846428D01*
X106603571Y-123017857D01*
X106582142Y-123060714D01*
X106560714Y-123082142D01*
X106517857Y-123103571D01*
X106432142Y-123103571D01*
X106389285Y-123082142D01*
X106367857Y-123060714D01*
X106346428Y-123017857D01*
X106346428Y-122910714D01*
X106367857Y-122867857D01*
X106389285Y-122846428D01*
X106432142Y-122825000D01*
X106517857Y-122825000D01*
X106560714Y-122846428D01*
X106582142Y-122867857D01*
X106603571Y-122910714D01*
X109475000Y-127303571D02*
X109625000Y-127089285D01*
X109732142Y-127303571D02*
X109732142Y-126853571D01*
X109560714Y-126853571D01*
X109517857Y-126875000D01*
X109496428Y-126896428D01*
X109475000Y-126939285D01*
X109475000Y-127003571D01*
X109496428Y-127046428D01*
X109517857Y-127067857D01*
X109560714Y-127089285D01*
X109732142Y-127089285D01*
X109067857Y-126853571D02*
X109282142Y-126853571D01*
X109303571Y-127067857D01*
X109282142Y-127046428D01*
X109239285Y-127025000D01*
X109132142Y-127025000D01*
X109089285Y-127046428D01*
X109067857Y-127067857D01*
X109046428Y-127110714D01*
X109046428Y-127217857D01*
X109067857Y-127260714D01*
X109089285Y-127282142D01*
X109132142Y-127303571D01*
X109239285Y-127303571D01*
X109282142Y-127282142D01*
X109303571Y-127260714D01*
X102475000Y-128403571D02*
X102625000Y-128189285D01*
X102732142Y-128403571D02*
X102732142Y-127953571D01*
X102560714Y-127953571D01*
X102517857Y-127975000D01*
X102496428Y-127996428D01*
X102475000Y-128039285D01*
X102475000Y-128103571D01*
X102496428Y-128146428D01*
X102517857Y-128167857D01*
X102560714Y-128189285D01*
X102732142Y-128189285D01*
X102089285Y-128103571D02*
X102089285Y-128403571D01*
X102196428Y-127932142D02*
X102303571Y-128253571D01*
X102025000Y-128253571D01*
X105975000Y-127803571D02*
X106125000Y-127589285D01*
X106232142Y-127803571D02*
X106232142Y-127353571D01*
X106060714Y-127353571D01*
X106017857Y-127375000D01*
X105996428Y-127396428D01*
X105975000Y-127439285D01*
X105975000Y-127503571D01*
X105996428Y-127546428D01*
X106017857Y-127567857D01*
X106060714Y-127589285D01*
X106232142Y-127589285D01*
X105825000Y-127353571D02*
X105546428Y-127353571D01*
X105696428Y-127525000D01*
X105632142Y-127525000D01*
X105589285Y-127546428D01*
X105567857Y-127567857D01*
X105546428Y-127610714D01*
X105546428Y-127717857D01*
X105567857Y-127760714D01*
X105589285Y-127782142D01*
X105632142Y-127803571D01*
X105760714Y-127803571D01*
X105803571Y-127782142D01*
X105825000Y-127760714D01*
X77275000Y-96303571D02*
X77425000Y-96089285D01*
X77532142Y-96303571D02*
X77532142Y-95853571D01*
X77360714Y-95853571D01*
X77317857Y-95875000D01*
X77296428Y-95896428D01*
X77275000Y-95939285D01*
X77275000Y-96003571D01*
X77296428Y-96046428D01*
X77317857Y-96067857D01*
X77360714Y-96089285D01*
X77532142Y-96089285D01*
X77103571Y-95896428D02*
X77082142Y-95875000D01*
X77039285Y-95853571D01*
X76932142Y-95853571D01*
X76889285Y-95875000D01*
X76867857Y-95896428D01*
X76846428Y-95939285D01*
X76846428Y-95982142D01*
X76867857Y-96046428D01*
X77125000Y-96303571D01*
X76846428Y-96303571D01*
X77275000Y-103003571D02*
X77425000Y-102789285D01*
X77532142Y-103003571D02*
X77532142Y-102553571D01*
X77360714Y-102553571D01*
X77317857Y-102575000D01*
X77296428Y-102596428D01*
X77275000Y-102639285D01*
X77275000Y-102703571D01*
X77296428Y-102746428D01*
X77317857Y-102767857D01*
X77360714Y-102789285D01*
X77532142Y-102789285D01*
X76846428Y-103003571D02*
X77103571Y-103003571D01*
X76975000Y-103003571D02*
X76975000Y-102553571D01*
X77017857Y-102617857D01*
X77060714Y-102660714D01*
X77103571Y-102682142D01*
X106942857Y-123946428D02*
X106985714Y-123925000D01*
X107028571Y-123882142D01*
X107092857Y-123817857D01*
X107135714Y-123796428D01*
X107178571Y-123796428D01*
X107157142Y-123903571D02*
X107200000Y-123882142D01*
X107242857Y-123839285D01*
X107264285Y-123753571D01*
X107264285Y-123603571D01*
X107242857Y-123517857D01*
X107200000Y-123475000D01*
X107157142Y-123453571D01*
X107071428Y-123453571D01*
X107028571Y-123475000D01*
X106985714Y-123517857D01*
X106964285Y-123603571D01*
X106964285Y-123753571D01*
X106985714Y-123839285D01*
X107028571Y-123882142D01*
X107071428Y-123903571D01*
X107157142Y-123903571D01*
X106814285Y-123453571D02*
X106535714Y-123453571D01*
X106685714Y-123625000D01*
X106621428Y-123625000D01*
X106578571Y-123646428D01*
X106557142Y-123667857D01*
X106535714Y-123710714D01*
X106535714Y-123817857D01*
X106557142Y-123860714D01*
X106578571Y-123882142D01*
X106621428Y-123903571D01*
X106750000Y-123903571D01*
X106792857Y-123882142D01*
X106814285Y-123860714D01*
X101142857Y-124146428D02*
X101185714Y-124125000D01*
X101228571Y-124082142D01*
X101292857Y-124017857D01*
X101335714Y-123996428D01*
X101378571Y-123996428D01*
X101357142Y-124103571D02*
X101400000Y-124082142D01*
X101442857Y-124039285D01*
X101464285Y-123953571D01*
X101464285Y-123803571D01*
X101442857Y-123717857D01*
X101400000Y-123675000D01*
X101357142Y-123653571D01*
X101271428Y-123653571D01*
X101228571Y-123675000D01*
X101185714Y-123717857D01*
X101164285Y-123803571D01*
X101164285Y-123953571D01*
X101185714Y-124039285D01*
X101228571Y-124082142D01*
X101271428Y-124103571D01*
X101357142Y-124103571D01*
X100992857Y-123696428D02*
X100971428Y-123675000D01*
X100928571Y-123653571D01*
X100821428Y-123653571D01*
X100778571Y-123675000D01*
X100757142Y-123696428D01*
X100735714Y-123739285D01*
X100735714Y-123782142D01*
X100757142Y-123846428D01*
X101014285Y-124103571D01*
X100735714Y-124103571D01*
X103442857Y-124446428D02*
X103485714Y-124425000D01*
X103528571Y-124382142D01*
X103592857Y-124317857D01*
X103635714Y-124296428D01*
X103678571Y-124296428D01*
X103657142Y-124403571D02*
X103700000Y-124382142D01*
X103742857Y-124339285D01*
X103764285Y-124253571D01*
X103764285Y-124103571D01*
X103742857Y-124017857D01*
X103700000Y-123975000D01*
X103657142Y-123953571D01*
X103571428Y-123953571D01*
X103528571Y-123975000D01*
X103485714Y-124017857D01*
X103464285Y-124103571D01*
X103464285Y-124253571D01*
X103485714Y-124339285D01*
X103528571Y-124382142D01*
X103571428Y-124403571D01*
X103657142Y-124403571D01*
X103035714Y-124403571D02*
X103292857Y-124403571D01*
X103164285Y-124403571D02*
X103164285Y-123953571D01*
X103207142Y-124017857D01*
X103250000Y-124060714D01*
X103292857Y-124082142D01*
X97625000Y-128310714D02*
X97646428Y-128332142D01*
X97710714Y-128353571D01*
X97753571Y-128353571D01*
X97817857Y-128332142D01*
X97860714Y-128289285D01*
X97882142Y-128246428D01*
X97903571Y-128160714D01*
X97903571Y-128096428D01*
X97882142Y-128010714D01*
X97860714Y-127967857D01*
X97817857Y-127925000D01*
X97753571Y-127903571D01*
X97710714Y-127903571D01*
X97646428Y-127925000D01*
X97625000Y-127946428D01*
X97475000Y-127903571D02*
X97175000Y-127903571D01*
X97367857Y-128353571D01*
X90675000Y-128460714D02*
X90696428Y-128482142D01*
X90760714Y-128503571D01*
X90803571Y-128503571D01*
X90867857Y-128482142D01*
X90910714Y-128439285D01*
X90932142Y-128396428D01*
X90953571Y-128310714D01*
X90953571Y-128246428D01*
X90932142Y-128160714D01*
X90910714Y-128117857D01*
X90867857Y-128075000D01*
X90803571Y-128053571D01*
X90760714Y-128053571D01*
X90696428Y-128075000D01*
X90675000Y-128096428D01*
X90289285Y-128053571D02*
X90375000Y-128053571D01*
X90417857Y-128075000D01*
X90439285Y-128096428D01*
X90482142Y-128160714D01*
X90503571Y-128246428D01*
X90503571Y-128417857D01*
X90482142Y-128460714D01*
X90460714Y-128482142D01*
X90417857Y-128503571D01*
X90332142Y-128503571D01*
X90289285Y-128482142D01*
X90267857Y-128460714D01*
X90246428Y-128417857D01*
X90246428Y-128310714D01*
X90267857Y-128267857D01*
X90289285Y-128246428D01*
X90332142Y-128225000D01*
X90417857Y-128225000D01*
X90460714Y-128246428D01*
X90482142Y-128267857D01*
X90503571Y-128310714D01*
X74575000Y-105360714D02*
X74596428Y-105382142D01*
X74660714Y-105403571D01*
X74703571Y-105403571D01*
X74767857Y-105382142D01*
X74810714Y-105339285D01*
X74832142Y-105296428D01*
X74853571Y-105210714D01*
X74853571Y-105146428D01*
X74832142Y-105060714D01*
X74810714Y-105017857D01*
X74767857Y-104975000D01*
X74703571Y-104953571D01*
X74660714Y-104953571D01*
X74596428Y-104975000D01*
X74575000Y-104996428D01*
X74167857Y-104953571D02*
X74382142Y-104953571D01*
X74403571Y-105167857D01*
X74382142Y-105146428D01*
X74339285Y-105125000D01*
X74232142Y-105125000D01*
X74189285Y-105146428D01*
X74167857Y-105167857D01*
X74146428Y-105210714D01*
X74146428Y-105317857D01*
X74167857Y-105360714D01*
X74189285Y-105382142D01*
X74232142Y-105403571D01*
X74339285Y-105403571D01*
X74382142Y-105382142D01*
X74403571Y-105360714D01*
X74721447Y-114135588D02*
X74742875Y-114157016D01*
X74807161Y-114178445D01*
X74850018Y-114178445D01*
X74914304Y-114157016D01*
X74957161Y-114114159D01*
X74978589Y-114071302D01*
X75000018Y-113985588D01*
X75000018Y-113921302D01*
X74978589Y-113835588D01*
X74957161Y-113792731D01*
X74914304Y-113749874D01*
X74850018Y-113728445D01*
X74807161Y-113728445D01*
X74742875Y-113749874D01*
X74721447Y-113771302D01*
X74335732Y-113878445D02*
X74335732Y-114178445D01*
X74442875Y-113707016D02*
X74550018Y-114028445D01*
X74271447Y-114028445D01*
X72275000Y-108660714D02*
X72296428Y-108682142D01*
X72360714Y-108703571D01*
X72403571Y-108703571D01*
X72467857Y-108682142D01*
X72510714Y-108639285D01*
X72532142Y-108596428D01*
X72553571Y-108510714D01*
X72553571Y-108446428D01*
X72532142Y-108360714D01*
X72510714Y-108317857D01*
X72467857Y-108275000D01*
X72403571Y-108253571D01*
X72360714Y-108253571D01*
X72296428Y-108275000D01*
X72275000Y-108296428D01*
X72125000Y-108253571D02*
X71846428Y-108253571D01*
X71996428Y-108425000D01*
X71932142Y-108425000D01*
X71889285Y-108446428D01*
X71867857Y-108467857D01*
X71846428Y-108510714D01*
X71846428Y-108617857D01*
X71867857Y-108660714D01*
X71889285Y-108682142D01*
X71932142Y-108703571D01*
X72060714Y-108703571D01*
X72103571Y-108682142D01*
X72125000Y-108660714D01*
X78075000Y-114760714D02*
X78096428Y-114782142D01*
X78160714Y-114803571D01*
X78203571Y-114803571D01*
X78267857Y-114782142D01*
X78310714Y-114739285D01*
X78332142Y-114696428D01*
X78353571Y-114610714D01*
X78353571Y-114546428D01*
X78332142Y-114460714D01*
X78310714Y-114417857D01*
X78267857Y-114375000D01*
X78203571Y-114353571D01*
X78160714Y-114353571D01*
X78096428Y-114375000D01*
X78075000Y-114396428D01*
X77903571Y-114396428D02*
X77882142Y-114375000D01*
X77839285Y-114353571D01*
X77732142Y-114353571D01*
X77689285Y-114375000D01*
X77667857Y-114396428D01*
X77646428Y-114439285D01*
X77646428Y-114482142D01*
X77667857Y-114546428D01*
X77925000Y-114803571D01*
X77646428Y-114803571D01*
X82875000Y-124360714D02*
X82896428Y-124382142D01*
X82960714Y-124403571D01*
X83003571Y-124403571D01*
X83067857Y-124382142D01*
X83110714Y-124339285D01*
X83132142Y-124296428D01*
X83153571Y-124210714D01*
X83153571Y-124146428D01*
X83132142Y-124060714D01*
X83110714Y-124017857D01*
X83067857Y-123975000D01*
X83003571Y-123953571D01*
X82960714Y-123953571D01*
X82896428Y-123975000D01*
X82875000Y-123996428D01*
X82446428Y-124403571D02*
X82703571Y-124403571D01*
X82575000Y-124403571D02*
X82575000Y-123953571D01*
X82617857Y-124017857D01*
X82660714Y-124060714D01*
X82703571Y-124082142D01*
M02*
