G04 #@! TF.GenerationSoftware,KiCad,Pcbnew,5.1.5+dfsg1-2build2*
G04 #@! TF.CreationDate,2020-10-18T16:37:04+02:00*
G04 #@! TF.ProjectId,lensmount-v1.1,6c656e73-6d6f-4756-9e74-2d76312e312e,rev?*
G04 #@! TF.SameCoordinates,Original*
G04 #@! TF.FileFunction,Copper,L1,Top*
G04 #@! TF.FilePolarity,Positive*
%FSLAX46Y46*%
G04 Gerber Fmt 4.6, Leading zero omitted, Abs format (unit mm)*
G04 Created by KiCad (PCBNEW 5.1.5+dfsg1-2build2) date 2020-10-18 16:37:04*
%MOMM*%
%LPD*%
G04 APERTURE LIST*
%ADD10O,2.100000X1.000000*%
%ADD11O,1.600000X1.000000*%
%ADD12C,1.800000*%
%ADD13C,0.600000*%
%ADD14C,0.200000*%
%ADD15C,0.154000*%
G04 APERTURE END LIST*
D10*
X74685000Y-103920000D03*
X74685000Y-95280000D03*
D11*
X70505000Y-103920000D03*
X70505000Y-95280000D03*
D12*
X101900000Y-122200000D03*
X104125000Y-121875000D03*
X99700000Y-122325000D03*
X106275000Y-121400000D03*
X96175000Y-122000000D03*
X108425000Y-120650000D03*
X94000000Y-121500000D03*
X91900000Y-120850000D03*
D13*
X79600000Y-85100000D03*
X75100000Y-92800000D03*
X72500000Y-110000000D03*
X72500000Y-111000000D03*
X72500000Y-112000000D03*
X75750000Y-110250000D03*
X75750000Y-114000000D03*
X76500000Y-114750000D03*
X78000000Y-110750000D03*
X78500000Y-108500000D03*
X77750000Y-99000000D03*
X71250000Y-107750000D03*
X70000000Y-109500000D03*
X77750000Y-116250000D03*
X78500000Y-117250000D03*
X80000000Y-116500000D03*
X81250000Y-115750000D03*
X81000000Y-117750000D03*
X80000000Y-119000000D03*
X77250000Y-120000000D03*
X74500000Y-116500000D03*
X83000000Y-124250000D03*
X81250000Y-124250000D03*
X84750000Y-121750000D03*
X86000000Y-119250000D03*
X87250000Y-121750000D03*
X88750000Y-121250000D03*
X89500000Y-125200000D03*
X87800000Y-123800000D03*
X90500000Y-123600000D03*
X89000000Y-122900000D03*
X94000000Y-125600000D03*
X93600000Y-126400000D03*
X98100000Y-123600000D03*
X85100000Y-125800000D03*
X87600000Y-128000000D03*
X92200000Y-130400000D03*
X96000000Y-131300000D03*
X95000000Y-130100000D03*
X102500000Y-128300000D03*
X107000000Y-128000000D03*
X104000000Y-130000000D03*
X102000000Y-130000000D03*
X100000000Y-130000000D03*
X98000000Y-130000000D03*
X110400000Y-124000000D03*
X110500000Y-127000000D03*
X101000000Y-127000000D03*
X88999996Y-125900000D03*
X78900000Y-114400000D03*
X83800000Y-120400000D03*
X79176849Y-106923151D03*
X77800000Y-105500000D03*
X81900000Y-115200000D03*
X81000000Y-111800000D03*
X103200000Y-127600000D03*
X89218367Y-126866911D03*
X99600000Y-128200000D03*
X89441615Y-127655858D03*
X106600000Y-127100000D03*
X88876125Y-128221755D03*
X93949987Y-122950000D03*
X84056234Y-117134350D03*
X94750000Y-122900000D03*
X84500000Y-117800000D03*
X85900000Y-120100000D03*
X79700002Y-88100000D03*
X86200000Y-120900000D03*
X79100002Y-89200000D03*
D14*
X89100000Y-125900000D02*
X88999996Y-125900000D01*
X90200000Y-127000000D02*
X89100000Y-125900000D01*
X101000000Y-127000000D02*
X90200000Y-127000000D01*
X82000000Y-118600000D02*
X83800000Y-120400000D01*
X82000000Y-117500000D02*
X82000000Y-118600000D01*
X78900000Y-114400000D02*
X82000000Y-117500000D01*
X79176849Y-106876849D02*
X77800000Y-105500000D01*
X79176849Y-106923151D02*
X79176849Y-106876849D01*
X81000000Y-113416935D02*
X80602020Y-113814915D01*
X80602020Y-113814915D02*
X80602020Y-114577187D01*
X81014915Y-114990082D02*
X81690082Y-114990082D01*
X81690082Y-114990082D02*
X81900000Y-115200000D01*
X80602020Y-114577187D02*
X81014915Y-114990082D01*
X81000000Y-111800000D02*
X81000000Y-113416935D01*
X103200000Y-127600000D02*
X90234300Y-127600000D01*
X89475971Y-126841671D02*
X89243607Y-126841671D01*
X89243607Y-126841671D02*
X89218367Y-126866911D01*
X90234300Y-127600000D02*
X89475971Y-126841671D01*
X89985757Y-128200000D02*
X89441615Y-127655858D01*
X99600000Y-128200000D02*
X89985757Y-128200000D01*
X89654369Y-128999999D02*
X89176124Y-128521754D01*
X104700001Y-128999999D02*
X89654369Y-128999999D01*
X89176124Y-128521754D02*
X88876125Y-128221755D01*
X106600000Y-127100000D02*
X104700001Y-128999999D01*
X84480498Y-117134350D02*
X84056234Y-117134350D01*
X91950000Y-122950000D02*
X86134350Y-117134350D01*
X86134350Y-117134350D02*
X84480498Y-117134350D01*
X93949987Y-122950000D02*
X91950000Y-122950000D01*
X94524264Y-123550000D02*
X91938002Y-123550000D01*
X94750000Y-122900000D02*
X94750000Y-123324264D01*
X91938002Y-123550000D02*
X86188002Y-117800000D01*
X94750000Y-123324264D02*
X94524264Y-123550000D01*
X84924264Y-117800000D02*
X84500000Y-117800000D01*
X86188002Y-117800000D02*
X84924264Y-117800000D01*
X79700002Y-88524264D02*
X79700002Y-88100000D01*
X78774067Y-93091633D02*
X79700002Y-92165698D01*
X79700002Y-92165698D02*
X79700002Y-88524264D01*
X78774067Y-105659808D02*
X78774067Y-93091633D01*
X81277521Y-110437981D02*
X81277521Y-110001328D01*
X83400000Y-113225765D02*
X82013849Y-111839614D01*
X81277521Y-110001328D02*
X81020878Y-109505297D01*
X79884109Y-108368528D02*
X79884109Y-106769850D01*
X82013849Y-111839614D02*
X82013849Y-111271918D01*
X81020878Y-109505297D02*
X79884109Y-108368528D01*
X81862122Y-111022582D02*
X81277521Y-110437981D01*
X82013849Y-111271918D02*
X81862122Y-111022582D01*
X83400000Y-117600000D02*
X83400000Y-113225765D01*
X85900000Y-120100000D02*
X83400000Y-117600000D01*
X79884109Y-106769850D02*
X78774067Y-105659808D01*
X79100000Y-92200000D02*
X79100000Y-89200002D01*
X78350001Y-104049999D02*
X78350001Y-92949999D01*
X77200000Y-105200000D02*
X78350001Y-104049999D01*
X77200000Y-106300008D02*
X77200000Y-105200000D01*
X82900000Y-118024264D02*
X82900000Y-113300000D01*
X82900000Y-113300000D02*
X81600000Y-112000000D01*
X80747619Y-110515666D02*
X80747619Y-109847627D01*
X79100000Y-89200002D02*
X79100002Y-89200000D01*
X85775736Y-120900000D02*
X82900000Y-118024264D01*
X86200000Y-120900000D02*
X85775736Y-120900000D01*
X81600001Y-111368048D02*
X80747619Y-110515666D01*
X81600000Y-112000000D02*
X81600001Y-111368048D01*
X78350001Y-92949999D02*
X79100000Y-92200000D01*
X80747619Y-109847627D02*
X77200000Y-106300008D01*
D15*
G36*
X102246019Y-67880433D02*
G01*
X104481096Y-68115349D01*
X106694341Y-68505604D01*
X108874972Y-69049296D01*
X111012365Y-69743777D01*
X113096106Y-70585663D01*
X115116045Y-71570853D01*
X117062340Y-72694547D01*
X118925510Y-73951271D01*
X120696475Y-75334901D01*
X122366610Y-76838697D01*
X123927777Y-78455333D01*
X125372370Y-80176932D01*
X126693352Y-81995107D01*
X127884286Y-83901000D01*
X128939371Y-85885326D01*
X129853466Y-87938417D01*
X130622118Y-90050271D01*
X131241582Y-92210599D01*
X131708840Y-94408876D01*
X132021616Y-96634393D01*
X132178386Y-98876306D01*
X132178386Y-99823000D01*
X131135330Y-99823000D01*
X131107459Y-99682885D01*
X130993202Y-99407043D01*
X130827327Y-99158793D01*
X130616207Y-98947673D01*
X130367957Y-98781798D01*
X130092115Y-98667541D01*
X129799284Y-98609293D01*
X129500716Y-98609293D01*
X129207885Y-98667541D01*
X128932043Y-98781798D01*
X128683793Y-98947673D01*
X128472673Y-99158793D01*
X128306798Y-99407043D01*
X128192541Y-99682885D01*
X128164670Y-99823000D01*
X121201801Y-99823000D01*
X121201801Y-99074309D01*
X121040443Y-97229973D01*
X120718954Y-95406719D01*
X120239781Y-93618422D01*
X119606571Y-91878692D01*
X118824144Y-90200771D01*
X117898453Y-88597428D01*
X116836545Y-87080865D01*
X115646500Y-85662625D01*
X114337375Y-84353500D01*
X112919135Y-83163455D01*
X111427702Y-82119143D01*
X121938730Y-82119143D01*
X121938730Y-82480857D01*
X122009297Y-82835620D01*
X122147719Y-83169800D01*
X122348676Y-83470554D01*
X122604446Y-83726324D01*
X122905200Y-83927281D01*
X123239380Y-84065703D01*
X123594143Y-84136270D01*
X123955857Y-84136270D01*
X124310620Y-84065703D01*
X124644800Y-83927281D01*
X124945554Y-83726324D01*
X125201324Y-83470554D01*
X125402281Y-83169800D01*
X125540703Y-82835620D01*
X125611270Y-82480857D01*
X125611270Y-82119143D01*
X125540703Y-81764380D01*
X125402281Y-81430200D01*
X125201324Y-81129446D01*
X124945554Y-80873676D01*
X124644800Y-80672719D01*
X124310620Y-80534297D01*
X123955857Y-80463730D01*
X123594143Y-80463730D01*
X123239380Y-80534297D01*
X122905200Y-80672719D01*
X122604446Y-80873676D01*
X122348676Y-81129446D01*
X122147719Y-81430200D01*
X122009297Y-81764380D01*
X121938730Y-82119143D01*
X111427702Y-82119143D01*
X111402572Y-82101547D01*
X109799229Y-81175856D01*
X108121308Y-80393429D01*
X106381578Y-79760219D01*
X104593281Y-79281046D01*
X102770027Y-78959557D01*
X100925691Y-78798199D01*
X99074309Y-78798199D01*
X97229973Y-78959557D01*
X95406719Y-79281046D01*
X93618422Y-79760219D01*
X91878692Y-80393429D01*
X90200771Y-81175856D01*
X88597428Y-82101547D01*
X87080865Y-83163455D01*
X85662625Y-84353500D01*
X84353500Y-85662625D01*
X83163455Y-87080865D01*
X82101547Y-88597428D01*
X81175856Y-90200771D01*
X80393429Y-91878692D01*
X79760219Y-93618422D01*
X79281046Y-95406719D01*
X79151067Y-96143866D01*
X79151067Y-93247791D01*
X79953490Y-92445369D01*
X79967871Y-92433567D01*
X80014983Y-92376161D01*
X80049990Y-92310668D01*
X80049990Y-92310667D01*
X80071547Y-92239604D01*
X80078826Y-92165698D01*
X80077002Y-92147179D01*
X80077002Y-88539001D01*
X80148187Y-88467816D01*
X80211333Y-88373312D01*
X80254828Y-88268305D01*
X80277002Y-88156830D01*
X80277002Y-88043170D01*
X80254828Y-87931695D01*
X80211333Y-87826688D01*
X80148187Y-87732184D01*
X80067818Y-87651815D01*
X79973314Y-87588669D01*
X79868307Y-87545174D01*
X79756832Y-87523000D01*
X79643172Y-87523000D01*
X79531697Y-87545174D01*
X79426690Y-87588669D01*
X79332186Y-87651815D01*
X79251817Y-87732184D01*
X79188671Y-87826688D01*
X79145176Y-87931695D01*
X79123002Y-88043170D01*
X79123002Y-88156830D01*
X79145176Y-88268305D01*
X79188671Y-88373312D01*
X79251817Y-88467816D01*
X79323002Y-88539001D01*
X79323002Y-88542782D01*
X79323003Y-88542792D01*
X79323003Y-88667830D01*
X79268307Y-88645174D01*
X79156832Y-88623000D01*
X79043172Y-88623000D01*
X78931697Y-88645174D01*
X78826690Y-88688669D01*
X78732186Y-88751815D01*
X78651817Y-88832184D01*
X78588671Y-88926688D01*
X78545176Y-89031695D01*
X78523002Y-89143170D01*
X78523002Y-89256830D01*
X78545176Y-89368305D01*
X78588671Y-89473312D01*
X78651817Y-89567816D01*
X78723001Y-89639000D01*
X78723000Y-92043841D01*
X78096515Y-92670327D01*
X78082133Y-92682130D01*
X78070330Y-92696512D01*
X78070327Y-92696515D01*
X78035021Y-92739536D01*
X78000013Y-92805030D01*
X77978456Y-92876094D01*
X77971178Y-92949999D01*
X77973002Y-92968521D01*
X77973001Y-103893840D01*
X76946514Y-104920328D01*
X76932132Y-104932131D01*
X76920329Y-104946513D01*
X76920326Y-104946516D01*
X76885020Y-104989537D01*
X76850012Y-105055031D01*
X76828455Y-105126095D01*
X76821177Y-105200000D01*
X76823001Y-105218522D01*
X76823000Y-106281496D01*
X76821177Y-106300008D01*
X76823000Y-106318520D01*
X76823000Y-106318526D01*
X76825721Y-106346151D01*
X76828455Y-106373913D01*
X76850012Y-106444977D01*
X76885019Y-106510470D01*
X76932131Y-106567877D01*
X76946519Y-106579685D01*
X80370620Y-110003787D01*
X80370619Y-110497154D01*
X80368796Y-110515666D01*
X80370619Y-110534178D01*
X80370619Y-110534184D01*
X80376074Y-110589570D01*
X80397631Y-110660635D01*
X80432638Y-110726128D01*
X80479750Y-110783535D01*
X80494138Y-110795343D01*
X80925341Y-111226546D01*
X80831695Y-111245174D01*
X80726688Y-111288669D01*
X80632184Y-111351815D01*
X80551815Y-111432184D01*
X80488669Y-111526688D01*
X80445174Y-111631695D01*
X80423000Y-111743170D01*
X80423000Y-111856830D01*
X80445174Y-111968305D01*
X80488669Y-112073312D01*
X80551815Y-112167816D01*
X80623000Y-112239001D01*
X80623001Y-113260775D01*
X80348538Y-113535239D01*
X80334151Y-113547046D01*
X80287039Y-113604453D01*
X80252032Y-113669946D01*
X80230475Y-113741011D01*
X80225020Y-113796397D01*
X80225020Y-113796403D01*
X80223197Y-113814915D01*
X80225020Y-113833427D01*
X80225021Y-114558666D01*
X80223197Y-114577187D01*
X80230475Y-114651092D01*
X80252032Y-114722156D01*
X80287040Y-114787650D01*
X80322346Y-114830671D01*
X80322349Y-114830674D01*
X80334152Y-114845056D01*
X80348534Y-114856859D01*
X80735243Y-115243568D01*
X80747046Y-115257951D01*
X80804452Y-115305063D01*
X80869945Y-115340070D01*
X80941009Y-115361627D01*
X81014915Y-115368906D01*
X81033434Y-115367082D01*
X81344931Y-115367082D01*
X81345174Y-115368305D01*
X81388669Y-115473312D01*
X81451815Y-115567816D01*
X81532184Y-115648185D01*
X81626688Y-115711331D01*
X81731695Y-115754826D01*
X81843170Y-115777000D01*
X81956830Y-115777000D01*
X82068305Y-115754826D01*
X82173312Y-115711331D01*
X82267816Y-115648185D01*
X82348185Y-115567816D01*
X82411331Y-115473312D01*
X82454826Y-115368305D01*
X82477000Y-115256830D01*
X82477000Y-115143170D01*
X82454826Y-115031695D01*
X82411331Y-114926688D01*
X82348185Y-114832184D01*
X82267816Y-114751815D01*
X82173312Y-114688669D01*
X82068305Y-114645174D01*
X82028550Y-114637266D01*
X82079329Y-114561271D01*
X82137451Y-114420952D01*
X82167081Y-114271991D01*
X82167081Y-114120111D01*
X82137451Y-113971150D01*
X82079329Y-113830831D01*
X81994949Y-113704548D01*
X81887554Y-113597153D01*
X81761271Y-113512773D01*
X81620952Y-113454651D01*
X81471991Y-113425021D01*
X81378028Y-113425021D01*
X81378824Y-113416935D01*
X81377000Y-113398416D01*
X81377000Y-112310158D01*
X82523001Y-113456160D01*
X82523000Y-118005752D01*
X82521177Y-118024264D01*
X82523000Y-118042776D01*
X82523000Y-118042782D01*
X82528455Y-118098168D01*
X82550012Y-118169233D01*
X82585019Y-118234726D01*
X82632131Y-118292133D01*
X82646519Y-118303941D01*
X85496064Y-121153487D01*
X85507867Y-121167869D01*
X85522249Y-121179672D01*
X85522251Y-121179674D01*
X85549213Y-121201801D01*
X85565273Y-121214981D01*
X85630766Y-121249988D01*
X85701830Y-121271545D01*
X85761412Y-121277413D01*
X85832184Y-121348185D01*
X85926688Y-121411331D01*
X86031695Y-121454826D01*
X86143170Y-121477000D01*
X86256830Y-121477000D01*
X86368305Y-121454826D01*
X86473312Y-121411331D01*
X86567816Y-121348185D01*
X86648185Y-121267816D01*
X86711331Y-121173312D01*
X86754826Y-121068305D01*
X86777000Y-120956830D01*
X86777000Y-120843170D01*
X86754826Y-120731695D01*
X86711331Y-120626688D01*
X86648185Y-120532184D01*
X86567816Y-120451815D01*
X86473312Y-120388669D01*
X86414978Y-120364507D01*
X86454826Y-120268305D01*
X86477000Y-120156830D01*
X86477000Y-120043170D01*
X86454826Y-119931695D01*
X86411331Y-119826688D01*
X86348185Y-119732184D01*
X86267816Y-119651815D01*
X86173312Y-119588669D01*
X86068305Y-119545174D01*
X85956830Y-119523000D01*
X85856159Y-119523000D01*
X84682220Y-118349062D01*
X84773312Y-118311331D01*
X84867816Y-118248185D01*
X84939001Y-118177000D01*
X86031844Y-118177000D01*
X91658330Y-123803487D01*
X91670133Y-123817869D01*
X91727539Y-123864981D01*
X91793032Y-123899988D01*
X91864096Y-123921545D01*
X91871056Y-123922230D01*
X91919483Y-123927000D01*
X91919490Y-123927000D01*
X91938002Y-123928823D01*
X91956514Y-123927000D01*
X94505752Y-123927000D01*
X94524264Y-123928823D01*
X94542776Y-123927000D01*
X94542783Y-123927000D01*
X94598169Y-123921545D01*
X94669234Y-123899988D01*
X94734727Y-123864981D01*
X94792133Y-123817869D01*
X94803941Y-123803481D01*
X95003481Y-123603941D01*
X95017869Y-123592133D01*
X95064981Y-123534727D01*
X95099988Y-123469234D01*
X95104359Y-123454826D01*
X95121545Y-123398170D01*
X95127413Y-123338588D01*
X95198185Y-123267816D01*
X95261331Y-123173312D01*
X95304826Y-123068305D01*
X95327000Y-122956830D01*
X95327000Y-122900092D01*
X95519566Y-122900092D01*
X95627266Y-123048216D01*
X95842287Y-123134933D01*
X96070095Y-123178034D01*
X96301934Y-123175865D01*
X96528895Y-123128508D01*
X96722734Y-123048216D01*
X96830434Y-122900092D01*
X96175000Y-122244659D01*
X95519566Y-122900092D01*
X95327000Y-122900092D01*
X95327000Y-122843170D01*
X95304826Y-122731695D01*
X95272518Y-122653696D01*
X95274908Y-122655434D01*
X95930341Y-122000000D01*
X96419659Y-122000000D01*
X97075092Y-122655434D01*
X97223216Y-122547734D01*
X97309933Y-122332713D01*
X97353034Y-122104905D01*
X97350865Y-121873066D01*
X97303508Y-121646105D01*
X97223216Y-121452266D01*
X97075092Y-121344566D01*
X96419659Y-122000000D01*
X95930341Y-122000000D01*
X95274908Y-121344566D01*
X95177000Y-121415754D01*
X95177000Y-121384076D01*
X95131769Y-121156682D01*
X95043044Y-120942481D01*
X94914236Y-120749706D01*
X94750294Y-120585764D01*
X94643608Y-120514479D01*
X95406719Y-120718954D01*
X96027531Y-120828420D01*
X95821105Y-120871492D01*
X95627266Y-120951784D01*
X95519566Y-121099908D01*
X96175000Y-121755341D01*
X96830434Y-121099908D01*
X96722734Y-120951784D01*
X96719293Y-120950396D01*
X97229973Y-121040443D01*
X99074309Y-121201801D01*
X99335992Y-121201801D01*
X99142481Y-121281956D01*
X98949706Y-121410764D01*
X98785764Y-121574706D01*
X98656956Y-121767481D01*
X98568231Y-121981682D01*
X98523000Y-122209076D01*
X98523000Y-122440924D01*
X98568231Y-122668318D01*
X98656956Y-122882519D01*
X98785764Y-123075294D01*
X98949706Y-123239236D01*
X99142481Y-123368044D01*
X99356682Y-123456769D01*
X99584076Y-123502000D01*
X99815924Y-123502000D01*
X100043318Y-123456769D01*
X100257519Y-123368044D01*
X100450294Y-123239236D01*
X100614236Y-123075294D01*
X100743044Y-122882519D01*
X100825888Y-122682515D01*
X100856956Y-122757519D01*
X100985764Y-122950294D01*
X101149706Y-123114236D01*
X101342481Y-123243044D01*
X101556682Y-123331769D01*
X101784076Y-123377000D01*
X102015924Y-123377000D01*
X102243318Y-123331769D01*
X102457519Y-123243044D01*
X102650294Y-123114236D01*
X102814236Y-122950294D01*
X102943044Y-122757519D01*
X103031769Y-122543318D01*
X103062940Y-122386610D01*
X103081956Y-122432519D01*
X103210764Y-122625294D01*
X103374706Y-122789236D01*
X103567481Y-122918044D01*
X103781682Y-123006769D01*
X104009076Y-123052000D01*
X104240924Y-123052000D01*
X104468318Y-123006769D01*
X104682519Y-122918044D01*
X104875294Y-122789236D01*
X105039236Y-122625294D01*
X105168044Y-122432519D01*
X105256769Y-122218318D01*
X105291052Y-122045963D01*
X105360764Y-122150294D01*
X105524706Y-122314236D01*
X105717481Y-122443044D01*
X105931682Y-122531769D01*
X106159076Y-122577000D01*
X106390924Y-122577000D01*
X106618318Y-122531769D01*
X106832519Y-122443044D01*
X107025294Y-122314236D01*
X107189236Y-122150294D01*
X107318044Y-121957519D01*
X107406769Y-121743318D01*
X107445203Y-121550092D01*
X107769566Y-121550092D01*
X107877266Y-121698216D01*
X108092287Y-121784933D01*
X108320095Y-121828034D01*
X108551934Y-121825865D01*
X108778895Y-121778508D01*
X108972734Y-121698216D01*
X109080434Y-121550092D01*
X108425000Y-120894659D01*
X107769566Y-121550092D01*
X107445203Y-121550092D01*
X107452000Y-121515924D01*
X107452000Y-121284076D01*
X107444639Y-121247071D01*
X107524908Y-121305434D01*
X108180341Y-120650000D01*
X108669659Y-120650000D01*
X109325092Y-121305434D01*
X109473216Y-121197734D01*
X109559933Y-120982713D01*
X109603034Y-120754905D01*
X109600865Y-120523066D01*
X109553508Y-120296105D01*
X109473216Y-120102266D01*
X109325092Y-119994566D01*
X108669659Y-120650000D01*
X108180341Y-120650000D01*
X107524908Y-119994566D01*
X107376784Y-120102266D01*
X107290067Y-120317287D01*
X107246966Y-120545095D01*
X107248778Y-120738818D01*
X107189236Y-120649706D01*
X107025294Y-120485764D01*
X106832519Y-120356956D01*
X106618318Y-120268231D01*
X106414693Y-120227728D01*
X107784707Y-119729084D01*
X107769566Y-119749908D01*
X108425000Y-120405341D01*
X109080434Y-119749908D01*
X108972734Y-119601784D01*
X108757713Y-119515067D01*
X108529905Y-119471966D01*
X108407514Y-119473111D01*
X109799229Y-118824144D01*
X111402572Y-117898453D01*
X111730060Y-117669143D01*
X121988730Y-117669143D01*
X121988730Y-118030857D01*
X122059297Y-118385620D01*
X122197719Y-118719800D01*
X122398676Y-119020554D01*
X122654446Y-119276324D01*
X122955200Y-119477281D01*
X123289380Y-119615703D01*
X123644143Y-119686270D01*
X124005857Y-119686270D01*
X124360620Y-119615703D01*
X124694800Y-119477281D01*
X124995554Y-119276324D01*
X125251324Y-119020554D01*
X125452281Y-118719800D01*
X125590703Y-118385620D01*
X125661270Y-118030857D01*
X125661270Y-117669143D01*
X125590703Y-117314380D01*
X125452281Y-116980200D01*
X125251324Y-116679446D01*
X124995554Y-116423676D01*
X124694800Y-116222719D01*
X124360620Y-116084297D01*
X124005857Y-116013730D01*
X123644143Y-116013730D01*
X123289380Y-116084297D01*
X122955200Y-116222719D01*
X122654446Y-116423676D01*
X122398676Y-116679446D01*
X122197719Y-116980200D01*
X122059297Y-117314380D01*
X121988730Y-117669143D01*
X111730060Y-117669143D01*
X112919135Y-116836545D01*
X114337375Y-115646500D01*
X115646500Y-114337375D01*
X116836545Y-112919135D01*
X117898453Y-111402572D01*
X118824144Y-109799229D01*
X119606571Y-108121308D01*
X120239781Y-106381578D01*
X120718954Y-104593281D01*
X121040443Y-102770027D01*
X121201801Y-100925691D01*
X121201801Y-100177000D01*
X128134293Y-100177000D01*
X128134293Y-100274284D01*
X128192541Y-100567115D01*
X128306798Y-100842957D01*
X128472673Y-101091207D01*
X128683793Y-101302327D01*
X128932043Y-101468202D01*
X129207885Y-101582459D01*
X129500716Y-101640707D01*
X129799284Y-101640707D01*
X130092115Y-101582459D01*
X130367957Y-101468202D01*
X130616207Y-101302327D01*
X130827327Y-101091207D01*
X130993202Y-100842957D01*
X131107459Y-100567115D01*
X131165707Y-100274284D01*
X131165707Y-100177000D01*
X132178386Y-100177000D01*
X132178386Y-101123694D01*
X132021616Y-103365607D01*
X131708840Y-105591124D01*
X131241582Y-107789401D01*
X130622118Y-109949729D01*
X129853466Y-112061583D01*
X128939371Y-114114674D01*
X127884286Y-116099000D01*
X126693352Y-118004893D01*
X125372370Y-119823068D01*
X123927777Y-121544667D01*
X122366610Y-123161303D01*
X120696475Y-124665099D01*
X118925510Y-126048729D01*
X117062340Y-127305453D01*
X115116045Y-128429147D01*
X113096106Y-129414337D01*
X111012365Y-130256223D01*
X108874972Y-130950704D01*
X106694341Y-131494396D01*
X104481096Y-131884651D01*
X102246019Y-132119567D01*
X100000000Y-132198000D01*
X97753981Y-132119567D01*
X95518904Y-131884651D01*
X93305659Y-131494396D01*
X91125028Y-130950704D01*
X88987635Y-130256223D01*
X86903894Y-129414337D01*
X84883955Y-128429147D01*
X84426310Y-128164925D01*
X88299125Y-128164925D01*
X88299125Y-128278585D01*
X88321299Y-128390060D01*
X88364794Y-128495067D01*
X88427940Y-128589571D01*
X88508309Y-128669940D01*
X88602813Y-128733086D01*
X88707820Y-128776581D01*
X88819295Y-128798755D01*
X88919966Y-128798755D01*
X88922639Y-128801428D01*
X88922644Y-128801432D01*
X89374697Y-129253486D01*
X89386500Y-129267868D01*
X89400882Y-129279671D01*
X89400884Y-129279673D01*
X89443906Y-129314980D01*
X89509399Y-129349987D01*
X89580463Y-129371544D01*
X89654369Y-129378823D01*
X89672888Y-129376999D01*
X104681489Y-129376999D01*
X104700001Y-129378822D01*
X104718513Y-129376999D01*
X104718520Y-129376999D01*
X104773906Y-129371544D01*
X104844971Y-129349987D01*
X104910464Y-129314980D01*
X104967870Y-129267868D01*
X104979678Y-129253480D01*
X106556158Y-127677000D01*
X106656830Y-127677000D01*
X106768305Y-127654826D01*
X106873312Y-127611331D01*
X106967816Y-127548185D01*
X107048185Y-127467816D01*
X107111331Y-127373312D01*
X107154826Y-127268305D01*
X107177000Y-127156830D01*
X107177000Y-127043170D01*
X107154826Y-126931695D01*
X107111331Y-126826688D01*
X107048185Y-126732184D01*
X106967816Y-126651815D01*
X106873312Y-126588669D01*
X106768305Y-126545174D01*
X106656830Y-126523000D01*
X106543170Y-126523000D01*
X106431695Y-126545174D01*
X106326688Y-126588669D01*
X106232184Y-126651815D01*
X106151815Y-126732184D01*
X106088669Y-126826688D01*
X106045174Y-126931695D01*
X106023000Y-127043170D01*
X106023000Y-127143842D01*
X104543843Y-128622999D01*
X99993002Y-128622999D01*
X100048185Y-128567816D01*
X100111331Y-128473312D01*
X100154826Y-128368305D01*
X100177000Y-128256830D01*
X100177000Y-128143170D01*
X100154826Y-128031695D01*
X100132171Y-127977000D01*
X102760999Y-127977000D01*
X102832184Y-128048185D01*
X102926688Y-128111331D01*
X103031695Y-128154826D01*
X103143170Y-128177000D01*
X103256830Y-128177000D01*
X103368305Y-128154826D01*
X103473312Y-128111331D01*
X103567816Y-128048185D01*
X103648185Y-127967816D01*
X103711331Y-127873312D01*
X103754826Y-127768305D01*
X103777000Y-127656830D01*
X103777000Y-127543170D01*
X103754826Y-127431695D01*
X103711331Y-127326688D01*
X103648185Y-127232184D01*
X103567816Y-127151815D01*
X103473312Y-127088669D01*
X103368305Y-127045174D01*
X103256830Y-127023000D01*
X103143170Y-127023000D01*
X103031695Y-127045174D01*
X102926688Y-127088669D01*
X102832184Y-127151815D01*
X102760999Y-127223000D01*
X101532171Y-127223000D01*
X101554826Y-127168305D01*
X101577000Y-127056830D01*
X101577000Y-126943170D01*
X101554826Y-126831695D01*
X101511331Y-126726688D01*
X101448185Y-126632184D01*
X101367816Y-126551815D01*
X101273312Y-126488669D01*
X101168305Y-126445174D01*
X101056830Y-126423000D01*
X100943170Y-126423000D01*
X100831695Y-126445174D01*
X100726688Y-126488669D01*
X100632184Y-126551815D01*
X100560999Y-126623000D01*
X90356159Y-126623000D01*
X89576996Y-125843838D01*
X89576996Y-125843170D01*
X89554822Y-125731695D01*
X89511327Y-125626688D01*
X89448181Y-125532184D01*
X89367812Y-125451815D01*
X89273308Y-125388669D01*
X89168301Y-125345174D01*
X89056826Y-125323000D01*
X88943166Y-125323000D01*
X88831691Y-125345174D01*
X88726684Y-125388669D01*
X88632180Y-125451815D01*
X88551811Y-125532184D01*
X88488665Y-125626688D01*
X88445170Y-125731695D01*
X88422996Y-125843170D01*
X88422996Y-125956830D01*
X88445170Y-126068305D01*
X88488665Y-126173312D01*
X88551811Y-126267816D01*
X88632180Y-126348185D01*
X88726684Y-126411331D01*
X88819500Y-126449777D01*
X88770182Y-126499095D01*
X88707036Y-126593599D01*
X88663541Y-126698606D01*
X88641367Y-126810081D01*
X88641367Y-126923741D01*
X88663541Y-127035216D01*
X88707036Y-127140223D01*
X88770182Y-127234727D01*
X88850551Y-127315096D01*
X88936831Y-127372747D01*
X88930284Y-127382546D01*
X88886789Y-127487553D01*
X88864615Y-127599028D01*
X88864615Y-127644755D01*
X88819295Y-127644755D01*
X88707820Y-127666929D01*
X88602813Y-127710424D01*
X88508309Y-127773570D01*
X88427940Y-127853939D01*
X88364794Y-127948443D01*
X88321299Y-128053450D01*
X88299125Y-128164925D01*
X84426310Y-128164925D01*
X82937660Y-127305453D01*
X81074490Y-126048729D01*
X79303525Y-124665099D01*
X77633390Y-123161303D01*
X76072223Y-121544667D01*
X74627630Y-119823068D01*
X73306648Y-118004893D01*
X73128092Y-117719143D01*
X74563730Y-117719143D01*
X74563730Y-118080857D01*
X74634297Y-118435620D01*
X74772719Y-118769800D01*
X74973676Y-119070554D01*
X75229446Y-119326324D01*
X75530200Y-119527281D01*
X75864380Y-119665703D01*
X76219143Y-119736270D01*
X76580857Y-119736270D01*
X76935620Y-119665703D01*
X77269800Y-119527281D01*
X77570554Y-119326324D01*
X77826324Y-119070554D01*
X78027281Y-118769800D01*
X78165703Y-118435620D01*
X78236270Y-118080857D01*
X78236270Y-117719143D01*
X78165703Y-117364380D01*
X78027281Y-117030200D01*
X77826324Y-116729446D01*
X77570554Y-116473676D01*
X77269800Y-116272719D01*
X76935620Y-116134297D01*
X76580857Y-116063730D01*
X76219143Y-116063730D01*
X75864380Y-116134297D01*
X75530200Y-116272719D01*
X75229446Y-116473676D01*
X74973676Y-116729446D01*
X74772719Y-117030200D01*
X74634297Y-117364380D01*
X74563730Y-117719143D01*
X73128092Y-117719143D01*
X72115714Y-116099000D01*
X71182123Y-114343170D01*
X78323000Y-114343170D01*
X78323000Y-114456830D01*
X78345174Y-114568305D01*
X78388669Y-114673312D01*
X78451815Y-114767816D01*
X78532184Y-114848185D01*
X78626688Y-114911331D01*
X78731695Y-114954826D01*
X78843170Y-114977000D01*
X78943842Y-114977000D01*
X81623000Y-117656159D01*
X81623001Y-118581478D01*
X81621177Y-118600000D01*
X81628455Y-118673905D01*
X81650012Y-118744969D01*
X81685020Y-118810463D01*
X81720326Y-118853484D01*
X81720329Y-118853487D01*
X81732132Y-118867869D01*
X81746514Y-118879672D01*
X83223000Y-120356158D01*
X83223000Y-120456830D01*
X83245174Y-120568305D01*
X83288669Y-120673312D01*
X83351815Y-120767816D01*
X83432184Y-120848185D01*
X83526688Y-120911331D01*
X83631695Y-120954826D01*
X83743170Y-120977000D01*
X83856830Y-120977000D01*
X83968305Y-120954826D01*
X84073312Y-120911331D01*
X84167816Y-120848185D01*
X84248185Y-120767816D01*
X84311331Y-120673312D01*
X84354826Y-120568305D01*
X84377000Y-120456830D01*
X84377000Y-120343170D01*
X84354826Y-120231695D01*
X84311331Y-120126688D01*
X84248185Y-120032184D01*
X84167816Y-119951815D01*
X84073312Y-119888669D01*
X83968305Y-119845174D01*
X83856830Y-119823000D01*
X83756158Y-119823000D01*
X82377000Y-118443842D01*
X82377000Y-117518508D01*
X82378823Y-117499999D01*
X82377000Y-117481490D01*
X82377000Y-117481481D01*
X82371545Y-117426095D01*
X82349988Y-117355030D01*
X82314981Y-117289537D01*
X82267869Y-117232131D01*
X82253488Y-117220329D01*
X79477000Y-114443842D01*
X79477000Y-114343170D01*
X79454826Y-114231695D01*
X79411331Y-114126688D01*
X79348185Y-114032184D01*
X79267816Y-113951815D01*
X79173312Y-113888669D01*
X79068305Y-113845174D01*
X78956830Y-113823000D01*
X78843170Y-113823000D01*
X78731695Y-113845174D01*
X78626688Y-113888669D01*
X78532184Y-113951815D01*
X78451815Y-114032184D01*
X78388669Y-114126688D01*
X78345174Y-114231695D01*
X78323000Y-114343170D01*
X71182123Y-114343170D01*
X71060629Y-114114674D01*
X70146534Y-112061583D01*
X69849888Y-111246554D01*
X76315768Y-111246554D01*
X76315768Y-111398184D01*
X76345349Y-111546900D01*
X76403375Y-111686987D01*
X76487616Y-111813063D01*
X76594834Y-111920281D01*
X76720910Y-112004522D01*
X76860997Y-112062548D01*
X77009713Y-112092129D01*
X77161343Y-112092129D01*
X77310059Y-112062548D01*
X77450146Y-112004522D01*
X77576222Y-111920281D01*
X77683440Y-111813063D01*
X77767681Y-111686987D01*
X77825707Y-111546900D01*
X77855288Y-111398184D01*
X77855288Y-111246554D01*
X77825707Y-111097838D01*
X77767681Y-110957751D01*
X77683440Y-110831675D01*
X77576222Y-110724457D01*
X77450146Y-110640216D01*
X77310059Y-110582190D01*
X77161343Y-110552609D01*
X77009713Y-110552609D01*
X76860997Y-110582190D01*
X76720910Y-110640216D01*
X76594834Y-110724457D01*
X76487616Y-110831675D01*
X76403375Y-110957751D01*
X76345349Y-111097838D01*
X76315768Y-111246554D01*
X69849888Y-111246554D01*
X69377882Y-109949729D01*
X69337734Y-109809713D01*
X77752609Y-109809713D01*
X77752609Y-109961343D01*
X77782190Y-110110059D01*
X77840216Y-110250146D01*
X77924457Y-110376222D01*
X78031675Y-110483440D01*
X78157751Y-110567681D01*
X78297838Y-110625707D01*
X78446554Y-110655288D01*
X78598184Y-110655288D01*
X78746900Y-110625707D01*
X78886987Y-110567681D01*
X79013063Y-110483440D01*
X79120281Y-110376222D01*
X79204522Y-110250146D01*
X79262548Y-110110059D01*
X79292129Y-109961343D01*
X79292129Y-109809713D01*
X79262548Y-109660997D01*
X79204522Y-109520910D01*
X79120281Y-109394834D01*
X79013063Y-109287616D01*
X78886987Y-109203375D01*
X78746900Y-109145349D01*
X78598184Y-109115768D01*
X78446554Y-109115768D01*
X78297838Y-109145349D01*
X78157751Y-109203375D01*
X78031675Y-109287616D01*
X77924457Y-109394834D01*
X77840216Y-109520910D01*
X77782190Y-109660997D01*
X77752609Y-109809713D01*
X69337734Y-109809713D01*
X68758418Y-107789401D01*
X68291160Y-105591124D01*
X68096968Y-104209369D01*
X69483893Y-104209369D01*
X69539825Y-104366495D01*
X69639713Y-104487685D01*
X69761325Y-104587059D01*
X69899987Y-104660798D01*
X70050370Y-104706069D01*
X70206696Y-104721132D01*
X70332000Y-104641753D01*
X70332000Y-104093000D01*
X70678000Y-104093000D01*
X70678000Y-104641753D01*
X70803304Y-104721132D01*
X70959630Y-104706069D01*
X71110013Y-104660798D01*
X71248675Y-104587059D01*
X71370287Y-104487685D01*
X71470175Y-104366495D01*
X71526107Y-104209369D01*
X73413893Y-104209369D01*
X73463249Y-104347093D01*
X73559478Y-104469939D01*
X73677824Y-104571651D01*
X73813739Y-104648320D01*
X73962000Y-104697000D01*
X74512000Y-104697000D01*
X74512000Y-104093000D01*
X74858000Y-104093000D01*
X74858000Y-104697000D01*
X75408000Y-104697000D01*
X75556261Y-104648320D01*
X75692176Y-104571651D01*
X75810522Y-104469939D01*
X75906751Y-104347093D01*
X75956107Y-104209369D01*
X75921281Y-104093000D01*
X74858000Y-104093000D01*
X74512000Y-104093000D01*
X73448719Y-104093000D01*
X73413893Y-104209369D01*
X71526107Y-104209369D01*
X71491281Y-104093000D01*
X70678000Y-104093000D01*
X70332000Y-104093000D01*
X69518719Y-104093000D01*
X69483893Y-104209369D01*
X68096968Y-104209369D01*
X68015632Y-103630631D01*
X69483893Y-103630631D01*
X69518719Y-103747000D01*
X70332000Y-103747000D01*
X70332000Y-103198247D01*
X70678000Y-103198247D01*
X70678000Y-103747000D01*
X71491281Y-103747000D01*
X71526107Y-103630631D01*
X73413893Y-103630631D01*
X73448719Y-103747000D01*
X74512000Y-103747000D01*
X74512000Y-103143000D01*
X74858000Y-103143000D01*
X74858000Y-103747000D01*
X75921281Y-103747000D01*
X75956107Y-103630631D01*
X75906751Y-103492907D01*
X75810522Y-103370061D01*
X75692176Y-103268349D01*
X75556261Y-103191680D01*
X75408000Y-103143000D01*
X74858000Y-103143000D01*
X74512000Y-103143000D01*
X73962000Y-103143000D01*
X73813739Y-103191680D01*
X73677824Y-103268349D01*
X73559478Y-103370061D01*
X73463249Y-103492907D01*
X73413893Y-103630631D01*
X71526107Y-103630631D01*
X71470175Y-103473505D01*
X71370287Y-103352315D01*
X71248675Y-103252941D01*
X71110013Y-103179202D01*
X70959630Y-103133931D01*
X70803304Y-103118868D01*
X70678000Y-103198247D01*
X70332000Y-103198247D01*
X70206696Y-103118868D01*
X70050370Y-103133931D01*
X69899987Y-103179202D01*
X69761325Y-103252941D01*
X69639713Y-103352315D01*
X69539825Y-103473505D01*
X69483893Y-103630631D01*
X68015632Y-103630631D01*
X67978384Y-103365607D01*
X67913010Y-102430708D01*
X73553000Y-102430708D01*
X73553000Y-102549292D01*
X73576134Y-102665597D01*
X73621514Y-102775154D01*
X73687396Y-102873753D01*
X73771247Y-102957604D01*
X73869846Y-103023486D01*
X73979403Y-103068866D01*
X74095708Y-103092000D01*
X74214292Y-103092000D01*
X74330597Y-103068866D01*
X74440154Y-103023486D01*
X74538753Y-102957604D01*
X74622604Y-102873753D01*
X74688486Y-102775154D01*
X74733866Y-102665597D01*
X74757000Y-102549292D01*
X74757000Y-102430708D01*
X74733866Y-102314403D01*
X74688486Y-102204846D01*
X74622604Y-102106247D01*
X74538753Y-102022396D01*
X74440154Y-101956514D01*
X74330597Y-101911134D01*
X74214292Y-101888000D01*
X74095708Y-101888000D01*
X73979403Y-101911134D01*
X73869846Y-101956514D01*
X73771247Y-102022396D01*
X73687396Y-102106247D01*
X73621514Y-102204846D01*
X73576134Y-102314403D01*
X73553000Y-102430708D01*
X67913010Y-102430708D01*
X67821614Y-101123694D01*
X67821614Y-98876306D01*
X67977243Y-96650708D01*
X73553000Y-96650708D01*
X73553000Y-96769292D01*
X73576134Y-96885597D01*
X73621514Y-96995154D01*
X73687396Y-97093753D01*
X73771247Y-97177604D01*
X73869846Y-97243486D01*
X73979403Y-97288866D01*
X74095708Y-97312000D01*
X74214292Y-97312000D01*
X74330597Y-97288866D01*
X74440154Y-97243486D01*
X74538753Y-97177604D01*
X74622604Y-97093753D01*
X74688486Y-96995154D01*
X74733866Y-96885597D01*
X74757000Y-96769292D01*
X74757000Y-96650708D01*
X74733866Y-96534403D01*
X74688486Y-96424846D01*
X74622604Y-96326247D01*
X74538753Y-96242396D01*
X74440154Y-96176514D01*
X74330597Y-96131134D01*
X74214292Y-96108000D01*
X74095708Y-96108000D01*
X73979403Y-96131134D01*
X73869846Y-96176514D01*
X73771247Y-96242396D01*
X73687396Y-96326247D01*
X73621514Y-96424846D01*
X73576134Y-96534403D01*
X73553000Y-96650708D01*
X67977243Y-96650708D01*
X67978384Y-96634393D01*
X68128063Y-95569369D01*
X69483893Y-95569369D01*
X69539825Y-95726495D01*
X69639713Y-95847685D01*
X69761325Y-95947059D01*
X69899987Y-96020798D01*
X70050370Y-96066069D01*
X70206696Y-96081132D01*
X70332000Y-96001753D01*
X70332000Y-95453000D01*
X70678000Y-95453000D01*
X70678000Y-96001753D01*
X70803304Y-96081132D01*
X70959630Y-96066069D01*
X71110013Y-96020798D01*
X71248675Y-95947059D01*
X71370287Y-95847685D01*
X71470175Y-95726495D01*
X71526107Y-95569369D01*
X73413893Y-95569369D01*
X73463249Y-95707093D01*
X73559478Y-95829939D01*
X73677824Y-95931651D01*
X73813739Y-96008320D01*
X73962000Y-96057000D01*
X74512000Y-96057000D01*
X74512000Y-95453000D01*
X74858000Y-95453000D01*
X74858000Y-96057000D01*
X75408000Y-96057000D01*
X75556261Y-96008320D01*
X75692176Y-95931651D01*
X75810522Y-95829939D01*
X75906751Y-95707093D01*
X75956107Y-95569369D01*
X75921281Y-95453000D01*
X74858000Y-95453000D01*
X74512000Y-95453000D01*
X73448719Y-95453000D01*
X73413893Y-95569369D01*
X71526107Y-95569369D01*
X71491281Y-95453000D01*
X70678000Y-95453000D01*
X70332000Y-95453000D01*
X69518719Y-95453000D01*
X69483893Y-95569369D01*
X68128063Y-95569369D01*
X68209399Y-94990631D01*
X69483893Y-94990631D01*
X69518719Y-95107000D01*
X70332000Y-95107000D01*
X70332000Y-94558247D01*
X70678000Y-94558247D01*
X70678000Y-95107000D01*
X71491281Y-95107000D01*
X71526107Y-94990631D01*
X73413893Y-94990631D01*
X73448719Y-95107000D01*
X74512000Y-95107000D01*
X74512000Y-94503000D01*
X74858000Y-94503000D01*
X74858000Y-95107000D01*
X75921281Y-95107000D01*
X75956107Y-94990631D01*
X75906751Y-94852907D01*
X75810522Y-94730061D01*
X75692176Y-94628349D01*
X75556261Y-94551680D01*
X75408000Y-94503000D01*
X74858000Y-94503000D01*
X74512000Y-94503000D01*
X73962000Y-94503000D01*
X73813739Y-94551680D01*
X73677824Y-94628349D01*
X73559478Y-94730061D01*
X73463249Y-94852907D01*
X73413893Y-94990631D01*
X71526107Y-94990631D01*
X71470175Y-94833505D01*
X71370287Y-94712315D01*
X71248675Y-94612941D01*
X71110013Y-94539202D01*
X70959630Y-94493931D01*
X70803304Y-94478868D01*
X70678000Y-94558247D01*
X70332000Y-94558247D01*
X70206696Y-94478868D01*
X70050370Y-94493931D01*
X69899987Y-94539202D01*
X69761325Y-94612941D01*
X69639713Y-94712315D01*
X69539825Y-94833505D01*
X69483893Y-94990631D01*
X68209399Y-94990631D01*
X68291160Y-94408876D01*
X68758418Y-92210599D01*
X69377882Y-90050271D01*
X70146534Y-87938417D01*
X71060629Y-85885326D01*
X72115714Y-83901000D01*
X73306648Y-81995107D01*
X73343675Y-81944143D01*
X74638730Y-81944143D01*
X74638730Y-82305857D01*
X74709297Y-82660620D01*
X74847719Y-82994800D01*
X75048676Y-83295554D01*
X75304446Y-83551324D01*
X75605200Y-83752281D01*
X75939380Y-83890703D01*
X76294143Y-83961270D01*
X76655857Y-83961270D01*
X77010620Y-83890703D01*
X77344800Y-83752281D01*
X77645554Y-83551324D01*
X77901324Y-83295554D01*
X78102281Y-82994800D01*
X78240703Y-82660620D01*
X78311270Y-82305857D01*
X78311270Y-81944143D01*
X78240703Y-81589380D01*
X78102281Y-81255200D01*
X77901324Y-80954446D01*
X77645554Y-80698676D01*
X77344800Y-80497719D01*
X77010620Y-80359297D01*
X76655857Y-80288730D01*
X76294143Y-80288730D01*
X75939380Y-80359297D01*
X75605200Y-80497719D01*
X75304446Y-80698676D01*
X75048676Y-80954446D01*
X74847719Y-81255200D01*
X74709297Y-81589380D01*
X74638730Y-81944143D01*
X73343675Y-81944143D01*
X74627630Y-80176932D01*
X76072223Y-78455333D01*
X77633390Y-76838697D01*
X79303525Y-75334901D01*
X81074490Y-73951271D01*
X82937660Y-72694547D01*
X84883955Y-71570853D01*
X86903894Y-70585663D01*
X88987635Y-69743777D01*
X91125028Y-69049296D01*
X93305659Y-68505604D01*
X95518904Y-68115349D01*
X97753981Y-67880433D01*
X100000000Y-67802000D01*
X102246019Y-67880433D01*
G37*
X102246019Y-67880433D02*
X104481096Y-68115349D01*
X106694341Y-68505604D01*
X108874972Y-69049296D01*
X111012365Y-69743777D01*
X113096106Y-70585663D01*
X115116045Y-71570853D01*
X117062340Y-72694547D01*
X118925510Y-73951271D01*
X120696475Y-75334901D01*
X122366610Y-76838697D01*
X123927777Y-78455333D01*
X125372370Y-80176932D01*
X126693352Y-81995107D01*
X127884286Y-83901000D01*
X128939371Y-85885326D01*
X129853466Y-87938417D01*
X130622118Y-90050271D01*
X131241582Y-92210599D01*
X131708840Y-94408876D01*
X132021616Y-96634393D01*
X132178386Y-98876306D01*
X132178386Y-99823000D01*
X131135330Y-99823000D01*
X131107459Y-99682885D01*
X130993202Y-99407043D01*
X130827327Y-99158793D01*
X130616207Y-98947673D01*
X130367957Y-98781798D01*
X130092115Y-98667541D01*
X129799284Y-98609293D01*
X129500716Y-98609293D01*
X129207885Y-98667541D01*
X128932043Y-98781798D01*
X128683793Y-98947673D01*
X128472673Y-99158793D01*
X128306798Y-99407043D01*
X128192541Y-99682885D01*
X128164670Y-99823000D01*
X121201801Y-99823000D01*
X121201801Y-99074309D01*
X121040443Y-97229973D01*
X120718954Y-95406719D01*
X120239781Y-93618422D01*
X119606571Y-91878692D01*
X118824144Y-90200771D01*
X117898453Y-88597428D01*
X116836545Y-87080865D01*
X115646500Y-85662625D01*
X114337375Y-84353500D01*
X112919135Y-83163455D01*
X111427702Y-82119143D01*
X121938730Y-82119143D01*
X121938730Y-82480857D01*
X122009297Y-82835620D01*
X122147719Y-83169800D01*
X122348676Y-83470554D01*
X122604446Y-83726324D01*
X122905200Y-83927281D01*
X123239380Y-84065703D01*
X123594143Y-84136270D01*
X123955857Y-84136270D01*
X124310620Y-84065703D01*
X124644800Y-83927281D01*
X124945554Y-83726324D01*
X125201324Y-83470554D01*
X125402281Y-83169800D01*
X125540703Y-82835620D01*
X125611270Y-82480857D01*
X125611270Y-82119143D01*
X125540703Y-81764380D01*
X125402281Y-81430200D01*
X125201324Y-81129446D01*
X124945554Y-80873676D01*
X124644800Y-80672719D01*
X124310620Y-80534297D01*
X123955857Y-80463730D01*
X123594143Y-80463730D01*
X123239380Y-80534297D01*
X122905200Y-80672719D01*
X122604446Y-80873676D01*
X122348676Y-81129446D01*
X122147719Y-81430200D01*
X122009297Y-81764380D01*
X121938730Y-82119143D01*
X111427702Y-82119143D01*
X111402572Y-82101547D01*
X109799229Y-81175856D01*
X108121308Y-80393429D01*
X106381578Y-79760219D01*
X104593281Y-79281046D01*
X102770027Y-78959557D01*
X100925691Y-78798199D01*
X99074309Y-78798199D01*
X97229973Y-78959557D01*
X95406719Y-79281046D01*
X93618422Y-79760219D01*
X91878692Y-80393429D01*
X90200771Y-81175856D01*
X88597428Y-82101547D01*
X87080865Y-83163455D01*
X85662625Y-84353500D01*
X84353500Y-85662625D01*
X83163455Y-87080865D01*
X82101547Y-88597428D01*
X81175856Y-90200771D01*
X80393429Y-91878692D01*
X79760219Y-93618422D01*
X79281046Y-95406719D01*
X79151067Y-96143866D01*
X79151067Y-93247791D01*
X79953490Y-92445369D01*
X79967871Y-92433567D01*
X80014983Y-92376161D01*
X80049990Y-92310668D01*
X80049990Y-92310667D01*
X80071547Y-92239604D01*
X80078826Y-92165698D01*
X80077002Y-92147179D01*
X80077002Y-88539001D01*
X80148187Y-88467816D01*
X80211333Y-88373312D01*
X80254828Y-88268305D01*
X80277002Y-88156830D01*
X80277002Y-88043170D01*
X80254828Y-87931695D01*
X80211333Y-87826688D01*
X80148187Y-87732184D01*
X80067818Y-87651815D01*
X79973314Y-87588669D01*
X79868307Y-87545174D01*
X79756832Y-87523000D01*
X79643172Y-87523000D01*
X79531697Y-87545174D01*
X79426690Y-87588669D01*
X79332186Y-87651815D01*
X79251817Y-87732184D01*
X79188671Y-87826688D01*
X79145176Y-87931695D01*
X79123002Y-88043170D01*
X79123002Y-88156830D01*
X79145176Y-88268305D01*
X79188671Y-88373312D01*
X79251817Y-88467816D01*
X79323002Y-88539001D01*
X79323002Y-88542782D01*
X79323003Y-88542792D01*
X79323003Y-88667830D01*
X79268307Y-88645174D01*
X79156832Y-88623000D01*
X79043172Y-88623000D01*
X78931697Y-88645174D01*
X78826690Y-88688669D01*
X78732186Y-88751815D01*
X78651817Y-88832184D01*
X78588671Y-88926688D01*
X78545176Y-89031695D01*
X78523002Y-89143170D01*
X78523002Y-89256830D01*
X78545176Y-89368305D01*
X78588671Y-89473312D01*
X78651817Y-89567816D01*
X78723001Y-89639000D01*
X78723000Y-92043841D01*
X78096515Y-92670327D01*
X78082133Y-92682130D01*
X78070330Y-92696512D01*
X78070327Y-92696515D01*
X78035021Y-92739536D01*
X78000013Y-92805030D01*
X77978456Y-92876094D01*
X77971178Y-92949999D01*
X77973002Y-92968521D01*
X77973001Y-103893840D01*
X76946514Y-104920328D01*
X76932132Y-104932131D01*
X76920329Y-104946513D01*
X76920326Y-104946516D01*
X76885020Y-104989537D01*
X76850012Y-105055031D01*
X76828455Y-105126095D01*
X76821177Y-105200000D01*
X76823001Y-105218522D01*
X76823000Y-106281496D01*
X76821177Y-106300008D01*
X76823000Y-106318520D01*
X76823000Y-106318526D01*
X76825721Y-106346151D01*
X76828455Y-106373913D01*
X76850012Y-106444977D01*
X76885019Y-106510470D01*
X76932131Y-106567877D01*
X76946519Y-106579685D01*
X80370620Y-110003787D01*
X80370619Y-110497154D01*
X80368796Y-110515666D01*
X80370619Y-110534178D01*
X80370619Y-110534184D01*
X80376074Y-110589570D01*
X80397631Y-110660635D01*
X80432638Y-110726128D01*
X80479750Y-110783535D01*
X80494138Y-110795343D01*
X80925341Y-111226546D01*
X80831695Y-111245174D01*
X80726688Y-111288669D01*
X80632184Y-111351815D01*
X80551815Y-111432184D01*
X80488669Y-111526688D01*
X80445174Y-111631695D01*
X80423000Y-111743170D01*
X80423000Y-111856830D01*
X80445174Y-111968305D01*
X80488669Y-112073312D01*
X80551815Y-112167816D01*
X80623000Y-112239001D01*
X80623001Y-113260775D01*
X80348538Y-113535239D01*
X80334151Y-113547046D01*
X80287039Y-113604453D01*
X80252032Y-113669946D01*
X80230475Y-113741011D01*
X80225020Y-113796397D01*
X80225020Y-113796403D01*
X80223197Y-113814915D01*
X80225020Y-113833427D01*
X80225021Y-114558666D01*
X80223197Y-114577187D01*
X80230475Y-114651092D01*
X80252032Y-114722156D01*
X80287040Y-114787650D01*
X80322346Y-114830671D01*
X80322349Y-114830674D01*
X80334152Y-114845056D01*
X80348534Y-114856859D01*
X80735243Y-115243568D01*
X80747046Y-115257951D01*
X80804452Y-115305063D01*
X80869945Y-115340070D01*
X80941009Y-115361627D01*
X81014915Y-115368906D01*
X81033434Y-115367082D01*
X81344931Y-115367082D01*
X81345174Y-115368305D01*
X81388669Y-115473312D01*
X81451815Y-115567816D01*
X81532184Y-115648185D01*
X81626688Y-115711331D01*
X81731695Y-115754826D01*
X81843170Y-115777000D01*
X81956830Y-115777000D01*
X82068305Y-115754826D01*
X82173312Y-115711331D01*
X82267816Y-115648185D01*
X82348185Y-115567816D01*
X82411331Y-115473312D01*
X82454826Y-115368305D01*
X82477000Y-115256830D01*
X82477000Y-115143170D01*
X82454826Y-115031695D01*
X82411331Y-114926688D01*
X82348185Y-114832184D01*
X82267816Y-114751815D01*
X82173312Y-114688669D01*
X82068305Y-114645174D01*
X82028550Y-114637266D01*
X82079329Y-114561271D01*
X82137451Y-114420952D01*
X82167081Y-114271991D01*
X82167081Y-114120111D01*
X82137451Y-113971150D01*
X82079329Y-113830831D01*
X81994949Y-113704548D01*
X81887554Y-113597153D01*
X81761271Y-113512773D01*
X81620952Y-113454651D01*
X81471991Y-113425021D01*
X81378028Y-113425021D01*
X81378824Y-113416935D01*
X81377000Y-113398416D01*
X81377000Y-112310158D01*
X82523001Y-113456160D01*
X82523000Y-118005752D01*
X82521177Y-118024264D01*
X82523000Y-118042776D01*
X82523000Y-118042782D01*
X82528455Y-118098168D01*
X82550012Y-118169233D01*
X82585019Y-118234726D01*
X82632131Y-118292133D01*
X82646519Y-118303941D01*
X85496064Y-121153487D01*
X85507867Y-121167869D01*
X85522249Y-121179672D01*
X85522251Y-121179674D01*
X85549213Y-121201801D01*
X85565273Y-121214981D01*
X85630766Y-121249988D01*
X85701830Y-121271545D01*
X85761412Y-121277413D01*
X85832184Y-121348185D01*
X85926688Y-121411331D01*
X86031695Y-121454826D01*
X86143170Y-121477000D01*
X86256830Y-121477000D01*
X86368305Y-121454826D01*
X86473312Y-121411331D01*
X86567816Y-121348185D01*
X86648185Y-121267816D01*
X86711331Y-121173312D01*
X86754826Y-121068305D01*
X86777000Y-120956830D01*
X86777000Y-120843170D01*
X86754826Y-120731695D01*
X86711331Y-120626688D01*
X86648185Y-120532184D01*
X86567816Y-120451815D01*
X86473312Y-120388669D01*
X86414978Y-120364507D01*
X86454826Y-120268305D01*
X86477000Y-120156830D01*
X86477000Y-120043170D01*
X86454826Y-119931695D01*
X86411331Y-119826688D01*
X86348185Y-119732184D01*
X86267816Y-119651815D01*
X86173312Y-119588669D01*
X86068305Y-119545174D01*
X85956830Y-119523000D01*
X85856159Y-119523000D01*
X84682220Y-118349062D01*
X84773312Y-118311331D01*
X84867816Y-118248185D01*
X84939001Y-118177000D01*
X86031844Y-118177000D01*
X91658330Y-123803487D01*
X91670133Y-123817869D01*
X91727539Y-123864981D01*
X91793032Y-123899988D01*
X91864096Y-123921545D01*
X91871056Y-123922230D01*
X91919483Y-123927000D01*
X91919490Y-123927000D01*
X91938002Y-123928823D01*
X91956514Y-123927000D01*
X94505752Y-123927000D01*
X94524264Y-123928823D01*
X94542776Y-123927000D01*
X94542783Y-123927000D01*
X94598169Y-123921545D01*
X94669234Y-123899988D01*
X94734727Y-123864981D01*
X94792133Y-123817869D01*
X94803941Y-123803481D01*
X95003481Y-123603941D01*
X95017869Y-123592133D01*
X95064981Y-123534727D01*
X95099988Y-123469234D01*
X95104359Y-123454826D01*
X95121545Y-123398170D01*
X95127413Y-123338588D01*
X95198185Y-123267816D01*
X95261331Y-123173312D01*
X95304826Y-123068305D01*
X95327000Y-122956830D01*
X95327000Y-122900092D01*
X95519566Y-122900092D01*
X95627266Y-123048216D01*
X95842287Y-123134933D01*
X96070095Y-123178034D01*
X96301934Y-123175865D01*
X96528895Y-123128508D01*
X96722734Y-123048216D01*
X96830434Y-122900092D01*
X96175000Y-122244659D01*
X95519566Y-122900092D01*
X95327000Y-122900092D01*
X95327000Y-122843170D01*
X95304826Y-122731695D01*
X95272518Y-122653696D01*
X95274908Y-122655434D01*
X95930341Y-122000000D01*
X96419659Y-122000000D01*
X97075092Y-122655434D01*
X97223216Y-122547734D01*
X97309933Y-122332713D01*
X97353034Y-122104905D01*
X97350865Y-121873066D01*
X97303508Y-121646105D01*
X97223216Y-121452266D01*
X97075092Y-121344566D01*
X96419659Y-122000000D01*
X95930341Y-122000000D01*
X95274908Y-121344566D01*
X95177000Y-121415754D01*
X95177000Y-121384076D01*
X95131769Y-121156682D01*
X95043044Y-120942481D01*
X94914236Y-120749706D01*
X94750294Y-120585764D01*
X94643608Y-120514479D01*
X95406719Y-120718954D01*
X96027531Y-120828420D01*
X95821105Y-120871492D01*
X95627266Y-120951784D01*
X95519566Y-121099908D01*
X96175000Y-121755341D01*
X96830434Y-121099908D01*
X96722734Y-120951784D01*
X96719293Y-120950396D01*
X97229973Y-121040443D01*
X99074309Y-121201801D01*
X99335992Y-121201801D01*
X99142481Y-121281956D01*
X98949706Y-121410764D01*
X98785764Y-121574706D01*
X98656956Y-121767481D01*
X98568231Y-121981682D01*
X98523000Y-122209076D01*
X98523000Y-122440924D01*
X98568231Y-122668318D01*
X98656956Y-122882519D01*
X98785764Y-123075294D01*
X98949706Y-123239236D01*
X99142481Y-123368044D01*
X99356682Y-123456769D01*
X99584076Y-123502000D01*
X99815924Y-123502000D01*
X100043318Y-123456769D01*
X100257519Y-123368044D01*
X100450294Y-123239236D01*
X100614236Y-123075294D01*
X100743044Y-122882519D01*
X100825888Y-122682515D01*
X100856956Y-122757519D01*
X100985764Y-122950294D01*
X101149706Y-123114236D01*
X101342481Y-123243044D01*
X101556682Y-123331769D01*
X101784076Y-123377000D01*
X102015924Y-123377000D01*
X102243318Y-123331769D01*
X102457519Y-123243044D01*
X102650294Y-123114236D01*
X102814236Y-122950294D01*
X102943044Y-122757519D01*
X103031769Y-122543318D01*
X103062940Y-122386610D01*
X103081956Y-122432519D01*
X103210764Y-122625294D01*
X103374706Y-122789236D01*
X103567481Y-122918044D01*
X103781682Y-123006769D01*
X104009076Y-123052000D01*
X104240924Y-123052000D01*
X104468318Y-123006769D01*
X104682519Y-122918044D01*
X104875294Y-122789236D01*
X105039236Y-122625294D01*
X105168044Y-122432519D01*
X105256769Y-122218318D01*
X105291052Y-122045963D01*
X105360764Y-122150294D01*
X105524706Y-122314236D01*
X105717481Y-122443044D01*
X105931682Y-122531769D01*
X106159076Y-122577000D01*
X106390924Y-122577000D01*
X106618318Y-122531769D01*
X106832519Y-122443044D01*
X107025294Y-122314236D01*
X107189236Y-122150294D01*
X107318044Y-121957519D01*
X107406769Y-121743318D01*
X107445203Y-121550092D01*
X107769566Y-121550092D01*
X107877266Y-121698216D01*
X108092287Y-121784933D01*
X108320095Y-121828034D01*
X108551934Y-121825865D01*
X108778895Y-121778508D01*
X108972734Y-121698216D01*
X109080434Y-121550092D01*
X108425000Y-120894659D01*
X107769566Y-121550092D01*
X107445203Y-121550092D01*
X107452000Y-121515924D01*
X107452000Y-121284076D01*
X107444639Y-121247071D01*
X107524908Y-121305434D01*
X108180341Y-120650000D01*
X108669659Y-120650000D01*
X109325092Y-121305434D01*
X109473216Y-121197734D01*
X109559933Y-120982713D01*
X109603034Y-120754905D01*
X109600865Y-120523066D01*
X109553508Y-120296105D01*
X109473216Y-120102266D01*
X109325092Y-119994566D01*
X108669659Y-120650000D01*
X108180341Y-120650000D01*
X107524908Y-119994566D01*
X107376784Y-120102266D01*
X107290067Y-120317287D01*
X107246966Y-120545095D01*
X107248778Y-120738818D01*
X107189236Y-120649706D01*
X107025294Y-120485764D01*
X106832519Y-120356956D01*
X106618318Y-120268231D01*
X106414693Y-120227728D01*
X107784707Y-119729084D01*
X107769566Y-119749908D01*
X108425000Y-120405341D01*
X109080434Y-119749908D01*
X108972734Y-119601784D01*
X108757713Y-119515067D01*
X108529905Y-119471966D01*
X108407514Y-119473111D01*
X109799229Y-118824144D01*
X111402572Y-117898453D01*
X111730060Y-117669143D01*
X121988730Y-117669143D01*
X121988730Y-118030857D01*
X122059297Y-118385620D01*
X122197719Y-118719800D01*
X122398676Y-119020554D01*
X122654446Y-119276324D01*
X122955200Y-119477281D01*
X123289380Y-119615703D01*
X123644143Y-119686270D01*
X124005857Y-119686270D01*
X124360620Y-119615703D01*
X124694800Y-119477281D01*
X124995554Y-119276324D01*
X125251324Y-119020554D01*
X125452281Y-118719800D01*
X125590703Y-118385620D01*
X125661270Y-118030857D01*
X125661270Y-117669143D01*
X125590703Y-117314380D01*
X125452281Y-116980200D01*
X125251324Y-116679446D01*
X124995554Y-116423676D01*
X124694800Y-116222719D01*
X124360620Y-116084297D01*
X124005857Y-116013730D01*
X123644143Y-116013730D01*
X123289380Y-116084297D01*
X122955200Y-116222719D01*
X122654446Y-116423676D01*
X122398676Y-116679446D01*
X122197719Y-116980200D01*
X122059297Y-117314380D01*
X121988730Y-117669143D01*
X111730060Y-117669143D01*
X112919135Y-116836545D01*
X114337375Y-115646500D01*
X115646500Y-114337375D01*
X116836545Y-112919135D01*
X117898453Y-111402572D01*
X118824144Y-109799229D01*
X119606571Y-108121308D01*
X120239781Y-106381578D01*
X120718954Y-104593281D01*
X121040443Y-102770027D01*
X121201801Y-100925691D01*
X121201801Y-100177000D01*
X128134293Y-100177000D01*
X128134293Y-100274284D01*
X128192541Y-100567115D01*
X128306798Y-100842957D01*
X128472673Y-101091207D01*
X128683793Y-101302327D01*
X128932043Y-101468202D01*
X129207885Y-101582459D01*
X129500716Y-101640707D01*
X129799284Y-101640707D01*
X130092115Y-101582459D01*
X130367957Y-101468202D01*
X130616207Y-101302327D01*
X130827327Y-101091207D01*
X130993202Y-100842957D01*
X131107459Y-100567115D01*
X131165707Y-100274284D01*
X131165707Y-100177000D01*
X132178386Y-100177000D01*
X132178386Y-101123694D01*
X132021616Y-103365607D01*
X131708840Y-105591124D01*
X131241582Y-107789401D01*
X130622118Y-109949729D01*
X129853466Y-112061583D01*
X128939371Y-114114674D01*
X127884286Y-116099000D01*
X126693352Y-118004893D01*
X125372370Y-119823068D01*
X123927777Y-121544667D01*
X122366610Y-123161303D01*
X120696475Y-124665099D01*
X118925510Y-126048729D01*
X117062340Y-127305453D01*
X115116045Y-128429147D01*
X113096106Y-129414337D01*
X111012365Y-130256223D01*
X108874972Y-130950704D01*
X106694341Y-131494396D01*
X104481096Y-131884651D01*
X102246019Y-132119567D01*
X100000000Y-132198000D01*
X97753981Y-132119567D01*
X95518904Y-131884651D01*
X93305659Y-131494396D01*
X91125028Y-130950704D01*
X88987635Y-130256223D01*
X86903894Y-129414337D01*
X84883955Y-128429147D01*
X84426310Y-128164925D01*
X88299125Y-128164925D01*
X88299125Y-128278585D01*
X88321299Y-128390060D01*
X88364794Y-128495067D01*
X88427940Y-128589571D01*
X88508309Y-128669940D01*
X88602813Y-128733086D01*
X88707820Y-128776581D01*
X88819295Y-128798755D01*
X88919966Y-128798755D01*
X88922639Y-128801428D01*
X88922644Y-128801432D01*
X89374697Y-129253486D01*
X89386500Y-129267868D01*
X89400882Y-129279671D01*
X89400884Y-129279673D01*
X89443906Y-129314980D01*
X89509399Y-129349987D01*
X89580463Y-129371544D01*
X89654369Y-129378823D01*
X89672888Y-129376999D01*
X104681489Y-129376999D01*
X104700001Y-129378822D01*
X104718513Y-129376999D01*
X104718520Y-129376999D01*
X104773906Y-129371544D01*
X104844971Y-129349987D01*
X104910464Y-129314980D01*
X104967870Y-129267868D01*
X104979678Y-129253480D01*
X106556158Y-127677000D01*
X106656830Y-127677000D01*
X106768305Y-127654826D01*
X106873312Y-127611331D01*
X106967816Y-127548185D01*
X107048185Y-127467816D01*
X107111331Y-127373312D01*
X107154826Y-127268305D01*
X107177000Y-127156830D01*
X107177000Y-127043170D01*
X107154826Y-126931695D01*
X107111331Y-126826688D01*
X107048185Y-126732184D01*
X106967816Y-126651815D01*
X106873312Y-126588669D01*
X106768305Y-126545174D01*
X106656830Y-126523000D01*
X106543170Y-126523000D01*
X106431695Y-126545174D01*
X106326688Y-126588669D01*
X106232184Y-126651815D01*
X106151815Y-126732184D01*
X106088669Y-126826688D01*
X106045174Y-126931695D01*
X106023000Y-127043170D01*
X106023000Y-127143842D01*
X104543843Y-128622999D01*
X99993002Y-128622999D01*
X100048185Y-128567816D01*
X100111331Y-128473312D01*
X100154826Y-128368305D01*
X100177000Y-128256830D01*
X100177000Y-128143170D01*
X100154826Y-128031695D01*
X100132171Y-127977000D01*
X102760999Y-127977000D01*
X102832184Y-128048185D01*
X102926688Y-128111331D01*
X103031695Y-128154826D01*
X103143170Y-128177000D01*
X103256830Y-128177000D01*
X103368305Y-128154826D01*
X103473312Y-128111331D01*
X103567816Y-128048185D01*
X103648185Y-127967816D01*
X103711331Y-127873312D01*
X103754826Y-127768305D01*
X103777000Y-127656830D01*
X103777000Y-127543170D01*
X103754826Y-127431695D01*
X103711331Y-127326688D01*
X103648185Y-127232184D01*
X103567816Y-127151815D01*
X103473312Y-127088669D01*
X103368305Y-127045174D01*
X103256830Y-127023000D01*
X103143170Y-127023000D01*
X103031695Y-127045174D01*
X102926688Y-127088669D01*
X102832184Y-127151815D01*
X102760999Y-127223000D01*
X101532171Y-127223000D01*
X101554826Y-127168305D01*
X101577000Y-127056830D01*
X101577000Y-126943170D01*
X101554826Y-126831695D01*
X101511331Y-126726688D01*
X101448185Y-126632184D01*
X101367816Y-126551815D01*
X101273312Y-126488669D01*
X101168305Y-126445174D01*
X101056830Y-126423000D01*
X100943170Y-126423000D01*
X100831695Y-126445174D01*
X100726688Y-126488669D01*
X100632184Y-126551815D01*
X100560999Y-126623000D01*
X90356159Y-126623000D01*
X89576996Y-125843838D01*
X89576996Y-125843170D01*
X89554822Y-125731695D01*
X89511327Y-125626688D01*
X89448181Y-125532184D01*
X89367812Y-125451815D01*
X89273308Y-125388669D01*
X89168301Y-125345174D01*
X89056826Y-125323000D01*
X88943166Y-125323000D01*
X88831691Y-125345174D01*
X88726684Y-125388669D01*
X88632180Y-125451815D01*
X88551811Y-125532184D01*
X88488665Y-125626688D01*
X88445170Y-125731695D01*
X88422996Y-125843170D01*
X88422996Y-125956830D01*
X88445170Y-126068305D01*
X88488665Y-126173312D01*
X88551811Y-126267816D01*
X88632180Y-126348185D01*
X88726684Y-126411331D01*
X88819500Y-126449777D01*
X88770182Y-126499095D01*
X88707036Y-126593599D01*
X88663541Y-126698606D01*
X88641367Y-126810081D01*
X88641367Y-126923741D01*
X88663541Y-127035216D01*
X88707036Y-127140223D01*
X88770182Y-127234727D01*
X88850551Y-127315096D01*
X88936831Y-127372747D01*
X88930284Y-127382546D01*
X88886789Y-127487553D01*
X88864615Y-127599028D01*
X88864615Y-127644755D01*
X88819295Y-127644755D01*
X88707820Y-127666929D01*
X88602813Y-127710424D01*
X88508309Y-127773570D01*
X88427940Y-127853939D01*
X88364794Y-127948443D01*
X88321299Y-128053450D01*
X88299125Y-128164925D01*
X84426310Y-128164925D01*
X82937660Y-127305453D01*
X81074490Y-126048729D01*
X79303525Y-124665099D01*
X77633390Y-123161303D01*
X76072223Y-121544667D01*
X74627630Y-119823068D01*
X73306648Y-118004893D01*
X73128092Y-117719143D01*
X74563730Y-117719143D01*
X74563730Y-118080857D01*
X74634297Y-118435620D01*
X74772719Y-118769800D01*
X74973676Y-119070554D01*
X75229446Y-119326324D01*
X75530200Y-119527281D01*
X75864380Y-119665703D01*
X76219143Y-119736270D01*
X76580857Y-119736270D01*
X76935620Y-119665703D01*
X77269800Y-119527281D01*
X77570554Y-119326324D01*
X77826324Y-119070554D01*
X78027281Y-118769800D01*
X78165703Y-118435620D01*
X78236270Y-118080857D01*
X78236270Y-117719143D01*
X78165703Y-117364380D01*
X78027281Y-117030200D01*
X77826324Y-116729446D01*
X77570554Y-116473676D01*
X77269800Y-116272719D01*
X76935620Y-116134297D01*
X76580857Y-116063730D01*
X76219143Y-116063730D01*
X75864380Y-116134297D01*
X75530200Y-116272719D01*
X75229446Y-116473676D01*
X74973676Y-116729446D01*
X74772719Y-117030200D01*
X74634297Y-117364380D01*
X74563730Y-117719143D01*
X73128092Y-117719143D01*
X72115714Y-116099000D01*
X71182123Y-114343170D01*
X78323000Y-114343170D01*
X78323000Y-114456830D01*
X78345174Y-114568305D01*
X78388669Y-114673312D01*
X78451815Y-114767816D01*
X78532184Y-114848185D01*
X78626688Y-114911331D01*
X78731695Y-114954826D01*
X78843170Y-114977000D01*
X78943842Y-114977000D01*
X81623000Y-117656159D01*
X81623001Y-118581478D01*
X81621177Y-118600000D01*
X81628455Y-118673905D01*
X81650012Y-118744969D01*
X81685020Y-118810463D01*
X81720326Y-118853484D01*
X81720329Y-118853487D01*
X81732132Y-118867869D01*
X81746514Y-118879672D01*
X83223000Y-120356158D01*
X83223000Y-120456830D01*
X83245174Y-120568305D01*
X83288669Y-120673312D01*
X83351815Y-120767816D01*
X83432184Y-120848185D01*
X83526688Y-120911331D01*
X83631695Y-120954826D01*
X83743170Y-120977000D01*
X83856830Y-120977000D01*
X83968305Y-120954826D01*
X84073312Y-120911331D01*
X84167816Y-120848185D01*
X84248185Y-120767816D01*
X84311331Y-120673312D01*
X84354826Y-120568305D01*
X84377000Y-120456830D01*
X84377000Y-120343170D01*
X84354826Y-120231695D01*
X84311331Y-120126688D01*
X84248185Y-120032184D01*
X84167816Y-119951815D01*
X84073312Y-119888669D01*
X83968305Y-119845174D01*
X83856830Y-119823000D01*
X83756158Y-119823000D01*
X82377000Y-118443842D01*
X82377000Y-117518508D01*
X82378823Y-117499999D01*
X82377000Y-117481490D01*
X82377000Y-117481481D01*
X82371545Y-117426095D01*
X82349988Y-117355030D01*
X82314981Y-117289537D01*
X82267869Y-117232131D01*
X82253488Y-117220329D01*
X79477000Y-114443842D01*
X79477000Y-114343170D01*
X79454826Y-114231695D01*
X79411331Y-114126688D01*
X79348185Y-114032184D01*
X79267816Y-113951815D01*
X79173312Y-113888669D01*
X79068305Y-113845174D01*
X78956830Y-113823000D01*
X78843170Y-113823000D01*
X78731695Y-113845174D01*
X78626688Y-113888669D01*
X78532184Y-113951815D01*
X78451815Y-114032184D01*
X78388669Y-114126688D01*
X78345174Y-114231695D01*
X78323000Y-114343170D01*
X71182123Y-114343170D01*
X71060629Y-114114674D01*
X70146534Y-112061583D01*
X69849888Y-111246554D01*
X76315768Y-111246554D01*
X76315768Y-111398184D01*
X76345349Y-111546900D01*
X76403375Y-111686987D01*
X76487616Y-111813063D01*
X76594834Y-111920281D01*
X76720910Y-112004522D01*
X76860997Y-112062548D01*
X77009713Y-112092129D01*
X77161343Y-112092129D01*
X77310059Y-112062548D01*
X77450146Y-112004522D01*
X77576222Y-111920281D01*
X77683440Y-111813063D01*
X77767681Y-111686987D01*
X77825707Y-111546900D01*
X77855288Y-111398184D01*
X77855288Y-111246554D01*
X77825707Y-111097838D01*
X77767681Y-110957751D01*
X77683440Y-110831675D01*
X77576222Y-110724457D01*
X77450146Y-110640216D01*
X77310059Y-110582190D01*
X77161343Y-110552609D01*
X77009713Y-110552609D01*
X76860997Y-110582190D01*
X76720910Y-110640216D01*
X76594834Y-110724457D01*
X76487616Y-110831675D01*
X76403375Y-110957751D01*
X76345349Y-111097838D01*
X76315768Y-111246554D01*
X69849888Y-111246554D01*
X69377882Y-109949729D01*
X69337734Y-109809713D01*
X77752609Y-109809713D01*
X77752609Y-109961343D01*
X77782190Y-110110059D01*
X77840216Y-110250146D01*
X77924457Y-110376222D01*
X78031675Y-110483440D01*
X78157751Y-110567681D01*
X78297838Y-110625707D01*
X78446554Y-110655288D01*
X78598184Y-110655288D01*
X78746900Y-110625707D01*
X78886987Y-110567681D01*
X79013063Y-110483440D01*
X79120281Y-110376222D01*
X79204522Y-110250146D01*
X79262548Y-110110059D01*
X79292129Y-109961343D01*
X79292129Y-109809713D01*
X79262548Y-109660997D01*
X79204522Y-109520910D01*
X79120281Y-109394834D01*
X79013063Y-109287616D01*
X78886987Y-109203375D01*
X78746900Y-109145349D01*
X78598184Y-109115768D01*
X78446554Y-109115768D01*
X78297838Y-109145349D01*
X78157751Y-109203375D01*
X78031675Y-109287616D01*
X77924457Y-109394834D01*
X77840216Y-109520910D01*
X77782190Y-109660997D01*
X77752609Y-109809713D01*
X69337734Y-109809713D01*
X68758418Y-107789401D01*
X68291160Y-105591124D01*
X68096968Y-104209369D01*
X69483893Y-104209369D01*
X69539825Y-104366495D01*
X69639713Y-104487685D01*
X69761325Y-104587059D01*
X69899987Y-104660798D01*
X70050370Y-104706069D01*
X70206696Y-104721132D01*
X70332000Y-104641753D01*
X70332000Y-104093000D01*
X70678000Y-104093000D01*
X70678000Y-104641753D01*
X70803304Y-104721132D01*
X70959630Y-104706069D01*
X71110013Y-104660798D01*
X71248675Y-104587059D01*
X71370287Y-104487685D01*
X71470175Y-104366495D01*
X71526107Y-104209369D01*
X73413893Y-104209369D01*
X73463249Y-104347093D01*
X73559478Y-104469939D01*
X73677824Y-104571651D01*
X73813739Y-104648320D01*
X73962000Y-104697000D01*
X74512000Y-104697000D01*
X74512000Y-104093000D01*
X74858000Y-104093000D01*
X74858000Y-104697000D01*
X75408000Y-104697000D01*
X75556261Y-104648320D01*
X75692176Y-104571651D01*
X75810522Y-104469939D01*
X75906751Y-104347093D01*
X75956107Y-104209369D01*
X75921281Y-104093000D01*
X74858000Y-104093000D01*
X74512000Y-104093000D01*
X73448719Y-104093000D01*
X73413893Y-104209369D01*
X71526107Y-104209369D01*
X71491281Y-104093000D01*
X70678000Y-104093000D01*
X70332000Y-104093000D01*
X69518719Y-104093000D01*
X69483893Y-104209369D01*
X68096968Y-104209369D01*
X68015632Y-103630631D01*
X69483893Y-103630631D01*
X69518719Y-103747000D01*
X70332000Y-103747000D01*
X70332000Y-103198247D01*
X70678000Y-103198247D01*
X70678000Y-103747000D01*
X71491281Y-103747000D01*
X71526107Y-103630631D01*
X73413893Y-103630631D01*
X73448719Y-103747000D01*
X74512000Y-103747000D01*
X74512000Y-103143000D01*
X74858000Y-103143000D01*
X74858000Y-103747000D01*
X75921281Y-103747000D01*
X75956107Y-103630631D01*
X75906751Y-103492907D01*
X75810522Y-103370061D01*
X75692176Y-103268349D01*
X75556261Y-103191680D01*
X75408000Y-103143000D01*
X74858000Y-103143000D01*
X74512000Y-103143000D01*
X73962000Y-103143000D01*
X73813739Y-103191680D01*
X73677824Y-103268349D01*
X73559478Y-103370061D01*
X73463249Y-103492907D01*
X73413893Y-103630631D01*
X71526107Y-103630631D01*
X71470175Y-103473505D01*
X71370287Y-103352315D01*
X71248675Y-103252941D01*
X71110013Y-103179202D01*
X70959630Y-103133931D01*
X70803304Y-103118868D01*
X70678000Y-103198247D01*
X70332000Y-103198247D01*
X70206696Y-103118868D01*
X70050370Y-103133931D01*
X69899987Y-103179202D01*
X69761325Y-103252941D01*
X69639713Y-103352315D01*
X69539825Y-103473505D01*
X69483893Y-103630631D01*
X68015632Y-103630631D01*
X67978384Y-103365607D01*
X67913010Y-102430708D01*
X73553000Y-102430708D01*
X73553000Y-102549292D01*
X73576134Y-102665597D01*
X73621514Y-102775154D01*
X73687396Y-102873753D01*
X73771247Y-102957604D01*
X73869846Y-103023486D01*
X73979403Y-103068866D01*
X74095708Y-103092000D01*
X74214292Y-103092000D01*
X74330597Y-103068866D01*
X74440154Y-103023486D01*
X74538753Y-102957604D01*
X74622604Y-102873753D01*
X74688486Y-102775154D01*
X74733866Y-102665597D01*
X74757000Y-102549292D01*
X74757000Y-102430708D01*
X74733866Y-102314403D01*
X74688486Y-102204846D01*
X74622604Y-102106247D01*
X74538753Y-102022396D01*
X74440154Y-101956514D01*
X74330597Y-101911134D01*
X74214292Y-101888000D01*
X74095708Y-101888000D01*
X73979403Y-101911134D01*
X73869846Y-101956514D01*
X73771247Y-102022396D01*
X73687396Y-102106247D01*
X73621514Y-102204846D01*
X73576134Y-102314403D01*
X73553000Y-102430708D01*
X67913010Y-102430708D01*
X67821614Y-101123694D01*
X67821614Y-98876306D01*
X67977243Y-96650708D01*
X73553000Y-96650708D01*
X73553000Y-96769292D01*
X73576134Y-96885597D01*
X73621514Y-96995154D01*
X73687396Y-97093753D01*
X73771247Y-97177604D01*
X73869846Y-97243486D01*
X73979403Y-97288866D01*
X74095708Y-97312000D01*
X74214292Y-97312000D01*
X74330597Y-97288866D01*
X74440154Y-97243486D01*
X74538753Y-97177604D01*
X74622604Y-97093753D01*
X74688486Y-96995154D01*
X74733866Y-96885597D01*
X74757000Y-96769292D01*
X74757000Y-96650708D01*
X74733866Y-96534403D01*
X74688486Y-96424846D01*
X74622604Y-96326247D01*
X74538753Y-96242396D01*
X74440154Y-96176514D01*
X74330597Y-96131134D01*
X74214292Y-96108000D01*
X74095708Y-96108000D01*
X73979403Y-96131134D01*
X73869846Y-96176514D01*
X73771247Y-96242396D01*
X73687396Y-96326247D01*
X73621514Y-96424846D01*
X73576134Y-96534403D01*
X73553000Y-96650708D01*
X67977243Y-96650708D01*
X67978384Y-96634393D01*
X68128063Y-95569369D01*
X69483893Y-95569369D01*
X69539825Y-95726495D01*
X69639713Y-95847685D01*
X69761325Y-95947059D01*
X69899987Y-96020798D01*
X70050370Y-96066069D01*
X70206696Y-96081132D01*
X70332000Y-96001753D01*
X70332000Y-95453000D01*
X70678000Y-95453000D01*
X70678000Y-96001753D01*
X70803304Y-96081132D01*
X70959630Y-96066069D01*
X71110013Y-96020798D01*
X71248675Y-95947059D01*
X71370287Y-95847685D01*
X71470175Y-95726495D01*
X71526107Y-95569369D01*
X73413893Y-95569369D01*
X73463249Y-95707093D01*
X73559478Y-95829939D01*
X73677824Y-95931651D01*
X73813739Y-96008320D01*
X73962000Y-96057000D01*
X74512000Y-96057000D01*
X74512000Y-95453000D01*
X74858000Y-95453000D01*
X74858000Y-96057000D01*
X75408000Y-96057000D01*
X75556261Y-96008320D01*
X75692176Y-95931651D01*
X75810522Y-95829939D01*
X75906751Y-95707093D01*
X75956107Y-95569369D01*
X75921281Y-95453000D01*
X74858000Y-95453000D01*
X74512000Y-95453000D01*
X73448719Y-95453000D01*
X73413893Y-95569369D01*
X71526107Y-95569369D01*
X71491281Y-95453000D01*
X70678000Y-95453000D01*
X70332000Y-95453000D01*
X69518719Y-95453000D01*
X69483893Y-95569369D01*
X68128063Y-95569369D01*
X68209399Y-94990631D01*
X69483893Y-94990631D01*
X69518719Y-95107000D01*
X70332000Y-95107000D01*
X70332000Y-94558247D01*
X70678000Y-94558247D01*
X70678000Y-95107000D01*
X71491281Y-95107000D01*
X71526107Y-94990631D01*
X73413893Y-94990631D01*
X73448719Y-95107000D01*
X74512000Y-95107000D01*
X74512000Y-94503000D01*
X74858000Y-94503000D01*
X74858000Y-95107000D01*
X75921281Y-95107000D01*
X75956107Y-94990631D01*
X75906751Y-94852907D01*
X75810522Y-94730061D01*
X75692176Y-94628349D01*
X75556261Y-94551680D01*
X75408000Y-94503000D01*
X74858000Y-94503000D01*
X74512000Y-94503000D01*
X73962000Y-94503000D01*
X73813739Y-94551680D01*
X73677824Y-94628349D01*
X73559478Y-94730061D01*
X73463249Y-94852907D01*
X73413893Y-94990631D01*
X71526107Y-94990631D01*
X71470175Y-94833505D01*
X71370287Y-94712315D01*
X71248675Y-94612941D01*
X71110013Y-94539202D01*
X70959630Y-94493931D01*
X70803304Y-94478868D01*
X70678000Y-94558247D01*
X70332000Y-94558247D01*
X70206696Y-94478868D01*
X70050370Y-94493931D01*
X69899987Y-94539202D01*
X69761325Y-94612941D01*
X69639713Y-94712315D01*
X69539825Y-94833505D01*
X69483893Y-94990631D01*
X68209399Y-94990631D01*
X68291160Y-94408876D01*
X68758418Y-92210599D01*
X69377882Y-90050271D01*
X70146534Y-87938417D01*
X71060629Y-85885326D01*
X72115714Y-83901000D01*
X73306648Y-81995107D01*
X73343675Y-81944143D01*
X74638730Y-81944143D01*
X74638730Y-82305857D01*
X74709297Y-82660620D01*
X74847719Y-82994800D01*
X75048676Y-83295554D01*
X75304446Y-83551324D01*
X75605200Y-83752281D01*
X75939380Y-83890703D01*
X76294143Y-83961270D01*
X76655857Y-83961270D01*
X77010620Y-83890703D01*
X77344800Y-83752281D01*
X77645554Y-83551324D01*
X77901324Y-83295554D01*
X78102281Y-82994800D01*
X78240703Y-82660620D01*
X78311270Y-82305857D01*
X78311270Y-81944143D01*
X78240703Y-81589380D01*
X78102281Y-81255200D01*
X77901324Y-80954446D01*
X77645554Y-80698676D01*
X77344800Y-80497719D01*
X77010620Y-80359297D01*
X76655857Y-80288730D01*
X76294143Y-80288730D01*
X75939380Y-80359297D01*
X75605200Y-80497719D01*
X75304446Y-80698676D01*
X75048676Y-80954446D01*
X74847719Y-81255200D01*
X74709297Y-81589380D01*
X74638730Y-81944143D01*
X73343675Y-81944143D01*
X74627630Y-80176932D01*
X76072223Y-78455333D01*
X77633390Y-76838697D01*
X79303525Y-75334901D01*
X81074490Y-73951271D01*
X82937660Y-72694547D01*
X84883955Y-71570853D01*
X86903894Y-70585663D01*
X88987635Y-69743777D01*
X91125028Y-69049296D01*
X93305659Y-68505604D01*
X95518904Y-68115349D01*
X97753981Y-67880433D01*
X100000000Y-67802000D01*
X102246019Y-67880433D01*
M02*
