G04 #@! TF.GenerationSoftware,KiCad,Pcbnew,5.1.5+dfsg1-2build2*
G04 #@! TF.CreationDate,2020-10-18T16:37:04+02:00*
G04 #@! TF.ProjectId,lensmount-v1.1,6c656e73-6d6f-4756-9e74-2d76312e312e,rev?*
G04 #@! TF.SameCoordinates,Original*
G04 #@! TF.FileFunction,Copper,L2,Bot*
G04 #@! TF.FilePolarity,Positive*
%FSLAX46Y46*%
G04 Gerber Fmt 4.6, Leading zero omitted, Abs format (unit mm)*
G04 Created by KiCad (PCBNEW 5.1.5+dfsg1-2build2) date 2020-10-18 16:37:04*
%MOMM*%
%LPD*%
G04 APERTURE LIST*
%ADD10C,0.100000*%
%ADD11R,0.500000X0.600000*%
%ADD12R,0.600000X0.500000*%
%ADD13R,0.900000X0.800000*%
%ADD14R,0.800000X0.900000*%
%ADD15C,0.784860*%
%ADD16R,0.600000X0.900000*%
%ADD17R,0.900000X0.600000*%
%ADD18R,1.450000X0.600000*%
%ADD19O,2.100000X1.000000*%
%ADD20O,1.600000X1.000000*%
%ADD21R,1.450000X0.300000*%
%ADD22C,1.800000*%
%ADD23C,0.600000*%
%ADD24C,0.700000*%
%ADD25C,0.200000*%
%ADD26C,0.300000*%
%ADD27C,0.500000*%
%ADD28C,0.900000*%
%ADD29C,0.600000*%
%ADD30C,0.800000*%
%ADD31C,0.154000*%
G04 APERTURE END LIST*
G04 #@! TA.AperFunction,SMDPad,CuDef*
D10*
G36*
X80756758Y-119479668D02*
G01*
X81101478Y-119768922D01*
X80169436Y-120879686D01*
X79824716Y-120590432D01*
X80756758Y-119479668D01*
G37*
G04 #@! TD.AperFunction*
G04 #@! TA.AperFunction,SMDPad,CuDef*
G36*
X81254686Y-119897480D02*
G01*
X81599406Y-120186734D01*
X80667364Y-121297498D01*
X80322644Y-121008244D01*
X81254686Y-119897480D01*
G37*
G04 #@! TD.AperFunction*
G04 #@! TA.AperFunction,SMDPad,CuDef*
G36*
X81752615Y-120315292D02*
G01*
X82097335Y-120604546D01*
X81165293Y-121715310D01*
X80820573Y-121426056D01*
X81752615Y-120315292D01*
G37*
G04 #@! TD.AperFunction*
G04 #@! TA.AperFunction,SMDPad,CuDef*
G36*
X82250544Y-120733104D02*
G01*
X82595264Y-121022358D01*
X81663222Y-122133122D01*
X81318502Y-121843868D01*
X82250544Y-120733104D01*
G37*
G04 #@! TD.AperFunction*
G04 #@! TA.AperFunction,SMDPad,CuDef*
G36*
X82748473Y-121150916D02*
G01*
X83093193Y-121440170D01*
X82161151Y-122550934D01*
X81816431Y-122261680D01*
X82748473Y-121150916D01*
G37*
G04 #@! TD.AperFunction*
G04 #@! TA.AperFunction,SMDPad,CuDef*
G36*
X83246402Y-121568728D02*
G01*
X83591122Y-121857982D01*
X82659080Y-122968746D01*
X82314360Y-122679492D01*
X83246402Y-121568728D01*
G37*
G04 #@! TD.AperFunction*
G04 #@! TA.AperFunction,SMDPad,CuDef*
G36*
X83744331Y-121986540D02*
G01*
X84089051Y-122275794D01*
X83157009Y-123386558D01*
X82812289Y-123097304D01*
X83744331Y-121986540D01*
G37*
G04 #@! TD.AperFunction*
G04 #@! TA.AperFunction,SMDPad,CuDef*
G36*
X84242260Y-122404352D02*
G01*
X84586980Y-122693606D01*
X83654938Y-123804370D01*
X83310218Y-123515116D01*
X84242260Y-122404352D01*
G37*
G04 #@! TD.AperFunction*
G04 #@! TA.AperFunction,SMDPad,CuDef*
G36*
X84740189Y-122822164D02*
G01*
X85084909Y-123111418D01*
X84152867Y-124222182D01*
X83808147Y-123932928D01*
X84740189Y-122822164D01*
G37*
G04 #@! TD.AperFunction*
G04 #@! TA.AperFunction,SMDPad,CuDef*
G36*
X85238118Y-123239976D02*
G01*
X85582838Y-123529230D01*
X84650796Y-124639994D01*
X84306076Y-124350740D01*
X85238118Y-123239976D01*
G37*
G04 #@! TD.AperFunction*
G04 #@! TA.AperFunction,SMDPad,CuDef*
G36*
X89030564Y-118720314D02*
G01*
X89375284Y-119009568D01*
X88443242Y-120120332D01*
X88098522Y-119831078D01*
X89030564Y-118720314D01*
G37*
G04 #@! TD.AperFunction*
G04 #@! TA.AperFunction,SMDPad,CuDef*
G36*
X88532636Y-118302502D02*
G01*
X88877356Y-118591756D01*
X87945314Y-119702520D01*
X87600594Y-119413266D01*
X88532636Y-118302502D01*
G37*
G04 #@! TD.AperFunction*
G04 #@! TA.AperFunction,SMDPad,CuDef*
G36*
X88034707Y-117884690D02*
G01*
X88379427Y-118173944D01*
X87447385Y-119284708D01*
X87102665Y-118995454D01*
X88034707Y-117884690D01*
G37*
G04 #@! TD.AperFunction*
G04 #@! TA.AperFunction,SMDPad,CuDef*
G36*
X87536778Y-117466878D02*
G01*
X87881498Y-117756132D01*
X86949456Y-118866896D01*
X86604736Y-118577642D01*
X87536778Y-117466878D01*
G37*
G04 #@! TD.AperFunction*
G04 #@! TA.AperFunction,SMDPad,CuDef*
G36*
X87038849Y-117049066D02*
G01*
X87383569Y-117338320D01*
X86451527Y-118449084D01*
X86106807Y-118159830D01*
X87038849Y-117049066D01*
G37*
G04 #@! TD.AperFunction*
G04 #@! TA.AperFunction,SMDPad,CuDef*
G36*
X86540920Y-116631254D02*
G01*
X86885640Y-116920508D01*
X85953598Y-118031272D01*
X85608878Y-117742018D01*
X86540920Y-116631254D01*
G37*
G04 #@! TD.AperFunction*
G04 #@! TA.AperFunction,SMDPad,CuDef*
G36*
X86042991Y-116213442D02*
G01*
X86387711Y-116502696D01*
X85455669Y-117613460D01*
X85110949Y-117324206D01*
X86042991Y-116213442D01*
G37*
G04 #@! TD.AperFunction*
G04 #@! TA.AperFunction,SMDPad,CuDef*
G36*
X85545062Y-115795630D02*
G01*
X85889782Y-116084884D01*
X84957740Y-117195648D01*
X84613020Y-116906394D01*
X85545062Y-115795630D01*
G37*
G04 #@! TD.AperFunction*
G04 #@! TA.AperFunction,SMDPad,CuDef*
G36*
X85047133Y-115377818D02*
G01*
X85391853Y-115667072D01*
X84459811Y-116777836D01*
X84115091Y-116488582D01*
X85047133Y-115377818D01*
G37*
G04 #@! TD.AperFunction*
G04 #@! TA.AperFunction,SMDPad,CuDef*
G36*
X84549204Y-114960006D02*
G01*
X84893924Y-115249260D01*
X83961882Y-116360024D01*
X83617162Y-116070770D01*
X84549204Y-114960006D01*
G37*
G04 #@! TD.AperFunction*
G04 #@! TA.AperFunction,SMDPad,CuDef*
G36*
X78963562Y-83552157D02*
G01*
X78987699Y-83556549D01*
X79011290Y-83563285D01*
X79034107Y-83572302D01*
X79055930Y-83583512D01*
X81220994Y-84833512D01*
X81241613Y-84846806D01*
X81260830Y-84862058D01*
X81278460Y-84879120D01*
X81294332Y-84897828D01*
X81308295Y-84918001D01*
X81320212Y-84939446D01*
X81329970Y-84961955D01*
X81337475Y-84985313D01*
X81342655Y-85009294D01*
X81345459Y-85033667D01*
X81345860Y-85058198D01*
X81343855Y-85082650D01*
X81339463Y-85106787D01*
X81332727Y-85130378D01*
X81323710Y-85153195D01*
X81312500Y-85175018D01*
X80512500Y-86560658D01*
X80499206Y-86581277D01*
X80483954Y-86600494D01*
X80466892Y-86618124D01*
X80448184Y-86633996D01*
X80428011Y-86647959D01*
X80406566Y-86659876D01*
X80384056Y-86669634D01*
X80360699Y-86677139D01*
X80336718Y-86682319D01*
X80312345Y-86685123D01*
X80287814Y-86685524D01*
X80263362Y-86683519D01*
X80239225Y-86679127D01*
X80215634Y-86672391D01*
X80192817Y-86663374D01*
X80170994Y-86652164D01*
X78005930Y-85402164D01*
X77985311Y-85388870D01*
X77966094Y-85373618D01*
X77948464Y-85356556D01*
X77932592Y-85337848D01*
X77918629Y-85317675D01*
X77906712Y-85296230D01*
X77896954Y-85273721D01*
X77889449Y-85250363D01*
X77884269Y-85226382D01*
X77881465Y-85202009D01*
X77881064Y-85177478D01*
X77883069Y-85153026D01*
X77887461Y-85128889D01*
X77894197Y-85105298D01*
X77903214Y-85082481D01*
X77914424Y-85060658D01*
X78714424Y-83675018D01*
X78727718Y-83654399D01*
X78742970Y-83635182D01*
X78760032Y-83617552D01*
X78778740Y-83601680D01*
X78798913Y-83587717D01*
X78820358Y-83575800D01*
X78842868Y-83566042D01*
X78866225Y-83558537D01*
X78890206Y-83553357D01*
X78914579Y-83550553D01*
X78939110Y-83550152D01*
X78963562Y-83552157D01*
G37*
G04 #@! TD.AperFunction*
G04 #@! TA.AperFunction,SMDPad,CuDef*
G36*
X74538562Y-91216481D02*
G01*
X74562699Y-91220873D01*
X74586290Y-91227609D01*
X74609107Y-91236626D01*
X74630930Y-91247836D01*
X76795994Y-92497836D01*
X76816613Y-92511130D01*
X76835830Y-92526382D01*
X76853460Y-92543444D01*
X76869332Y-92562152D01*
X76883295Y-92582325D01*
X76895212Y-92603770D01*
X76904970Y-92626279D01*
X76912475Y-92649637D01*
X76917655Y-92673618D01*
X76920459Y-92697991D01*
X76920860Y-92722522D01*
X76918855Y-92746974D01*
X76914463Y-92771111D01*
X76907727Y-92794702D01*
X76898710Y-92817519D01*
X76887500Y-92839342D01*
X76087500Y-94224982D01*
X76074206Y-94245601D01*
X76058954Y-94264818D01*
X76041892Y-94282448D01*
X76023184Y-94298320D01*
X76003011Y-94312283D01*
X75981566Y-94324200D01*
X75959056Y-94333958D01*
X75935699Y-94341463D01*
X75911718Y-94346643D01*
X75887345Y-94349447D01*
X75862814Y-94349848D01*
X75838362Y-94347843D01*
X75814225Y-94343451D01*
X75790634Y-94336715D01*
X75767817Y-94327698D01*
X75745994Y-94316488D01*
X73580930Y-93066488D01*
X73560311Y-93053194D01*
X73541094Y-93037942D01*
X73523464Y-93020880D01*
X73507592Y-93002172D01*
X73493629Y-92981999D01*
X73481712Y-92960554D01*
X73471954Y-92938045D01*
X73464449Y-92914687D01*
X73459269Y-92890706D01*
X73456465Y-92866333D01*
X73456064Y-92841802D01*
X73458069Y-92817350D01*
X73462461Y-92793213D01*
X73469197Y-92769622D01*
X73478214Y-92746805D01*
X73489424Y-92724982D01*
X74289424Y-91339342D01*
X74302718Y-91318723D01*
X74317970Y-91299506D01*
X74335032Y-91281876D01*
X74353740Y-91266004D01*
X74373913Y-91252041D01*
X74395358Y-91240124D01*
X74417868Y-91230366D01*
X74441225Y-91222861D01*
X74465206Y-91217681D01*
X74489579Y-91214877D01*
X74514110Y-91214476D01*
X74538562Y-91216481D01*
G37*
G04 #@! TD.AperFunction*
G04 #@! TA.AperFunction,SMDPad,CuDef*
G36*
X80456426Y-88104708D02*
G01*
X80475736Y-88108222D01*
X80494609Y-88113611D01*
X80512862Y-88120824D01*
X80530321Y-88129792D01*
X81309743Y-88579792D01*
X81326239Y-88590428D01*
X81341612Y-88602629D01*
X81355716Y-88616279D01*
X81368414Y-88631245D01*
X81379583Y-88647384D01*
X81389118Y-88664539D01*
X81396924Y-88682547D01*
X81402928Y-88701233D01*
X81407072Y-88720418D01*
X81409315Y-88739916D01*
X81409636Y-88759541D01*
X81408032Y-88779102D01*
X81404518Y-88798412D01*
X81399129Y-88817285D01*
X81391916Y-88835538D01*
X81382948Y-88852997D01*
X81182948Y-89199407D01*
X81172312Y-89215903D01*
X81160111Y-89231276D01*
X81146461Y-89245380D01*
X81131495Y-89258078D01*
X81115357Y-89269247D01*
X81098201Y-89278782D01*
X81080193Y-89286588D01*
X81061507Y-89292592D01*
X81042322Y-89296736D01*
X81022824Y-89298979D01*
X81003199Y-89299300D01*
X80983638Y-89297696D01*
X80964328Y-89294182D01*
X80945455Y-89288793D01*
X80927202Y-89281580D01*
X80909743Y-89272612D01*
X80130321Y-88822612D01*
X80113825Y-88811976D01*
X80098452Y-88799775D01*
X80084348Y-88786125D01*
X80071650Y-88771159D01*
X80060481Y-88755020D01*
X80050946Y-88737865D01*
X80043140Y-88719857D01*
X80037136Y-88701171D01*
X80032992Y-88681986D01*
X80030749Y-88662488D01*
X80030428Y-88642863D01*
X80032032Y-88623302D01*
X80035546Y-88603992D01*
X80040935Y-88585119D01*
X80048148Y-88566866D01*
X80057116Y-88549407D01*
X80257116Y-88202997D01*
X80267752Y-88186501D01*
X80279953Y-88171128D01*
X80293603Y-88157024D01*
X80308569Y-88144326D01*
X80324707Y-88133157D01*
X80341863Y-88123622D01*
X80359871Y-88115816D01*
X80378557Y-88109812D01*
X80397742Y-88105668D01*
X80417240Y-88103425D01*
X80436865Y-88103104D01*
X80456426Y-88104708D01*
G37*
G04 #@! TD.AperFunction*
G04 #@! TA.AperFunction,SMDPad,CuDef*
G36*
X79831426Y-89187240D02*
G01*
X79850736Y-89190754D01*
X79869609Y-89196143D01*
X79887862Y-89203356D01*
X79905321Y-89212324D01*
X80684743Y-89662324D01*
X80701239Y-89672960D01*
X80716612Y-89685161D01*
X80730716Y-89698811D01*
X80743414Y-89713777D01*
X80754583Y-89729916D01*
X80764118Y-89747071D01*
X80771924Y-89765079D01*
X80777928Y-89783765D01*
X80782072Y-89802950D01*
X80784315Y-89822448D01*
X80784636Y-89842073D01*
X80783032Y-89861634D01*
X80779518Y-89880944D01*
X80774129Y-89899817D01*
X80766916Y-89918070D01*
X80757948Y-89935529D01*
X80557948Y-90281939D01*
X80547312Y-90298435D01*
X80535111Y-90313808D01*
X80521461Y-90327912D01*
X80506495Y-90340610D01*
X80490357Y-90351779D01*
X80473201Y-90361314D01*
X80455193Y-90369120D01*
X80436507Y-90375124D01*
X80417322Y-90379268D01*
X80397824Y-90381511D01*
X80378199Y-90381832D01*
X80358638Y-90380228D01*
X80339328Y-90376714D01*
X80320455Y-90371325D01*
X80302202Y-90364112D01*
X80284743Y-90355144D01*
X79505321Y-89905144D01*
X79488825Y-89894508D01*
X79473452Y-89882307D01*
X79459348Y-89868657D01*
X79446650Y-89853691D01*
X79435481Y-89837552D01*
X79425946Y-89820397D01*
X79418140Y-89802389D01*
X79412136Y-89783703D01*
X79407992Y-89764518D01*
X79405749Y-89745020D01*
X79405428Y-89725395D01*
X79407032Y-89705834D01*
X79410546Y-89686524D01*
X79415935Y-89667651D01*
X79423148Y-89649398D01*
X79432116Y-89631939D01*
X79632116Y-89285529D01*
X79642752Y-89269033D01*
X79654953Y-89253660D01*
X79668603Y-89239556D01*
X79683569Y-89226858D01*
X79699707Y-89215689D01*
X79716863Y-89206154D01*
X79734871Y-89198348D01*
X79753557Y-89192344D01*
X79772742Y-89188200D01*
X79792240Y-89185957D01*
X79811865Y-89185636D01*
X79831426Y-89187240D01*
G37*
G04 #@! TD.AperFunction*
G04 #@! TA.AperFunction,SMDPad,CuDef*
G36*
X79206426Y-90269772D02*
G01*
X79225736Y-90273286D01*
X79244609Y-90278675D01*
X79262862Y-90285888D01*
X79280321Y-90294856D01*
X80059743Y-90744856D01*
X80076239Y-90755492D01*
X80091612Y-90767693D01*
X80105716Y-90781343D01*
X80118414Y-90796309D01*
X80129583Y-90812448D01*
X80139118Y-90829603D01*
X80146924Y-90847611D01*
X80152928Y-90866297D01*
X80157072Y-90885482D01*
X80159315Y-90904980D01*
X80159636Y-90924605D01*
X80158032Y-90944166D01*
X80154518Y-90963476D01*
X80149129Y-90982349D01*
X80141916Y-91000602D01*
X80132948Y-91018061D01*
X79932948Y-91364471D01*
X79922312Y-91380967D01*
X79910111Y-91396340D01*
X79896461Y-91410444D01*
X79881495Y-91423142D01*
X79865357Y-91434311D01*
X79848201Y-91443846D01*
X79830193Y-91451652D01*
X79811507Y-91457656D01*
X79792322Y-91461800D01*
X79772824Y-91464043D01*
X79753199Y-91464364D01*
X79733638Y-91462760D01*
X79714328Y-91459246D01*
X79695455Y-91453857D01*
X79677202Y-91446644D01*
X79659743Y-91437676D01*
X78880321Y-90987676D01*
X78863825Y-90977040D01*
X78848452Y-90964839D01*
X78834348Y-90951189D01*
X78821650Y-90936223D01*
X78810481Y-90920084D01*
X78800946Y-90902929D01*
X78793140Y-90884921D01*
X78787136Y-90866235D01*
X78782992Y-90847050D01*
X78780749Y-90827552D01*
X78780428Y-90807927D01*
X78782032Y-90788366D01*
X78785546Y-90769056D01*
X78790935Y-90750183D01*
X78798148Y-90731930D01*
X78807116Y-90714471D01*
X79007116Y-90368061D01*
X79017752Y-90351565D01*
X79029953Y-90336192D01*
X79043603Y-90322088D01*
X79058569Y-90309390D01*
X79074707Y-90298221D01*
X79091863Y-90288686D01*
X79109871Y-90280880D01*
X79128557Y-90274876D01*
X79147742Y-90270732D01*
X79167240Y-90268489D01*
X79186865Y-90268168D01*
X79206426Y-90269772D01*
G37*
G04 #@! TD.AperFunction*
G04 #@! TA.AperFunction,SMDPad,CuDef*
G36*
X78581426Y-91352304D02*
G01*
X78600736Y-91355818D01*
X78619609Y-91361207D01*
X78637862Y-91368420D01*
X78655321Y-91377388D01*
X79434743Y-91827388D01*
X79451239Y-91838024D01*
X79466612Y-91850225D01*
X79480716Y-91863875D01*
X79493414Y-91878841D01*
X79504583Y-91894980D01*
X79514118Y-91912135D01*
X79521924Y-91930143D01*
X79527928Y-91948829D01*
X79532072Y-91968014D01*
X79534315Y-91987512D01*
X79534636Y-92007137D01*
X79533032Y-92026698D01*
X79529518Y-92046008D01*
X79524129Y-92064881D01*
X79516916Y-92083134D01*
X79507948Y-92100593D01*
X79307948Y-92447003D01*
X79297312Y-92463499D01*
X79285111Y-92478872D01*
X79271461Y-92492976D01*
X79256495Y-92505674D01*
X79240357Y-92516843D01*
X79223201Y-92526378D01*
X79205193Y-92534184D01*
X79186507Y-92540188D01*
X79167322Y-92544332D01*
X79147824Y-92546575D01*
X79128199Y-92546896D01*
X79108638Y-92545292D01*
X79089328Y-92541778D01*
X79070455Y-92536389D01*
X79052202Y-92529176D01*
X79034743Y-92520208D01*
X78255321Y-92070208D01*
X78238825Y-92059572D01*
X78223452Y-92047371D01*
X78209348Y-92033721D01*
X78196650Y-92018755D01*
X78185481Y-92002616D01*
X78175946Y-91985461D01*
X78168140Y-91967453D01*
X78162136Y-91948767D01*
X78157992Y-91929582D01*
X78155749Y-91910084D01*
X78155428Y-91890459D01*
X78157032Y-91870898D01*
X78160546Y-91851588D01*
X78165935Y-91832715D01*
X78173148Y-91814462D01*
X78182116Y-91797003D01*
X78382116Y-91450593D01*
X78392752Y-91434097D01*
X78404953Y-91418724D01*
X78418603Y-91404620D01*
X78433569Y-91391922D01*
X78449707Y-91380753D01*
X78466863Y-91371218D01*
X78484871Y-91363412D01*
X78503557Y-91357408D01*
X78522742Y-91353264D01*
X78542240Y-91351021D01*
X78561865Y-91350700D01*
X78581426Y-91352304D01*
G37*
G04 #@! TD.AperFunction*
D11*
X94930000Y-126200000D03*
X95870000Y-126200000D03*
D12*
X95850000Y-125220000D03*
X95850000Y-124280000D03*
X94050000Y-123780000D03*
X94050000Y-124720000D03*
D11*
X92720000Y-125950000D03*
X91780000Y-125950000D03*
D13*
X99050000Y-124700000D03*
X97050000Y-123750000D03*
X97050000Y-125650000D03*
D14*
X91900000Y-122750000D03*
X90950000Y-124750000D03*
X92850000Y-124750000D03*
G04 #@! TA.AperFunction,SMDPad,CuDef*
D10*
G36*
X76067140Y-107773241D02*
G01*
X76526759Y-108232860D01*
X75777226Y-108982393D01*
X75317607Y-108522774D01*
X76067140Y-107773241D01*
G37*
G04 #@! TD.AperFunction*
G04 #@! TA.AperFunction,SMDPad,CuDef*
G36*
X75395388Y-107101490D02*
G01*
X75855007Y-107561109D01*
X75105474Y-108310642D01*
X74645855Y-107851023D01*
X75395388Y-107101490D01*
G37*
G04 #@! TD.AperFunction*
G04 #@! TA.AperFunction,SMDPad,CuDef*
G36*
X76738891Y-108444993D02*
G01*
X77198510Y-108904612D01*
X76448977Y-109654145D01*
X75989358Y-109194526D01*
X76738891Y-108444993D01*
G37*
G04 #@! TD.AperFunction*
G04 #@! TA.AperFunction,SMDPad,CuDef*
G36*
X78294526Y-106889358D02*
G01*
X78754145Y-107348977D01*
X78004612Y-108098510D01*
X77544993Y-107638891D01*
X78294526Y-106889358D01*
G37*
G04 #@! TD.AperFunction*
G04 #@! TA.AperFunction,SMDPad,CuDef*
G36*
X77622774Y-106217607D02*
G01*
X78082393Y-106677226D01*
X77332860Y-107426759D01*
X76873241Y-106967140D01*
X77622774Y-106217607D01*
G37*
G04 #@! TD.AperFunction*
G04 #@! TA.AperFunction,SMDPad,CuDef*
G36*
X76951023Y-105545855D02*
G01*
X77410642Y-106005474D01*
X76661109Y-106755007D01*
X76201490Y-106295388D01*
X76951023Y-105545855D01*
G37*
G04 #@! TD.AperFunction*
D14*
X74646447Y-109570711D03*
X73696447Y-111570711D03*
X75596447Y-111570711D03*
D12*
X91800000Y-127920000D03*
X91800000Y-126980000D03*
X109200000Y-122830000D03*
X109200000Y-123770000D03*
X102200000Y-123830000D03*
X102200000Y-124770000D03*
X105700000Y-123230000D03*
X105700000Y-124170000D03*
D11*
X107530000Y-127100000D03*
X108470000Y-127100000D03*
X100530000Y-128200000D03*
X101470000Y-128200000D03*
X104030000Y-127600000D03*
X104970000Y-127600000D03*
D12*
X77200000Y-97870000D03*
X77200000Y-96930000D03*
X77200000Y-101030000D03*
X77200000Y-101970000D03*
D14*
X108000000Y-123900000D03*
X107050000Y-125900000D03*
X108950000Y-125900000D03*
X101000000Y-125000000D03*
X100050000Y-127000000D03*
X101950000Y-127000000D03*
X104500000Y-124400000D03*
X103550000Y-126400000D03*
X105450000Y-126400000D03*
D15*
X79150987Y-111052962D03*
X78252962Y-111950987D03*
X80049013Y-111950987D03*
X79150987Y-112849013D03*
X80947038Y-112849013D03*
X80049013Y-113747038D03*
D16*
X96800000Y-127150000D03*
X98300000Y-127150000D03*
D17*
X90600000Y-127400000D03*
X90600000Y-125900000D03*
G04 #@! TA.AperFunction,SMDPad,CuDef*
D10*
G36*
X75567695Y-105956569D02*
G01*
X75143431Y-105532305D01*
X75496985Y-105178751D01*
X75921249Y-105603015D01*
X75567695Y-105956569D01*
G37*
G04 #@! TD.AperFunction*
G04 #@! TA.AperFunction,SMDPad,CuDef*
G36*
X74903015Y-106621249D02*
G01*
X74478751Y-106196985D01*
X74832305Y-105843431D01*
X75256569Y-106267695D01*
X74903015Y-106621249D01*
G37*
G04 #@! TD.AperFunction*
D16*
X75396447Y-112974874D03*
X73896447Y-112974874D03*
D17*
X73300000Y-109250000D03*
X73300000Y-107750000D03*
G04 #@! TA.AperFunction,SMDPad,CuDef*
D10*
G36*
X77056569Y-113382305D02*
G01*
X76632305Y-113806569D01*
X76278751Y-113453015D01*
X76703015Y-113028751D01*
X77056569Y-113382305D01*
G37*
G04 #@! TD.AperFunction*
G04 #@! TA.AperFunction,SMDPad,CuDef*
G36*
X77721249Y-114046985D02*
G01*
X77296985Y-114471249D01*
X76943431Y-114117695D01*
X77367695Y-113693431D01*
X77721249Y-114046985D01*
G37*
G04 #@! TD.AperFunction*
G04 #@! TA.AperFunction,SMDPad,CuDef*
G36*
X81643431Y-123567695D02*
G01*
X82067695Y-123143431D01*
X82421249Y-123496985D01*
X81996985Y-123921249D01*
X81643431Y-123567695D01*
G37*
G04 #@! TD.AperFunction*
G04 #@! TA.AperFunction,SMDPad,CuDef*
G36*
X80978751Y-122903015D02*
G01*
X81403015Y-122478751D01*
X81756569Y-122832305D01*
X81332305Y-123256569D01*
X80978751Y-122903015D01*
G37*
G04 #@! TD.AperFunction*
D18*
X75600000Y-102000000D03*
X75600000Y-97200000D03*
X75600000Y-96400000D03*
X75600000Y-102800000D03*
D19*
X74685000Y-103920000D03*
X74685000Y-95280000D03*
D20*
X70505000Y-103920000D03*
X70505000Y-95280000D03*
D18*
X75600000Y-96400000D03*
X75600000Y-97200000D03*
D21*
X75600000Y-97850000D03*
X75600000Y-98350000D03*
X75600000Y-98850000D03*
X75600000Y-99350000D03*
X75600000Y-99850000D03*
X75600000Y-100350000D03*
X75600000Y-100850000D03*
X75600000Y-101350000D03*
D18*
X75600000Y-102000000D03*
X75600000Y-102800000D03*
D22*
X101900000Y-122200000D03*
X104125000Y-121875000D03*
X99700000Y-122325000D03*
X106275000Y-121400000D03*
X96175000Y-122000000D03*
X108425000Y-120650000D03*
X94000000Y-121500000D03*
X91900000Y-120850000D03*
D23*
X79600000Y-85100000D03*
X75100000Y-92800000D03*
X72500000Y-110000000D03*
X72500000Y-111000000D03*
X72500000Y-112000000D03*
X75750000Y-110250000D03*
X75750000Y-114000000D03*
X76500000Y-114750000D03*
X78000000Y-110750000D03*
X78500000Y-108500000D03*
X77750000Y-99000000D03*
X71250000Y-107750000D03*
X70000000Y-109500000D03*
X77750000Y-116250000D03*
X78500000Y-117250000D03*
X80000000Y-116500000D03*
X81250000Y-115750000D03*
X81000000Y-117750000D03*
X80000000Y-119000000D03*
X77250000Y-120000000D03*
X74500000Y-116500000D03*
X83000000Y-124250000D03*
X81250000Y-124250000D03*
X84750000Y-121750000D03*
X86000000Y-119250000D03*
X87250000Y-121750000D03*
X88750000Y-121250000D03*
X89500000Y-125200000D03*
X87800000Y-123800000D03*
X90500000Y-123600000D03*
X89000000Y-122900000D03*
X94000000Y-125600000D03*
X93600000Y-126400000D03*
X98100000Y-123600000D03*
X85100000Y-125800000D03*
X87600000Y-128000000D03*
X92200000Y-130400000D03*
X96000000Y-131300000D03*
X95000000Y-130100000D03*
X102500000Y-128300000D03*
X107000000Y-128000000D03*
X104000000Y-130000000D03*
X102000000Y-130000000D03*
X100000000Y-130000000D03*
X98000000Y-130000000D03*
X110400000Y-124000000D03*
X110500000Y-127000000D03*
X101000000Y-127000000D03*
X88999996Y-125900000D03*
X78900000Y-114400000D03*
X83800000Y-120400000D03*
X79176849Y-106923151D03*
X77800000Y-105500000D03*
X81900000Y-115200000D03*
X81000000Y-111800000D03*
X103200000Y-127600000D03*
X89218367Y-126866911D03*
X99600000Y-128200000D03*
X89441615Y-127655858D03*
X106600000Y-127100000D03*
X88876125Y-128221755D03*
X93949987Y-122950000D03*
X84056234Y-117134350D03*
X94750000Y-122900000D03*
X84500000Y-117800000D03*
X85900000Y-120100000D03*
X79700002Y-88100000D03*
X86200000Y-120900000D03*
X79100002Y-89200000D03*
D24*
X90650000Y-125950000D02*
X90600000Y-125900000D01*
X91780000Y-125950000D02*
X90650000Y-125950000D01*
X90950000Y-125550000D02*
X90600000Y-125900000D01*
X90950000Y-124750000D02*
X90950000Y-125550000D01*
X91780000Y-126919990D02*
X91780000Y-125950000D01*
D25*
X82032340Y-123189138D02*
X82952741Y-122268737D01*
X82032340Y-123532340D02*
X82032340Y-123189138D01*
X75532340Y-105921214D02*
X75532340Y-105567660D01*
X77103051Y-107196949D02*
X76678770Y-107196949D01*
X77477817Y-106822183D02*
X77103051Y-107196949D01*
X76678770Y-107196949D02*
X75532340Y-106050519D01*
X75532340Y-106050519D02*
X75532340Y-105921214D01*
X77180000Y-97850000D02*
X77200000Y-97870000D01*
X75600000Y-97850000D02*
X77180000Y-97850000D01*
X77020000Y-100850000D02*
X77200000Y-101030000D01*
X75600000Y-100850000D02*
X77020000Y-100850000D01*
X81438077Y-122867660D02*
X82454812Y-121850925D01*
X81367660Y-122867660D02*
X81438077Y-122867660D01*
D26*
X73696447Y-112774874D02*
X73896447Y-112974874D01*
X73696447Y-111570711D02*
X73696447Y-112774874D01*
X80049013Y-114750987D02*
X80049013Y-113747038D01*
X79400000Y-115400000D02*
X80049013Y-114750987D01*
X73896447Y-113124874D02*
X76171573Y-115400000D01*
X73896447Y-112974874D02*
X73896447Y-113124874D01*
X81014106Y-122867660D02*
X79200000Y-121053554D01*
X81367660Y-122867660D02*
X81014106Y-122867660D01*
X79200000Y-115400000D02*
X79400000Y-115400000D01*
X79200000Y-121053554D02*
X79200000Y-115400000D01*
X76171573Y-115400000D02*
X79200000Y-115400000D01*
D25*
X106050001Y-125149999D02*
X105450000Y-125750000D01*
X108849999Y-125149999D02*
X106050001Y-125149999D01*
X108950000Y-125250000D02*
X108849999Y-125149999D01*
X108950000Y-125900000D02*
X108950000Y-125250000D01*
X101950000Y-126350000D02*
X101950000Y-127000000D01*
X102650001Y-125649999D02*
X101950000Y-126350000D01*
X105349999Y-125649999D02*
X102650001Y-125649999D01*
X105450000Y-125750000D02*
X105349999Y-125649999D01*
X105450000Y-126400000D02*
X105450000Y-125750000D01*
X101470000Y-127480000D02*
X101950000Y-127000000D01*
X101470000Y-128200000D02*
X101470000Y-127480000D01*
X104970000Y-126880000D02*
X105450000Y-126400000D01*
X104970000Y-127600000D02*
X104970000Y-126880000D01*
X108470000Y-126380000D02*
X108950000Y-125900000D01*
X108470000Y-127100000D02*
X108470000Y-126380000D01*
X101950000Y-127000000D02*
X101000000Y-127000000D01*
X82539925Y-121850925D02*
X82454812Y-121850925D01*
X83122132Y-121268718D02*
X82539925Y-121850925D01*
X83531282Y-121268718D02*
X83122132Y-121268718D01*
X83700000Y-121100000D02*
X83531282Y-121268718D01*
X85300000Y-121100000D02*
X83700000Y-121100000D01*
X88800000Y-125900000D02*
X88999996Y-125900000D01*
X87000000Y-124100000D02*
X88800000Y-125900000D01*
X87000000Y-122875736D02*
X87000000Y-124100000D01*
X85300000Y-121175736D02*
X87000000Y-122875736D01*
X85300000Y-119000000D02*
X85300000Y-121175736D01*
X85806797Y-118493203D02*
X85300000Y-119000000D01*
X85806797Y-117771725D02*
X85806797Y-118493203D01*
X86247259Y-117331263D02*
X85806797Y-117771725D01*
X78900000Y-113100000D02*
X79150987Y-112849013D01*
X78900000Y-114400000D02*
X78900000Y-113100000D01*
X78650987Y-112849013D02*
X77500000Y-114000000D01*
X79150987Y-112849013D02*
X78650987Y-112849013D01*
X84900000Y-119300000D02*
X83800000Y-120400000D01*
X84900000Y-118775736D02*
X84900000Y-119300000D01*
X85210950Y-118464786D02*
X84900000Y-118775736D01*
X85210950Y-117451831D02*
X85210950Y-118464786D01*
X85749330Y-116913451D02*
X85210950Y-117451831D01*
D27*
X75839341Y-108377817D02*
X74646447Y-109570711D01*
X75922183Y-108377817D02*
X75839341Y-108377817D01*
X74646447Y-109096447D02*
X73300000Y-107750000D01*
X74646447Y-109570711D02*
X74646447Y-109096447D01*
X73150000Y-107750000D02*
X72500000Y-107100000D01*
X73300000Y-107750000D02*
X73150000Y-107750000D01*
D25*
X75922183Y-108377817D02*
X76296949Y-108003051D01*
X76296949Y-108003051D02*
X76296949Y-107380828D01*
X76296949Y-107380828D02*
X75360593Y-106444472D01*
X75360593Y-106444472D02*
X75079792Y-106444472D01*
X75079792Y-106444472D02*
X74867660Y-106232340D01*
D27*
X72500000Y-107100000D02*
X72500000Y-101900000D01*
X72500000Y-101900000D02*
X72500000Y-101500000D01*
D28*
X88435681Y-129649550D02*
X88765569Y-129776112D01*
X85851640Y-128507074D02*
X86168908Y-128662349D01*
X84910174Y-128020109D02*
X85222232Y-128185934D01*
X74760496Y-119385478D02*
X74977253Y-119664473D01*
X77558901Y-122566046D02*
X77810750Y-122813737D01*
X74546794Y-119104023D02*
X74760496Y-119385478D01*
X74336372Y-118820405D02*
X74546794Y-119104023D01*
X74129051Y-118534385D02*
X74336372Y-118820405D01*
X85536049Y-128348252D02*
X85851640Y-128507074D01*
X80754926Y-125346725D02*
X81037443Y-125558772D01*
X86808676Y-128962359D02*
X87131005Y-129107014D01*
X76106670Y-121022325D02*
X76341557Y-121286321D01*
X73924866Y-118246006D02*
X74129051Y-118534385D01*
X78322735Y-123300763D02*
X78582714Y-123539950D01*
X81322305Y-125767675D02*
X81609513Y-125973434D01*
X86168908Y-128662349D02*
X86487950Y-128814125D01*
X72952737Y-116771254D02*
X73140647Y-117070576D01*
X78845324Y-123776230D02*
X79110541Y-124009579D01*
X88107287Y-129519362D02*
X88435681Y-129649550D01*
X71732485Y-114621116D02*
X71896483Y-114933912D01*
X88765569Y-129776112D02*
X88839689Y-129803609D01*
X74977253Y-119664473D02*
X75197126Y-119941084D01*
X72500000Y-108200000D02*
X71300000Y-109400000D01*
X71896483Y-114933912D02*
X72064046Y-115245059D01*
X87131005Y-129107014D02*
X87454874Y-129248062D01*
X76341557Y-121286321D02*
X76579301Y-121547627D01*
X75874852Y-120755882D02*
X76106670Y-121022325D01*
X71300000Y-109400000D02*
X71300000Y-113751941D01*
X87780398Y-129385551D02*
X88107287Y-129519362D01*
X76819927Y-121806274D02*
X77063476Y-122062303D01*
X79378402Y-124240029D02*
X79648772Y-124467466D01*
X84600276Y-127850994D02*
X84910174Y-128020109D01*
X82484598Y-126571414D02*
X82780618Y-126764197D01*
X72064046Y-115245059D02*
X72235009Y-115554248D01*
X71300000Y-113751941D02*
X71414859Y-113989967D01*
X81609513Y-125973434D02*
X81899053Y-126176040D01*
X79648772Y-124467466D02*
X79921559Y-124691811D01*
X72235009Y-115554248D02*
X72409378Y-115861493D01*
X83378994Y-127139850D02*
X83681322Y-127322702D01*
X73331800Y-117367686D02*
X73526212Y-117662614D01*
X78065343Y-123058624D02*
X78322735Y-123300763D01*
X71414859Y-113989967D02*
X71571891Y-114306362D01*
X85222232Y-128185934D02*
X85536049Y-128348252D01*
X77810750Y-122813737D02*
X78065343Y-123058624D01*
X83985684Y-127502200D02*
X84291905Y-127678241D01*
X86487950Y-128814125D02*
X86808676Y-128962359D01*
X72409378Y-115861493D02*
X72587112Y-116166725D01*
X75419956Y-120215113D02*
X75645922Y-120486782D01*
X73526212Y-117662614D02*
X73723915Y-117955410D01*
X79110541Y-124009579D02*
X79378402Y-124240029D01*
X71571891Y-114306362D02*
X71732485Y-114621116D01*
X84291905Y-127678241D02*
X84600276Y-127850994D01*
X72587112Y-116166725D02*
X72768298Y-116470090D01*
X75645922Y-120486782D02*
X75874852Y-120755882D01*
X73723915Y-117955410D02*
X73924866Y-118246006D01*
X87454874Y-129248062D02*
X87780398Y-129385551D01*
X73140647Y-117070576D02*
X73331800Y-117367686D01*
X76579301Y-121547627D02*
X76819927Y-121806274D01*
X77063476Y-122062303D02*
X77309727Y-122315485D01*
X72500000Y-101900000D02*
X72500000Y-108200000D01*
X77309727Y-122315485D02*
X77558901Y-122566046D01*
X75197126Y-119941084D02*
X75419956Y-120215113D01*
X78582714Y-123539950D02*
X78845324Y-123776230D01*
X82780618Y-126764197D02*
X83078824Y-126953722D01*
X82190678Y-126375319D02*
X82484598Y-126571414D01*
X80196964Y-124913232D02*
X80474739Y-125131525D01*
X83078824Y-126953722D02*
X83378994Y-127139850D01*
X80474739Y-125131525D02*
X80754926Y-125346725D01*
X72768298Y-116470090D02*
X72952737Y-116771254D01*
X81037443Y-125558772D02*
X81322305Y-125767675D01*
X79921559Y-124691811D02*
X80196964Y-124913232D01*
X81899053Y-126176040D02*
X82190678Y-126375319D01*
X83681322Y-127322702D02*
X83985684Y-127502200D01*
D25*
X105730001Y-124650001D02*
X105700000Y-124620000D01*
X108769999Y-124650001D02*
X105730001Y-124650001D01*
X109200000Y-124220000D02*
X108769999Y-124650001D01*
X109200000Y-123770000D02*
X109200000Y-124220000D01*
X102700000Y-124770000D02*
X102200000Y-124770000D01*
X103080001Y-125150001D02*
X102700000Y-124770000D01*
X105169999Y-125150001D02*
X103080001Y-125150001D01*
X105700000Y-124620000D02*
X105169999Y-125150001D01*
X105700000Y-124170000D02*
X105700000Y-124620000D01*
X99150000Y-126000000D02*
X98650000Y-126000000D01*
X101420000Y-126000000D02*
X99150000Y-126000000D01*
X102200000Y-125220000D02*
X101420000Y-126000000D01*
X102200000Y-124770000D02*
X102200000Y-125220000D01*
D28*
X91800000Y-129070000D02*
X91800000Y-127920000D01*
X98300000Y-128500000D02*
X98300000Y-127150000D01*
X97730000Y-129070000D02*
X98300000Y-128500000D01*
X98300000Y-127150000D02*
X98300000Y-126000000D01*
D29*
X98200000Y-126000000D02*
X98300000Y-126000000D01*
X98200000Y-125600002D02*
X98200000Y-126000000D01*
X98099999Y-125500001D02*
X98200000Y-125600002D01*
X98099999Y-124949997D02*
X98099999Y-125500001D01*
X97050000Y-123899998D02*
X98099999Y-124949997D01*
X97050000Y-123750000D02*
X97050000Y-123899998D01*
D24*
X96380000Y-123750000D02*
X95850000Y-124280000D01*
X97050000Y-123750000D02*
X96380000Y-123750000D01*
X95020000Y-129070000D02*
X95050000Y-129040000D01*
D28*
X91800000Y-129070000D02*
X95020000Y-129070000D01*
X95020000Y-129070000D02*
X97730000Y-129070000D01*
X72500000Y-91900000D02*
X72500000Y-101900000D01*
X74009566Y-90390434D02*
X72500000Y-91900000D01*
X78994200Y-90390434D02*
X74009566Y-90390434D01*
X79470032Y-90866266D02*
X78994200Y-90390434D01*
X90497193Y-130372803D02*
X91800000Y-129070000D01*
X90434794Y-130353519D02*
X90497193Y-130372803D01*
X90098404Y-130245457D02*
X90434794Y-130353519D01*
X89429318Y-130018161D02*
X89763329Y-130133700D01*
X89763329Y-130133700D02*
X90098404Y-130245457D01*
X89096822Y-129898997D02*
X89429318Y-130018161D01*
X88765569Y-129776112D02*
X89096822Y-129898997D01*
D25*
X101700000Y-123830000D02*
X102200000Y-123830000D01*
X101520000Y-123830000D02*
X101700000Y-123830000D01*
X101000000Y-124350000D02*
X101520000Y-123830000D01*
X101000000Y-125000000D02*
X101000000Y-124350000D01*
X102200000Y-122500000D02*
X101900000Y-122200000D01*
X102200000Y-123830000D02*
X102200000Y-122500000D01*
X105200000Y-123230000D02*
X105700000Y-123230000D01*
X105020000Y-123230000D02*
X105200000Y-123230000D01*
X104500000Y-123750000D02*
X105020000Y-123230000D01*
X104500000Y-124400000D02*
X104500000Y-123750000D01*
X104125000Y-121875000D02*
X105024999Y-122775001D01*
X105020000Y-122780000D02*
X105020000Y-123230000D01*
X105024999Y-122775001D02*
X105020000Y-122780000D01*
X108420000Y-122830000D02*
X108700000Y-122830000D01*
X108000000Y-123250000D02*
X108420000Y-122830000D01*
X108700000Y-122830000D02*
X109200000Y-122830000D01*
X108000000Y-123900000D02*
X108000000Y-123250000D01*
X108000000Y-123125000D02*
X106275000Y-121400000D01*
X108000000Y-123900000D02*
X108000000Y-123125000D01*
X76625001Y-98950001D02*
X76525000Y-98850000D01*
X76625001Y-99749999D02*
X76625001Y-98950001D01*
X76525000Y-99850000D02*
X76625001Y-99749999D01*
X76525000Y-98850000D02*
X75600000Y-98850000D01*
X75600000Y-99850000D02*
X76525000Y-99850000D01*
X76712501Y-99875000D02*
X77893200Y-99875000D01*
X76687501Y-99850000D02*
X76712501Y-99875000D01*
X75600000Y-99850000D02*
X76687501Y-99850000D01*
X77893200Y-99875000D02*
X78625000Y-100606800D01*
X78149569Y-107034329D02*
X78149569Y-107493934D01*
X78382403Y-106801495D02*
X78149569Y-107034329D01*
X78382403Y-106235796D02*
X78382403Y-106801495D01*
X78625000Y-105993199D02*
X78382403Y-106235796D01*
X78625000Y-100606800D02*
X78625000Y-105993199D01*
X81895630Y-111918249D02*
X82056170Y-112166337D01*
X81889517Y-111916843D02*
X81889527Y-111916846D01*
X81566645Y-111411057D02*
X81572714Y-111412624D01*
X81416543Y-111156522D02*
X81566645Y-111411057D01*
X81572714Y-111412624D02*
X81726333Y-111665068D01*
X79975000Y-109093200D02*
X80650525Y-109768734D01*
X81263921Y-110898265D02*
X81410493Y-111154863D01*
X82226260Y-112413498D02*
X82226273Y-112413501D01*
X82975000Y-116489271D02*
X82975000Y-119678985D01*
X82062299Y-112167650D02*
X82226260Y-112413498D01*
X81410505Y-111154874D02*
X81416543Y-111156522D01*
X81726333Y-111665068D02*
X81732420Y-111666550D01*
X81889532Y-111916854D02*
X81895630Y-111918249D01*
X80963508Y-110373658D02*
X80969482Y-110375558D01*
X81108896Y-110636114D02*
X81114893Y-110637931D01*
X82226280Y-112413512D02*
X82232413Y-112414738D01*
X81410500Y-111154865D02*
X81410505Y-111154874D01*
X81889527Y-111916846D02*
X81889532Y-111916854D01*
X78600000Y-107718200D02*
X79975000Y-109093200D01*
X78379378Y-107723743D02*
X78594457Y-107723743D01*
X78594457Y-107723743D02*
X78600000Y-107718200D01*
X82475000Y-112972171D02*
X82975000Y-113472171D01*
X78149569Y-107493934D02*
X78379378Y-107723743D01*
X81257898Y-110896531D02*
X81263921Y-110898265D01*
X82475000Y-112757521D02*
X82475000Y-112972171D01*
X82220891Y-120433094D02*
X82126274Y-120433094D01*
X82226273Y-112413501D02*
X82226280Y-112413512D01*
X81544067Y-121015301D02*
X81458954Y-121015301D01*
X82056170Y-112166337D02*
X82062299Y-112167650D01*
X80650525Y-109768734D02*
X80963508Y-110373658D01*
X82232413Y-112414738D02*
X82399755Y-112658284D01*
X81114893Y-110637931D02*
X81257898Y-110896531D01*
X80969482Y-110375558D02*
X81108896Y-110636114D01*
X82399755Y-112658284D02*
X82400698Y-112658459D01*
X82975000Y-115473547D02*
X82867161Y-115581386D01*
X81410493Y-111154863D02*
X81410500Y-111154865D01*
X82400698Y-112658459D02*
X82475000Y-112757521D01*
X82975000Y-113472171D02*
X82975000Y-115473547D01*
X82867161Y-115581386D02*
X82867161Y-116381432D01*
X81732420Y-111666550D02*
X81889517Y-111916843D01*
X82867161Y-116381432D02*
X82975000Y-116489271D01*
X82975000Y-119678985D02*
X82220891Y-120433094D01*
X82126274Y-120433094D02*
X81544067Y-121015301D01*
X74675000Y-100350000D02*
X75600000Y-100350000D01*
X74574999Y-100249999D02*
X74675000Y-100350000D01*
X74574999Y-99450001D02*
X74574999Y-100249999D01*
X74675000Y-99350000D02*
X74574999Y-99450001D01*
X75600000Y-99350000D02*
X74675000Y-99350000D01*
X76712501Y-100325000D02*
X77706800Y-100325000D01*
X76687501Y-100350000D02*
X76712501Y-100325000D01*
X75600000Y-100350000D02*
X76687501Y-100350000D01*
X77706800Y-100325000D02*
X78175000Y-100793200D01*
X78064204Y-105917597D02*
X77498505Y-105917597D01*
X78175000Y-100793200D02*
X78175000Y-105806801D01*
X77265671Y-106150431D02*
X76806066Y-106150431D01*
X77498505Y-105917597D02*
X77265671Y-106150431D01*
X77800000Y-105500000D02*
X78100000Y-105800000D01*
X78100000Y-105900000D02*
X78064204Y-105917597D01*
X78100000Y-105800000D02*
X78100000Y-105900000D01*
X78175000Y-105806801D02*
X78100000Y-105900000D01*
X83425000Y-115659930D02*
X83317152Y-115767778D01*
X82925000Y-112607527D02*
X82925000Y-112785771D01*
X82853730Y-112509411D02*
X82853358Y-112512012D01*
X82838857Y-112488999D02*
X82853730Y-112509411D01*
X82836266Y-112488555D02*
X82838857Y-112488999D01*
X83317152Y-115767778D02*
X83317152Y-116195040D01*
X82335267Y-111765931D02*
X82497211Y-112008753D01*
X81956883Y-121333500D02*
X81956883Y-121433113D01*
X82332697Y-111765380D02*
X82335267Y-111765931D01*
X82016402Y-111272540D02*
X82171565Y-111519751D01*
X82013849Y-111271918D02*
X82016402Y-111272540D01*
X82665079Y-112249828D02*
X82667664Y-112250308D01*
X81277521Y-110001328D02*
X81280026Y-110002125D01*
X82667664Y-112250308D02*
X82836266Y-112488555D01*
X79176849Y-106923151D02*
X79193200Y-106939502D01*
X83425000Y-116302888D02*
X83425000Y-119865383D01*
X81420240Y-110260236D02*
X81561486Y-110515654D01*
X81020878Y-109505297D02*
X81277521Y-110001328D01*
X82174127Y-111520337D02*
X82332697Y-111765380D01*
X81859577Y-111021925D02*
X81862122Y-111022582D01*
X83425000Y-119865383D02*
X81956883Y-121333500D01*
X83425000Y-113285771D02*
X83425000Y-115659930D01*
X82853358Y-112512012D02*
X82925000Y-112607527D01*
X82171565Y-111519751D02*
X82174127Y-111520337D01*
X82497211Y-112008753D02*
X82499789Y-112009268D01*
X82925000Y-112785771D02*
X83425000Y-113285771D01*
X81862122Y-111022582D02*
X82013849Y-111271918D01*
X82499789Y-112009268D02*
X82665079Y-112249828D01*
X80425000Y-108906800D02*
X81021509Y-109503313D01*
X79193200Y-106939502D02*
X79193200Y-107675000D01*
X83317152Y-116195040D02*
X83425000Y-116302888D01*
X81564012Y-110516382D02*
X81708780Y-110769821D01*
X81417725Y-110259474D02*
X81420240Y-110260236D01*
X79193200Y-107675000D02*
X80425000Y-108906800D01*
X81021509Y-109503313D02*
X81020878Y-109505297D01*
X81280026Y-110002125D02*
X81417725Y-110259474D01*
X81561486Y-110515654D02*
X81564012Y-110516382D01*
X81708780Y-110769821D02*
X81711316Y-110770513D01*
X81711316Y-110770513D02*
X81859577Y-111021925D01*
X82000000Y-115300000D02*
X81900000Y-115200000D01*
X82000000Y-118642774D02*
X82000000Y-115300000D01*
X80463097Y-120179677D02*
X82000000Y-118642774D01*
X80849013Y-111950987D02*
X81000000Y-111800000D01*
X80049013Y-111950987D02*
X80849013Y-111950987D01*
X82500001Y-113846997D02*
X81502017Y-112849013D01*
X82500001Y-115382847D02*
X82500001Y-113846997D01*
X82467151Y-115415697D02*
X82500001Y-115382847D01*
X82467151Y-119091363D02*
X82467151Y-115415697D01*
X80961025Y-120597489D02*
X82467151Y-119091363D01*
X81502017Y-112849013D02*
X80947038Y-112849013D01*
X104030000Y-126880000D02*
X103550000Y-126400000D01*
X104030000Y-127600000D02*
X104030000Y-126880000D01*
X104030000Y-127600000D02*
X103200000Y-127600000D01*
X86550000Y-123284300D02*
X86550000Y-124338002D01*
X88918368Y-126566912D02*
X89218367Y-126866911D01*
X83948599Y-123104361D02*
X84552982Y-122499978D01*
X85765678Y-122499978D02*
X86550000Y-123284300D01*
X86550000Y-124338002D02*
X88778910Y-126566912D01*
X88778910Y-126566912D02*
X88918368Y-126566912D01*
X84552982Y-122499978D02*
X85765678Y-122499978D01*
X100530000Y-127480000D02*
X100050000Y-127000000D01*
X100530000Y-128200000D02*
X100530000Y-127480000D01*
X100530000Y-128200000D02*
X99600000Y-128200000D01*
X89119310Y-127655858D02*
X89441615Y-127655858D01*
X86149989Y-124686537D02*
X89119310Y-127655858D01*
X86149989Y-123449989D02*
X86149989Y-124686537D01*
X85599989Y-122899989D02*
X86149989Y-123449989D01*
X85068712Y-122899989D02*
X85599989Y-122899989D01*
X84446528Y-123522173D02*
X85068712Y-122899989D01*
X107530000Y-126380000D02*
X107050000Y-125900000D01*
X107530000Y-127100000D02*
X107530000Y-126380000D01*
X107530000Y-127100000D02*
X106600000Y-127100000D01*
X84944457Y-124290087D02*
X88576126Y-127921756D01*
X88576126Y-127921756D02*
X88876125Y-128221755D01*
X84944457Y-123939985D02*
X84944457Y-124290087D01*
D30*
X91900000Y-122750000D02*
X91900000Y-120850000D01*
D25*
X94000000Y-121500000D02*
X94000000Y-121300000D01*
X88736903Y-119436903D02*
X88736903Y-119420323D01*
X91150000Y-121850000D02*
X88736903Y-119436903D01*
X91350000Y-123550000D02*
X91150000Y-123350000D01*
X92450000Y-123550000D02*
X91350000Y-123550000D01*
X92650000Y-122850000D02*
X92650000Y-123350000D01*
X91150000Y-123350000D02*
X91150000Y-121850000D01*
X92650000Y-123350000D02*
X92450000Y-123550000D01*
X94000000Y-121500000D02*
X92650000Y-122850000D01*
D24*
X99050000Y-122975000D02*
X99700000Y-122325000D01*
X99050000Y-124700000D02*
X99050000Y-122975000D01*
D25*
X92720000Y-124880000D02*
X92850000Y-124750000D01*
X92720000Y-125950000D02*
X92720000Y-124880000D01*
X92880000Y-124720000D02*
X92850000Y-124750000D01*
X94050000Y-124720000D02*
X92880000Y-124720000D01*
X96620000Y-125220000D02*
X97050000Y-125650000D01*
X95850000Y-125220000D02*
X96620000Y-125220000D01*
X95850000Y-126180000D02*
X95870000Y-126200000D01*
X95850000Y-125220000D02*
X95850000Y-126180000D01*
X94050000Y-123780000D02*
X94050000Y-123050013D01*
X94050000Y-123050013D02*
X93949987Y-122950000D01*
X84056234Y-116710086D02*
X84056234Y-117134350D01*
X84753472Y-116077827D02*
X84688493Y-116077827D01*
X84688493Y-116077827D02*
X84056234Y-116710086D01*
X94930000Y-126200000D02*
X94930000Y-123080000D01*
X94930000Y-123080000D02*
X94750000Y-122900000D01*
X84799999Y-116947041D02*
X84799999Y-117500001D01*
X85251401Y-116495639D02*
X84799999Y-116947041D01*
X84799999Y-117500001D02*
X84500000Y-117800000D01*
X86225745Y-120100000D02*
X85900000Y-120100000D01*
X87741046Y-118584699D02*
X86225745Y-120100000D01*
X80300002Y-88700000D02*
X79700002Y-88100000D01*
X80700000Y-88700000D02*
X80300002Y-88700000D01*
X88238975Y-119002511D02*
X86441486Y-120800000D01*
X86300000Y-120800000D02*
X86200000Y-120900000D01*
X86441486Y-120800000D02*
X86300000Y-120800000D01*
X79700002Y-89800000D02*
X80200000Y-89800000D01*
X79100002Y-89200000D02*
X79700002Y-89800000D01*
D31*
G36*
X73576134Y-96885597D02*
G01*
X73621514Y-96995154D01*
X73687396Y-97093753D01*
X73771247Y-97177604D01*
X73869846Y-97243486D01*
X73979403Y-97288866D01*
X74095708Y-97312000D01*
X74214292Y-97312000D01*
X74330597Y-97288866D01*
X74440154Y-97243486D01*
X74538753Y-97177604D01*
X74622604Y-97093753D01*
X74688486Y-96995154D01*
X74716272Y-96928073D01*
X74720363Y-96931431D01*
X74768484Y-96957153D01*
X74820699Y-96972992D01*
X74875000Y-96978340D01*
X76325000Y-96978340D01*
X76379301Y-96972992D01*
X76431516Y-96957153D01*
X76479637Y-96931431D01*
X76521816Y-96896816D01*
X76523000Y-96895373D01*
X76523000Y-97473000D01*
X76485036Y-97473000D01*
X76479637Y-97468569D01*
X76431516Y-97442847D01*
X76379301Y-97427008D01*
X76325000Y-97421660D01*
X74875000Y-97421660D01*
X74820699Y-97427008D01*
X74768484Y-97442847D01*
X74720363Y-97468569D01*
X74678184Y-97503184D01*
X74643569Y-97545363D01*
X74617847Y-97593484D01*
X74602008Y-97645699D01*
X74596660Y-97700000D01*
X74596660Y-98000000D01*
X74602008Y-98054301D01*
X74615870Y-98100000D01*
X74602008Y-98145699D01*
X74596660Y-98200000D01*
X74596660Y-98500000D01*
X74602008Y-98554301D01*
X74615870Y-98600000D01*
X74602008Y-98645699D01*
X74596660Y-98700000D01*
X74596660Y-98979800D01*
X74565562Y-98989234D01*
X74530030Y-99000012D01*
X74464537Y-99035019D01*
X74407131Y-99082131D01*
X74395323Y-99096519D01*
X74321518Y-99170324D01*
X74307130Y-99182132D01*
X74268113Y-99229675D01*
X74260019Y-99239538D01*
X74225011Y-99305032D01*
X74217794Y-99328825D01*
X74203454Y-99376097D01*
X74197999Y-99431483D01*
X74197999Y-99431489D01*
X74196176Y-99450001D01*
X74197999Y-99468513D01*
X74198000Y-100231478D01*
X74196176Y-100249999D01*
X74203454Y-100323904D01*
X74225011Y-100394968D01*
X74260019Y-100460462D01*
X74295325Y-100503483D01*
X74295328Y-100503486D01*
X74307131Y-100517868D01*
X74321513Y-100529671D01*
X74395323Y-100603481D01*
X74407131Y-100617869D01*
X74464537Y-100664981D01*
X74530030Y-100699988D01*
X74546652Y-100705030D01*
X74596660Y-100720200D01*
X74596660Y-101000000D01*
X74602008Y-101054301D01*
X74615870Y-101100000D01*
X74602008Y-101145699D01*
X74596660Y-101200000D01*
X74596660Y-101500000D01*
X74602008Y-101554301D01*
X74617847Y-101606516D01*
X74643569Y-101654637D01*
X74678184Y-101696816D01*
X74720363Y-101731431D01*
X74768484Y-101757153D01*
X74820699Y-101772992D01*
X74875000Y-101778340D01*
X76325000Y-101778340D01*
X76379301Y-101772992D01*
X76431516Y-101757153D01*
X76479637Y-101731431D01*
X76521816Y-101696816D01*
X76523000Y-101695373D01*
X76523000Y-102304627D01*
X76521816Y-102303184D01*
X76479637Y-102268569D01*
X76431516Y-102242847D01*
X76379301Y-102227008D01*
X76325000Y-102221660D01*
X74875000Y-102221660D01*
X74820699Y-102227008D01*
X74768484Y-102242847D01*
X74720363Y-102268569D01*
X74716272Y-102271927D01*
X74688486Y-102204846D01*
X74622604Y-102106247D01*
X74538753Y-102022396D01*
X74440154Y-101956514D01*
X74330597Y-101911134D01*
X74214292Y-101888000D01*
X74095708Y-101888000D01*
X73979403Y-101911134D01*
X73869846Y-101956514D01*
X73771247Y-102022396D01*
X73687396Y-102106247D01*
X73621514Y-102204846D01*
X73576134Y-102314403D01*
X73574424Y-102323000D01*
X72077000Y-102323000D01*
X72077000Y-96877000D01*
X73574424Y-96877000D01*
X73576134Y-96885597D01*
G37*
X73576134Y-96885597D02*
X73621514Y-96995154D01*
X73687396Y-97093753D01*
X73771247Y-97177604D01*
X73869846Y-97243486D01*
X73979403Y-97288866D01*
X74095708Y-97312000D01*
X74214292Y-97312000D01*
X74330597Y-97288866D01*
X74440154Y-97243486D01*
X74538753Y-97177604D01*
X74622604Y-97093753D01*
X74688486Y-96995154D01*
X74716272Y-96928073D01*
X74720363Y-96931431D01*
X74768484Y-96957153D01*
X74820699Y-96972992D01*
X74875000Y-96978340D01*
X76325000Y-96978340D01*
X76379301Y-96972992D01*
X76431516Y-96957153D01*
X76479637Y-96931431D01*
X76521816Y-96896816D01*
X76523000Y-96895373D01*
X76523000Y-97473000D01*
X76485036Y-97473000D01*
X76479637Y-97468569D01*
X76431516Y-97442847D01*
X76379301Y-97427008D01*
X76325000Y-97421660D01*
X74875000Y-97421660D01*
X74820699Y-97427008D01*
X74768484Y-97442847D01*
X74720363Y-97468569D01*
X74678184Y-97503184D01*
X74643569Y-97545363D01*
X74617847Y-97593484D01*
X74602008Y-97645699D01*
X74596660Y-97700000D01*
X74596660Y-98000000D01*
X74602008Y-98054301D01*
X74615870Y-98100000D01*
X74602008Y-98145699D01*
X74596660Y-98200000D01*
X74596660Y-98500000D01*
X74602008Y-98554301D01*
X74615870Y-98600000D01*
X74602008Y-98645699D01*
X74596660Y-98700000D01*
X74596660Y-98979800D01*
X74565562Y-98989234D01*
X74530030Y-99000012D01*
X74464537Y-99035019D01*
X74407131Y-99082131D01*
X74395323Y-99096519D01*
X74321518Y-99170324D01*
X74307130Y-99182132D01*
X74268113Y-99229675D01*
X74260019Y-99239538D01*
X74225011Y-99305032D01*
X74217794Y-99328825D01*
X74203454Y-99376097D01*
X74197999Y-99431483D01*
X74197999Y-99431489D01*
X74196176Y-99450001D01*
X74197999Y-99468513D01*
X74198000Y-100231478D01*
X74196176Y-100249999D01*
X74203454Y-100323904D01*
X74225011Y-100394968D01*
X74260019Y-100460462D01*
X74295325Y-100503483D01*
X74295328Y-100503486D01*
X74307131Y-100517868D01*
X74321513Y-100529671D01*
X74395323Y-100603481D01*
X74407131Y-100617869D01*
X74464537Y-100664981D01*
X74530030Y-100699988D01*
X74546652Y-100705030D01*
X74596660Y-100720200D01*
X74596660Y-101000000D01*
X74602008Y-101054301D01*
X74615870Y-101100000D01*
X74602008Y-101145699D01*
X74596660Y-101200000D01*
X74596660Y-101500000D01*
X74602008Y-101554301D01*
X74617847Y-101606516D01*
X74643569Y-101654637D01*
X74678184Y-101696816D01*
X74720363Y-101731431D01*
X74768484Y-101757153D01*
X74820699Y-101772992D01*
X74875000Y-101778340D01*
X76325000Y-101778340D01*
X76379301Y-101772992D01*
X76431516Y-101757153D01*
X76479637Y-101731431D01*
X76521816Y-101696816D01*
X76523000Y-101695373D01*
X76523000Y-102304627D01*
X76521816Y-102303184D01*
X76479637Y-102268569D01*
X76431516Y-102242847D01*
X76379301Y-102227008D01*
X76325000Y-102221660D01*
X74875000Y-102221660D01*
X74820699Y-102227008D01*
X74768484Y-102242847D01*
X74720363Y-102268569D01*
X74716272Y-102271927D01*
X74688486Y-102204846D01*
X74622604Y-102106247D01*
X74538753Y-102022396D01*
X74440154Y-101956514D01*
X74330597Y-101911134D01*
X74214292Y-101888000D01*
X74095708Y-101888000D01*
X73979403Y-101911134D01*
X73869846Y-101956514D01*
X73771247Y-102022396D01*
X73687396Y-102106247D01*
X73621514Y-102204846D01*
X73576134Y-102314403D01*
X73574424Y-102323000D01*
X72077000Y-102323000D01*
X72077000Y-96877000D01*
X73574424Y-96877000D01*
X73576134Y-96885597D01*
G36*
X128134293Y-100274284D02*
G01*
X128192541Y-100567115D01*
X128306798Y-100842957D01*
X128472673Y-101091207D01*
X128683793Y-101302327D01*
X128932043Y-101468202D01*
X129207885Y-101582459D01*
X129500716Y-101640707D01*
X129799284Y-101640707D01*
X130092115Y-101582459D01*
X130367957Y-101468202D01*
X130616207Y-101302327D01*
X130827327Y-101091207D01*
X130993202Y-100842957D01*
X131107459Y-100567115D01*
X131165707Y-100274284D01*
X131165707Y-100177000D01*
X132178386Y-100177000D01*
X132178386Y-101123694D01*
X132021616Y-103365607D01*
X131708840Y-105591124D01*
X131241582Y-107789401D01*
X130622118Y-109949729D01*
X129853466Y-112061583D01*
X128939371Y-114114674D01*
X127884286Y-116099000D01*
X126693352Y-118004893D01*
X125372370Y-119823068D01*
X123927777Y-121544667D01*
X122366610Y-123161303D01*
X120696475Y-124665099D01*
X118925510Y-126048729D01*
X117062340Y-127305453D01*
X115116045Y-128429147D01*
X113096106Y-129414337D01*
X111012365Y-130256223D01*
X108874972Y-130950704D01*
X106694341Y-131494396D01*
X104481096Y-131884651D01*
X102246019Y-132119567D01*
X100000000Y-132198000D01*
X97753981Y-132119567D01*
X95518904Y-131884651D01*
X93305659Y-131494396D01*
X91125028Y-130950704D01*
X90990979Y-130907149D01*
X91009886Y-130888242D01*
X91059469Y-130839173D01*
X91060540Y-130837589D01*
X92101132Y-129797000D01*
X97694292Y-129797000D01*
X97730000Y-129800517D01*
X97872517Y-129786480D01*
X97917357Y-129772878D01*
X98009557Y-129744910D01*
X98135853Y-129677403D01*
X98246554Y-129586554D01*
X98269325Y-129558807D01*
X98788821Y-129039313D01*
X98816553Y-129016554D01*
X98839312Y-128988822D01*
X98839316Y-128988818D01*
X98881779Y-128937076D01*
X98907403Y-128905853D01*
X98974910Y-128779557D01*
X98992984Y-128719973D01*
X99016480Y-128642518D01*
X99030517Y-128500000D01*
X99027000Y-128464292D01*
X99027000Y-128276939D01*
X99045174Y-128368305D01*
X99088669Y-128473312D01*
X99151815Y-128567816D01*
X99232184Y-128648185D01*
X99326688Y-128711331D01*
X99431695Y-128754826D01*
X99543170Y-128777000D01*
X99656830Y-128777000D01*
X99768305Y-128754826D01*
X99873312Y-128711331D01*
X99967816Y-128648185D01*
X100019737Y-128596264D01*
X100022847Y-128606516D01*
X100048569Y-128654637D01*
X100083184Y-128696816D01*
X100125363Y-128731431D01*
X100173484Y-128757153D01*
X100225699Y-128772992D01*
X100280000Y-128778340D01*
X100780000Y-128778340D01*
X100834301Y-128772992D01*
X100886516Y-128757153D01*
X100934637Y-128731431D01*
X100976816Y-128696816D01*
X101000000Y-128668566D01*
X101023184Y-128696816D01*
X101065363Y-128731431D01*
X101113484Y-128757153D01*
X101165699Y-128772992D01*
X101220000Y-128778340D01*
X101720000Y-128778340D01*
X101774301Y-128772992D01*
X101826516Y-128757153D01*
X101874637Y-128731431D01*
X101916816Y-128696816D01*
X101951431Y-128654637D01*
X101977153Y-128606516D01*
X101992992Y-128554301D01*
X101998340Y-128500000D01*
X101998340Y-127900000D01*
X101992992Y-127845699D01*
X101977153Y-127793484D01*
X101951431Y-127745363D01*
X101937461Y-127728340D01*
X102350000Y-127728340D01*
X102404301Y-127722992D01*
X102456516Y-127707153D01*
X102504637Y-127681431D01*
X102546816Y-127646816D01*
X102581431Y-127604637D01*
X102607153Y-127556516D01*
X102622992Y-127504301D01*
X102628340Y-127450000D01*
X102628340Y-126550000D01*
X102622992Y-126495699D01*
X102607153Y-126443484D01*
X102581431Y-126395363D01*
X102546816Y-126353184D01*
X102510103Y-126323055D01*
X102806160Y-126026999D01*
X102871660Y-126026999D01*
X102871660Y-126850000D01*
X102877008Y-126904301D01*
X102892847Y-126956516D01*
X102918569Y-127004637D01*
X102953184Y-127046816D01*
X102978189Y-127067337D01*
X102926688Y-127088669D01*
X102832184Y-127151815D01*
X102751815Y-127232184D01*
X102688669Y-127326688D01*
X102645174Y-127431695D01*
X102623000Y-127543170D01*
X102623000Y-127656830D01*
X102645174Y-127768305D01*
X102688669Y-127873312D01*
X102751815Y-127967816D01*
X102832184Y-128048185D01*
X102926688Y-128111331D01*
X103031695Y-128154826D01*
X103143170Y-128177000D01*
X103256830Y-128177000D01*
X103368305Y-128154826D01*
X103473312Y-128111331D01*
X103551966Y-128058776D01*
X103583184Y-128096816D01*
X103625363Y-128131431D01*
X103673484Y-128157153D01*
X103725699Y-128172992D01*
X103780000Y-128178340D01*
X104280000Y-128178340D01*
X104334301Y-128172992D01*
X104386516Y-128157153D01*
X104434637Y-128131431D01*
X104476816Y-128096816D01*
X104500000Y-128068566D01*
X104523184Y-128096816D01*
X104565363Y-128131431D01*
X104613484Y-128157153D01*
X104665699Y-128172992D01*
X104720000Y-128178340D01*
X105220000Y-128178340D01*
X105274301Y-128172992D01*
X105326516Y-128157153D01*
X105374637Y-128131431D01*
X105416816Y-128096816D01*
X105451431Y-128054637D01*
X105477153Y-128006516D01*
X105492992Y-127954301D01*
X105498340Y-127900000D01*
X105498340Y-127300000D01*
X105492992Y-127245699D01*
X105477153Y-127193484D01*
X105451431Y-127145363D01*
X105437461Y-127128340D01*
X105850000Y-127128340D01*
X105904301Y-127122992D01*
X105956516Y-127107153D01*
X106004637Y-127081431D01*
X106023000Y-127066361D01*
X106023000Y-127156830D01*
X106045174Y-127268305D01*
X106088669Y-127373312D01*
X106151815Y-127467816D01*
X106232184Y-127548185D01*
X106326688Y-127611331D01*
X106431695Y-127654826D01*
X106543170Y-127677000D01*
X106656830Y-127677000D01*
X106768305Y-127654826D01*
X106873312Y-127611331D01*
X106967816Y-127548185D01*
X107019737Y-127496264D01*
X107022847Y-127506516D01*
X107048569Y-127554637D01*
X107083184Y-127596816D01*
X107125363Y-127631431D01*
X107173484Y-127657153D01*
X107225699Y-127672992D01*
X107280000Y-127678340D01*
X107780000Y-127678340D01*
X107834301Y-127672992D01*
X107886516Y-127657153D01*
X107934637Y-127631431D01*
X107976816Y-127596816D01*
X108000000Y-127568566D01*
X108023184Y-127596816D01*
X108065363Y-127631431D01*
X108113484Y-127657153D01*
X108165699Y-127672992D01*
X108220000Y-127678340D01*
X108720000Y-127678340D01*
X108774301Y-127672992D01*
X108826516Y-127657153D01*
X108874637Y-127631431D01*
X108916816Y-127596816D01*
X108951431Y-127554637D01*
X108977153Y-127506516D01*
X108992992Y-127454301D01*
X108998340Y-127400000D01*
X108998340Y-126800000D01*
X108992992Y-126745699D01*
X108977153Y-126693484D01*
X108951431Y-126645363D01*
X108937461Y-126628340D01*
X109350000Y-126628340D01*
X109404301Y-126622992D01*
X109456516Y-126607153D01*
X109504637Y-126581431D01*
X109546816Y-126546816D01*
X109581431Y-126504637D01*
X109607153Y-126456516D01*
X109622992Y-126404301D01*
X109628340Y-126350000D01*
X109628340Y-125450000D01*
X109622992Y-125395699D01*
X109607153Y-125343484D01*
X109581431Y-125295363D01*
X109546816Y-125253184D01*
X109504637Y-125218569D01*
X109456516Y-125192847D01*
X109404301Y-125177008D01*
X109350000Y-125171660D01*
X109320200Y-125171660D01*
X109306581Y-125126766D01*
X109299988Y-125105030D01*
X109264981Y-125039537D01*
X109217869Y-124982131D01*
X109203481Y-124970323D01*
X109129674Y-124896516D01*
X109117868Y-124882130D01*
X109092141Y-124861017D01*
X109453481Y-124499677D01*
X109467869Y-124487869D01*
X109514981Y-124430463D01*
X109549988Y-124364970D01*
X109571545Y-124293905D01*
X109572169Y-124287572D01*
X109606516Y-124277153D01*
X109654637Y-124251431D01*
X109696816Y-124216816D01*
X109731431Y-124174637D01*
X109757153Y-124126516D01*
X109772992Y-124074301D01*
X109778340Y-124020000D01*
X109778340Y-123520000D01*
X109772992Y-123465699D01*
X109757153Y-123413484D01*
X109731431Y-123365363D01*
X109696816Y-123323184D01*
X109668566Y-123300000D01*
X109696816Y-123276816D01*
X109731431Y-123234637D01*
X109757153Y-123186516D01*
X109772992Y-123134301D01*
X109778340Y-123080000D01*
X109778340Y-122580000D01*
X109772992Y-122525699D01*
X109757153Y-122473484D01*
X109731431Y-122425363D01*
X109696816Y-122383184D01*
X109654637Y-122348569D01*
X109606516Y-122322847D01*
X109554301Y-122307008D01*
X109500000Y-122301660D01*
X108900000Y-122301660D01*
X108845699Y-122307008D01*
X108793484Y-122322847D01*
X108745363Y-122348569D01*
X108703184Y-122383184D01*
X108668569Y-122425363D01*
X108653796Y-122453000D01*
X108438519Y-122453000D01*
X108420000Y-122451176D01*
X108346094Y-122458455D01*
X108303898Y-122471255D01*
X108275030Y-122480012D01*
X108209537Y-122515019D01*
X108199826Y-122522989D01*
X108169674Y-122547734D01*
X108152131Y-122562131D01*
X108140328Y-122576513D01*
X108062500Y-122654342D01*
X107331995Y-121923837D01*
X107406769Y-121743318D01*
X107445203Y-121550092D01*
X107769566Y-121550092D01*
X107877266Y-121698216D01*
X108092287Y-121784933D01*
X108320095Y-121828034D01*
X108551934Y-121825865D01*
X108778895Y-121778508D01*
X108972734Y-121698216D01*
X109080434Y-121550092D01*
X108425000Y-120894659D01*
X107769566Y-121550092D01*
X107445203Y-121550092D01*
X107452000Y-121515924D01*
X107452000Y-121284076D01*
X107444639Y-121247071D01*
X107524908Y-121305434D01*
X108180341Y-120650000D01*
X108669659Y-120650000D01*
X109325092Y-121305434D01*
X109473216Y-121197734D01*
X109559933Y-120982713D01*
X109603034Y-120754905D01*
X109600865Y-120523066D01*
X109553508Y-120296105D01*
X109473216Y-120102266D01*
X109325092Y-119994566D01*
X108669659Y-120650000D01*
X108180341Y-120650000D01*
X107524908Y-119994566D01*
X107376784Y-120102266D01*
X107290067Y-120317287D01*
X107246966Y-120545095D01*
X107248778Y-120738818D01*
X107189236Y-120649706D01*
X107025294Y-120485764D01*
X106832519Y-120356956D01*
X106618318Y-120268231D01*
X106414693Y-120227728D01*
X107784707Y-119729084D01*
X107769566Y-119749908D01*
X108425000Y-120405341D01*
X109080434Y-119749908D01*
X108972734Y-119601784D01*
X108757713Y-119515067D01*
X108529905Y-119471966D01*
X108407514Y-119473111D01*
X109799229Y-118824144D01*
X111402572Y-117898453D01*
X111730060Y-117669143D01*
X121988730Y-117669143D01*
X121988730Y-118030857D01*
X122059297Y-118385620D01*
X122197719Y-118719800D01*
X122398676Y-119020554D01*
X122654446Y-119276324D01*
X122955200Y-119477281D01*
X123289380Y-119615703D01*
X123644143Y-119686270D01*
X124005857Y-119686270D01*
X124360620Y-119615703D01*
X124694800Y-119477281D01*
X124995554Y-119276324D01*
X125251324Y-119020554D01*
X125452281Y-118719800D01*
X125590703Y-118385620D01*
X125661270Y-118030857D01*
X125661270Y-117669143D01*
X125590703Y-117314380D01*
X125452281Y-116980200D01*
X125251324Y-116679446D01*
X124995554Y-116423676D01*
X124694800Y-116222719D01*
X124360620Y-116084297D01*
X124005857Y-116013730D01*
X123644143Y-116013730D01*
X123289380Y-116084297D01*
X122955200Y-116222719D01*
X122654446Y-116423676D01*
X122398676Y-116679446D01*
X122197719Y-116980200D01*
X122059297Y-117314380D01*
X121988730Y-117669143D01*
X111730060Y-117669143D01*
X112919135Y-116836545D01*
X114337375Y-115646500D01*
X115646500Y-114337375D01*
X116836545Y-112919135D01*
X117898453Y-111402572D01*
X118824144Y-109799229D01*
X119606571Y-108121308D01*
X120239781Y-106381578D01*
X120718954Y-104593281D01*
X121040443Y-102770027D01*
X121201801Y-100925691D01*
X121201801Y-100177000D01*
X128134293Y-100177000D01*
X128134293Y-100274284D01*
G37*
X128134293Y-100274284D02*
X128192541Y-100567115D01*
X128306798Y-100842957D01*
X128472673Y-101091207D01*
X128683793Y-101302327D01*
X128932043Y-101468202D01*
X129207885Y-101582459D01*
X129500716Y-101640707D01*
X129799284Y-101640707D01*
X130092115Y-101582459D01*
X130367957Y-101468202D01*
X130616207Y-101302327D01*
X130827327Y-101091207D01*
X130993202Y-100842957D01*
X131107459Y-100567115D01*
X131165707Y-100274284D01*
X131165707Y-100177000D01*
X132178386Y-100177000D01*
X132178386Y-101123694D01*
X132021616Y-103365607D01*
X131708840Y-105591124D01*
X131241582Y-107789401D01*
X130622118Y-109949729D01*
X129853466Y-112061583D01*
X128939371Y-114114674D01*
X127884286Y-116099000D01*
X126693352Y-118004893D01*
X125372370Y-119823068D01*
X123927777Y-121544667D01*
X122366610Y-123161303D01*
X120696475Y-124665099D01*
X118925510Y-126048729D01*
X117062340Y-127305453D01*
X115116045Y-128429147D01*
X113096106Y-129414337D01*
X111012365Y-130256223D01*
X108874972Y-130950704D01*
X106694341Y-131494396D01*
X104481096Y-131884651D01*
X102246019Y-132119567D01*
X100000000Y-132198000D01*
X97753981Y-132119567D01*
X95518904Y-131884651D01*
X93305659Y-131494396D01*
X91125028Y-130950704D01*
X90990979Y-130907149D01*
X91009886Y-130888242D01*
X91059469Y-130839173D01*
X91060540Y-130837589D01*
X92101132Y-129797000D01*
X97694292Y-129797000D01*
X97730000Y-129800517D01*
X97872517Y-129786480D01*
X97917357Y-129772878D01*
X98009557Y-129744910D01*
X98135853Y-129677403D01*
X98246554Y-129586554D01*
X98269325Y-129558807D01*
X98788821Y-129039313D01*
X98816553Y-129016554D01*
X98839312Y-128988822D01*
X98839316Y-128988818D01*
X98881779Y-128937076D01*
X98907403Y-128905853D01*
X98974910Y-128779557D01*
X98992984Y-128719973D01*
X99016480Y-128642518D01*
X99030517Y-128500000D01*
X99027000Y-128464292D01*
X99027000Y-128276939D01*
X99045174Y-128368305D01*
X99088669Y-128473312D01*
X99151815Y-128567816D01*
X99232184Y-128648185D01*
X99326688Y-128711331D01*
X99431695Y-128754826D01*
X99543170Y-128777000D01*
X99656830Y-128777000D01*
X99768305Y-128754826D01*
X99873312Y-128711331D01*
X99967816Y-128648185D01*
X100019737Y-128596264D01*
X100022847Y-128606516D01*
X100048569Y-128654637D01*
X100083184Y-128696816D01*
X100125363Y-128731431D01*
X100173484Y-128757153D01*
X100225699Y-128772992D01*
X100280000Y-128778340D01*
X100780000Y-128778340D01*
X100834301Y-128772992D01*
X100886516Y-128757153D01*
X100934637Y-128731431D01*
X100976816Y-128696816D01*
X101000000Y-128668566D01*
X101023184Y-128696816D01*
X101065363Y-128731431D01*
X101113484Y-128757153D01*
X101165699Y-128772992D01*
X101220000Y-128778340D01*
X101720000Y-128778340D01*
X101774301Y-128772992D01*
X101826516Y-128757153D01*
X101874637Y-128731431D01*
X101916816Y-128696816D01*
X101951431Y-128654637D01*
X101977153Y-128606516D01*
X101992992Y-128554301D01*
X101998340Y-128500000D01*
X101998340Y-127900000D01*
X101992992Y-127845699D01*
X101977153Y-127793484D01*
X101951431Y-127745363D01*
X101937461Y-127728340D01*
X102350000Y-127728340D01*
X102404301Y-127722992D01*
X102456516Y-127707153D01*
X102504637Y-127681431D01*
X102546816Y-127646816D01*
X102581431Y-127604637D01*
X102607153Y-127556516D01*
X102622992Y-127504301D01*
X102628340Y-127450000D01*
X102628340Y-126550000D01*
X102622992Y-126495699D01*
X102607153Y-126443484D01*
X102581431Y-126395363D01*
X102546816Y-126353184D01*
X102510103Y-126323055D01*
X102806160Y-126026999D01*
X102871660Y-126026999D01*
X102871660Y-126850000D01*
X102877008Y-126904301D01*
X102892847Y-126956516D01*
X102918569Y-127004637D01*
X102953184Y-127046816D01*
X102978189Y-127067337D01*
X102926688Y-127088669D01*
X102832184Y-127151815D01*
X102751815Y-127232184D01*
X102688669Y-127326688D01*
X102645174Y-127431695D01*
X102623000Y-127543170D01*
X102623000Y-127656830D01*
X102645174Y-127768305D01*
X102688669Y-127873312D01*
X102751815Y-127967816D01*
X102832184Y-128048185D01*
X102926688Y-128111331D01*
X103031695Y-128154826D01*
X103143170Y-128177000D01*
X103256830Y-128177000D01*
X103368305Y-128154826D01*
X103473312Y-128111331D01*
X103551966Y-128058776D01*
X103583184Y-128096816D01*
X103625363Y-128131431D01*
X103673484Y-128157153D01*
X103725699Y-128172992D01*
X103780000Y-128178340D01*
X104280000Y-128178340D01*
X104334301Y-128172992D01*
X104386516Y-128157153D01*
X104434637Y-128131431D01*
X104476816Y-128096816D01*
X104500000Y-128068566D01*
X104523184Y-128096816D01*
X104565363Y-128131431D01*
X104613484Y-128157153D01*
X104665699Y-128172992D01*
X104720000Y-128178340D01*
X105220000Y-128178340D01*
X105274301Y-128172992D01*
X105326516Y-128157153D01*
X105374637Y-128131431D01*
X105416816Y-128096816D01*
X105451431Y-128054637D01*
X105477153Y-128006516D01*
X105492992Y-127954301D01*
X105498340Y-127900000D01*
X105498340Y-127300000D01*
X105492992Y-127245699D01*
X105477153Y-127193484D01*
X105451431Y-127145363D01*
X105437461Y-127128340D01*
X105850000Y-127128340D01*
X105904301Y-127122992D01*
X105956516Y-127107153D01*
X106004637Y-127081431D01*
X106023000Y-127066361D01*
X106023000Y-127156830D01*
X106045174Y-127268305D01*
X106088669Y-127373312D01*
X106151815Y-127467816D01*
X106232184Y-127548185D01*
X106326688Y-127611331D01*
X106431695Y-127654826D01*
X106543170Y-127677000D01*
X106656830Y-127677000D01*
X106768305Y-127654826D01*
X106873312Y-127611331D01*
X106967816Y-127548185D01*
X107019737Y-127496264D01*
X107022847Y-127506516D01*
X107048569Y-127554637D01*
X107083184Y-127596816D01*
X107125363Y-127631431D01*
X107173484Y-127657153D01*
X107225699Y-127672992D01*
X107280000Y-127678340D01*
X107780000Y-127678340D01*
X107834301Y-127672992D01*
X107886516Y-127657153D01*
X107934637Y-127631431D01*
X107976816Y-127596816D01*
X108000000Y-127568566D01*
X108023184Y-127596816D01*
X108065363Y-127631431D01*
X108113484Y-127657153D01*
X108165699Y-127672992D01*
X108220000Y-127678340D01*
X108720000Y-127678340D01*
X108774301Y-127672992D01*
X108826516Y-127657153D01*
X108874637Y-127631431D01*
X108916816Y-127596816D01*
X108951431Y-127554637D01*
X108977153Y-127506516D01*
X108992992Y-127454301D01*
X108998340Y-127400000D01*
X108998340Y-126800000D01*
X108992992Y-126745699D01*
X108977153Y-126693484D01*
X108951431Y-126645363D01*
X108937461Y-126628340D01*
X109350000Y-126628340D01*
X109404301Y-126622992D01*
X109456516Y-126607153D01*
X109504637Y-126581431D01*
X109546816Y-126546816D01*
X109581431Y-126504637D01*
X109607153Y-126456516D01*
X109622992Y-126404301D01*
X109628340Y-126350000D01*
X109628340Y-125450000D01*
X109622992Y-125395699D01*
X109607153Y-125343484D01*
X109581431Y-125295363D01*
X109546816Y-125253184D01*
X109504637Y-125218569D01*
X109456516Y-125192847D01*
X109404301Y-125177008D01*
X109350000Y-125171660D01*
X109320200Y-125171660D01*
X109306581Y-125126766D01*
X109299988Y-125105030D01*
X109264981Y-125039537D01*
X109217869Y-124982131D01*
X109203481Y-124970323D01*
X109129674Y-124896516D01*
X109117868Y-124882130D01*
X109092141Y-124861017D01*
X109453481Y-124499677D01*
X109467869Y-124487869D01*
X109514981Y-124430463D01*
X109549988Y-124364970D01*
X109571545Y-124293905D01*
X109572169Y-124287572D01*
X109606516Y-124277153D01*
X109654637Y-124251431D01*
X109696816Y-124216816D01*
X109731431Y-124174637D01*
X109757153Y-124126516D01*
X109772992Y-124074301D01*
X109778340Y-124020000D01*
X109778340Y-123520000D01*
X109772992Y-123465699D01*
X109757153Y-123413484D01*
X109731431Y-123365363D01*
X109696816Y-123323184D01*
X109668566Y-123300000D01*
X109696816Y-123276816D01*
X109731431Y-123234637D01*
X109757153Y-123186516D01*
X109772992Y-123134301D01*
X109778340Y-123080000D01*
X109778340Y-122580000D01*
X109772992Y-122525699D01*
X109757153Y-122473484D01*
X109731431Y-122425363D01*
X109696816Y-122383184D01*
X109654637Y-122348569D01*
X109606516Y-122322847D01*
X109554301Y-122307008D01*
X109500000Y-122301660D01*
X108900000Y-122301660D01*
X108845699Y-122307008D01*
X108793484Y-122322847D01*
X108745363Y-122348569D01*
X108703184Y-122383184D01*
X108668569Y-122425363D01*
X108653796Y-122453000D01*
X108438519Y-122453000D01*
X108420000Y-122451176D01*
X108346094Y-122458455D01*
X108303898Y-122471255D01*
X108275030Y-122480012D01*
X108209537Y-122515019D01*
X108199826Y-122522989D01*
X108169674Y-122547734D01*
X108152131Y-122562131D01*
X108140328Y-122576513D01*
X108062500Y-122654342D01*
X107331995Y-121923837D01*
X107406769Y-121743318D01*
X107445203Y-121550092D01*
X107769566Y-121550092D01*
X107877266Y-121698216D01*
X108092287Y-121784933D01*
X108320095Y-121828034D01*
X108551934Y-121825865D01*
X108778895Y-121778508D01*
X108972734Y-121698216D01*
X109080434Y-121550092D01*
X108425000Y-120894659D01*
X107769566Y-121550092D01*
X107445203Y-121550092D01*
X107452000Y-121515924D01*
X107452000Y-121284076D01*
X107444639Y-121247071D01*
X107524908Y-121305434D01*
X108180341Y-120650000D01*
X108669659Y-120650000D01*
X109325092Y-121305434D01*
X109473216Y-121197734D01*
X109559933Y-120982713D01*
X109603034Y-120754905D01*
X109600865Y-120523066D01*
X109553508Y-120296105D01*
X109473216Y-120102266D01*
X109325092Y-119994566D01*
X108669659Y-120650000D01*
X108180341Y-120650000D01*
X107524908Y-119994566D01*
X107376784Y-120102266D01*
X107290067Y-120317287D01*
X107246966Y-120545095D01*
X107248778Y-120738818D01*
X107189236Y-120649706D01*
X107025294Y-120485764D01*
X106832519Y-120356956D01*
X106618318Y-120268231D01*
X106414693Y-120227728D01*
X107784707Y-119729084D01*
X107769566Y-119749908D01*
X108425000Y-120405341D01*
X109080434Y-119749908D01*
X108972734Y-119601784D01*
X108757713Y-119515067D01*
X108529905Y-119471966D01*
X108407514Y-119473111D01*
X109799229Y-118824144D01*
X111402572Y-117898453D01*
X111730060Y-117669143D01*
X121988730Y-117669143D01*
X121988730Y-118030857D01*
X122059297Y-118385620D01*
X122197719Y-118719800D01*
X122398676Y-119020554D01*
X122654446Y-119276324D01*
X122955200Y-119477281D01*
X123289380Y-119615703D01*
X123644143Y-119686270D01*
X124005857Y-119686270D01*
X124360620Y-119615703D01*
X124694800Y-119477281D01*
X124995554Y-119276324D01*
X125251324Y-119020554D01*
X125452281Y-118719800D01*
X125590703Y-118385620D01*
X125661270Y-118030857D01*
X125661270Y-117669143D01*
X125590703Y-117314380D01*
X125452281Y-116980200D01*
X125251324Y-116679446D01*
X124995554Y-116423676D01*
X124694800Y-116222719D01*
X124360620Y-116084297D01*
X124005857Y-116013730D01*
X123644143Y-116013730D01*
X123289380Y-116084297D01*
X122955200Y-116222719D01*
X122654446Y-116423676D01*
X122398676Y-116679446D01*
X122197719Y-116980200D01*
X122059297Y-117314380D01*
X121988730Y-117669143D01*
X111730060Y-117669143D01*
X112919135Y-116836545D01*
X114337375Y-115646500D01*
X115646500Y-114337375D01*
X116836545Y-112919135D01*
X117898453Y-111402572D01*
X118824144Y-109799229D01*
X119606571Y-108121308D01*
X120239781Y-106381578D01*
X120718954Y-104593281D01*
X121040443Y-102770027D01*
X121201801Y-100925691D01*
X121201801Y-100177000D01*
X128134293Y-100177000D01*
X128134293Y-100274284D01*
G36*
X77798000Y-100949359D02*
G01*
X77798001Y-104923000D01*
X77743170Y-104923000D01*
X77631695Y-104945174D01*
X77526688Y-104988669D01*
X77432184Y-105051815D01*
X77351815Y-105132184D01*
X77288669Y-105226688D01*
X77245174Y-105331695D01*
X77226147Y-105427347D01*
X77147839Y-105349039D01*
X77105660Y-105314424D01*
X77057539Y-105288702D01*
X77005324Y-105272863D01*
X76951023Y-105267515D01*
X76896722Y-105272863D01*
X76844507Y-105288702D01*
X76796386Y-105314424D01*
X76754207Y-105349039D01*
X76004674Y-106098572D01*
X75970059Y-106140751D01*
X75944337Y-106188872D01*
X75928498Y-106241087D01*
X75923150Y-106295388D01*
X75928498Y-106349689D01*
X75944337Y-106401904D01*
X75970059Y-106450025D01*
X76004674Y-106492204D01*
X76464293Y-106951823D01*
X76506472Y-106986438D01*
X76554593Y-107012160D01*
X76601775Y-107026472D01*
X76616088Y-107073656D01*
X76641810Y-107121778D01*
X76676425Y-107163956D01*
X76735885Y-107221522D01*
X76833819Y-107221522D01*
X77233158Y-106822183D01*
X77219016Y-106808041D01*
X77463675Y-106563382D01*
X77477817Y-106577524D01*
X77491959Y-106563382D01*
X77736618Y-106808041D01*
X77722476Y-106822183D01*
X77736618Y-106836325D01*
X77491959Y-107080984D01*
X77477817Y-107066842D01*
X77078478Y-107466181D01*
X77078478Y-107564115D01*
X77136044Y-107623575D01*
X77178222Y-107658190D01*
X77226344Y-107683912D01*
X77273528Y-107698225D01*
X77287840Y-107745407D01*
X77313562Y-107793528D01*
X77348177Y-107835707D01*
X77807796Y-108295326D01*
X77849975Y-108329941D01*
X77898096Y-108355663D01*
X77950311Y-108371502D01*
X78004612Y-108376850D01*
X78058913Y-108371502D01*
X78111128Y-108355663D01*
X78159249Y-108329941D01*
X78201428Y-108295326D01*
X78395806Y-108100948D01*
X78397889Y-108100743D01*
X78449385Y-108100743D01*
X79721515Y-109372874D01*
X79721524Y-109372881D01*
X80342575Y-109993942D01*
X80620162Y-110530454D01*
X80627052Y-110547740D01*
X80637181Y-110563348D01*
X80666856Y-110609076D01*
X80767744Y-110797629D01*
X80774863Y-110814801D01*
X80785216Y-110830285D01*
X80785225Y-110830301D01*
X80794194Y-110843711D01*
X80815534Y-110875626D01*
X80919019Y-111062762D01*
X80926377Y-111079836D01*
X80936936Y-111095163D01*
X80936945Y-111095179D01*
X80947152Y-111109992D01*
X80967877Y-111140076D01*
X81015245Y-111223000D01*
X80943170Y-111223000D01*
X80831695Y-111245174D01*
X80726688Y-111288669D01*
X80632184Y-111351815D01*
X80551815Y-111432184D01*
X80521819Y-111477076D01*
X80475750Y-111431007D01*
X80366107Y-111357746D01*
X80244279Y-111307283D01*
X80114946Y-111281557D01*
X79983080Y-111281557D01*
X79853747Y-111307283D01*
X79752932Y-111349042D01*
X79794691Y-111248228D01*
X79820417Y-111118895D01*
X79820417Y-110987029D01*
X79794691Y-110857696D01*
X79744228Y-110735868D01*
X79670967Y-110626225D01*
X79577724Y-110532982D01*
X79468081Y-110459721D01*
X79346253Y-110409258D01*
X79216920Y-110383532D01*
X79112971Y-110383532D01*
X79120281Y-110376222D01*
X79204522Y-110250146D01*
X79262548Y-110110059D01*
X79292129Y-109961343D01*
X79292129Y-109809713D01*
X79262548Y-109660997D01*
X79204522Y-109520910D01*
X79120281Y-109394834D01*
X79013063Y-109287616D01*
X78886987Y-109203375D01*
X78746900Y-109145349D01*
X78598184Y-109115768D01*
X78446554Y-109115768D01*
X78297838Y-109145349D01*
X78157751Y-109203375D01*
X78031675Y-109287616D01*
X77924457Y-109394834D01*
X77840216Y-109520910D01*
X77782190Y-109660997D01*
X77752609Y-109809713D01*
X77752609Y-109961343D01*
X77782190Y-110110059D01*
X77840216Y-110250146D01*
X77924457Y-110376222D01*
X78031675Y-110483440D01*
X78157751Y-110567681D01*
X78297838Y-110625707D01*
X78446554Y-110655288D01*
X78598184Y-110655288D01*
X78613642Y-110652213D01*
X78557746Y-110735868D01*
X78507283Y-110857696D01*
X78481557Y-110987029D01*
X78481557Y-111118895D01*
X78507283Y-111248228D01*
X78548798Y-111348453D01*
X78525521Y-111336011D01*
X78425962Y-111372899D01*
X78425962Y-111533326D01*
X78267103Y-111692185D01*
X78511764Y-111936846D01*
X78670623Y-111777987D01*
X78831050Y-111777987D01*
X78867938Y-111678428D01*
X78854526Y-111654750D01*
X78955721Y-111696666D01*
X79085054Y-111722392D01*
X79216920Y-111722392D01*
X79346253Y-111696666D01*
X79447068Y-111654907D01*
X79405309Y-111755721D01*
X79379583Y-111885054D01*
X79379583Y-112016920D01*
X79405309Y-112146253D01*
X79447068Y-112247068D01*
X79346253Y-112205309D01*
X79216920Y-112179583D01*
X79085054Y-112179583D01*
X78955721Y-112205309D01*
X78855496Y-112246824D01*
X78867938Y-112223546D01*
X78831050Y-112123987D01*
X78670623Y-112123987D01*
X78511764Y-111965128D01*
X78267103Y-112209789D01*
X78425962Y-112368648D01*
X78425962Y-112529075D01*
X78440156Y-112534334D01*
X78383118Y-112581144D01*
X78371310Y-112595532D01*
X77510934Y-113455908D01*
X77474211Y-113436278D01*
X77421996Y-113420439D01*
X77367695Y-113415091D01*
X77331327Y-113418673D01*
X77334909Y-113382305D01*
X77329560Y-113328003D01*
X77313722Y-113275788D01*
X77288000Y-113227667D01*
X77253385Y-113185489D01*
X77246957Y-113180956D01*
X77149023Y-113180956D01*
X76912319Y-113417660D01*
X76926461Y-113431802D01*
X76681802Y-113676461D01*
X76667660Y-113662319D01*
X76430956Y-113899023D01*
X76430956Y-113996957D01*
X76435489Y-114003385D01*
X76477667Y-114038000D01*
X76525788Y-114063722D01*
X76578003Y-114079560D01*
X76632305Y-114084909D01*
X76668673Y-114081327D01*
X76665091Y-114117695D01*
X76670439Y-114171996D01*
X76686278Y-114224211D01*
X76712000Y-114272332D01*
X76746615Y-114314511D01*
X77100169Y-114668065D01*
X77142348Y-114702680D01*
X77190469Y-114728402D01*
X77242684Y-114744241D01*
X77296985Y-114749589D01*
X77351286Y-114744241D01*
X77403501Y-114728402D01*
X77451622Y-114702680D01*
X77493801Y-114668065D01*
X77918065Y-114243801D01*
X77952680Y-114201622D01*
X77978402Y-114153501D01*
X77994241Y-114101286D01*
X77999589Y-114046985D01*
X77998386Y-114034772D01*
X78523001Y-113510157D01*
X78523000Y-113960999D01*
X78451815Y-114032184D01*
X78388669Y-114126688D01*
X78345174Y-114231695D01*
X78323000Y-114343170D01*
X78323000Y-114456830D01*
X78345174Y-114568305D01*
X78388669Y-114673312D01*
X78451815Y-114767816D01*
X78532184Y-114848185D01*
X78626688Y-114911331D01*
X78731695Y-114954826D01*
X78823061Y-114973000D01*
X76348442Y-114973000D01*
X75076712Y-113701270D01*
X75096447Y-113703214D01*
X75154197Y-113701874D01*
X75223447Y-113632624D01*
X75223447Y-113147874D01*
X75569447Y-113147874D01*
X75569447Y-113632624D01*
X75638697Y-113701874D01*
X75696447Y-113703214D01*
X75750748Y-113697866D01*
X75802963Y-113682027D01*
X75851084Y-113656305D01*
X75893263Y-113621690D01*
X75927878Y-113579511D01*
X75953600Y-113531390D01*
X75969439Y-113479175D01*
X75972015Y-113453015D01*
X76000411Y-113453015D01*
X76005760Y-113507317D01*
X76021598Y-113559532D01*
X76047320Y-113607653D01*
X76081935Y-113649831D01*
X76088363Y-113654364D01*
X76186297Y-113654364D01*
X76423001Y-113417660D01*
X76221652Y-113216311D01*
X76123718Y-113216311D01*
X76081935Y-113256199D01*
X76047320Y-113298377D01*
X76021598Y-113346499D01*
X76005760Y-113398714D01*
X76000411Y-113453015D01*
X75972015Y-113453015D01*
X75974787Y-113424874D01*
X75973447Y-113217124D01*
X75904197Y-113147874D01*
X75569447Y-113147874D01*
X75223447Y-113147874D01*
X74888697Y-113147874D01*
X74819447Y-113217124D01*
X74818107Y-113424874D01*
X74820051Y-113444609D01*
X74474787Y-113099346D01*
X74474787Y-112873718D01*
X76466311Y-112873718D01*
X76466311Y-112971652D01*
X76667660Y-113173001D01*
X76904364Y-112936297D01*
X76904364Y-112838363D01*
X76899831Y-112831935D01*
X76857653Y-112797320D01*
X76809532Y-112771598D01*
X76757317Y-112755760D01*
X76703015Y-112750411D01*
X76648714Y-112755760D01*
X76596499Y-112771598D01*
X76548377Y-112797320D01*
X76506199Y-112831935D01*
X76466311Y-112873718D01*
X74474787Y-112873718D01*
X74474787Y-112524874D01*
X74818107Y-112524874D01*
X74819447Y-112732624D01*
X74888697Y-112801874D01*
X75223447Y-112801874D01*
X75223447Y-112781874D01*
X75569447Y-112781874D01*
X75569447Y-112801874D01*
X75904197Y-112801874D01*
X75973447Y-112732624D01*
X75974787Y-112524874D01*
X75969439Y-112470573D01*
X75953600Y-112418358D01*
X75927878Y-112370237D01*
X75893263Y-112328058D01*
X75856469Y-112297862D01*
X75996447Y-112299051D01*
X76050748Y-112293703D01*
X76102963Y-112277864D01*
X76151084Y-112252142D01*
X76185928Y-112223546D01*
X77637986Y-112223546D01*
X77702976Y-112338285D01*
X77789102Y-112438140D01*
X77893054Y-112519274D01*
X77980403Y-112565963D01*
X78079962Y-112529075D01*
X78079962Y-112123987D01*
X77674874Y-112123987D01*
X77637986Y-112223546D01*
X76185928Y-112223546D01*
X76193263Y-112217527D01*
X76227878Y-112175348D01*
X76253600Y-112127227D01*
X76269439Y-112075012D01*
X76274787Y-112020711D01*
X76273447Y-111812961D01*
X76204197Y-111743711D01*
X75769447Y-111743711D01*
X75769447Y-111763711D01*
X75423447Y-111763711D01*
X75423447Y-111743711D01*
X74988697Y-111743711D01*
X74919447Y-111812961D01*
X74918107Y-112020711D01*
X74923455Y-112075012D01*
X74939294Y-112127227D01*
X74965016Y-112175348D01*
X74999631Y-112217527D01*
X75041669Y-112252027D01*
X74989931Y-112267721D01*
X74941810Y-112293443D01*
X74899631Y-112328058D01*
X74865016Y-112370237D01*
X74839294Y-112418358D01*
X74823455Y-112470573D01*
X74818107Y-112524874D01*
X74474787Y-112524874D01*
X74469439Y-112470573D01*
X74453600Y-112418358D01*
X74427878Y-112370237D01*
X74393263Y-112328058D01*
X74351084Y-112293443D01*
X74302963Y-112267721D01*
X74251225Y-112252027D01*
X74293263Y-112217527D01*
X74327878Y-112175348D01*
X74353600Y-112127227D01*
X74369439Y-112075012D01*
X74374787Y-112020711D01*
X74374787Y-111120711D01*
X74918107Y-111120711D01*
X74919447Y-111328461D01*
X74988697Y-111397711D01*
X75423447Y-111397711D01*
X75423447Y-110912961D01*
X75769447Y-110912961D01*
X75769447Y-111397711D01*
X76204197Y-111397711D01*
X76273447Y-111328461D01*
X76273975Y-111246554D01*
X76315768Y-111246554D01*
X76315768Y-111398184D01*
X76345349Y-111546900D01*
X76403375Y-111686987D01*
X76487616Y-111813063D01*
X76594834Y-111920281D01*
X76720910Y-112004522D01*
X76860997Y-112062548D01*
X77009713Y-112092129D01*
X77161343Y-112092129D01*
X77310059Y-112062548D01*
X77450146Y-112004522D01*
X77576222Y-111920281D01*
X77683440Y-111813063D01*
X77706877Y-111777987D01*
X77835301Y-111777987D01*
X77994160Y-111936846D01*
X78238821Y-111692185D01*
X78079962Y-111533326D01*
X78079962Y-111372899D01*
X77980403Y-111336011D01*
X77917996Y-111371359D01*
X77899907Y-111353270D01*
X77855288Y-111397889D01*
X77855288Y-111246554D01*
X77825707Y-111097838D01*
X77767681Y-110957751D01*
X77683440Y-110831675D01*
X77576222Y-110724457D01*
X77450146Y-110640216D01*
X77310059Y-110582190D01*
X77161343Y-110552609D01*
X77009713Y-110552609D01*
X76860997Y-110582190D01*
X76720910Y-110640216D01*
X76594834Y-110724457D01*
X76487616Y-110831675D01*
X76403375Y-110957751D01*
X76345349Y-111097838D01*
X76315768Y-111246554D01*
X76273975Y-111246554D01*
X76274787Y-111120711D01*
X76269439Y-111066410D01*
X76253600Y-111014195D01*
X76227878Y-110966074D01*
X76193263Y-110923895D01*
X76151084Y-110889280D01*
X76102963Y-110863558D01*
X76050748Y-110847719D01*
X75996447Y-110842371D01*
X75838697Y-110843711D01*
X75769447Y-110912961D01*
X75423447Y-110912961D01*
X75354197Y-110843711D01*
X75196447Y-110842371D01*
X75142146Y-110847719D01*
X75089931Y-110863558D01*
X75041810Y-110889280D01*
X74999631Y-110923895D01*
X74965016Y-110966074D01*
X74939294Y-111014195D01*
X74923455Y-111066410D01*
X74918107Y-111120711D01*
X74374787Y-111120711D01*
X74369439Y-111066410D01*
X74353600Y-111014195D01*
X74327878Y-110966074D01*
X74293263Y-110923895D01*
X74251084Y-110889280D01*
X74202963Y-110863558D01*
X74150748Y-110847719D01*
X74096447Y-110842371D01*
X73296447Y-110842371D01*
X73242146Y-110847719D01*
X73189931Y-110863558D01*
X73141810Y-110889280D01*
X73099631Y-110923895D01*
X73065016Y-110966074D01*
X73039294Y-111014195D01*
X73023455Y-111066410D01*
X73018107Y-111120711D01*
X73018107Y-112020711D01*
X73023455Y-112075012D01*
X73039294Y-112127227D01*
X73065016Y-112175348D01*
X73099631Y-112217527D01*
X73141810Y-112252142D01*
X73189931Y-112277864D01*
X73242146Y-112293703D01*
X73269448Y-112296392D01*
X73269448Y-112753897D01*
X73267382Y-112774874D01*
X73269448Y-112795851D01*
X73269448Y-112795852D01*
X73275626Y-112858581D01*
X73297163Y-112929575D01*
X73300043Y-112939070D01*
X73318107Y-112972866D01*
X73318107Y-113424874D01*
X73323455Y-113479175D01*
X73339294Y-113531390D01*
X73365016Y-113579511D01*
X73399631Y-113621690D01*
X73441810Y-113656305D01*
X73489931Y-113682027D01*
X73542146Y-113697866D01*
X73596447Y-113703214D01*
X73870919Y-113703214D01*
X75854809Y-115687105D01*
X75868178Y-115703395D01*
X75884468Y-115716764D01*
X75884472Y-115716768D01*
X75933196Y-115756755D01*
X75960790Y-115771504D01*
X76007377Y-115796405D01*
X76087866Y-115820822D01*
X76150595Y-115827000D01*
X76150605Y-115827000D01*
X76171572Y-115829065D01*
X76192539Y-115827000D01*
X78773001Y-115827000D01*
X78773000Y-121032587D01*
X78770935Y-121053554D01*
X78773000Y-121074521D01*
X78773000Y-121074531D01*
X78779178Y-121137260D01*
X78803595Y-121217749D01*
X78811283Y-121232132D01*
X78843245Y-121291930D01*
X78870139Y-121324700D01*
X78896605Y-121356949D01*
X78912900Y-121370322D01*
X80697347Y-123154771D01*
X80710711Y-123171055D01*
X80726995Y-123184419D01*
X80727004Y-123184428D01*
X80775729Y-123224415D01*
X80807993Y-123241660D01*
X80849910Y-123264065D01*
X80930399Y-123288482D01*
X80974976Y-123292872D01*
X81135489Y-123453385D01*
X81177668Y-123488000D01*
X81225789Y-123513722D01*
X81278004Y-123529561D01*
X81332305Y-123534909D01*
X81368673Y-123531327D01*
X81365091Y-123567695D01*
X81370440Y-123621997D01*
X81386278Y-123674212D01*
X81412000Y-123722333D01*
X81446615Y-123764511D01*
X81453043Y-123769044D01*
X81550977Y-123769044D01*
X81787681Y-123532340D01*
X82276999Y-123532340D01*
X82478348Y-123733689D01*
X82576282Y-123733689D01*
X82618065Y-123693801D01*
X82652680Y-123651623D01*
X82678402Y-123603501D01*
X82694240Y-123551286D01*
X82699589Y-123496985D01*
X82694240Y-123442683D01*
X82678402Y-123390468D01*
X82652680Y-123342347D01*
X82618065Y-123300169D01*
X82611637Y-123295636D01*
X82513703Y-123295636D01*
X82276999Y-123532340D01*
X81787681Y-123532340D01*
X81773539Y-123518198D01*
X82018198Y-123273539D01*
X82032340Y-123287681D01*
X82269044Y-123050977D01*
X82269044Y-122953043D01*
X82264511Y-122946615D01*
X82222333Y-122912000D01*
X82186419Y-122892803D01*
X82239806Y-122888132D01*
X82364597Y-122739412D01*
X82374372Y-122729848D01*
X82964451Y-122026619D01*
X83189147Y-122215162D01*
X82599068Y-122918390D01*
X82591349Y-122929674D01*
X82466555Y-123078398D01*
X82475091Y-123175959D01*
X82480166Y-123181967D01*
X82525201Y-123212774D01*
X82569119Y-123231530D01*
X82595216Y-123271524D01*
X82633376Y-123310525D01*
X82978096Y-123599779D01*
X83023131Y-123630586D01*
X83067048Y-123649341D01*
X83093145Y-123689336D01*
X83131305Y-123728337D01*
X83476025Y-124017591D01*
X83521060Y-124048398D01*
X83564977Y-124067153D01*
X83591074Y-124107148D01*
X83629234Y-124146149D01*
X83973954Y-124435403D01*
X84018989Y-124466210D01*
X84062906Y-124484965D01*
X84089003Y-124524960D01*
X84127163Y-124563961D01*
X84471883Y-124853215D01*
X84516918Y-124884022D01*
X84567098Y-124905452D01*
X84620494Y-124916680D01*
X84675055Y-124917275D01*
X84728684Y-124907214D01*
X84779319Y-124886885D01*
X84825016Y-124857067D01*
X84864017Y-124818908D01*
X84898739Y-124777527D01*
X88299125Y-128177914D01*
X88299125Y-128278585D01*
X88321299Y-128390060D01*
X88364794Y-128495067D01*
X88427940Y-128589571D01*
X88508309Y-128669940D01*
X88602813Y-128733086D01*
X88707820Y-128776581D01*
X88819295Y-128798755D01*
X88932955Y-128798755D01*
X89044430Y-128776581D01*
X89149437Y-128733086D01*
X89243941Y-128669940D01*
X89324310Y-128589571D01*
X89387456Y-128495067D01*
X89430951Y-128390060D01*
X89453125Y-128278585D01*
X89453125Y-128232858D01*
X89498445Y-128232858D01*
X89609920Y-128210684D01*
X89714927Y-128167189D01*
X89809431Y-128104043D01*
X89889800Y-128023674D01*
X89952946Y-127929170D01*
X89963008Y-127904878D01*
X89995363Y-127931431D01*
X90043484Y-127957153D01*
X90095699Y-127972992D01*
X90150000Y-127978340D01*
X90357750Y-127977000D01*
X90427000Y-127907750D01*
X90427000Y-127573000D01*
X90407000Y-127573000D01*
X90407000Y-127227000D01*
X90427000Y-127227000D01*
X90427000Y-126892250D01*
X90357750Y-126823000D01*
X90150000Y-126821660D01*
X90095699Y-126827008D01*
X90043484Y-126842847D01*
X89995363Y-126868569D01*
X89953184Y-126903184D01*
X89918569Y-126945363D01*
X89892847Y-126993484D01*
X89877008Y-127045699D01*
X89871660Y-127100000D01*
X89873000Y-127157750D01*
X89942248Y-127226998D01*
X89873000Y-127226998D01*
X89873000Y-127271242D01*
X89809431Y-127207673D01*
X89723151Y-127150022D01*
X89729698Y-127140223D01*
X89773193Y-127035216D01*
X89795367Y-126923741D01*
X89795367Y-126810081D01*
X89773193Y-126698606D01*
X89729698Y-126593599D01*
X89666552Y-126499095D01*
X89586183Y-126418726D01*
X89491679Y-126355580D01*
X89398863Y-126317134D01*
X89448181Y-126267816D01*
X89511327Y-126173312D01*
X89554822Y-126068305D01*
X89576996Y-125956830D01*
X89576996Y-125843170D01*
X89554822Y-125731695D01*
X89511327Y-125626688D01*
X89448181Y-125532184D01*
X89367812Y-125451815D01*
X89273308Y-125388669D01*
X89168301Y-125345174D01*
X89056826Y-125323000D01*
X88943166Y-125323000D01*
X88831691Y-125345174D01*
X88793960Y-125360802D01*
X87377000Y-123943842D01*
X87377000Y-122894244D01*
X87378823Y-122875735D01*
X87377000Y-122857226D01*
X87377000Y-122857217D01*
X87371545Y-122801831D01*
X87349988Y-122730766D01*
X87314981Y-122665273D01*
X87293860Y-122639537D01*
X87279674Y-122622251D01*
X87279672Y-122622249D01*
X87267869Y-122607867D01*
X87253488Y-122596065D01*
X86132250Y-121474828D01*
X86143170Y-121477000D01*
X86256830Y-121477000D01*
X86368305Y-121454826D01*
X86473312Y-121411331D01*
X86567816Y-121348185D01*
X86648185Y-121267816D01*
X86711331Y-121173312D01*
X86754826Y-121068305D01*
X86766866Y-121007778D01*
X87823110Y-119951534D01*
X87855351Y-119965303D01*
X87881449Y-120005298D01*
X87919609Y-120044299D01*
X88264329Y-120333553D01*
X88309364Y-120364360D01*
X88359544Y-120385790D01*
X88412940Y-120397018D01*
X88467501Y-120397613D01*
X88521130Y-120387552D01*
X88571765Y-120367223D01*
X88617462Y-120337405D01*
X88656463Y-120299246D01*
X88843357Y-120076515D01*
X90773001Y-122006159D01*
X90773000Y-123331488D01*
X90771177Y-123350000D01*
X90773000Y-123368512D01*
X90773000Y-123368518D01*
X90776561Y-123404673D01*
X90778455Y-123423905D01*
X90796437Y-123483184D01*
X90800012Y-123494969D01*
X90835019Y-123560462D01*
X90882131Y-123617869D01*
X90896519Y-123629677D01*
X91070323Y-123803481D01*
X91082131Y-123817869D01*
X91139537Y-123864981D01*
X91185478Y-123889537D01*
X91205030Y-123899988D01*
X91276094Y-123921545D01*
X91350000Y-123928824D01*
X91368519Y-123927000D01*
X92431488Y-123927000D01*
X92450000Y-123928823D01*
X92468512Y-123927000D01*
X92468519Y-123927000D01*
X92523905Y-123921545D01*
X92594970Y-123899988D01*
X92660463Y-123864981D01*
X92717869Y-123817869D01*
X92729677Y-123803481D01*
X92903481Y-123629677D01*
X92917869Y-123617869D01*
X92964981Y-123560463D01*
X92999988Y-123494970D01*
X93010238Y-123461179D01*
X93021545Y-123423906D01*
X93028824Y-123350000D01*
X93027000Y-123331481D01*
X93027000Y-123006158D01*
X93476163Y-122556995D01*
X93512103Y-122571883D01*
X93501802Y-122582184D01*
X93438656Y-122676688D01*
X93395161Y-122781695D01*
X93372987Y-122893170D01*
X93372987Y-123006830D01*
X93395161Y-123118305D01*
X93438656Y-123223312D01*
X93501802Y-123317816D01*
X93536951Y-123352965D01*
X93518569Y-123375363D01*
X93492847Y-123423484D01*
X93477008Y-123475699D01*
X93471660Y-123530000D01*
X93471660Y-124030000D01*
X93477008Y-124084301D01*
X93492847Y-124136516D01*
X93518569Y-124184637D01*
X93553184Y-124226816D01*
X93581434Y-124250000D01*
X93553184Y-124273184D01*
X93528340Y-124303457D01*
X93528340Y-124300000D01*
X93522992Y-124245699D01*
X93507153Y-124193484D01*
X93481431Y-124145363D01*
X93446816Y-124103184D01*
X93404637Y-124068569D01*
X93356516Y-124042847D01*
X93304301Y-124027008D01*
X93250000Y-124021660D01*
X92450000Y-124021660D01*
X92395699Y-124027008D01*
X92343484Y-124042847D01*
X92295363Y-124068569D01*
X92253184Y-124103184D01*
X92218569Y-124145363D01*
X92192847Y-124193484D01*
X92177008Y-124245699D01*
X92171660Y-124300000D01*
X92171660Y-125200000D01*
X92177008Y-125254301D01*
X92192847Y-125306516D01*
X92218569Y-125354637D01*
X92253184Y-125396816D01*
X92295363Y-125431431D01*
X92297984Y-125432832D01*
X92273184Y-125453184D01*
X92250000Y-125481434D01*
X92226816Y-125453184D01*
X92184637Y-125418569D01*
X92136516Y-125392847D01*
X92084301Y-125377008D01*
X92030000Y-125371660D01*
X92028091Y-125371660D01*
X92021103Y-125367925D01*
X91902913Y-125332073D01*
X91810794Y-125323000D01*
X91780000Y-125319967D01*
X91749206Y-125323000D01*
X91598342Y-125323000D01*
X91607153Y-125306516D01*
X91622992Y-125254301D01*
X91628340Y-125200000D01*
X91628340Y-124300000D01*
X91622992Y-124245699D01*
X91607153Y-124193484D01*
X91581431Y-124145363D01*
X91546816Y-124103184D01*
X91504637Y-124068569D01*
X91456516Y-124042847D01*
X91404301Y-124027008D01*
X91350000Y-124021660D01*
X90550000Y-124021660D01*
X90495699Y-124027008D01*
X90443484Y-124042847D01*
X90395363Y-124068569D01*
X90353184Y-124103184D01*
X90318569Y-124145363D01*
X90292847Y-124193484D01*
X90277008Y-124245699D01*
X90271660Y-124300000D01*
X90271660Y-125200000D01*
X90277008Y-125254301D01*
X90292847Y-125306516D01*
X90297698Y-125315591D01*
X90291629Y-125321660D01*
X90150000Y-125321660D01*
X90095699Y-125327008D01*
X90043484Y-125342847D01*
X89995363Y-125368569D01*
X89953184Y-125403184D01*
X89918569Y-125445363D01*
X89892847Y-125493484D01*
X89877008Y-125545699D01*
X89871660Y-125600000D01*
X89871660Y-126200000D01*
X89877008Y-126254301D01*
X89892847Y-126306516D01*
X89918569Y-126354637D01*
X89953184Y-126396816D01*
X89995363Y-126431431D01*
X90043484Y-126457153D01*
X90095699Y-126472992D01*
X90150000Y-126478340D01*
X90308367Y-126478340D01*
X90408897Y-126532075D01*
X90527087Y-126567927D01*
X90619206Y-126577000D01*
X90650000Y-126580033D01*
X90680794Y-126577000D01*
X91153000Y-126577000D01*
X91153000Y-126841780D01*
X91104301Y-126827008D01*
X91050000Y-126821660D01*
X90842250Y-126823000D01*
X90773000Y-126892250D01*
X90773000Y-127227000D01*
X90793000Y-127227000D01*
X90793000Y-127573000D01*
X90773000Y-127573000D01*
X90773000Y-127907750D01*
X90842250Y-127977000D01*
X91050000Y-127978340D01*
X91073001Y-127976075D01*
X91073000Y-128768865D01*
X90296654Y-129545210D01*
X89997148Y-129445315D01*
X89670727Y-129332401D01*
X89345869Y-129215974D01*
X89033781Y-129100199D01*
X89022196Y-129095901D01*
X88699820Y-128972221D01*
X88378884Y-128844989D01*
X88059552Y-128714271D01*
X87741488Y-128579933D01*
X87424979Y-128442090D01*
X87110020Y-128300743D01*
X86796617Y-128155893D01*
X86484851Y-128007578D01*
X86174849Y-127855860D01*
X85866464Y-127700664D01*
X85559798Y-127542044D01*
X85254911Y-127380030D01*
X84952041Y-127214750D01*
X84650744Y-127045961D01*
X84351536Y-126873951D01*
X84054076Y-126698523D01*
X83758661Y-126519852D01*
X83465332Y-126337965D01*
X83173952Y-126152778D01*
X82884738Y-125964427D01*
X82597504Y-125772793D01*
X82312523Y-125578054D01*
X82029569Y-125380056D01*
X81748998Y-125179052D01*
X81470635Y-124974915D01*
X81194576Y-124767715D01*
X80920800Y-124557440D01*
X80649375Y-124344138D01*
X80380225Y-124127746D01*
X80241557Y-124013703D01*
X81795636Y-124013703D01*
X81795636Y-124111637D01*
X81800169Y-124118065D01*
X81842347Y-124152680D01*
X81890468Y-124178402D01*
X81942683Y-124194240D01*
X81996985Y-124199589D01*
X82051286Y-124194240D01*
X82103501Y-124178402D01*
X82151623Y-124152680D01*
X82193801Y-124118065D01*
X82233689Y-124076282D01*
X82233689Y-123978348D01*
X82032340Y-123776999D01*
X81795636Y-124013703D01*
X80241557Y-124013703D01*
X80113690Y-123908543D01*
X79849483Y-123686289D01*
X79587770Y-123461130D01*
X79328592Y-123233094D01*
X79072002Y-123002232D01*
X78817903Y-122768455D01*
X78566410Y-122531864D01*
X78317645Y-122292583D01*
X78071557Y-122050558D01*
X77828020Y-121805665D01*
X77587464Y-121558338D01*
X77349451Y-121308129D01*
X77114365Y-121055437D01*
X76882004Y-120800048D01*
X76652458Y-120542054D01*
X76425942Y-120281705D01*
X76202263Y-120018776D01*
X75981473Y-119753330D01*
X75919062Y-119676580D01*
X76219143Y-119736270D01*
X76580857Y-119736270D01*
X76935620Y-119665703D01*
X77269800Y-119527281D01*
X77570554Y-119326324D01*
X77826324Y-119070554D01*
X78027281Y-118769800D01*
X78165703Y-118435620D01*
X78236270Y-118080857D01*
X78236270Y-117719143D01*
X78165703Y-117364380D01*
X78027281Y-117030200D01*
X77826324Y-116729446D01*
X77570554Y-116473676D01*
X77269800Y-116272719D01*
X76935620Y-116134297D01*
X76580857Y-116063730D01*
X76219143Y-116063730D01*
X75864380Y-116134297D01*
X75530200Y-116272719D01*
X75229446Y-116473676D01*
X74973676Y-116729446D01*
X74772719Y-117030200D01*
X74634297Y-117364380D01*
X74563730Y-117719143D01*
X74563730Y-117890212D01*
X74520531Y-117829200D01*
X74324166Y-117545235D01*
X74130941Y-117259070D01*
X73941039Y-116970985D01*
X73754220Y-116680612D01*
X73570612Y-116388142D01*
X73390369Y-116093830D01*
X73213364Y-115797465D01*
X73039651Y-115499139D01*
X72869304Y-115198981D01*
X72702210Y-114896790D01*
X72538495Y-114592788D01*
X72378256Y-114287163D01*
X72221343Y-113979625D01*
X72067852Y-113670367D01*
X72027000Y-113585708D01*
X72027000Y-109701132D01*
X72178132Y-109550000D01*
X72571660Y-109550000D01*
X72577008Y-109604301D01*
X72592847Y-109656516D01*
X72618569Y-109704637D01*
X72653184Y-109746816D01*
X72695363Y-109781431D01*
X72743484Y-109807153D01*
X72795699Y-109822992D01*
X72850000Y-109828340D01*
X73057750Y-109827000D01*
X73127000Y-109757750D01*
X73127000Y-109423000D01*
X72642250Y-109423000D01*
X72573000Y-109492250D01*
X72571660Y-109550000D01*
X72178132Y-109550000D01*
X72651133Y-109077000D01*
X73127000Y-109077000D01*
X73127000Y-108742250D01*
X73057750Y-108673000D01*
X73052326Y-108672965D01*
X73107403Y-108605853D01*
X73174910Y-108479557D01*
X73200362Y-108395651D01*
X73509980Y-108705270D01*
X73473000Y-108742250D01*
X73473000Y-109077000D01*
X73493000Y-109077000D01*
X73493000Y-109423000D01*
X73473000Y-109423000D01*
X73473000Y-109757750D01*
X73542250Y-109827000D01*
X73750000Y-109828340D01*
X73804301Y-109822992D01*
X73856516Y-109807153D01*
X73904637Y-109781431D01*
X73946816Y-109746816D01*
X73968107Y-109720873D01*
X73968107Y-110020711D01*
X73973455Y-110075012D01*
X73989294Y-110127227D01*
X74015016Y-110175348D01*
X74049631Y-110217527D01*
X74091810Y-110252142D01*
X74139931Y-110277864D01*
X74192146Y-110293703D01*
X74246447Y-110299051D01*
X75046447Y-110299051D01*
X75100748Y-110293703D01*
X75152963Y-110277864D01*
X75201084Y-110252142D01*
X75243263Y-110217527D01*
X75277878Y-110175348D01*
X75303600Y-110127227D01*
X75319439Y-110075012D01*
X75324787Y-110020711D01*
X75324787Y-109637660D01*
X75710754Y-109251693D01*
X75717892Y-109253858D01*
X75732205Y-109301042D01*
X75757927Y-109349163D01*
X75792542Y-109391342D01*
X76252161Y-109850961D01*
X76294340Y-109885576D01*
X76342461Y-109911298D01*
X76394676Y-109927137D01*
X76448977Y-109932485D01*
X76503278Y-109927137D01*
X76555493Y-109911298D01*
X76603614Y-109885576D01*
X76645793Y-109850961D01*
X77395326Y-109101428D01*
X77429941Y-109059249D01*
X77455663Y-109011128D01*
X77471502Y-108958913D01*
X77476850Y-108904612D01*
X77471502Y-108850311D01*
X77455663Y-108798096D01*
X77429941Y-108749975D01*
X77395326Y-108707796D01*
X76935707Y-108248177D01*
X76893528Y-108213562D01*
X76845407Y-108187840D01*
X76798225Y-108173528D01*
X76783912Y-108126344D01*
X76758190Y-108078223D01*
X76723575Y-108036044D01*
X76674154Y-107986623D01*
X76673949Y-107984543D01*
X76673949Y-107399336D01*
X76675772Y-107380827D01*
X76673949Y-107362318D01*
X76673949Y-107362309D01*
X76668494Y-107306923D01*
X76646937Y-107235858D01*
X76611930Y-107170365D01*
X76564818Y-107112959D01*
X76550430Y-107101151D01*
X75665610Y-106216331D01*
X75674212Y-106213722D01*
X75722333Y-106188000D01*
X75764511Y-106153385D01*
X75769044Y-106146957D01*
X75769044Y-106049023D01*
X75532340Y-105812319D01*
X75518198Y-105826461D01*
X75273539Y-105581802D01*
X75287681Y-105567660D01*
X75776999Y-105567660D01*
X76013703Y-105804364D01*
X76111637Y-105804364D01*
X76118065Y-105799831D01*
X76152680Y-105757653D01*
X76178402Y-105709532D01*
X76194240Y-105657317D01*
X76199589Y-105603015D01*
X76194240Y-105548714D01*
X76178402Y-105496499D01*
X76152680Y-105448377D01*
X76118065Y-105406199D01*
X76076282Y-105366311D01*
X75978348Y-105366311D01*
X75776999Y-105567660D01*
X75287681Y-105567660D01*
X75050977Y-105330956D01*
X74953043Y-105330956D01*
X74946615Y-105335489D01*
X74912000Y-105377667D01*
X74886278Y-105425788D01*
X74870440Y-105478003D01*
X74865091Y-105532305D01*
X74868673Y-105568673D01*
X74832305Y-105565091D01*
X74778004Y-105570439D01*
X74725789Y-105586278D01*
X74677668Y-105612000D01*
X74635489Y-105646615D01*
X74281935Y-106000169D01*
X74247320Y-106042348D01*
X74221598Y-106090469D01*
X74205759Y-106142684D01*
X74200411Y-106196985D01*
X74205759Y-106251286D01*
X74221598Y-106303501D01*
X74247320Y-106351622D01*
X74281935Y-106393801D01*
X74706199Y-106818065D01*
X74748378Y-106852680D01*
X74796499Y-106878402D01*
X74848714Y-106894241D01*
X74903015Y-106899589D01*
X74957316Y-106894241D01*
X75009531Y-106878402D01*
X75057652Y-106852680D01*
X75095321Y-106821767D01*
X75098311Y-106821472D01*
X75204435Y-106821472D01*
X75248748Y-106865785D01*
X75240751Y-106870059D01*
X75198572Y-106904674D01*
X74449039Y-107654207D01*
X74414424Y-107696386D01*
X74388702Y-107744507D01*
X74372863Y-107796722D01*
X74367515Y-107851023D01*
X74372863Y-107905324D01*
X74388702Y-107957539D01*
X74414424Y-108005660D01*
X74449039Y-108047839D01*
X74908658Y-108507458D01*
X74939280Y-108532588D01*
X74883580Y-108588289D01*
X74028340Y-107733050D01*
X74028340Y-107450000D01*
X74022992Y-107395699D01*
X74007153Y-107343484D01*
X73981431Y-107295363D01*
X73946816Y-107253184D01*
X73904637Y-107218569D01*
X73856516Y-107192847D01*
X73804301Y-107177008D01*
X73750000Y-107171660D01*
X73316950Y-107171660D01*
X73227000Y-107081710D01*
X73227000Y-104988363D01*
X75295636Y-104988363D01*
X75295636Y-105086297D01*
X75532340Y-105323001D01*
X75733689Y-105121652D01*
X75733689Y-105023718D01*
X75693801Y-104981935D01*
X75651623Y-104947320D01*
X75603501Y-104921598D01*
X75551286Y-104905760D01*
X75496985Y-104900411D01*
X75442683Y-104905760D01*
X75390468Y-104921598D01*
X75342347Y-104947320D01*
X75300169Y-104981935D01*
X75295636Y-104988363D01*
X73227000Y-104988363D01*
X73227000Y-104209369D01*
X73413893Y-104209369D01*
X73463249Y-104347093D01*
X73559478Y-104469939D01*
X73677824Y-104571651D01*
X73813739Y-104648320D01*
X73962000Y-104697000D01*
X74512000Y-104697000D01*
X74512000Y-104093000D01*
X74858000Y-104093000D01*
X74858000Y-104697000D01*
X75408000Y-104697000D01*
X75556261Y-104648320D01*
X75692176Y-104571651D01*
X75810522Y-104469939D01*
X75906751Y-104347093D01*
X75956107Y-104209369D01*
X75921281Y-104093000D01*
X74858000Y-104093000D01*
X74512000Y-104093000D01*
X73448719Y-104093000D01*
X73413893Y-104209369D01*
X73227000Y-104209369D01*
X73227000Y-102677000D01*
X73580857Y-102677000D01*
X73621514Y-102775154D01*
X73687396Y-102873753D01*
X73771247Y-102957604D01*
X73869846Y-103023486D01*
X73979403Y-103068866D01*
X74095708Y-103092000D01*
X74214292Y-103092000D01*
X74330597Y-103068866D01*
X74440154Y-103023486D01*
X74538753Y-102957604D01*
X74598000Y-102898357D01*
X74598000Y-102973002D01*
X74667248Y-102973002D01*
X74598000Y-103042250D01*
X74596660Y-103100000D01*
X74600895Y-103143000D01*
X73962000Y-103143000D01*
X73813739Y-103191680D01*
X73677824Y-103268349D01*
X73559478Y-103370061D01*
X73463249Y-103492907D01*
X73413893Y-103630631D01*
X73448719Y-103747000D01*
X74512000Y-103747000D01*
X74512000Y-103727000D01*
X74858000Y-103727000D01*
X74858000Y-103747000D01*
X75921281Y-103747000D01*
X75956107Y-103630631D01*
X75906751Y-103492907D01*
X75810522Y-103370061D01*
X75773002Y-103337815D01*
X75773002Y-103307752D01*
X75842250Y-103377000D01*
X76325000Y-103378340D01*
X76379301Y-103372992D01*
X76431516Y-103357153D01*
X76479637Y-103331431D01*
X76521816Y-103296816D01*
X76556431Y-103254637D01*
X76582153Y-103206516D01*
X76597992Y-103154301D01*
X76603340Y-103100000D01*
X76602000Y-103042250D01*
X76532750Y-102973000D01*
X75773000Y-102973000D01*
X75773000Y-102993000D01*
X75427000Y-102993000D01*
X75427000Y-102973000D01*
X75407000Y-102973000D01*
X75407000Y-102677000D01*
X76600000Y-102677000D01*
X76654040Y-102671678D01*
X76706003Y-102655915D01*
X76753893Y-102630317D01*
X76795869Y-102595869D01*
X76830317Y-102553893D01*
X76855915Y-102506003D01*
X76859451Y-102494346D01*
X76900000Y-102498340D01*
X76957750Y-102497000D01*
X77027000Y-102427750D01*
X77027000Y-102143000D01*
X77373000Y-102143000D01*
X77373000Y-102427750D01*
X77442250Y-102497000D01*
X77500000Y-102498340D01*
X77554301Y-102492992D01*
X77606516Y-102477153D01*
X77654637Y-102451431D01*
X77696816Y-102416816D01*
X77731431Y-102374637D01*
X77757153Y-102326516D01*
X77772992Y-102274301D01*
X77778340Y-102220000D01*
X77777000Y-102212250D01*
X77707750Y-102143000D01*
X77373000Y-102143000D01*
X77027000Y-102143000D01*
X77007000Y-102143000D01*
X77007000Y-101797000D01*
X77027000Y-101797000D01*
X77027000Y-101777000D01*
X77373000Y-101777000D01*
X77373000Y-101797000D01*
X77707750Y-101797000D01*
X77777000Y-101727750D01*
X77778340Y-101720000D01*
X77772992Y-101665699D01*
X77757153Y-101613484D01*
X77731431Y-101565363D01*
X77696816Y-101523184D01*
X77668566Y-101500000D01*
X77696816Y-101476816D01*
X77731431Y-101434637D01*
X77757153Y-101386516D01*
X77772992Y-101334301D01*
X77778340Y-101280000D01*
X77778340Y-100929699D01*
X77798000Y-100949359D01*
G37*
X77798000Y-100949359D02*
X77798001Y-104923000D01*
X77743170Y-104923000D01*
X77631695Y-104945174D01*
X77526688Y-104988669D01*
X77432184Y-105051815D01*
X77351815Y-105132184D01*
X77288669Y-105226688D01*
X77245174Y-105331695D01*
X77226147Y-105427347D01*
X77147839Y-105349039D01*
X77105660Y-105314424D01*
X77057539Y-105288702D01*
X77005324Y-105272863D01*
X76951023Y-105267515D01*
X76896722Y-105272863D01*
X76844507Y-105288702D01*
X76796386Y-105314424D01*
X76754207Y-105349039D01*
X76004674Y-106098572D01*
X75970059Y-106140751D01*
X75944337Y-106188872D01*
X75928498Y-106241087D01*
X75923150Y-106295388D01*
X75928498Y-106349689D01*
X75944337Y-106401904D01*
X75970059Y-106450025D01*
X76004674Y-106492204D01*
X76464293Y-106951823D01*
X76506472Y-106986438D01*
X76554593Y-107012160D01*
X76601775Y-107026472D01*
X76616088Y-107073656D01*
X76641810Y-107121778D01*
X76676425Y-107163956D01*
X76735885Y-107221522D01*
X76833819Y-107221522D01*
X77233158Y-106822183D01*
X77219016Y-106808041D01*
X77463675Y-106563382D01*
X77477817Y-106577524D01*
X77491959Y-106563382D01*
X77736618Y-106808041D01*
X77722476Y-106822183D01*
X77736618Y-106836325D01*
X77491959Y-107080984D01*
X77477817Y-107066842D01*
X77078478Y-107466181D01*
X77078478Y-107564115D01*
X77136044Y-107623575D01*
X77178222Y-107658190D01*
X77226344Y-107683912D01*
X77273528Y-107698225D01*
X77287840Y-107745407D01*
X77313562Y-107793528D01*
X77348177Y-107835707D01*
X77807796Y-108295326D01*
X77849975Y-108329941D01*
X77898096Y-108355663D01*
X77950311Y-108371502D01*
X78004612Y-108376850D01*
X78058913Y-108371502D01*
X78111128Y-108355663D01*
X78159249Y-108329941D01*
X78201428Y-108295326D01*
X78395806Y-108100948D01*
X78397889Y-108100743D01*
X78449385Y-108100743D01*
X79721515Y-109372874D01*
X79721524Y-109372881D01*
X80342575Y-109993942D01*
X80620162Y-110530454D01*
X80627052Y-110547740D01*
X80637181Y-110563348D01*
X80666856Y-110609076D01*
X80767744Y-110797629D01*
X80774863Y-110814801D01*
X80785216Y-110830285D01*
X80785225Y-110830301D01*
X80794194Y-110843711D01*
X80815534Y-110875626D01*
X80919019Y-111062762D01*
X80926377Y-111079836D01*
X80936936Y-111095163D01*
X80936945Y-111095179D01*
X80947152Y-111109992D01*
X80967877Y-111140076D01*
X81015245Y-111223000D01*
X80943170Y-111223000D01*
X80831695Y-111245174D01*
X80726688Y-111288669D01*
X80632184Y-111351815D01*
X80551815Y-111432184D01*
X80521819Y-111477076D01*
X80475750Y-111431007D01*
X80366107Y-111357746D01*
X80244279Y-111307283D01*
X80114946Y-111281557D01*
X79983080Y-111281557D01*
X79853747Y-111307283D01*
X79752932Y-111349042D01*
X79794691Y-111248228D01*
X79820417Y-111118895D01*
X79820417Y-110987029D01*
X79794691Y-110857696D01*
X79744228Y-110735868D01*
X79670967Y-110626225D01*
X79577724Y-110532982D01*
X79468081Y-110459721D01*
X79346253Y-110409258D01*
X79216920Y-110383532D01*
X79112971Y-110383532D01*
X79120281Y-110376222D01*
X79204522Y-110250146D01*
X79262548Y-110110059D01*
X79292129Y-109961343D01*
X79292129Y-109809713D01*
X79262548Y-109660997D01*
X79204522Y-109520910D01*
X79120281Y-109394834D01*
X79013063Y-109287616D01*
X78886987Y-109203375D01*
X78746900Y-109145349D01*
X78598184Y-109115768D01*
X78446554Y-109115768D01*
X78297838Y-109145349D01*
X78157751Y-109203375D01*
X78031675Y-109287616D01*
X77924457Y-109394834D01*
X77840216Y-109520910D01*
X77782190Y-109660997D01*
X77752609Y-109809713D01*
X77752609Y-109961343D01*
X77782190Y-110110059D01*
X77840216Y-110250146D01*
X77924457Y-110376222D01*
X78031675Y-110483440D01*
X78157751Y-110567681D01*
X78297838Y-110625707D01*
X78446554Y-110655288D01*
X78598184Y-110655288D01*
X78613642Y-110652213D01*
X78557746Y-110735868D01*
X78507283Y-110857696D01*
X78481557Y-110987029D01*
X78481557Y-111118895D01*
X78507283Y-111248228D01*
X78548798Y-111348453D01*
X78525521Y-111336011D01*
X78425962Y-111372899D01*
X78425962Y-111533326D01*
X78267103Y-111692185D01*
X78511764Y-111936846D01*
X78670623Y-111777987D01*
X78831050Y-111777987D01*
X78867938Y-111678428D01*
X78854526Y-111654750D01*
X78955721Y-111696666D01*
X79085054Y-111722392D01*
X79216920Y-111722392D01*
X79346253Y-111696666D01*
X79447068Y-111654907D01*
X79405309Y-111755721D01*
X79379583Y-111885054D01*
X79379583Y-112016920D01*
X79405309Y-112146253D01*
X79447068Y-112247068D01*
X79346253Y-112205309D01*
X79216920Y-112179583D01*
X79085054Y-112179583D01*
X78955721Y-112205309D01*
X78855496Y-112246824D01*
X78867938Y-112223546D01*
X78831050Y-112123987D01*
X78670623Y-112123987D01*
X78511764Y-111965128D01*
X78267103Y-112209789D01*
X78425962Y-112368648D01*
X78425962Y-112529075D01*
X78440156Y-112534334D01*
X78383118Y-112581144D01*
X78371310Y-112595532D01*
X77510934Y-113455908D01*
X77474211Y-113436278D01*
X77421996Y-113420439D01*
X77367695Y-113415091D01*
X77331327Y-113418673D01*
X77334909Y-113382305D01*
X77329560Y-113328003D01*
X77313722Y-113275788D01*
X77288000Y-113227667D01*
X77253385Y-113185489D01*
X77246957Y-113180956D01*
X77149023Y-113180956D01*
X76912319Y-113417660D01*
X76926461Y-113431802D01*
X76681802Y-113676461D01*
X76667660Y-113662319D01*
X76430956Y-113899023D01*
X76430956Y-113996957D01*
X76435489Y-114003385D01*
X76477667Y-114038000D01*
X76525788Y-114063722D01*
X76578003Y-114079560D01*
X76632305Y-114084909D01*
X76668673Y-114081327D01*
X76665091Y-114117695D01*
X76670439Y-114171996D01*
X76686278Y-114224211D01*
X76712000Y-114272332D01*
X76746615Y-114314511D01*
X77100169Y-114668065D01*
X77142348Y-114702680D01*
X77190469Y-114728402D01*
X77242684Y-114744241D01*
X77296985Y-114749589D01*
X77351286Y-114744241D01*
X77403501Y-114728402D01*
X77451622Y-114702680D01*
X77493801Y-114668065D01*
X77918065Y-114243801D01*
X77952680Y-114201622D01*
X77978402Y-114153501D01*
X77994241Y-114101286D01*
X77999589Y-114046985D01*
X77998386Y-114034772D01*
X78523001Y-113510157D01*
X78523000Y-113960999D01*
X78451815Y-114032184D01*
X78388669Y-114126688D01*
X78345174Y-114231695D01*
X78323000Y-114343170D01*
X78323000Y-114456830D01*
X78345174Y-114568305D01*
X78388669Y-114673312D01*
X78451815Y-114767816D01*
X78532184Y-114848185D01*
X78626688Y-114911331D01*
X78731695Y-114954826D01*
X78823061Y-114973000D01*
X76348442Y-114973000D01*
X75076712Y-113701270D01*
X75096447Y-113703214D01*
X75154197Y-113701874D01*
X75223447Y-113632624D01*
X75223447Y-113147874D01*
X75569447Y-113147874D01*
X75569447Y-113632624D01*
X75638697Y-113701874D01*
X75696447Y-113703214D01*
X75750748Y-113697866D01*
X75802963Y-113682027D01*
X75851084Y-113656305D01*
X75893263Y-113621690D01*
X75927878Y-113579511D01*
X75953600Y-113531390D01*
X75969439Y-113479175D01*
X75972015Y-113453015D01*
X76000411Y-113453015D01*
X76005760Y-113507317D01*
X76021598Y-113559532D01*
X76047320Y-113607653D01*
X76081935Y-113649831D01*
X76088363Y-113654364D01*
X76186297Y-113654364D01*
X76423001Y-113417660D01*
X76221652Y-113216311D01*
X76123718Y-113216311D01*
X76081935Y-113256199D01*
X76047320Y-113298377D01*
X76021598Y-113346499D01*
X76005760Y-113398714D01*
X76000411Y-113453015D01*
X75972015Y-113453015D01*
X75974787Y-113424874D01*
X75973447Y-113217124D01*
X75904197Y-113147874D01*
X75569447Y-113147874D01*
X75223447Y-113147874D01*
X74888697Y-113147874D01*
X74819447Y-113217124D01*
X74818107Y-113424874D01*
X74820051Y-113444609D01*
X74474787Y-113099346D01*
X74474787Y-112873718D01*
X76466311Y-112873718D01*
X76466311Y-112971652D01*
X76667660Y-113173001D01*
X76904364Y-112936297D01*
X76904364Y-112838363D01*
X76899831Y-112831935D01*
X76857653Y-112797320D01*
X76809532Y-112771598D01*
X76757317Y-112755760D01*
X76703015Y-112750411D01*
X76648714Y-112755760D01*
X76596499Y-112771598D01*
X76548377Y-112797320D01*
X76506199Y-112831935D01*
X76466311Y-112873718D01*
X74474787Y-112873718D01*
X74474787Y-112524874D01*
X74818107Y-112524874D01*
X74819447Y-112732624D01*
X74888697Y-112801874D01*
X75223447Y-112801874D01*
X75223447Y-112781874D01*
X75569447Y-112781874D01*
X75569447Y-112801874D01*
X75904197Y-112801874D01*
X75973447Y-112732624D01*
X75974787Y-112524874D01*
X75969439Y-112470573D01*
X75953600Y-112418358D01*
X75927878Y-112370237D01*
X75893263Y-112328058D01*
X75856469Y-112297862D01*
X75996447Y-112299051D01*
X76050748Y-112293703D01*
X76102963Y-112277864D01*
X76151084Y-112252142D01*
X76185928Y-112223546D01*
X77637986Y-112223546D01*
X77702976Y-112338285D01*
X77789102Y-112438140D01*
X77893054Y-112519274D01*
X77980403Y-112565963D01*
X78079962Y-112529075D01*
X78079962Y-112123987D01*
X77674874Y-112123987D01*
X77637986Y-112223546D01*
X76185928Y-112223546D01*
X76193263Y-112217527D01*
X76227878Y-112175348D01*
X76253600Y-112127227D01*
X76269439Y-112075012D01*
X76274787Y-112020711D01*
X76273447Y-111812961D01*
X76204197Y-111743711D01*
X75769447Y-111743711D01*
X75769447Y-111763711D01*
X75423447Y-111763711D01*
X75423447Y-111743711D01*
X74988697Y-111743711D01*
X74919447Y-111812961D01*
X74918107Y-112020711D01*
X74923455Y-112075012D01*
X74939294Y-112127227D01*
X74965016Y-112175348D01*
X74999631Y-112217527D01*
X75041669Y-112252027D01*
X74989931Y-112267721D01*
X74941810Y-112293443D01*
X74899631Y-112328058D01*
X74865016Y-112370237D01*
X74839294Y-112418358D01*
X74823455Y-112470573D01*
X74818107Y-112524874D01*
X74474787Y-112524874D01*
X74469439Y-112470573D01*
X74453600Y-112418358D01*
X74427878Y-112370237D01*
X74393263Y-112328058D01*
X74351084Y-112293443D01*
X74302963Y-112267721D01*
X74251225Y-112252027D01*
X74293263Y-112217527D01*
X74327878Y-112175348D01*
X74353600Y-112127227D01*
X74369439Y-112075012D01*
X74374787Y-112020711D01*
X74374787Y-111120711D01*
X74918107Y-111120711D01*
X74919447Y-111328461D01*
X74988697Y-111397711D01*
X75423447Y-111397711D01*
X75423447Y-110912961D01*
X75769447Y-110912961D01*
X75769447Y-111397711D01*
X76204197Y-111397711D01*
X76273447Y-111328461D01*
X76273975Y-111246554D01*
X76315768Y-111246554D01*
X76315768Y-111398184D01*
X76345349Y-111546900D01*
X76403375Y-111686987D01*
X76487616Y-111813063D01*
X76594834Y-111920281D01*
X76720910Y-112004522D01*
X76860997Y-112062548D01*
X77009713Y-112092129D01*
X77161343Y-112092129D01*
X77310059Y-112062548D01*
X77450146Y-112004522D01*
X77576222Y-111920281D01*
X77683440Y-111813063D01*
X77706877Y-111777987D01*
X77835301Y-111777987D01*
X77994160Y-111936846D01*
X78238821Y-111692185D01*
X78079962Y-111533326D01*
X78079962Y-111372899D01*
X77980403Y-111336011D01*
X77917996Y-111371359D01*
X77899907Y-111353270D01*
X77855288Y-111397889D01*
X77855288Y-111246554D01*
X77825707Y-111097838D01*
X77767681Y-110957751D01*
X77683440Y-110831675D01*
X77576222Y-110724457D01*
X77450146Y-110640216D01*
X77310059Y-110582190D01*
X77161343Y-110552609D01*
X77009713Y-110552609D01*
X76860997Y-110582190D01*
X76720910Y-110640216D01*
X76594834Y-110724457D01*
X76487616Y-110831675D01*
X76403375Y-110957751D01*
X76345349Y-111097838D01*
X76315768Y-111246554D01*
X76273975Y-111246554D01*
X76274787Y-111120711D01*
X76269439Y-111066410D01*
X76253600Y-111014195D01*
X76227878Y-110966074D01*
X76193263Y-110923895D01*
X76151084Y-110889280D01*
X76102963Y-110863558D01*
X76050748Y-110847719D01*
X75996447Y-110842371D01*
X75838697Y-110843711D01*
X75769447Y-110912961D01*
X75423447Y-110912961D01*
X75354197Y-110843711D01*
X75196447Y-110842371D01*
X75142146Y-110847719D01*
X75089931Y-110863558D01*
X75041810Y-110889280D01*
X74999631Y-110923895D01*
X74965016Y-110966074D01*
X74939294Y-111014195D01*
X74923455Y-111066410D01*
X74918107Y-111120711D01*
X74374787Y-111120711D01*
X74369439Y-111066410D01*
X74353600Y-111014195D01*
X74327878Y-110966074D01*
X74293263Y-110923895D01*
X74251084Y-110889280D01*
X74202963Y-110863558D01*
X74150748Y-110847719D01*
X74096447Y-110842371D01*
X73296447Y-110842371D01*
X73242146Y-110847719D01*
X73189931Y-110863558D01*
X73141810Y-110889280D01*
X73099631Y-110923895D01*
X73065016Y-110966074D01*
X73039294Y-111014195D01*
X73023455Y-111066410D01*
X73018107Y-111120711D01*
X73018107Y-112020711D01*
X73023455Y-112075012D01*
X73039294Y-112127227D01*
X73065016Y-112175348D01*
X73099631Y-112217527D01*
X73141810Y-112252142D01*
X73189931Y-112277864D01*
X73242146Y-112293703D01*
X73269448Y-112296392D01*
X73269448Y-112753897D01*
X73267382Y-112774874D01*
X73269448Y-112795851D01*
X73269448Y-112795852D01*
X73275626Y-112858581D01*
X73297163Y-112929575D01*
X73300043Y-112939070D01*
X73318107Y-112972866D01*
X73318107Y-113424874D01*
X73323455Y-113479175D01*
X73339294Y-113531390D01*
X73365016Y-113579511D01*
X73399631Y-113621690D01*
X73441810Y-113656305D01*
X73489931Y-113682027D01*
X73542146Y-113697866D01*
X73596447Y-113703214D01*
X73870919Y-113703214D01*
X75854809Y-115687105D01*
X75868178Y-115703395D01*
X75884468Y-115716764D01*
X75884472Y-115716768D01*
X75933196Y-115756755D01*
X75960790Y-115771504D01*
X76007377Y-115796405D01*
X76087866Y-115820822D01*
X76150595Y-115827000D01*
X76150605Y-115827000D01*
X76171572Y-115829065D01*
X76192539Y-115827000D01*
X78773001Y-115827000D01*
X78773000Y-121032587D01*
X78770935Y-121053554D01*
X78773000Y-121074521D01*
X78773000Y-121074531D01*
X78779178Y-121137260D01*
X78803595Y-121217749D01*
X78811283Y-121232132D01*
X78843245Y-121291930D01*
X78870139Y-121324700D01*
X78896605Y-121356949D01*
X78912900Y-121370322D01*
X80697347Y-123154771D01*
X80710711Y-123171055D01*
X80726995Y-123184419D01*
X80727004Y-123184428D01*
X80775729Y-123224415D01*
X80807993Y-123241660D01*
X80849910Y-123264065D01*
X80930399Y-123288482D01*
X80974976Y-123292872D01*
X81135489Y-123453385D01*
X81177668Y-123488000D01*
X81225789Y-123513722D01*
X81278004Y-123529561D01*
X81332305Y-123534909D01*
X81368673Y-123531327D01*
X81365091Y-123567695D01*
X81370440Y-123621997D01*
X81386278Y-123674212D01*
X81412000Y-123722333D01*
X81446615Y-123764511D01*
X81453043Y-123769044D01*
X81550977Y-123769044D01*
X81787681Y-123532340D01*
X82276999Y-123532340D01*
X82478348Y-123733689D01*
X82576282Y-123733689D01*
X82618065Y-123693801D01*
X82652680Y-123651623D01*
X82678402Y-123603501D01*
X82694240Y-123551286D01*
X82699589Y-123496985D01*
X82694240Y-123442683D01*
X82678402Y-123390468D01*
X82652680Y-123342347D01*
X82618065Y-123300169D01*
X82611637Y-123295636D01*
X82513703Y-123295636D01*
X82276999Y-123532340D01*
X81787681Y-123532340D01*
X81773539Y-123518198D01*
X82018198Y-123273539D01*
X82032340Y-123287681D01*
X82269044Y-123050977D01*
X82269044Y-122953043D01*
X82264511Y-122946615D01*
X82222333Y-122912000D01*
X82186419Y-122892803D01*
X82239806Y-122888132D01*
X82364597Y-122739412D01*
X82374372Y-122729848D01*
X82964451Y-122026619D01*
X83189147Y-122215162D01*
X82599068Y-122918390D01*
X82591349Y-122929674D01*
X82466555Y-123078398D01*
X82475091Y-123175959D01*
X82480166Y-123181967D01*
X82525201Y-123212774D01*
X82569119Y-123231530D01*
X82595216Y-123271524D01*
X82633376Y-123310525D01*
X82978096Y-123599779D01*
X83023131Y-123630586D01*
X83067048Y-123649341D01*
X83093145Y-123689336D01*
X83131305Y-123728337D01*
X83476025Y-124017591D01*
X83521060Y-124048398D01*
X83564977Y-124067153D01*
X83591074Y-124107148D01*
X83629234Y-124146149D01*
X83973954Y-124435403D01*
X84018989Y-124466210D01*
X84062906Y-124484965D01*
X84089003Y-124524960D01*
X84127163Y-124563961D01*
X84471883Y-124853215D01*
X84516918Y-124884022D01*
X84567098Y-124905452D01*
X84620494Y-124916680D01*
X84675055Y-124917275D01*
X84728684Y-124907214D01*
X84779319Y-124886885D01*
X84825016Y-124857067D01*
X84864017Y-124818908D01*
X84898739Y-124777527D01*
X88299125Y-128177914D01*
X88299125Y-128278585D01*
X88321299Y-128390060D01*
X88364794Y-128495067D01*
X88427940Y-128589571D01*
X88508309Y-128669940D01*
X88602813Y-128733086D01*
X88707820Y-128776581D01*
X88819295Y-128798755D01*
X88932955Y-128798755D01*
X89044430Y-128776581D01*
X89149437Y-128733086D01*
X89243941Y-128669940D01*
X89324310Y-128589571D01*
X89387456Y-128495067D01*
X89430951Y-128390060D01*
X89453125Y-128278585D01*
X89453125Y-128232858D01*
X89498445Y-128232858D01*
X89609920Y-128210684D01*
X89714927Y-128167189D01*
X89809431Y-128104043D01*
X89889800Y-128023674D01*
X89952946Y-127929170D01*
X89963008Y-127904878D01*
X89995363Y-127931431D01*
X90043484Y-127957153D01*
X90095699Y-127972992D01*
X90150000Y-127978340D01*
X90357750Y-127977000D01*
X90427000Y-127907750D01*
X90427000Y-127573000D01*
X90407000Y-127573000D01*
X90407000Y-127227000D01*
X90427000Y-127227000D01*
X90427000Y-126892250D01*
X90357750Y-126823000D01*
X90150000Y-126821660D01*
X90095699Y-126827008D01*
X90043484Y-126842847D01*
X89995363Y-126868569D01*
X89953184Y-126903184D01*
X89918569Y-126945363D01*
X89892847Y-126993484D01*
X89877008Y-127045699D01*
X89871660Y-127100000D01*
X89873000Y-127157750D01*
X89942248Y-127226998D01*
X89873000Y-127226998D01*
X89873000Y-127271242D01*
X89809431Y-127207673D01*
X89723151Y-127150022D01*
X89729698Y-127140223D01*
X89773193Y-127035216D01*
X89795367Y-126923741D01*
X89795367Y-126810081D01*
X89773193Y-126698606D01*
X89729698Y-126593599D01*
X89666552Y-126499095D01*
X89586183Y-126418726D01*
X89491679Y-126355580D01*
X89398863Y-126317134D01*
X89448181Y-126267816D01*
X89511327Y-126173312D01*
X89554822Y-126068305D01*
X89576996Y-125956830D01*
X89576996Y-125843170D01*
X89554822Y-125731695D01*
X89511327Y-125626688D01*
X89448181Y-125532184D01*
X89367812Y-125451815D01*
X89273308Y-125388669D01*
X89168301Y-125345174D01*
X89056826Y-125323000D01*
X88943166Y-125323000D01*
X88831691Y-125345174D01*
X88793960Y-125360802D01*
X87377000Y-123943842D01*
X87377000Y-122894244D01*
X87378823Y-122875735D01*
X87377000Y-122857226D01*
X87377000Y-122857217D01*
X87371545Y-122801831D01*
X87349988Y-122730766D01*
X87314981Y-122665273D01*
X87293860Y-122639537D01*
X87279674Y-122622251D01*
X87279672Y-122622249D01*
X87267869Y-122607867D01*
X87253488Y-122596065D01*
X86132250Y-121474828D01*
X86143170Y-121477000D01*
X86256830Y-121477000D01*
X86368305Y-121454826D01*
X86473312Y-121411331D01*
X86567816Y-121348185D01*
X86648185Y-121267816D01*
X86711331Y-121173312D01*
X86754826Y-121068305D01*
X86766866Y-121007778D01*
X87823110Y-119951534D01*
X87855351Y-119965303D01*
X87881449Y-120005298D01*
X87919609Y-120044299D01*
X88264329Y-120333553D01*
X88309364Y-120364360D01*
X88359544Y-120385790D01*
X88412940Y-120397018D01*
X88467501Y-120397613D01*
X88521130Y-120387552D01*
X88571765Y-120367223D01*
X88617462Y-120337405D01*
X88656463Y-120299246D01*
X88843357Y-120076515D01*
X90773001Y-122006159D01*
X90773000Y-123331488D01*
X90771177Y-123350000D01*
X90773000Y-123368512D01*
X90773000Y-123368518D01*
X90776561Y-123404673D01*
X90778455Y-123423905D01*
X90796437Y-123483184D01*
X90800012Y-123494969D01*
X90835019Y-123560462D01*
X90882131Y-123617869D01*
X90896519Y-123629677D01*
X91070323Y-123803481D01*
X91082131Y-123817869D01*
X91139537Y-123864981D01*
X91185478Y-123889537D01*
X91205030Y-123899988D01*
X91276094Y-123921545D01*
X91350000Y-123928824D01*
X91368519Y-123927000D01*
X92431488Y-123927000D01*
X92450000Y-123928823D01*
X92468512Y-123927000D01*
X92468519Y-123927000D01*
X92523905Y-123921545D01*
X92594970Y-123899988D01*
X92660463Y-123864981D01*
X92717869Y-123817869D01*
X92729677Y-123803481D01*
X92903481Y-123629677D01*
X92917869Y-123617869D01*
X92964981Y-123560463D01*
X92999988Y-123494970D01*
X93010238Y-123461179D01*
X93021545Y-123423906D01*
X93028824Y-123350000D01*
X93027000Y-123331481D01*
X93027000Y-123006158D01*
X93476163Y-122556995D01*
X93512103Y-122571883D01*
X93501802Y-122582184D01*
X93438656Y-122676688D01*
X93395161Y-122781695D01*
X93372987Y-122893170D01*
X93372987Y-123006830D01*
X93395161Y-123118305D01*
X93438656Y-123223312D01*
X93501802Y-123317816D01*
X93536951Y-123352965D01*
X93518569Y-123375363D01*
X93492847Y-123423484D01*
X93477008Y-123475699D01*
X93471660Y-123530000D01*
X93471660Y-124030000D01*
X93477008Y-124084301D01*
X93492847Y-124136516D01*
X93518569Y-124184637D01*
X93553184Y-124226816D01*
X93581434Y-124250000D01*
X93553184Y-124273184D01*
X93528340Y-124303457D01*
X93528340Y-124300000D01*
X93522992Y-124245699D01*
X93507153Y-124193484D01*
X93481431Y-124145363D01*
X93446816Y-124103184D01*
X93404637Y-124068569D01*
X93356516Y-124042847D01*
X93304301Y-124027008D01*
X93250000Y-124021660D01*
X92450000Y-124021660D01*
X92395699Y-124027008D01*
X92343484Y-124042847D01*
X92295363Y-124068569D01*
X92253184Y-124103184D01*
X92218569Y-124145363D01*
X92192847Y-124193484D01*
X92177008Y-124245699D01*
X92171660Y-124300000D01*
X92171660Y-125200000D01*
X92177008Y-125254301D01*
X92192847Y-125306516D01*
X92218569Y-125354637D01*
X92253184Y-125396816D01*
X92295363Y-125431431D01*
X92297984Y-125432832D01*
X92273184Y-125453184D01*
X92250000Y-125481434D01*
X92226816Y-125453184D01*
X92184637Y-125418569D01*
X92136516Y-125392847D01*
X92084301Y-125377008D01*
X92030000Y-125371660D01*
X92028091Y-125371660D01*
X92021103Y-125367925D01*
X91902913Y-125332073D01*
X91810794Y-125323000D01*
X91780000Y-125319967D01*
X91749206Y-125323000D01*
X91598342Y-125323000D01*
X91607153Y-125306516D01*
X91622992Y-125254301D01*
X91628340Y-125200000D01*
X91628340Y-124300000D01*
X91622992Y-124245699D01*
X91607153Y-124193484D01*
X91581431Y-124145363D01*
X91546816Y-124103184D01*
X91504637Y-124068569D01*
X91456516Y-124042847D01*
X91404301Y-124027008D01*
X91350000Y-124021660D01*
X90550000Y-124021660D01*
X90495699Y-124027008D01*
X90443484Y-124042847D01*
X90395363Y-124068569D01*
X90353184Y-124103184D01*
X90318569Y-124145363D01*
X90292847Y-124193484D01*
X90277008Y-124245699D01*
X90271660Y-124300000D01*
X90271660Y-125200000D01*
X90277008Y-125254301D01*
X90292847Y-125306516D01*
X90297698Y-125315591D01*
X90291629Y-125321660D01*
X90150000Y-125321660D01*
X90095699Y-125327008D01*
X90043484Y-125342847D01*
X89995363Y-125368569D01*
X89953184Y-125403184D01*
X89918569Y-125445363D01*
X89892847Y-125493484D01*
X89877008Y-125545699D01*
X89871660Y-125600000D01*
X89871660Y-126200000D01*
X89877008Y-126254301D01*
X89892847Y-126306516D01*
X89918569Y-126354637D01*
X89953184Y-126396816D01*
X89995363Y-126431431D01*
X90043484Y-126457153D01*
X90095699Y-126472992D01*
X90150000Y-126478340D01*
X90308367Y-126478340D01*
X90408897Y-126532075D01*
X90527087Y-126567927D01*
X90619206Y-126577000D01*
X90650000Y-126580033D01*
X90680794Y-126577000D01*
X91153000Y-126577000D01*
X91153000Y-126841780D01*
X91104301Y-126827008D01*
X91050000Y-126821660D01*
X90842250Y-126823000D01*
X90773000Y-126892250D01*
X90773000Y-127227000D01*
X90793000Y-127227000D01*
X90793000Y-127573000D01*
X90773000Y-127573000D01*
X90773000Y-127907750D01*
X90842250Y-127977000D01*
X91050000Y-127978340D01*
X91073001Y-127976075D01*
X91073000Y-128768865D01*
X90296654Y-129545210D01*
X89997148Y-129445315D01*
X89670727Y-129332401D01*
X89345869Y-129215974D01*
X89033781Y-129100199D01*
X89022196Y-129095901D01*
X88699820Y-128972221D01*
X88378884Y-128844989D01*
X88059552Y-128714271D01*
X87741488Y-128579933D01*
X87424979Y-128442090D01*
X87110020Y-128300743D01*
X86796617Y-128155893D01*
X86484851Y-128007578D01*
X86174849Y-127855860D01*
X85866464Y-127700664D01*
X85559798Y-127542044D01*
X85254911Y-127380030D01*
X84952041Y-127214750D01*
X84650744Y-127045961D01*
X84351536Y-126873951D01*
X84054076Y-126698523D01*
X83758661Y-126519852D01*
X83465332Y-126337965D01*
X83173952Y-126152778D01*
X82884738Y-125964427D01*
X82597504Y-125772793D01*
X82312523Y-125578054D01*
X82029569Y-125380056D01*
X81748998Y-125179052D01*
X81470635Y-124974915D01*
X81194576Y-124767715D01*
X80920800Y-124557440D01*
X80649375Y-124344138D01*
X80380225Y-124127746D01*
X80241557Y-124013703D01*
X81795636Y-124013703D01*
X81795636Y-124111637D01*
X81800169Y-124118065D01*
X81842347Y-124152680D01*
X81890468Y-124178402D01*
X81942683Y-124194240D01*
X81996985Y-124199589D01*
X82051286Y-124194240D01*
X82103501Y-124178402D01*
X82151623Y-124152680D01*
X82193801Y-124118065D01*
X82233689Y-124076282D01*
X82233689Y-123978348D01*
X82032340Y-123776999D01*
X81795636Y-124013703D01*
X80241557Y-124013703D01*
X80113690Y-123908543D01*
X79849483Y-123686289D01*
X79587770Y-123461130D01*
X79328592Y-123233094D01*
X79072002Y-123002232D01*
X78817903Y-122768455D01*
X78566410Y-122531864D01*
X78317645Y-122292583D01*
X78071557Y-122050558D01*
X77828020Y-121805665D01*
X77587464Y-121558338D01*
X77349451Y-121308129D01*
X77114365Y-121055437D01*
X76882004Y-120800048D01*
X76652458Y-120542054D01*
X76425942Y-120281705D01*
X76202263Y-120018776D01*
X75981473Y-119753330D01*
X75919062Y-119676580D01*
X76219143Y-119736270D01*
X76580857Y-119736270D01*
X76935620Y-119665703D01*
X77269800Y-119527281D01*
X77570554Y-119326324D01*
X77826324Y-119070554D01*
X78027281Y-118769800D01*
X78165703Y-118435620D01*
X78236270Y-118080857D01*
X78236270Y-117719143D01*
X78165703Y-117364380D01*
X78027281Y-117030200D01*
X77826324Y-116729446D01*
X77570554Y-116473676D01*
X77269800Y-116272719D01*
X76935620Y-116134297D01*
X76580857Y-116063730D01*
X76219143Y-116063730D01*
X75864380Y-116134297D01*
X75530200Y-116272719D01*
X75229446Y-116473676D01*
X74973676Y-116729446D01*
X74772719Y-117030200D01*
X74634297Y-117364380D01*
X74563730Y-117719143D01*
X74563730Y-117890212D01*
X74520531Y-117829200D01*
X74324166Y-117545235D01*
X74130941Y-117259070D01*
X73941039Y-116970985D01*
X73754220Y-116680612D01*
X73570612Y-116388142D01*
X73390369Y-116093830D01*
X73213364Y-115797465D01*
X73039651Y-115499139D01*
X72869304Y-115198981D01*
X72702210Y-114896790D01*
X72538495Y-114592788D01*
X72378256Y-114287163D01*
X72221343Y-113979625D01*
X72067852Y-113670367D01*
X72027000Y-113585708D01*
X72027000Y-109701132D01*
X72178132Y-109550000D01*
X72571660Y-109550000D01*
X72577008Y-109604301D01*
X72592847Y-109656516D01*
X72618569Y-109704637D01*
X72653184Y-109746816D01*
X72695363Y-109781431D01*
X72743484Y-109807153D01*
X72795699Y-109822992D01*
X72850000Y-109828340D01*
X73057750Y-109827000D01*
X73127000Y-109757750D01*
X73127000Y-109423000D01*
X72642250Y-109423000D01*
X72573000Y-109492250D01*
X72571660Y-109550000D01*
X72178132Y-109550000D01*
X72651133Y-109077000D01*
X73127000Y-109077000D01*
X73127000Y-108742250D01*
X73057750Y-108673000D01*
X73052326Y-108672965D01*
X73107403Y-108605853D01*
X73174910Y-108479557D01*
X73200362Y-108395651D01*
X73509980Y-108705270D01*
X73473000Y-108742250D01*
X73473000Y-109077000D01*
X73493000Y-109077000D01*
X73493000Y-109423000D01*
X73473000Y-109423000D01*
X73473000Y-109757750D01*
X73542250Y-109827000D01*
X73750000Y-109828340D01*
X73804301Y-109822992D01*
X73856516Y-109807153D01*
X73904637Y-109781431D01*
X73946816Y-109746816D01*
X73968107Y-109720873D01*
X73968107Y-110020711D01*
X73973455Y-110075012D01*
X73989294Y-110127227D01*
X74015016Y-110175348D01*
X74049631Y-110217527D01*
X74091810Y-110252142D01*
X74139931Y-110277864D01*
X74192146Y-110293703D01*
X74246447Y-110299051D01*
X75046447Y-110299051D01*
X75100748Y-110293703D01*
X75152963Y-110277864D01*
X75201084Y-110252142D01*
X75243263Y-110217527D01*
X75277878Y-110175348D01*
X75303600Y-110127227D01*
X75319439Y-110075012D01*
X75324787Y-110020711D01*
X75324787Y-109637660D01*
X75710754Y-109251693D01*
X75717892Y-109253858D01*
X75732205Y-109301042D01*
X75757927Y-109349163D01*
X75792542Y-109391342D01*
X76252161Y-109850961D01*
X76294340Y-109885576D01*
X76342461Y-109911298D01*
X76394676Y-109927137D01*
X76448977Y-109932485D01*
X76503278Y-109927137D01*
X76555493Y-109911298D01*
X76603614Y-109885576D01*
X76645793Y-109850961D01*
X77395326Y-109101428D01*
X77429941Y-109059249D01*
X77455663Y-109011128D01*
X77471502Y-108958913D01*
X77476850Y-108904612D01*
X77471502Y-108850311D01*
X77455663Y-108798096D01*
X77429941Y-108749975D01*
X77395326Y-108707796D01*
X76935707Y-108248177D01*
X76893528Y-108213562D01*
X76845407Y-108187840D01*
X76798225Y-108173528D01*
X76783912Y-108126344D01*
X76758190Y-108078223D01*
X76723575Y-108036044D01*
X76674154Y-107986623D01*
X76673949Y-107984543D01*
X76673949Y-107399336D01*
X76675772Y-107380827D01*
X76673949Y-107362318D01*
X76673949Y-107362309D01*
X76668494Y-107306923D01*
X76646937Y-107235858D01*
X76611930Y-107170365D01*
X76564818Y-107112959D01*
X76550430Y-107101151D01*
X75665610Y-106216331D01*
X75674212Y-106213722D01*
X75722333Y-106188000D01*
X75764511Y-106153385D01*
X75769044Y-106146957D01*
X75769044Y-106049023D01*
X75532340Y-105812319D01*
X75518198Y-105826461D01*
X75273539Y-105581802D01*
X75287681Y-105567660D01*
X75776999Y-105567660D01*
X76013703Y-105804364D01*
X76111637Y-105804364D01*
X76118065Y-105799831D01*
X76152680Y-105757653D01*
X76178402Y-105709532D01*
X76194240Y-105657317D01*
X76199589Y-105603015D01*
X76194240Y-105548714D01*
X76178402Y-105496499D01*
X76152680Y-105448377D01*
X76118065Y-105406199D01*
X76076282Y-105366311D01*
X75978348Y-105366311D01*
X75776999Y-105567660D01*
X75287681Y-105567660D01*
X75050977Y-105330956D01*
X74953043Y-105330956D01*
X74946615Y-105335489D01*
X74912000Y-105377667D01*
X74886278Y-105425788D01*
X74870440Y-105478003D01*
X74865091Y-105532305D01*
X74868673Y-105568673D01*
X74832305Y-105565091D01*
X74778004Y-105570439D01*
X74725789Y-105586278D01*
X74677668Y-105612000D01*
X74635489Y-105646615D01*
X74281935Y-106000169D01*
X74247320Y-106042348D01*
X74221598Y-106090469D01*
X74205759Y-106142684D01*
X74200411Y-106196985D01*
X74205759Y-106251286D01*
X74221598Y-106303501D01*
X74247320Y-106351622D01*
X74281935Y-106393801D01*
X74706199Y-106818065D01*
X74748378Y-106852680D01*
X74796499Y-106878402D01*
X74848714Y-106894241D01*
X74903015Y-106899589D01*
X74957316Y-106894241D01*
X75009531Y-106878402D01*
X75057652Y-106852680D01*
X75095321Y-106821767D01*
X75098311Y-106821472D01*
X75204435Y-106821472D01*
X75248748Y-106865785D01*
X75240751Y-106870059D01*
X75198572Y-106904674D01*
X74449039Y-107654207D01*
X74414424Y-107696386D01*
X74388702Y-107744507D01*
X74372863Y-107796722D01*
X74367515Y-107851023D01*
X74372863Y-107905324D01*
X74388702Y-107957539D01*
X74414424Y-108005660D01*
X74449039Y-108047839D01*
X74908658Y-108507458D01*
X74939280Y-108532588D01*
X74883580Y-108588289D01*
X74028340Y-107733050D01*
X74028340Y-107450000D01*
X74022992Y-107395699D01*
X74007153Y-107343484D01*
X73981431Y-107295363D01*
X73946816Y-107253184D01*
X73904637Y-107218569D01*
X73856516Y-107192847D01*
X73804301Y-107177008D01*
X73750000Y-107171660D01*
X73316950Y-107171660D01*
X73227000Y-107081710D01*
X73227000Y-104988363D01*
X75295636Y-104988363D01*
X75295636Y-105086297D01*
X75532340Y-105323001D01*
X75733689Y-105121652D01*
X75733689Y-105023718D01*
X75693801Y-104981935D01*
X75651623Y-104947320D01*
X75603501Y-104921598D01*
X75551286Y-104905760D01*
X75496985Y-104900411D01*
X75442683Y-104905760D01*
X75390468Y-104921598D01*
X75342347Y-104947320D01*
X75300169Y-104981935D01*
X75295636Y-104988363D01*
X73227000Y-104988363D01*
X73227000Y-104209369D01*
X73413893Y-104209369D01*
X73463249Y-104347093D01*
X73559478Y-104469939D01*
X73677824Y-104571651D01*
X73813739Y-104648320D01*
X73962000Y-104697000D01*
X74512000Y-104697000D01*
X74512000Y-104093000D01*
X74858000Y-104093000D01*
X74858000Y-104697000D01*
X75408000Y-104697000D01*
X75556261Y-104648320D01*
X75692176Y-104571651D01*
X75810522Y-104469939D01*
X75906751Y-104347093D01*
X75956107Y-104209369D01*
X75921281Y-104093000D01*
X74858000Y-104093000D01*
X74512000Y-104093000D01*
X73448719Y-104093000D01*
X73413893Y-104209369D01*
X73227000Y-104209369D01*
X73227000Y-102677000D01*
X73580857Y-102677000D01*
X73621514Y-102775154D01*
X73687396Y-102873753D01*
X73771247Y-102957604D01*
X73869846Y-103023486D01*
X73979403Y-103068866D01*
X74095708Y-103092000D01*
X74214292Y-103092000D01*
X74330597Y-103068866D01*
X74440154Y-103023486D01*
X74538753Y-102957604D01*
X74598000Y-102898357D01*
X74598000Y-102973002D01*
X74667248Y-102973002D01*
X74598000Y-103042250D01*
X74596660Y-103100000D01*
X74600895Y-103143000D01*
X73962000Y-103143000D01*
X73813739Y-103191680D01*
X73677824Y-103268349D01*
X73559478Y-103370061D01*
X73463249Y-103492907D01*
X73413893Y-103630631D01*
X73448719Y-103747000D01*
X74512000Y-103747000D01*
X74512000Y-103727000D01*
X74858000Y-103727000D01*
X74858000Y-103747000D01*
X75921281Y-103747000D01*
X75956107Y-103630631D01*
X75906751Y-103492907D01*
X75810522Y-103370061D01*
X75773002Y-103337815D01*
X75773002Y-103307752D01*
X75842250Y-103377000D01*
X76325000Y-103378340D01*
X76379301Y-103372992D01*
X76431516Y-103357153D01*
X76479637Y-103331431D01*
X76521816Y-103296816D01*
X76556431Y-103254637D01*
X76582153Y-103206516D01*
X76597992Y-103154301D01*
X76603340Y-103100000D01*
X76602000Y-103042250D01*
X76532750Y-102973000D01*
X75773000Y-102973000D01*
X75773000Y-102993000D01*
X75427000Y-102993000D01*
X75427000Y-102973000D01*
X75407000Y-102973000D01*
X75407000Y-102677000D01*
X76600000Y-102677000D01*
X76654040Y-102671678D01*
X76706003Y-102655915D01*
X76753893Y-102630317D01*
X76795869Y-102595869D01*
X76830317Y-102553893D01*
X76855915Y-102506003D01*
X76859451Y-102494346D01*
X76900000Y-102498340D01*
X76957750Y-102497000D01*
X77027000Y-102427750D01*
X77027000Y-102143000D01*
X77373000Y-102143000D01*
X77373000Y-102427750D01*
X77442250Y-102497000D01*
X77500000Y-102498340D01*
X77554301Y-102492992D01*
X77606516Y-102477153D01*
X77654637Y-102451431D01*
X77696816Y-102416816D01*
X77731431Y-102374637D01*
X77757153Y-102326516D01*
X77772992Y-102274301D01*
X77778340Y-102220000D01*
X77777000Y-102212250D01*
X77707750Y-102143000D01*
X77373000Y-102143000D01*
X77027000Y-102143000D01*
X77007000Y-102143000D01*
X77007000Y-101797000D01*
X77027000Y-101797000D01*
X77027000Y-101777000D01*
X77373000Y-101777000D01*
X77373000Y-101797000D01*
X77707750Y-101797000D01*
X77777000Y-101727750D01*
X77778340Y-101720000D01*
X77772992Y-101665699D01*
X77757153Y-101613484D01*
X77731431Y-101565363D01*
X77696816Y-101523184D01*
X77668566Y-101500000D01*
X77696816Y-101476816D01*
X77731431Y-101434637D01*
X77757153Y-101386516D01*
X77772992Y-101334301D01*
X77778340Y-101280000D01*
X77778340Y-100929699D01*
X77798000Y-100949359D01*
G36*
X93553184Y-125166816D02*
G01*
X93595363Y-125201431D01*
X93643484Y-125227153D01*
X93695699Y-125242992D01*
X93750000Y-125248340D01*
X94350000Y-125248340D01*
X94404301Y-125242992D01*
X94456516Y-125227153D01*
X94504637Y-125201431D01*
X94546816Y-125166816D01*
X94553000Y-125159280D01*
X94553000Y-125653796D01*
X94525363Y-125668569D01*
X94483184Y-125703184D01*
X94448569Y-125745363D01*
X94422847Y-125793484D01*
X94407008Y-125845699D01*
X94401660Y-125900000D01*
X94401660Y-126500000D01*
X94407008Y-126554301D01*
X94422847Y-126606516D01*
X94448569Y-126654637D01*
X94483184Y-126696816D01*
X94525363Y-126731431D01*
X94573484Y-126757153D01*
X94625699Y-126772992D01*
X94680000Y-126778340D01*
X95180000Y-126778340D01*
X95234301Y-126772992D01*
X95286516Y-126757153D01*
X95334637Y-126731431D01*
X95376816Y-126696816D01*
X95400000Y-126668566D01*
X95423184Y-126696816D01*
X95465363Y-126731431D01*
X95513484Y-126757153D01*
X95565699Y-126772992D01*
X95620000Y-126778340D01*
X96120000Y-126778340D01*
X96174301Y-126772992D01*
X96222037Y-126758512D01*
X96223000Y-126907750D01*
X96292250Y-126977000D01*
X96627000Y-126977000D01*
X96627000Y-126492250D01*
X96973000Y-126492250D01*
X96973000Y-126977000D01*
X97307750Y-126977000D01*
X97377000Y-126907750D01*
X97378340Y-126700000D01*
X97372992Y-126645699D01*
X97357153Y-126593484D01*
X97331431Y-126545363D01*
X97296816Y-126503184D01*
X97254637Y-126468569D01*
X97206516Y-126442847D01*
X97154301Y-126427008D01*
X97100000Y-126421660D01*
X97042250Y-126423000D01*
X96973000Y-126492250D01*
X96627000Y-126492250D01*
X96557750Y-126423000D01*
X96500000Y-126421660D01*
X96445699Y-126427008D01*
X96398340Y-126441374D01*
X96398340Y-126240913D01*
X96403184Y-126246816D01*
X96445363Y-126281431D01*
X96493484Y-126307153D01*
X96545699Y-126322992D01*
X96600000Y-126328340D01*
X97500000Y-126328340D01*
X97554301Y-126322992D01*
X97573001Y-126317320D01*
X97573000Y-127185707D01*
X97573001Y-127185717D01*
X97573000Y-128198867D01*
X97428867Y-128343000D01*
X92527000Y-128343000D01*
X92527000Y-127884292D01*
X92516480Y-127777483D01*
X92474910Y-127640443D01*
X92453293Y-127600000D01*
X96221660Y-127600000D01*
X96227008Y-127654301D01*
X96242847Y-127706516D01*
X96268569Y-127754637D01*
X96303184Y-127796816D01*
X96345363Y-127831431D01*
X96393484Y-127857153D01*
X96445699Y-127872992D01*
X96500000Y-127878340D01*
X96557750Y-127877000D01*
X96627000Y-127807750D01*
X96627000Y-127323000D01*
X96973000Y-127323000D01*
X96973000Y-127807750D01*
X97042250Y-127877000D01*
X97100000Y-127878340D01*
X97154301Y-127872992D01*
X97206516Y-127857153D01*
X97254637Y-127831431D01*
X97296816Y-127796816D01*
X97331431Y-127754637D01*
X97357153Y-127706516D01*
X97372992Y-127654301D01*
X97378340Y-127600000D01*
X97377000Y-127392250D01*
X97307750Y-127323000D01*
X96973000Y-127323000D01*
X96627000Y-127323000D01*
X96292250Y-127323000D01*
X96223000Y-127392250D01*
X96221660Y-127600000D01*
X92453293Y-127600000D01*
X92407403Y-127514147D01*
X92316554Y-127403446D01*
X92316220Y-127403172D01*
X92331431Y-127384637D01*
X92357153Y-127336516D01*
X92372992Y-127284301D01*
X92378340Y-127230000D01*
X92378340Y-127107474D01*
X92397927Y-127042903D01*
X92407000Y-126950784D01*
X92407000Y-126520353D01*
X92415699Y-126522992D01*
X92470000Y-126528340D01*
X92970000Y-126528340D01*
X93024301Y-126522992D01*
X93076516Y-126507153D01*
X93124637Y-126481431D01*
X93166816Y-126446816D01*
X93201431Y-126404637D01*
X93227153Y-126356516D01*
X93242992Y-126304301D01*
X93248340Y-126250000D01*
X93248340Y-125650000D01*
X93242992Y-125595699D01*
X93227153Y-125543484D01*
X93201431Y-125495363D01*
X93187461Y-125478340D01*
X93250000Y-125478340D01*
X93304301Y-125472992D01*
X93356516Y-125457153D01*
X93404637Y-125431431D01*
X93446816Y-125396816D01*
X93481431Y-125354637D01*
X93507153Y-125306516D01*
X93522992Y-125254301D01*
X93528340Y-125200000D01*
X93528340Y-125136543D01*
X93553184Y-125166816D01*
G37*
X93553184Y-125166816D02*
X93595363Y-125201431D01*
X93643484Y-125227153D01*
X93695699Y-125242992D01*
X93750000Y-125248340D01*
X94350000Y-125248340D01*
X94404301Y-125242992D01*
X94456516Y-125227153D01*
X94504637Y-125201431D01*
X94546816Y-125166816D01*
X94553000Y-125159280D01*
X94553000Y-125653796D01*
X94525363Y-125668569D01*
X94483184Y-125703184D01*
X94448569Y-125745363D01*
X94422847Y-125793484D01*
X94407008Y-125845699D01*
X94401660Y-125900000D01*
X94401660Y-126500000D01*
X94407008Y-126554301D01*
X94422847Y-126606516D01*
X94448569Y-126654637D01*
X94483184Y-126696816D01*
X94525363Y-126731431D01*
X94573484Y-126757153D01*
X94625699Y-126772992D01*
X94680000Y-126778340D01*
X95180000Y-126778340D01*
X95234301Y-126772992D01*
X95286516Y-126757153D01*
X95334637Y-126731431D01*
X95376816Y-126696816D01*
X95400000Y-126668566D01*
X95423184Y-126696816D01*
X95465363Y-126731431D01*
X95513484Y-126757153D01*
X95565699Y-126772992D01*
X95620000Y-126778340D01*
X96120000Y-126778340D01*
X96174301Y-126772992D01*
X96222037Y-126758512D01*
X96223000Y-126907750D01*
X96292250Y-126977000D01*
X96627000Y-126977000D01*
X96627000Y-126492250D01*
X96973000Y-126492250D01*
X96973000Y-126977000D01*
X97307750Y-126977000D01*
X97377000Y-126907750D01*
X97378340Y-126700000D01*
X97372992Y-126645699D01*
X97357153Y-126593484D01*
X97331431Y-126545363D01*
X97296816Y-126503184D01*
X97254637Y-126468569D01*
X97206516Y-126442847D01*
X97154301Y-126427008D01*
X97100000Y-126421660D01*
X97042250Y-126423000D01*
X96973000Y-126492250D01*
X96627000Y-126492250D01*
X96557750Y-126423000D01*
X96500000Y-126421660D01*
X96445699Y-126427008D01*
X96398340Y-126441374D01*
X96398340Y-126240913D01*
X96403184Y-126246816D01*
X96445363Y-126281431D01*
X96493484Y-126307153D01*
X96545699Y-126322992D01*
X96600000Y-126328340D01*
X97500000Y-126328340D01*
X97554301Y-126322992D01*
X97573001Y-126317320D01*
X97573000Y-127185707D01*
X97573001Y-127185717D01*
X97573000Y-128198867D01*
X97428867Y-128343000D01*
X92527000Y-128343000D01*
X92527000Y-127884292D01*
X92516480Y-127777483D01*
X92474910Y-127640443D01*
X92453293Y-127600000D01*
X96221660Y-127600000D01*
X96227008Y-127654301D01*
X96242847Y-127706516D01*
X96268569Y-127754637D01*
X96303184Y-127796816D01*
X96345363Y-127831431D01*
X96393484Y-127857153D01*
X96445699Y-127872992D01*
X96500000Y-127878340D01*
X96557750Y-127877000D01*
X96627000Y-127807750D01*
X96627000Y-127323000D01*
X96973000Y-127323000D01*
X96973000Y-127807750D01*
X97042250Y-127877000D01*
X97100000Y-127878340D01*
X97154301Y-127872992D01*
X97206516Y-127857153D01*
X97254637Y-127831431D01*
X97296816Y-127796816D01*
X97331431Y-127754637D01*
X97357153Y-127706516D01*
X97372992Y-127654301D01*
X97378340Y-127600000D01*
X97377000Y-127392250D01*
X97307750Y-127323000D01*
X96973000Y-127323000D01*
X96627000Y-127323000D01*
X96292250Y-127323000D01*
X96223000Y-127392250D01*
X96221660Y-127600000D01*
X92453293Y-127600000D01*
X92407403Y-127514147D01*
X92316554Y-127403446D01*
X92316220Y-127403172D01*
X92331431Y-127384637D01*
X92357153Y-127336516D01*
X92372992Y-127284301D01*
X92378340Y-127230000D01*
X92378340Y-127107474D01*
X92397927Y-127042903D01*
X92407000Y-126950784D01*
X92407000Y-126520353D01*
X92415699Y-126522992D01*
X92470000Y-126528340D01*
X92970000Y-126528340D01*
X93024301Y-126522992D01*
X93076516Y-126507153D01*
X93124637Y-126481431D01*
X93166816Y-126446816D01*
X93201431Y-126404637D01*
X93227153Y-126356516D01*
X93242992Y-126304301D01*
X93248340Y-126250000D01*
X93248340Y-125650000D01*
X93242992Y-125595699D01*
X93227153Y-125543484D01*
X93201431Y-125495363D01*
X93187461Y-125478340D01*
X93250000Y-125478340D01*
X93304301Y-125472992D01*
X93356516Y-125457153D01*
X93404637Y-125431431D01*
X93446816Y-125396816D01*
X93481431Y-125354637D01*
X93507153Y-125306516D01*
X93522992Y-125254301D01*
X93528340Y-125200000D01*
X93528340Y-125136543D01*
X93553184Y-125166816D01*
G36*
X95406719Y-120718954D02*
G01*
X96027531Y-120828420D01*
X95821105Y-120871492D01*
X95627266Y-120951784D01*
X95519566Y-121099908D01*
X96175000Y-121755341D01*
X96830434Y-121099908D01*
X96722734Y-120951784D01*
X96719293Y-120950396D01*
X97229973Y-121040443D01*
X99074309Y-121201801D01*
X99335992Y-121201801D01*
X99142481Y-121281956D01*
X98949706Y-121410764D01*
X98785764Y-121574706D01*
X98656956Y-121767481D01*
X98568231Y-121981682D01*
X98523000Y-122209076D01*
X98523000Y-122440924D01*
X98553081Y-122592154D01*
X98526148Y-122624972D01*
X98478283Y-122714521D01*
X98467926Y-122733897D01*
X98432073Y-122852088D01*
X98419967Y-122975000D01*
X98423001Y-123005804D01*
X98423000Y-124086921D01*
X98403184Y-124103184D01*
X98368569Y-124145363D01*
X98342847Y-124193484D01*
X98327008Y-124245699D01*
X98321660Y-124300000D01*
X98321660Y-124355657D01*
X97778340Y-123812337D01*
X97778340Y-123350000D01*
X97772992Y-123295699D01*
X97757153Y-123243484D01*
X97731431Y-123195363D01*
X97696816Y-123153184D01*
X97654637Y-123118569D01*
X97606516Y-123092847D01*
X97554301Y-123077008D01*
X97500000Y-123071660D01*
X96666136Y-123071660D01*
X96722734Y-123048216D01*
X96830434Y-122900092D01*
X96175000Y-122244659D01*
X95519566Y-122900092D01*
X95627266Y-123048216D01*
X95842287Y-123134933D01*
X96070095Y-123178034D01*
X96120873Y-123177559D01*
X96029972Y-123226147D01*
X95934499Y-123304499D01*
X95914866Y-123328422D01*
X95482180Y-123761109D01*
X95443484Y-123772847D01*
X95395363Y-123798569D01*
X95353184Y-123833184D01*
X95318569Y-123875363D01*
X95307000Y-123897006D01*
X95307000Y-123098508D01*
X95308823Y-123079999D01*
X95307000Y-123061490D01*
X95307000Y-123061481D01*
X95306730Y-123058735D01*
X95327000Y-122956830D01*
X95327000Y-122843170D01*
X95304826Y-122731695D01*
X95272518Y-122653696D01*
X95274908Y-122655434D01*
X95930341Y-122000000D01*
X96419659Y-122000000D01*
X97075092Y-122655434D01*
X97223216Y-122547734D01*
X97309933Y-122332713D01*
X97353034Y-122104905D01*
X97350865Y-121873066D01*
X97303508Y-121646105D01*
X97223216Y-121452266D01*
X97075092Y-121344566D01*
X96419659Y-122000000D01*
X95930341Y-122000000D01*
X95274908Y-121344566D01*
X95177000Y-121415754D01*
X95177000Y-121384076D01*
X95131769Y-121156682D01*
X95043044Y-120942481D01*
X94914236Y-120749706D01*
X94750294Y-120585764D01*
X94643608Y-120514479D01*
X95406719Y-120718954D01*
G37*
X95406719Y-120718954D02*
X96027531Y-120828420D01*
X95821105Y-120871492D01*
X95627266Y-120951784D01*
X95519566Y-121099908D01*
X96175000Y-121755341D01*
X96830434Y-121099908D01*
X96722734Y-120951784D01*
X96719293Y-120950396D01*
X97229973Y-121040443D01*
X99074309Y-121201801D01*
X99335992Y-121201801D01*
X99142481Y-121281956D01*
X98949706Y-121410764D01*
X98785764Y-121574706D01*
X98656956Y-121767481D01*
X98568231Y-121981682D01*
X98523000Y-122209076D01*
X98523000Y-122440924D01*
X98553081Y-122592154D01*
X98526148Y-122624972D01*
X98478283Y-122714521D01*
X98467926Y-122733897D01*
X98432073Y-122852088D01*
X98419967Y-122975000D01*
X98423001Y-123005804D01*
X98423000Y-124086921D01*
X98403184Y-124103184D01*
X98368569Y-124145363D01*
X98342847Y-124193484D01*
X98327008Y-124245699D01*
X98321660Y-124300000D01*
X98321660Y-124355657D01*
X97778340Y-123812337D01*
X97778340Y-123350000D01*
X97772992Y-123295699D01*
X97757153Y-123243484D01*
X97731431Y-123195363D01*
X97696816Y-123153184D01*
X97654637Y-123118569D01*
X97606516Y-123092847D01*
X97554301Y-123077008D01*
X97500000Y-123071660D01*
X96666136Y-123071660D01*
X96722734Y-123048216D01*
X96830434Y-122900092D01*
X96175000Y-122244659D01*
X95519566Y-122900092D01*
X95627266Y-123048216D01*
X95842287Y-123134933D01*
X96070095Y-123178034D01*
X96120873Y-123177559D01*
X96029972Y-123226147D01*
X95934499Y-123304499D01*
X95914866Y-123328422D01*
X95482180Y-123761109D01*
X95443484Y-123772847D01*
X95395363Y-123798569D01*
X95353184Y-123833184D01*
X95318569Y-123875363D01*
X95307000Y-123897006D01*
X95307000Y-123098508D01*
X95308823Y-123079999D01*
X95307000Y-123061490D01*
X95307000Y-123061481D01*
X95306730Y-123058735D01*
X95327000Y-122956830D01*
X95327000Y-122843170D01*
X95304826Y-122731695D01*
X95272518Y-122653696D01*
X95274908Y-122655434D01*
X95930341Y-122000000D01*
X96419659Y-122000000D01*
X97075092Y-122655434D01*
X97223216Y-122547734D01*
X97309933Y-122332713D01*
X97353034Y-122104905D01*
X97350865Y-121873066D01*
X97303508Y-121646105D01*
X97223216Y-121452266D01*
X97075092Y-121344566D01*
X96419659Y-122000000D01*
X95930341Y-122000000D01*
X95274908Y-121344566D01*
X95177000Y-121415754D01*
X95177000Y-121384076D01*
X95131769Y-121156682D01*
X95043044Y-120942481D01*
X94914236Y-120749706D01*
X94750294Y-120585764D01*
X94643608Y-120514479D01*
X95406719Y-120718954D01*
G36*
X85714084Y-122122978D02*
G01*
X84571501Y-122122978D01*
X84552982Y-122121154D01*
X84479076Y-122128433D01*
X84444591Y-122138894D01*
X84408012Y-122149990D01*
X84381639Y-122164087D01*
X84376138Y-122160324D01*
X84332221Y-122141569D01*
X84306124Y-122101574D01*
X84267964Y-122062573D01*
X83923244Y-121773319D01*
X83878209Y-121742512D01*
X83834292Y-121723757D01*
X83808195Y-121683762D01*
X83770036Y-121644761D01*
X83763237Y-121640806D01*
X83700899Y-121646260D01*
X83729341Y-121612364D01*
X83713299Y-121598904D01*
X83741745Y-121583699D01*
X83799151Y-121536587D01*
X83810959Y-121522199D01*
X83856158Y-121477000D01*
X85068106Y-121477000D01*
X85714084Y-122122978D01*
G37*
X85714084Y-122122978D02*
X84571501Y-122122978D01*
X84552982Y-122121154D01*
X84479076Y-122128433D01*
X84444591Y-122138894D01*
X84408012Y-122149990D01*
X84381639Y-122164087D01*
X84376138Y-122160324D01*
X84332221Y-122141569D01*
X84306124Y-122101574D01*
X84267964Y-122062573D01*
X83923244Y-121773319D01*
X83878209Y-121742512D01*
X83834292Y-121723757D01*
X83808195Y-121683762D01*
X83770036Y-121644761D01*
X83763237Y-121640806D01*
X83700899Y-121646260D01*
X83729341Y-121612364D01*
X83713299Y-121598904D01*
X83741745Y-121583699D01*
X83799151Y-121536587D01*
X83810959Y-121522199D01*
X83856158Y-121477000D01*
X85068106Y-121477000D01*
X85714084Y-122122978D01*
G36*
X80625021Y-114120111D02*
G01*
X80625021Y-114271991D01*
X80654651Y-114420952D01*
X80712773Y-114561271D01*
X80797153Y-114687554D01*
X80904548Y-114794949D01*
X81030831Y-114879329D01*
X81171150Y-114937451D01*
X81320111Y-114967081D01*
X81371938Y-114967081D01*
X81345174Y-115031695D01*
X81323000Y-115143170D01*
X81323000Y-115256830D01*
X81345174Y-115368305D01*
X81388669Y-115473312D01*
X81451815Y-115567816D01*
X81532184Y-115648185D01*
X81623001Y-115708867D01*
X81623000Y-118486615D01*
X80878961Y-119230654D01*
X80840456Y-119214210D01*
X80787060Y-119202982D01*
X80732499Y-119202387D01*
X80678870Y-119212448D01*
X80628235Y-119232777D01*
X80582538Y-119262595D01*
X80543537Y-119300754D01*
X79627000Y-120393040D01*
X79627000Y-115762836D01*
X79638376Y-115756755D01*
X79703395Y-115703395D01*
X79716768Y-115687100D01*
X80336119Y-115067750D01*
X80352408Y-115054382D01*
X80365777Y-115038092D01*
X80365781Y-115038088D01*
X80405768Y-114989364D01*
X80432187Y-114939936D01*
X80445418Y-114915183D01*
X80469835Y-114834694D01*
X80476013Y-114771965D01*
X80476013Y-114771954D01*
X80478078Y-114750987D01*
X80476013Y-114730020D01*
X80476013Y-114266755D01*
X80568993Y-114173775D01*
X80633571Y-114077127D01*
X80625021Y-114120111D01*
G37*
X80625021Y-114120111D02*
X80625021Y-114271991D01*
X80654651Y-114420952D01*
X80712773Y-114561271D01*
X80797153Y-114687554D01*
X80904548Y-114794949D01*
X81030831Y-114879329D01*
X81171150Y-114937451D01*
X81320111Y-114967081D01*
X81371938Y-114967081D01*
X81345174Y-115031695D01*
X81323000Y-115143170D01*
X81323000Y-115256830D01*
X81345174Y-115368305D01*
X81388669Y-115473312D01*
X81451815Y-115567816D01*
X81532184Y-115648185D01*
X81623001Y-115708867D01*
X81623000Y-118486615D01*
X80878961Y-119230654D01*
X80840456Y-119214210D01*
X80787060Y-119202982D01*
X80732499Y-119202387D01*
X80678870Y-119212448D01*
X80628235Y-119232777D01*
X80582538Y-119262595D01*
X80543537Y-119300754D01*
X79627000Y-120393040D01*
X79627000Y-115762836D01*
X79638376Y-115756755D01*
X79703395Y-115703395D01*
X79716768Y-115687100D01*
X80336119Y-115067750D01*
X80352408Y-115054382D01*
X80365777Y-115038092D01*
X80365781Y-115038088D01*
X80405768Y-114989364D01*
X80432187Y-114939936D01*
X80445418Y-114915183D01*
X80469835Y-114834694D01*
X80476013Y-114771965D01*
X80476013Y-114771954D01*
X80478078Y-114750987D01*
X80476013Y-114730020D01*
X80476013Y-114266755D01*
X80568993Y-114173775D01*
X80633571Y-114077127D01*
X80625021Y-114120111D01*
G36*
X86272614Y-118662305D02*
G01*
X86317649Y-118693112D01*
X86361566Y-118711867D01*
X86387663Y-118751862D01*
X86425823Y-118790863D01*
X86738966Y-119053621D01*
X86191659Y-119600928D01*
X86173312Y-119588669D01*
X86068305Y-119545174D01*
X85956830Y-119523000D01*
X85843170Y-119523000D01*
X85731695Y-119545174D01*
X85677000Y-119567829D01*
X85677000Y-119156158D01*
X86060284Y-118772875D01*
X86074666Y-118761072D01*
X86121778Y-118703666D01*
X86156785Y-118638173D01*
X86174451Y-118579936D01*
X86272614Y-118662305D01*
G37*
X86272614Y-118662305D02*
X86317649Y-118693112D01*
X86361566Y-118711867D01*
X86387663Y-118751862D01*
X86425823Y-118790863D01*
X86738966Y-119053621D01*
X86191659Y-119600928D01*
X86173312Y-119588669D01*
X86068305Y-119545174D01*
X85956830Y-119523000D01*
X85843170Y-119523000D01*
X85731695Y-119545174D01*
X85677000Y-119567829D01*
X85677000Y-119156158D01*
X86060284Y-118772875D01*
X86074666Y-118761072D01*
X86121778Y-118703666D01*
X86156785Y-118638173D01*
X86174451Y-118579936D01*
X86272614Y-118662305D01*
G36*
X102246019Y-67880433D02*
G01*
X104481096Y-68115349D01*
X106694341Y-68505604D01*
X108874972Y-69049296D01*
X111012365Y-69743777D01*
X113096106Y-70585663D01*
X115116045Y-71570853D01*
X117062340Y-72694547D01*
X118925510Y-73951271D01*
X120696475Y-75334901D01*
X122366610Y-76838697D01*
X123927777Y-78455333D01*
X125372370Y-80176932D01*
X126693352Y-81995107D01*
X127884286Y-83901000D01*
X128939371Y-85885326D01*
X129853466Y-87938417D01*
X130622118Y-90050271D01*
X131241582Y-92210599D01*
X131708840Y-94408876D01*
X132021616Y-96634393D01*
X132178386Y-98876306D01*
X132178386Y-99823000D01*
X131135330Y-99823000D01*
X131107459Y-99682885D01*
X130993202Y-99407043D01*
X130827327Y-99158793D01*
X130616207Y-98947673D01*
X130367957Y-98781798D01*
X130092115Y-98667541D01*
X129799284Y-98609293D01*
X129500716Y-98609293D01*
X129207885Y-98667541D01*
X128932043Y-98781798D01*
X128683793Y-98947673D01*
X128472673Y-99158793D01*
X128306798Y-99407043D01*
X128192541Y-99682885D01*
X128164670Y-99823000D01*
X121201801Y-99823000D01*
X121201801Y-99074309D01*
X121040443Y-97229973D01*
X120718954Y-95406719D01*
X120239781Y-93618422D01*
X119606571Y-91878692D01*
X118824144Y-90200771D01*
X117898453Y-88597428D01*
X116836545Y-87080865D01*
X115646500Y-85662625D01*
X114337375Y-84353500D01*
X112919135Y-83163455D01*
X111427702Y-82119143D01*
X121938730Y-82119143D01*
X121938730Y-82480857D01*
X122009297Y-82835620D01*
X122147719Y-83169800D01*
X122348676Y-83470554D01*
X122604446Y-83726324D01*
X122905200Y-83927281D01*
X123239380Y-84065703D01*
X123594143Y-84136270D01*
X123955857Y-84136270D01*
X124310620Y-84065703D01*
X124644800Y-83927281D01*
X124945554Y-83726324D01*
X125201324Y-83470554D01*
X125402281Y-83169800D01*
X125540703Y-82835620D01*
X125611270Y-82480857D01*
X125611270Y-82119143D01*
X125540703Y-81764380D01*
X125402281Y-81430200D01*
X125201324Y-81129446D01*
X124945554Y-80873676D01*
X124644800Y-80672719D01*
X124310620Y-80534297D01*
X123955857Y-80463730D01*
X123594143Y-80463730D01*
X123239380Y-80534297D01*
X122905200Y-80672719D01*
X122604446Y-80873676D01*
X122348676Y-81129446D01*
X122147719Y-81430200D01*
X122009297Y-81764380D01*
X121938730Y-82119143D01*
X111427702Y-82119143D01*
X111402572Y-82101547D01*
X109799229Y-81175856D01*
X108121308Y-80393429D01*
X106381578Y-79760219D01*
X104593281Y-79281046D01*
X102770027Y-78959557D01*
X100925691Y-78798199D01*
X99074309Y-78798199D01*
X97229973Y-78959557D01*
X95406719Y-79281046D01*
X93618422Y-79760219D01*
X91878692Y-80393429D01*
X90200771Y-81175856D01*
X88597428Y-82101547D01*
X87080865Y-83163455D01*
X85662625Y-84353500D01*
X84353500Y-85662625D01*
X83163455Y-87080865D01*
X82101547Y-88597428D01*
X81175856Y-90200771D01*
X80393429Y-91878692D01*
X79760219Y-93618422D01*
X79281046Y-95406719D01*
X78959557Y-97229973D01*
X78798199Y-99074309D01*
X78798199Y-100246841D01*
X78172874Y-99621516D01*
X78161069Y-99607131D01*
X78103663Y-99560019D01*
X78038170Y-99525012D01*
X77967105Y-99503455D01*
X77911719Y-99498000D01*
X77911712Y-99498000D01*
X77893200Y-99496177D01*
X77874688Y-99498000D01*
X77002001Y-99498000D01*
X77002001Y-98968520D01*
X77003825Y-98950001D01*
X76996546Y-98876095D01*
X76974989Y-98805032D01*
X76974989Y-98805031D01*
X76939982Y-98739538D01*
X76892870Y-98682132D01*
X76878482Y-98670324D01*
X76877000Y-98668842D01*
X76877000Y-98396075D01*
X76900000Y-98398340D01*
X77500000Y-98398340D01*
X77554301Y-98392992D01*
X77606516Y-98377153D01*
X77654637Y-98351431D01*
X77696816Y-98316816D01*
X77731431Y-98274637D01*
X77757153Y-98226516D01*
X77772992Y-98174301D01*
X77778340Y-98120000D01*
X77778340Y-97620000D01*
X77772992Y-97565699D01*
X77757153Y-97513484D01*
X77731431Y-97465363D01*
X77696816Y-97423184D01*
X77668566Y-97400000D01*
X77696816Y-97376816D01*
X77731431Y-97334637D01*
X77757153Y-97286516D01*
X77772992Y-97234301D01*
X77778340Y-97180000D01*
X77777000Y-97172250D01*
X77707750Y-97103000D01*
X77373000Y-97103000D01*
X77373000Y-97123000D01*
X77027000Y-97123000D01*
X77027000Y-97103000D01*
X77007000Y-97103000D01*
X77007000Y-96757000D01*
X77027000Y-96757000D01*
X77027000Y-96472250D01*
X77373000Y-96472250D01*
X77373000Y-96757000D01*
X77707750Y-96757000D01*
X77777000Y-96687750D01*
X77778340Y-96680000D01*
X77772992Y-96625699D01*
X77757153Y-96573484D01*
X77731431Y-96525363D01*
X77696816Y-96483184D01*
X77654637Y-96448569D01*
X77606516Y-96422847D01*
X77554301Y-96407008D01*
X77500000Y-96401660D01*
X77442250Y-96403000D01*
X77373000Y-96472250D01*
X77027000Y-96472250D01*
X76957750Y-96403000D01*
X76900000Y-96401660D01*
X76845699Y-96407008D01*
X76793484Y-96422847D01*
X76745363Y-96448569D01*
X76703184Y-96483184D01*
X76668569Y-96525363D01*
X76665181Y-96531702D01*
X76654040Y-96528322D01*
X76600000Y-96523000D01*
X75407000Y-96523000D01*
X75407000Y-96227000D01*
X75427000Y-96227000D01*
X75427000Y-96207000D01*
X75773000Y-96207000D01*
X75773000Y-96227000D01*
X76532750Y-96227000D01*
X76602000Y-96157750D01*
X76603340Y-96100000D01*
X76597992Y-96045699D01*
X76582153Y-95993484D01*
X76556431Y-95945363D01*
X76521816Y-95903184D01*
X76479637Y-95868569D01*
X76431516Y-95842847D01*
X76379301Y-95827008D01*
X76325000Y-95821660D01*
X75842250Y-95823000D01*
X75773002Y-95892248D01*
X75773002Y-95862185D01*
X75810522Y-95829939D01*
X75906751Y-95707093D01*
X75956107Y-95569369D01*
X75921281Y-95453000D01*
X74858000Y-95453000D01*
X74858000Y-95473000D01*
X74512000Y-95473000D01*
X74512000Y-95453000D01*
X73448719Y-95453000D01*
X73413893Y-95569369D01*
X73463249Y-95707093D01*
X73559478Y-95829939D01*
X73677824Y-95931651D01*
X73813739Y-96008320D01*
X73962000Y-96057000D01*
X74600895Y-96057000D01*
X74596660Y-96100000D01*
X74598000Y-96157750D01*
X74667248Y-96226998D01*
X74598000Y-96226998D01*
X74598000Y-96301643D01*
X74538753Y-96242396D01*
X74440154Y-96176514D01*
X74330597Y-96131134D01*
X74214292Y-96108000D01*
X74095708Y-96108000D01*
X73979403Y-96131134D01*
X73869846Y-96176514D01*
X73771247Y-96242396D01*
X73687396Y-96326247D01*
X73621514Y-96424846D01*
X73580857Y-96523000D01*
X73227000Y-96523000D01*
X73227000Y-94990631D01*
X73413893Y-94990631D01*
X73448719Y-95107000D01*
X74512000Y-95107000D01*
X74512000Y-94503000D01*
X74858000Y-94503000D01*
X74858000Y-95107000D01*
X75921281Y-95107000D01*
X75956107Y-94990631D01*
X75906751Y-94852907D01*
X75810522Y-94730061D01*
X75692176Y-94628349D01*
X75556261Y-94551680D01*
X75408000Y-94503000D01*
X74858000Y-94503000D01*
X74512000Y-94503000D01*
X73962000Y-94503000D01*
X73813739Y-94551680D01*
X73677824Y-94628349D01*
X73559478Y-94730061D01*
X73463249Y-94852907D01*
X73413893Y-94990631D01*
X73227000Y-94990631D01*
X73227000Y-93957905D01*
X74709409Y-93957905D01*
X74734757Y-94052503D01*
X75823330Y-94682538D01*
X75873030Y-94705057D01*
X75926169Y-94717448D01*
X75980704Y-94719232D01*
X76034540Y-94710344D01*
X76085607Y-94691124D01*
X76131943Y-94662311D01*
X76171768Y-94625011D01*
X76203550Y-94580659D01*
X76606264Y-93880457D01*
X76580917Y-93785859D01*
X75251784Y-93018484D01*
X74709409Y-93957905D01*
X73227000Y-93957905D01*
X73227000Y-93183544D01*
X74315167Y-93810253D01*
X74409765Y-93784905D01*
X74952140Y-92845484D01*
X74732787Y-92718840D01*
X75424784Y-92718840D01*
X76753917Y-93486215D01*
X76848514Y-93460867D01*
X77253550Y-92762005D01*
X77276069Y-92712305D01*
X77288459Y-92659166D01*
X77290244Y-92604631D01*
X77283144Y-92561625D01*
X78690979Y-92561625D01*
X78716327Y-92656222D01*
X79068779Y-92861258D01*
X79118479Y-92883777D01*
X79171618Y-92896167D01*
X79226153Y-92897952D01*
X79279988Y-92889064D01*
X79331055Y-92869843D01*
X79377392Y-92841030D01*
X79417216Y-92803730D01*
X79448998Y-92759378D01*
X79526713Y-92622093D01*
X79501365Y-92527495D01*
X78908354Y-92185120D01*
X78690979Y-92561625D01*
X77283144Y-92561625D01*
X77281356Y-92550796D01*
X77262135Y-92499729D01*
X77233322Y-92453392D01*
X77196022Y-92413568D01*
X77151670Y-92381786D01*
X76468648Y-91988412D01*
X77804372Y-91988412D01*
X77813260Y-92042248D01*
X77832480Y-92093315D01*
X77861293Y-92139651D01*
X77898593Y-92179476D01*
X77942945Y-92211258D01*
X78296737Y-92413972D01*
X78391335Y-92388625D01*
X78608710Y-92012120D01*
X78015699Y-91669745D01*
X77921101Y-91695093D01*
X77841066Y-91831038D01*
X77818547Y-91880738D01*
X77806156Y-91933877D01*
X77804372Y-91988412D01*
X76468648Y-91988412D01*
X76061757Y-91754071D01*
X75967159Y-91779419D01*
X75424784Y-92718840D01*
X74732787Y-92718840D01*
X73623007Y-92078109D01*
X73528410Y-92103457D01*
X73227000Y-92623519D01*
X73227000Y-92201132D01*
X73806390Y-91621743D01*
X73770660Y-91683867D01*
X73796007Y-91778465D01*
X75125140Y-92545840D01*
X75667515Y-91606419D01*
X75642167Y-91511821D01*
X74960746Y-91117434D01*
X78255960Y-91117434D01*
X78241066Y-91138218D01*
X78163351Y-91275503D01*
X78188699Y-91370101D01*
X78781710Y-91712476D01*
X78791710Y-91695155D01*
X79091354Y-91868155D01*
X79081354Y-91885476D01*
X79674365Y-92227851D01*
X79768963Y-92202503D01*
X79848998Y-92066558D01*
X79871517Y-92016858D01*
X79883908Y-91963719D01*
X79885692Y-91909184D01*
X79876804Y-91855348D01*
X79857584Y-91804281D01*
X79828771Y-91757945D01*
X79810609Y-91738554D01*
X79883546Y-91726512D01*
X79971307Y-91693481D01*
X80050938Y-91643964D01*
X80119378Y-91579863D01*
X80173998Y-91503641D01*
X80373998Y-91157231D01*
X80412697Y-91071819D01*
X80433991Y-90980497D01*
X80437059Y-90886776D01*
X80421784Y-90794258D01*
X80388753Y-90706497D01*
X80358199Y-90657362D01*
X80416028Y-90659255D01*
X80508546Y-90643980D01*
X80596307Y-90610949D01*
X80675938Y-90561432D01*
X80744378Y-90497331D01*
X80798998Y-90421109D01*
X80998998Y-90074699D01*
X81037697Y-89989287D01*
X81058991Y-89897965D01*
X81062059Y-89804244D01*
X81046784Y-89711726D01*
X81013753Y-89623965D01*
X80983199Y-89574830D01*
X81041028Y-89576723D01*
X81133546Y-89561448D01*
X81221307Y-89528417D01*
X81300938Y-89478900D01*
X81369378Y-89414799D01*
X81423998Y-89338577D01*
X81623998Y-88992167D01*
X81662697Y-88906755D01*
X81683991Y-88815433D01*
X81687059Y-88721712D01*
X81671784Y-88629194D01*
X81638753Y-88541433D01*
X81589236Y-88461802D01*
X81525135Y-88393362D01*
X81448913Y-88338743D01*
X80669491Y-87888743D01*
X80584078Y-87850042D01*
X80492757Y-87828749D01*
X80399036Y-87825681D01*
X80306518Y-87840956D01*
X80229284Y-87870025D01*
X80211333Y-87826688D01*
X80148187Y-87732184D01*
X80067818Y-87651815D01*
X79973314Y-87588669D01*
X79868307Y-87545174D01*
X79756832Y-87523000D01*
X79643172Y-87523000D01*
X79531697Y-87545174D01*
X79426690Y-87588669D01*
X79332186Y-87651815D01*
X79251817Y-87732184D01*
X79188671Y-87826688D01*
X79145176Y-87931695D01*
X79123002Y-88043170D01*
X79123002Y-88156830D01*
X79145176Y-88268305D01*
X79188671Y-88373312D01*
X79251817Y-88467816D01*
X79332186Y-88548185D01*
X79426690Y-88611331D01*
X79531697Y-88654826D01*
X79643172Y-88677000D01*
X79743843Y-88677000D01*
X79754087Y-88687243D01*
X79768280Y-88773210D01*
X79801311Y-88860971D01*
X79831865Y-88910106D01*
X79774036Y-88908213D01*
X79681518Y-88923488D01*
X79619652Y-88946773D01*
X79611333Y-88926688D01*
X79548187Y-88832184D01*
X79467818Y-88751815D01*
X79373314Y-88688669D01*
X79268307Y-88645174D01*
X79156832Y-88623000D01*
X79043172Y-88623000D01*
X78931697Y-88645174D01*
X78826690Y-88688669D01*
X78732186Y-88751815D01*
X78651817Y-88832184D01*
X78588671Y-88926688D01*
X78545176Y-89031695D01*
X78523002Y-89143170D01*
X78523002Y-89256830D01*
X78545176Y-89368305D01*
X78588671Y-89473312D01*
X78651817Y-89567816D01*
X78732186Y-89648185D01*
X78755008Y-89663434D01*
X74045274Y-89663434D01*
X74009566Y-89659917D01*
X73867048Y-89673954D01*
X73730009Y-89715524D01*
X73603713Y-89783031D01*
X73493012Y-89873880D01*
X73470249Y-89901617D01*
X72011189Y-91360679D01*
X71983446Y-91383447D01*
X71901234Y-91483624D01*
X71892598Y-91494147D01*
X71825090Y-91620444D01*
X71783520Y-91757483D01*
X71769483Y-91900000D01*
X71773000Y-91935708D01*
X71773000Y-96642065D01*
X71769683Y-96646107D01*
X71744085Y-96693997D01*
X71728322Y-96745960D01*
X71723000Y-96800000D01*
X71723000Y-102400000D01*
X71728322Y-102454040D01*
X71744085Y-102506003D01*
X71769683Y-102553893D01*
X71773000Y-102557935D01*
X71773001Y-107898866D01*
X70811189Y-108860679D01*
X70783446Y-108883447D01*
X70692597Y-108994148D01*
X70639653Y-109093198D01*
X70625090Y-109120444D01*
X70583520Y-109257483D01*
X70569483Y-109400000D01*
X70573000Y-109435708D01*
X70573001Y-113019443D01*
X70146534Y-112061583D01*
X69377882Y-109949729D01*
X68758418Y-107789401D01*
X68291160Y-105591124D01*
X68096968Y-104209369D01*
X69483893Y-104209369D01*
X69539825Y-104366495D01*
X69639713Y-104487685D01*
X69761325Y-104587059D01*
X69899987Y-104660798D01*
X70050370Y-104706069D01*
X70206696Y-104721132D01*
X70332000Y-104641753D01*
X70332000Y-104093000D01*
X70678000Y-104093000D01*
X70678000Y-104641753D01*
X70803304Y-104721132D01*
X70959630Y-104706069D01*
X71110013Y-104660798D01*
X71248675Y-104587059D01*
X71370287Y-104487685D01*
X71470175Y-104366495D01*
X71526107Y-104209369D01*
X71491281Y-104093000D01*
X70678000Y-104093000D01*
X70332000Y-104093000D01*
X69518719Y-104093000D01*
X69483893Y-104209369D01*
X68096968Y-104209369D01*
X68015632Y-103630631D01*
X69483893Y-103630631D01*
X69518719Y-103747000D01*
X70332000Y-103747000D01*
X70332000Y-103198247D01*
X70678000Y-103198247D01*
X70678000Y-103747000D01*
X71491281Y-103747000D01*
X71526107Y-103630631D01*
X71470175Y-103473505D01*
X71370287Y-103352315D01*
X71248675Y-103252941D01*
X71110013Y-103179202D01*
X70959630Y-103133931D01*
X70803304Y-103118868D01*
X70678000Y-103198247D01*
X70332000Y-103198247D01*
X70206696Y-103118868D01*
X70050370Y-103133931D01*
X69899987Y-103179202D01*
X69761325Y-103252941D01*
X69639713Y-103352315D01*
X69539825Y-103473505D01*
X69483893Y-103630631D01*
X68015632Y-103630631D01*
X67978384Y-103365607D01*
X67821614Y-101123694D01*
X67821614Y-98876306D01*
X67978384Y-96634393D01*
X68128063Y-95569369D01*
X69483893Y-95569369D01*
X69539825Y-95726495D01*
X69639713Y-95847685D01*
X69761325Y-95947059D01*
X69899987Y-96020798D01*
X70050370Y-96066069D01*
X70206696Y-96081132D01*
X70332000Y-96001753D01*
X70332000Y-95453000D01*
X70678000Y-95453000D01*
X70678000Y-96001753D01*
X70803304Y-96081132D01*
X70959630Y-96066069D01*
X71110013Y-96020798D01*
X71248675Y-95947059D01*
X71370287Y-95847685D01*
X71470175Y-95726495D01*
X71526107Y-95569369D01*
X71491281Y-95453000D01*
X70678000Y-95453000D01*
X70332000Y-95453000D01*
X69518719Y-95453000D01*
X69483893Y-95569369D01*
X68128063Y-95569369D01*
X68209399Y-94990631D01*
X69483893Y-94990631D01*
X69518719Y-95107000D01*
X70332000Y-95107000D01*
X70332000Y-94558247D01*
X70678000Y-94558247D01*
X70678000Y-95107000D01*
X71491281Y-95107000D01*
X71526107Y-94990631D01*
X71470175Y-94833505D01*
X71370287Y-94712315D01*
X71248675Y-94612941D01*
X71110013Y-94539202D01*
X70959630Y-94493931D01*
X70803304Y-94478868D01*
X70678000Y-94558247D01*
X70332000Y-94558247D01*
X70206696Y-94478868D01*
X70050370Y-94493931D01*
X69899987Y-94539202D01*
X69761325Y-94612941D01*
X69639713Y-94712315D01*
X69539825Y-94833505D01*
X69483893Y-94990631D01*
X68209399Y-94990631D01*
X68291160Y-94408876D01*
X68758418Y-92210599D01*
X69377882Y-90050271D01*
X70146534Y-87938417D01*
X70878862Y-86293581D01*
X79134409Y-86293581D01*
X79159757Y-86388179D01*
X80248330Y-87018214D01*
X80298030Y-87040733D01*
X80351169Y-87053124D01*
X80405704Y-87054908D01*
X80459540Y-87046020D01*
X80510607Y-87026800D01*
X80556943Y-86997987D01*
X80596768Y-86960687D01*
X80628550Y-86916335D01*
X81031264Y-86216133D01*
X81005917Y-86121535D01*
X79676784Y-85354160D01*
X79134409Y-86293581D01*
X70878862Y-86293581D01*
X71060629Y-85885326D01*
X71374314Y-85295369D01*
X77511680Y-85295369D01*
X77520568Y-85349204D01*
X77539789Y-85400271D01*
X77568602Y-85446608D01*
X77605902Y-85486432D01*
X77650254Y-85518214D01*
X78740167Y-86145929D01*
X78834765Y-86120581D01*
X79377140Y-85181160D01*
X79157787Y-85054516D01*
X79849784Y-85054516D01*
X81178917Y-85821891D01*
X81273514Y-85796543D01*
X81678550Y-85097681D01*
X81701069Y-85047981D01*
X81713459Y-84994842D01*
X81715244Y-84940307D01*
X81706356Y-84886472D01*
X81687135Y-84835405D01*
X81658322Y-84789068D01*
X81621022Y-84749244D01*
X81576670Y-84717462D01*
X80486757Y-84089747D01*
X80392159Y-84115095D01*
X79849784Y-85054516D01*
X79157787Y-85054516D01*
X78048007Y-84413785D01*
X77953410Y-84439133D01*
X77548374Y-85137995D01*
X77525855Y-85187695D01*
X77513465Y-85240834D01*
X77511680Y-85295369D01*
X71374314Y-85295369D01*
X72052683Y-84019543D01*
X78195660Y-84019543D01*
X78221007Y-84114141D01*
X79550140Y-84881516D01*
X80092515Y-83942095D01*
X80067167Y-83847497D01*
X78978594Y-83217462D01*
X78928894Y-83194943D01*
X78875755Y-83182552D01*
X78821220Y-83180768D01*
X78767384Y-83189656D01*
X78716317Y-83208876D01*
X78669981Y-83237689D01*
X78630156Y-83274989D01*
X78598374Y-83319341D01*
X78195660Y-84019543D01*
X72052683Y-84019543D01*
X72115714Y-83901000D01*
X73306648Y-81995107D01*
X73343675Y-81944143D01*
X74638730Y-81944143D01*
X74638730Y-82305857D01*
X74709297Y-82660620D01*
X74847719Y-82994800D01*
X75048676Y-83295554D01*
X75304446Y-83551324D01*
X75605200Y-83752281D01*
X75939380Y-83890703D01*
X76294143Y-83961270D01*
X76655857Y-83961270D01*
X77010620Y-83890703D01*
X77344800Y-83752281D01*
X77645554Y-83551324D01*
X77901324Y-83295554D01*
X78102281Y-82994800D01*
X78240703Y-82660620D01*
X78311270Y-82305857D01*
X78311270Y-81944143D01*
X78240703Y-81589380D01*
X78102281Y-81255200D01*
X77901324Y-80954446D01*
X77645554Y-80698676D01*
X77344800Y-80497719D01*
X77010620Y-80359297D01*
X76655857Y-80288730D01*
X76294143Y-80288730D01*
X75939380Y-80359297D01*
X75605200Y-80497719D01*
X75304446Y-80698676D01*
X75048676Y-80954446D01*
X74847719Y-81255200D01*
X74709297Y-81589380D01*
X74638730Y-81944143D01*
X73343675Y-81944143D01*
X74627630Y-80176932D01*
X76072223Y-78455333D01*
X77633390Y-76838697D01*
X79303525Y-75334901D01*
X81074490Y-73951271D01*
X82937660Y-72694547D01*
X84883955Y-71570853D01*
X86903894Y-70585663D01*
X88987635Y-69743777D01*
X91125028Y-69049296D01*
X93305659Y-68505604D01*
X95518904Y-68115349D01*
X97753981Y-67880433D01*
X100000000Y-67802000D01*
X102246019Y-67880433D01*
G37*
X102246019Y-67880433D02*
X104481096Y-68115349D01*
X106694341Y-68505604D01*
X108874972Y-69049296D01*
X111012365Y-69743777D01*
X113096106Y-70585663D01*
X115116045Y-71570853D01*
X117062340Y-72694547D01*
X118925510Y-73951271D01*
X120696475Y-75334901D01*
X122366610Y-76838697D01*
X123927777Y-78455333D01*
X125372370Y-80176932D01*
X126693352Y-81995107D01*
X127884286Y-83901000D01*
X128939371Y-85885326D01*
X129853466Y-87938417D01*
X130622118Y-90050271D01*
X131241582Y-92210599D01*
X131708840Y-94408876D01*
X132021616Y-96634393D01*
X132178386Y-98876306D01*
X132178386Y-99823000D01*
X131135330Y-99823000D01*
X131107459Y-99682885D01*
X130993202Y-99407043D01*
X130827327Y-99158793D01*
X130616207Y-98947673D01*
X130367957Y-98781798D01*
X130092115Y-98667541D01*
X129799284Y-98609293D01*
X129500716Y-98609293D01*
X129207885Y-98667541D01*
X128932043Y-98781798D01*
X128683793Y-98947673D01*
X128472673Y-99158793D01*
X128306798Y-99407043D01*
X128192541Y-99682885D01*
X128164670Y-99823000D01*
X121201801Y-99823000D01*
X121201801Y-99074309D01*
X121040443Y-97229973D01*
X120718954Y-95406719D01*
X120239781Y-93618422D01*
X119606571Y-91878692D01*
X118824144Y-90200771D01*
X117898453Y-88597428D01*
X116836545Y-87080865D01*
X115646500Y-85662625D01*
X114337375Y-84353500D01*
X112919135Y-83163455D01*
X111427702Y-82119143D01*
X121938730Y-82119143D01*
X121938730Y-82480857D01*
X122009297Y-82835620D01*
X122147719Y-83169800D01*
X122348676Y-83470554D01*
X122604446Y-83726324D01*
X122905200Y-83927281D01*
X123239380Y-84065703D01*
X123594143Y-84136270D01*
X123955857Y-84136270D01*
X124310620Y-84065703D01*
X124644800Y-83927281D01*
X124945554Y-83726324D01*
X125201324Y-83470554D01*
X125402281Y-83169800D01*
X125540703Y-82835620D01*
X125611270Y-82480857D01*
X125611270Y-82119143D01*
X125540703Y-81764380D01*
X125402281Y-81430200D01*
X125201324Y-81129446D01*
X124945554Y-80873676D01*
X124644800Y-80672719D01*
X124310620Y-80534297D01*
X123955857Y-80463730D01*
X123594143Y-80463730D01*
X123239380Y-80534297D01*
X122905200Y-80672719D01*
X122604446Y-80873676D01*
X122348676Y-81129446D01*
X122147719Y-81430200D01*
X122009297Y-81764380D01*
X121938730Y-82119143D01*
X111427702Y-82119143D01*
X111402572Y-82101547D01*
X109799229Y-81175856D01*
X108121308Y-80393429D01*
X106381578Y-79760219D01*
X104593281Y-79281046D01*
X102770027Y-78959557D01*
X100925691Y-78798199D01*
X99074309Y-78798199D01*
X97229973Y-78959557D01*
X95406719Y-79281046D01*
X93618422Y-79760219D01*
X91878692Y-80393429D01*
X90200771Y-81175856D01*
X88597428Y-82101547D01*
X87080865Y-83163455D01*
X85662625Y-84353500D01*
X84353500Y-85662625D01*
X83163455Y-87080865D01*
X82101547Y-88597428D01*
X81175856Y-90200771D01*
X80393429Y-91878692D01*
X79760219Y-93618422D01*
X79281046Y-95406719D01*
X78959557Y-97229973D01*
X78798199Y-99074309D01*
X78798199Y-100246841D01*
X78172874Y-99621516D01*
X78161069Y-99607131D01*
X78103663Y-99560019D01*
X78038170Y-99525012D01*
X77967105Y-99503455D01*
X77911719Y-99498000D01*
X77911712Y-99498000D01*
X77893200Y-99496177D01*
X77874688Y-99498000D01*
X77002001Y-99498000D01*
X77002001Y-98968520D01*
X77003825Y-98950001D01*
X76996546Y-98876095D01*
X76974989Y-98805032D01*
X76974989Y-98805031D01*
X76939982Y-98739538D01*
X76892870Y-98682132D01*
X76878482Y-98670324D01*
X76877000Y-98668842D01*
X76877000Y-98396075D01*
X76900000Y-98398340D01*
X77500000Y-98398340D01*
X77554301Y-98392992D01*
X77606516Y-98377153D01*
X77654637Y-98351431D01*
X77696816Y-98316816D01*
X77731431Y-98274637D01*
X77757153Y-98226516D01*
X77772992Y-98174301D01*
X77778340Y-98120000D01*
X77778340Y-97620000D01*
X77772992Y-97565699D01*
X77757153Y-97513484D01*
X77731431Y-97465363D01*
X77696816Y-97423184D01*
X77668566Y-97400000D01*
X77696816Y-97376816D01*
X77731431Y-97334637D01*
X77757153Y-97286516D01*
X77772992Y-97234301D01*
X77778340Y-97180000D01*
X77777000Y-97172250D01*
X77707750Y-97103000D01*
X77373000Y-97103000D01*
X77373000Y-97123000D01*
X77027000Y-97123000D01*
X77027000Y-97103000D01*
X77007000Y-97103000D01*
X77007000Y-96757000D01*
X77027000Y-96757000D01*
X77027000Y-96472250D01*
X77373000Y-96472250D01*
X77373000Y-96757000D01*
X77707750Y-96757000D01*
X77777000Y-96687750D01*
X77778340Y-96680000D01*
X77772992Y-96625699D01*
X77757153Y-96573484D01*
X77731431Y-96525363D01*
X77696816Y-96483184D01*
X77654637Y-96448569D01*
X77606516Y-96422847D01*
X77554301Y-96407008D01*
X77500000Y-96401660D01*
X77442250Y-96403000D01*
X77373000Y-96472250D01*
X77027000Y-96472250D01*
X76957750Y-96403000D01*
X76900000Y-96401660D01*
X76845699Y-96407008D01*
X76793484Y-96422847D01*
X76745363Y-96448569D01*
X76703184Y-96483184D01*
X76668569Y-96525363D01*
X76665181Y-96531702D01*
X76654040Y-96528322D01*
X76600000Y-96523000D01*
X75407000Y-96523000D01*
X75407000Y-96227000D01*
X75427000Y-96227000D01*
X75427000Y-96207000D01*
X75773000Y-96207000D01*
X75773000Y-96227000D01*
X76532750Y-96227000D01*
X76602000Y-96157750D01*
X76603340Y-96100000D01*
X76597992Y-96045699D01*
X76582153Y-95993484D01*
X76556431Y-95945363D01*
X76521816Y-95903184D01*
X76479637Y-95868569D01*
X76431516Y-95842847D01*
X76379301Y-95827008D01*
X76325000Y-95821660D01*
X75842250Y-95823000D01*
X75773002Y-95892248D01*
X75773002Y-95862185D01*
X75810522Y-95829939D01*
X75906751Y-95707093D01*
X75956107Y-95569369D01*
X75921281Y-95453000D01*
X74858000Y-95453000D01*
X74858000Y-95473000D01*
X74512000Y-95473000D01*
X74512000Y-95453000D01*
X73448719Y-95453000D01*
X73413893Y-95569369D01*
X73463249Y-95707093D01*
X73559478Y-95829939D01*
X73677824Y-95931651D01*
X73813739Y-96008320D01*
X73962000Y-96057000D01*
X74600895Y-96057000D01*
X74596660Y-96100000D01*
X74598000Y-96157750D01*
X74667248Y-96226998D01*
X74598000Y-96226998D01*
X74598000Y-96301643D01*
X74538753Y-96242396D01*
X74440154Y-96176514D01*
X74330597Y-96131134D01*
X74214292Y-96108000D01*
X74095708Y-96108000D01*
X73979403Y-96131134D01*
X73869846Y-96176514D01*
X73771247Y-96242396D01*
X73687396Y-96326247D01*
X73621514Y-96424846D01*
X73580857Y-96523000D01*
X73227000Y-96523000D01*
X73227000Y-94990631D01*
X73413893Y-94990631D01*
X73448719Y-95107000D01*
X74512000Y-95107000D01*
X74512000Y-94503000D01*
X74858000Y-94503000D01*
X74858000Y-95107000D01*
X75921281Y-95107000D01*
X75956107Y-94990631D01*
X75906751Y-94852907D01*
X75810522Y-94730061D01*
X75692176Y-94628349D01*
X75556261Y-94551680D01*
X75408000Y-94503000D01*
X74858000Y-94503000D01*
X74512000Y-94503000D01*
X73962000Y-94503000D01*
X73813739Y-94551680D01*
X73677824Y-94628349D01*
X73559478Y-94730061D01*
X73463249Y-94852907D01*
X73413893Y-94990631D01*
X73227000Y-94990631D01*
X73227000Y-93957905D01*
X74709409Y-93957905D01*
X74734757Y-94052503D01*
X75823330Y-94682538D01*
X75873030Y-94705057D01*
X75926169Y-94717448D01*
X75980704Y-94719232D01*
X76034540Y-94710344D01*
X76085607Y-94691124D01*
X76131943Y-94662311D01*
X76171768Y-94625011D01*
X76203550Y-94580659D01*
X76606264Y-93880457D01*
X76580917Y-93785859D01*
X75251784Y-93018484D01*
X74709409Y-93957905D01*
X73227000Y-93957905D01*
X73227000Y-93183544D01*
X74315167Y-93810253D01*
X74409765Y-93784905D01*
X74952140Y-92845484D01*
X74732787Y-92718840D01*
X75424784Y-92718840D01*
X76753917Y-93486215D01*
X76848514Y-93460867D01*
X77253550Y-92762005D01*
X77276069Y-92712305D01*
X77288459Y-92659166D01*
X77290244Y-92604631D01*
X77283144Y-92561625D01*
X78690979Y-92561625D01*
X78716327Y-92656222D01*
X79068779Y-92861258D01*
X79118479Y-92883777D01*
X79171618Y-92896167D01*
X79226153Y-92897952D01*
X79279988Y-92889064D01*
X79331055Y-92869843D01*
X79377392Y-92841030D01*
X79417216Y-92803730D01*
X79448998Y-92759378D01*
X79526713Y-92622093D01*
X79501365Y-92527495D01*
X78908354Y-92185120D01*
X78690979Y-92561625D01*
X77283144Y-92561625D01*
X77281356Y-92550796D01*
X77262135Y-92499729D01*
X77233322Y-92453392D01*
X77196022Y-92413568D01*
X77151670Y-92381786D01*
X76468648Y-91988412D01*
X77804372Y-91988412D01*
X77813260Y-92042248D01*
X77832480Y-92093315D01*
X77861293Y-92139651D01*
X77898593Y-92179476D01*
X77942945Y-92211258D01*
X78296737Y-92413972D01*
X78391335Y-92388625D01*
X78608710Y-92012120D01*
X78015699Y-91669745D01*
X77921101Y-91695093D01*
X77841066Y-91831038D01*
X77818547Y-91880738D01*
X77806156Y-91933877D01*
X77804372Y-91988412D01*
X76468648Y-91988412D01*
X76061757Y-91754071D01*
X75967159Y-91779419D01*
X75424784Y-92718840D01*
X74732787Y-92718840D01*
X73623007Y-92078109D01*
X73528410Y-92103457D01*
X73227000Y-92623519D01*
X73227000Y-92201132D01*
X73806390Y-91621743D01*
X73770660Y-91683867D01*
X73796007Y-91778465D01*
X75125140Y-92545840D01*
X75667515Y-91606419D01*
X75642167Y-91511821D01*
X74960746Y-91117434D01*
X78255960Y-91117434D01*
X78241066Y-91138218D01*
X78163351Y-91275503D01*
X78188699Y-91370101D01*
X78781710Y-91712476D01*
X78791710Y-91695155D01*
X79091354Y-91868155D01*
X79081354Y-91885476D01*
X79674365Y-92227851D01*
X79768963Y-92202503D01*
X79848998Y-92066558D01*
X79871517Y-92016858D01*
X79883908Y-91963719D01*
X79885692Y-91909184D01*
X79876804Y-91855348D01*
X79857584Y-91804281D01*
X79828771Y-91757945D01*
X79810609Y-91738554D01*
X79883546Y-91726512D01*
X79971307Y-91693481D01*
X80050938Y-91643964D01*
X80119378Y-91579863D01*
X80173998Y-91503641D01*
X80373998Y-91157231D01*
X80412697Y-91071819D01*
X80433991Y-90980497D01*
X80437059Y-90886776D01*
X80421784Y-90794258D01*
X80388753Y-90706497D01*
X80358199Y-90657362D01*
X80416028Y-90659255D01*
X80508546Y-90643980D01*
X80596307Y-90610949D01*
X80675938Y-90561432D01*
X80744378Y-90497331D01*
X80798998Y-90421109D01*
X80998998Y-90074699D01*
X81037697Y-89989287D01*
X81058991Y-89897965D01*
X81062059Y-89804244D01*
X81046784Y-89711726D01*
X81013753Y-89623965D01*
X80983199Y-89574830D01*
X81041028Y-89576723D01*
X81133546Y-89561448D01*
X81221307Y-89528417D01*
X81300938Y-89478900D01*
X81369378Y-89414799D01*
X81423998Y-89338577D01*
X81623998Y-88992167D01*
X81662697Y-88906755D01*
X81683991Y-88815433D01*
X81687059Y-88721712D01*
X81671784Y-88629194D01*
X81638753Y-88541433D01*
X81589236Y-88461802D01*
X81525135Y-88393362D01*
X81448913Y-88338743D01*
X80669491Y-87888743D01*
X80584078Y-87850042D01*
X80492757Y-87828749D01*
X80399036Y-87825681D01*
X80306518Y-87840956D01*
X80229284Y-87870025D01*
X80211333Y-87826688D01*
X80148187Y-87732184D01*
X80067818Y-87651815D01*
X79973314Y-87588669D01*
X79868307Y-87545174D01*
X79756832Y-87523000D01*
X79643172Y-87523000D01*
X79531697Y-87545174D01*
X79426690Y-87588669D01*
X79332186Y-87651815D01*
X79251817Y-87732184D01*
X79188671Y-87826688D01*
X79145176Y-87931695D01*
X79123002Y-88043170D01*
X79123002Y-88156830D01*
X79145176Y-88268305D01*
X79188671Y-88373312D01*
X79251817Y-88467816D01*
X79332186Y-88548185D01*
X79426690Y-88611331D01*
X79531697Y-88654826D01*
X79643172Y-88677000D01*
X79743843Y-88677000D01*
X79754087Y-88687243D01*
X79768280Y-88773210D01*
X79801311Y-88860971D01*
X79831865Y-88910106D01*
X79774036Y-88908213D01*
X79681518Y-88923488D01*
X79619652Y-88946773D01*
X79611333Y-88926688D01*
X79548187Y-88832184D01*
X79467818Y-88751815D01*
X79373314Y-88688669D01*
X79268307Y-88645174D01*
X79156832Y-88623000D01*
X79043172Y-88623000D01*
X78931697Y-88645174D01*
X78826690Y-88688669D01*
X78732186Y-88751815D01*
X78651817Y-88832184D01*
X78588671Y-88926688D01*
X78545176Y-89031695D01*
X78523002Y-89143170D01*
X78523002Y-89256830D01*
X78545176Y-89368305D01*
X78588671Y-89473312D01*
X78651817Y-89567816D01*
X78732186Y-89648185D01*
X78755008Y-89663434D01*
X74045274Y-89663434D01*
X74009566Y-89659917D01*
X73867048Y-89673954D01*
X73730009Y-89715524D01*
X73603713Y-89783031D01*
X73493012Y-89873880D01*
X73470249Y-89901617D01*
X72011189Y-91360679D01*
X71983446Y-91383447D01*
X71901234Y-91483624D01*
X71892598Y-91494147D01*
X71825090Y-91620444D01*
X71783520Y-91757483D01*
X71769483Y-91900000D01*
X71773000Y-91935708D01*
X71773000Y-96642065D01*
X71769683Y-96646107D01*
X71744085Y-96693997D01*
X71728322Y-96745960D01*
X71723000Y-96800000D01*
X71723000Y-102400000D01*
X71728322Y-102454040D01*
X71744085Y-102506003D01*
X71769683Y-102553893D01*
X71773000Y-102557935D01*
X71773001Y-107898866D01*
X70811189Y-108860679D01*
X70783446Y-108883447D01*
X70692597Y-108994148D01*
X70639653Y-109093198D01*
X70625090Y-109120444D01*
X70583520Y-109257483D01*
X70569483Y-109400000D01*
X70573000Y-109435708D01*
X70573001Y-113019443D01*
X70146534Y-112061583D01*
X69377882Y-109949729D01*
X68758418Y-107789401D01*
X68291160Y-105591124D01*
X68096968Y-104209369D01*
X69483893Y-104209369D01*
X69539825Y-104366495D01*
X69639713Y-104487685D01*
X69761325Y-104587059D01*
X69899987Y-104660798D01*
X70050370Y-104706069D01*
X70206696Y-104721132D01*
X70332000Y-104641753D01*
X70332000Y-104093000D01*
X70678000Y-104093000D01*
X70678000Y-104641753D01*
X70803304Y-104721132D01*
X70959630Y-104706069D01*
X71110013Y-104660798D01*
X71248675Y-104587059D01*
X71370287Y-104487685D01*
X71470175Y-104366495D01*
X71526107Y-104209369D01*
X71491281Y-104093000D01*
X70678000Y-104093000D01*
X70332000Y-104093000D01*
X69518719Y-104093000D01*
X69483893Y-104209369D01*
X68096968Y-104209369D01*
X68015632Y-103630631D01*
X69483893Y-103630631D01*
X69518719Y-103747000D01*
X70332000Y-103747000D01*
X70332000Y-103198247D01*
X70678000Y-103198247D01*
X70678000Y-103747000D01*
X71491281Y-103747000D01*
X71526107Y-103630631D01*
X71470175Y-103473505D01*
X71370287Y-103352315D01*
X71248675Y-103252941D01*
X71110013Y-103179202D01*
X70959630Y-103133931D01*
X70803304Y-103118868D01*
X70678000Y-103198247D01*
X70332000Y-103198247D01*
X70206696Y-103118868D01*
X70050370Y-103133931D01*
X69899987Y-103179202D01*
X69761325Y-103252941D01*
X69639713Y-103352315D01*
X69539825Y-103473505D01*
X69483893Y-103630631D01*
X68015632Y-103630631D01*
X67978384Y-103365607D01*
X67821614Y-101123694D01*
X67821614Y-98876306D01*
X67978384Y-96634393D01*
X68128063Y-95569369D01*
X69483893Y-95569369D01*
X69539825Y-95726495D01*
X69639713Y-95847685D01*
X69761325Y-95947059D01*
X69899987Y-96020798D01*
X70050370Y-96066069D01*
X70206696Y-96081132D01*
X70332000Y-96001753D01*
X70332000Y-95453000D01*
X70678000Y-95453000D01*
X70678000Y-96001753D01*
X70803304Y-96081132D01*
X70959630Y-96066069D01*
X71110013Y-96020798D01*
X71248675Y-95947059D01*
X71370287Y-95847685D01*
X71470175Y-95726495D01*
X71526107Y-95569369D01*
X71491281Y-95453000D01*
X70678000Y-95453000D01*
X70332000Y-95453000D01*
X69518719Y-95453000D01*
X69483893Y-95569369D01*
X68128063Y-95569369D01*
X68209399Y-94990631D01*
X69483893Y-94990631D01*
X69518719Y-95107000D01*
X70332000Y-95107000D01*
X70332000Y-94558247D01*
X70678000Y-94558247D01*
X70678000Y-95107000D01*
X71491281Y-95107000D01*
X71526107Y-94990631D01*
X71470175Y-94833505D01*
X71370287Y-94712315D01*
X71248675Y-94612941D01*
X71110013Y-94539202D01*
X70959630Y-94493931D01*
X70803304Y-94478868D01*
X70678000Y-94558247D01*
X70332000Y-94558247D01*
X70206696Y-94478868D01*
X70050370Y-94493931D01*
X69899987Y-94539202D01*
X69761325Y-94612941D01*
X69639713Y-94712315D01*
X69539825Y-94833505D01*
X69483893Y-94990631D01*
X68209399Y-94990631D01*
X68291160Y-94408876D01*
X68758418Y-92210599D01*
X69377882Y-90050271D01*
X70146534Y-87938417D01*
X70878862Y-86293581D01*
X79134409Y-86293581D01*
X79159757Y-86388179D01*
X80248330Y-87018214D01*
X80298030Y-87040733D01*
X80351169Y-87053124D01*
X80405704Y-87054908D01*
X80459540Y-87046020D01*
X80510607Y-87026800D01*
X80556943Y-86997987D01*
X80596768Y-86960687D01*
X80628550Y-86916335D01*
X81031264Y-86216133D01*
X81005917Y-86121535D01*
X79676784Y-85354160D01*
X79134409Y-86293581D01*
X70878862Y-86293581D01*
X71060629Y-85885326D01*
X71374314Y-85295369D01*
X77511680Y-85295369D01*
X77520568Y-85349204D01*
X77539789Y-85400271D01*
X77568602Y-85446608D01*
X77605902Y-85486432D01*
X77650254Y-85518214D01*
X78740167Y-86145929D01*
X78834765Y-86120581D01*
X79377140Y-85181160D01*
X79157787Y-85054516D01*
X79849784Y-85054516D01*
X81178917Y-85821891D01*
X81273514Y-85796543D01*
X81678550Y-85097681D01*
X81701069Y-85047981D01*
X81713459Y-84994842D01*
X81715244Y-84940307D01*
X81706356Y-84886472D01*
X81687135Y-84835405D01*
X81658322Y-84789068D01*
X81621022Y-84749244D01*
X81576670Y-84717462D01*
X80486757Y-84089747D01*
X80392159Y-84115095D01*
X79849784Y-85054516D01*
X79157787Y-85054516D01*
X78048007Y-84413785D01*
X77953410Y-84439133D01*
X77548374Y-85137995D01*
X77525855Y-85187695D01*
X77513465Y-85240834D01*
X77511680Y-85295369D01*
X71374314Y-85295369D01*
X72052683Y-84019543D01*
X78195660Y-84019543D01*
X78221007Y-84114141D01*
X79550140Y-84881516D01*
X80092515Y-83942095D01*
X80067167Y-83847497D01*
X78978594Y-83217462D01*
X78928894Y-83194943D01*
X78875755Y-83182552D01*
X78821220Y-83180768D01*
X78767384Y-83189656D01*
X78716317Y-83208876D01*
X78669981Y-83237689D01*
X78630156Y-83274989D01*
X78598374Y-83319341D01*
X78195660Y-84019543D01*
X72052683Y-84019543D01*
X72115714Y-83901000D01*
X73306648Y-81995107D01*
X73343675Y-81944143D01*
X74638730Y-81944143D01*
X74638730Y-82305857D01*
X74709297Y-82660620D01*
X74847719Y-82994800D01*
X75048676Y-83295554D01*
X75304446Y-83551324D01*
X75605200Y-83752281D01*
X75939380Y-83890703D01*
X76294143Y-83961270D01*
X76655857Y-83961270D01*
X77010620Y-83890703D01*
X77344800Y-83752281D01*
X77645554Y-83551324D01*
X77901324Y-83295554D01*
X78102281Y-82994800D01*
X78240703Y-82660620D01*
X78311270Y-82305857D01*
X78311270Y-81944143D01*
X78240703Y-81589380D01*
X78102281Y-81255200D01*
X77901324Y-80954446D01*
X77645554Y-80698676D01*
X77344800Y-80497719D01*
X77010620Y-80359297D01*
X76655857Y-80288730D01*
X76294143Y-80288730D01*
X75939380Y-80359297D01*
X75605200Y-80497719D01*
X75304446Y-80698676D01*
X75048676Y-80954446D01*
X74847719Y-81255200D01*
X74709297Y-81589380D01*
X74638730Y-81944143D01*
X73343675Y-81944143D01*
X74627630Y-80176932D01*
X76072223Y-78455333D01*
X77633390Y-76838697D01*
X79303525Y-75334901D01*
X81074490Y-73951271D01*
X82937660Y-72694547D01*
X84883955Y-71570853D01*
X86903894Y-70585663D01*
X88987635Y-69743777D01*
X91125028Y-69049296D01*
X93305659Y-68505604D01*
X95518904Y-68115349D01*
X97753981Y-67880433D01*
X100000000Y-67802000D01*
X102246019Y-67880433D01*
M02*
