M48
; DRILL file {KiCad 5.1.5+dfsg1-2build2} date Thu 20 Aug 2020 08:04:01 PM CEST
; FORMAT={-:-/ absolute / inch / decimal}
; #@! TF.CreationDate,2020-08-20T20:04:01+02:00
; #@! TF.GenerationSoftware,Kicad,Pcbnew,5.1.5+dfsg1-2build2
; #@! TF.FileFunction,Plated,1,2,PTH
FMAT,2
INCH
T1C0.0118
T2C0.0157
T3C0.0236
T4C0.0602
%
G90
G05
T1
X2.7559Y-4.311
X2.8051Y-4.2421
X2.8543Y-4.3307
X2.8543Y-4.3701
X2.8543Y-4.4094
X2.9331Y-4.5866
X2.9823Y-4.3406
X2.9823Y-4.4882
X3.0118Y-4.5177
X3.0413Y-4.7244
X3.061Y-3.8976
X3.061Y-4.5768
X3.0709Y-4.3602
X3.0906Y-4.2717
X3.0906Y-4.6161
X3.1063Y-4.5039
X3.1496Y-4.5866
X3.1496Y-4.685
X3.189Y-4.4016
X3.189Y-4.6358
X3.1988Y-4.5571
X3.1988Y-4.8917
X3.2244Y-4.5354
X3.2677Y-4.8917
X3.311Y-4.6181
X3.3366Y-4.7933
X3.3366Y-4.9803
X3.3858Y-4.6949
X3.3957Y-4.8917
X3.435Y-4.7933
X3.4449Y-4.9311
X3.4449Y-5.0394
X3.4843Y-4.9902
X3.4941Y-4.7736
X3.5197Y-4.9685
X3.5276Y-4.937
X3.5354Y-4.9016
X3.5433Y-4.8228
X3.5433Y-4.8622
X3.5433Y-5.0689
X3.622Y-4.9902
X3.6516Y-5.0689
X3.7106Y-5.1575
X3.7402Y-4.9902
X3.7402Y-5.0689
X3.7756Y-5.0157
X3.7756Y-5.0512
X3.8189Y-5.1476
X3.8465Y-5.1181
X3.8681Y-5.0886
X3.8701Y-5.1417
X3.9213Y-5.0472
X3.9272Y-5.0984
X3.937Y-5.1476
X3.9764Y-5.0
X4.0059Y-5.1476
X4.063Y-5.0236
X4.1339Y-5.1181
X4.1969Y-5.0039
X4.2126Y-5.0492
X4.311Y-5.0886
X4.3602Y-4.9508
X4.3701Y-4.7638
X4.442Y-4.7372
X4.4488Y-5.0295
X4.4587Y-4.813
X4.498Y-4.7736
X4.5079Y-4.685
X4.5374Y-4.7244
X4.5374Y-4.8622
X4.5374Y-4.9803
X4.626Y-4.6555
X4.626Y-4.7736
X4.626Y-4.9508
T2
X3.063Y-4.1535
X3.1172Y-4.2096
T4
X4.0118Y-4.811
X4.1841Y-4.7795
X4.0994Y-4.7982
X3.9252Y-4.8159
X3.6181Y-4.7579
X3.7864Y-4.8031
X3.7008Y-4.7835
X4.2687Y-4.75
T3
X2.764Y-3.7512G85X2.7876Y-3.7512
G05
X2.764Y-4.0913G85X2.7876Y-4.0913
G05
X2.9187Y-3.7512G85X2.962Y-3.7512
G05
X2.9187Y-4.0913G85X2.962Y-4.0913
G05
T0
M30
